<?xml version="1.0" standalone="no"?>
<!DOCTYPE svg PUBLIC "-//W3C//DTD SVG 1.1//EN" "http://www.w3.org/Graphics/SVG/1.1/DTD/svg11.dtd" >
<svg xmlns="http://www.w3.org/2000/svg" xmlns:xlink="http://www.w3.org/1999/xlink" version="1.1">
<metadata></metadata>
<defs>
<font id="klimabold_italic" horiz-adv-x="1372" >
<font-face units-per-em="2048" ascent="1565" descent="-483" />
<missing-glyph horiz-adv-x="376" />
<glyph unicode="&#x3c;&#x2d;&#x33;&#x35;&#x30;" horiz-adv-x="3712" d="M2921 -44q-102 0 -195.5 39.5t-162 106.5t-109.5 159.5t-41 193.5v562q0 100 41 192t109.5 157.5t162 104.5t195.5 39t196 -39t163 -104.5t110.5 -157.5t41.5 -192v-562q0 -100 -41.5 -193t-110.5 -160t-163 -106.5t-196 -39.5zM2921 266q68 0 115.5 46t47.5 110v609 q0 64 -48 111.5t-115 47.5t-114.5 -47.5t-47.5 -111.5v-609q0 -41 21.5 -77t59 -57.5t81.5 -21.5zM112 399q-21 0 -36 14l-253 332q-6 6 -6 21t6 21l253 328q6 11 21 17t25.5 1t17.5 -16t7 -22v-201h187q10 0 18 -13t8 -29v-177q0 -22 -11 -35.5t-33 -13.5h-169v-191 q0 -11 -7 -21.5t-17 -14.5h-11zM511 12q-83 40 -167 127q-55 66 -112 159q-12 20 6 38q182 127 207 135q28 15 44 6q6 -9 21 -25.5t31 -35t24 -30.5q43 -44 85.5 -68.5t92.5 -19.5q50 6 89.5 39t45.5 83q6 55 -17.5 102t-69.5 62q-16 7 -33.5 10.5t-47 6.5t-37.5 5 q-85 10 -93 60q-9 71 6 171v5q0 10 0.5 15t3.5 12.5t10 11.5t20 7.5t32 5.5q116 20 160 48q36 27 48.5 76.5t-4.5 86.5q-15 43 -53 66t-90 23q-27 0 -60 -10t-58 -30q-36 -27 -86 -95q-30 -21 -56 -6q-18 14 -90.5 77t-82.5 70q-7 7 -9.5 18t3.5 18q5 10 17.5 28.5t34 47 t46.5 55.5t58 55t65 46q88 43 216 44.5t229 -44.5q66 -31 118.5 -80.5t87 -111.5t48.5 -133q16 -103 -13.5 -205t-102.5 -179q63 -60 98 -137t39.5 -156.5t-19.5 -160.5t-76 -148q-52 -66 -126 -110.5t-154.5 -63.5t-166.5 -12t-162 41zM1896 -28q-79 -13 -157 -8.5 t-153.5 30.5t-134.5 71q-97 65 -162 131q-23 31 6 59q35 36 148 165q17 17 25 22.5t17 4t23 -11.5q29 -29 84 -70q55 -40 124.5 -57t116.5 -10q38 10 65.5 25.5t43 35.5t24 37t15.5 39q6 37 6 74.5t-14 76t-41 62.5q-37 37 -91 51t-110 3q-35 -10 -65 -35t-82 -83 q-8 -8 -15 -11.5t-14 -3.5t-12 2t-14 5.5t-15 5.5q-8 3 -81.5 35t-101.5 43q-12 12 -16.5 19t-4.5 17q4 14 55.5 340t65.5 417q0 3 1.5 10.5t2.5 9.5t3 8t3.5 8t5 6t8 5t10.5 2.5t14 1.5h691q32 0 32 -29v-247q-12 -28 -32 -28h-459q-3 -18 -20 -132t-20 -132q30 21 72.5 33 t92.5 12.5t103 -9t105.5 -32.5t99.5 -55.5t86 -81t63 -107.5q17 -43 25 -84t9.5 -65.5t1.5 -69.5q0 -186 -99 -310q-60 -76 -148 -128t-186 -67z" />
<glyph horiz-adv-x="0" />
<glyph unicode="&#xd;" horiz-adv-x="442" />
<glyph unicode=" "  horiz-adv-x="376" />
<glyph unicode="&#x09;" horiz-adv-x="376" />
<glyph unicode="&#xa0;" horiz-adv-x="376" />
<glyph unicode="!" horiz-adv-x="588" d="M211 405l40 555l129 538h337l-127 -538l-230 -555h-149zM217 -19q-67 0 -112.5 46t-36.5 118q5 37 20 67.5t38 51t53 31.5t64 11q66 0 113 -44.5t38 -116.5q-6 -50 -29.5 -87t-61.5 -57t-86 -20z" />
<glyph unicode="&#x22;" horiz-adv-x="938" d="M334 1021q-1 11 -2.5 31t-4 73t-3.5 96.5t0 87.5t5 62q18 71 69.5 116t126.5 45q63 0 99.5 -47.5t21.5 -113.5q-13 -57 -81.5 -188t-89.5 -162h-141zM757 1021q-1 11 -2 31t-3.5 73t-3.5 96.5t0 87.5t5 62q19 71 70 116t127 45q62 0 98 -47.5t21 -113.5 q-13 -57 -81.5 -188t-89.5 -162h-141z" />
<glyph unicode="#" horiz-adv-x="1315" d="M599 757h234l47 195h-234zM249 280l71 288h-177l51 189h173l51 195h-184l53 191h180l64 258h230l-63 -258h232l68 258h226l-64 -258h211l-46 -191h-214l-48 -195h217l-44 -189h-219l-77 -288h-229l72 288h-235l-69 -288h-230z" />
<glyph unicode="$" horiz-adv-x="1276" d="M644 -240h-262l53 219q-130 20 -243.5 91.5t-181.5 176.5l226 188q51 -80 139 -128.5t201 -48.5q128 0 206.5 47.5t95.5 125.5q13 60 2.5 102t-62.5 65t-152 26q-97 3 -179.5 38t-139 93t-80 142.5t-3.5 180.5q19 95 57 168.5t99.5 131t152.5 92.5t210 47l48 196h262 l-51 -205q103 -23 186 -75.5t129 -124.5l-239 -179q-35 52 -109.5 85.5t-166.5 33.5q-119 0 -191.5 -40t-91.5 -119q-14 -55 5.5 -91.5t75.5 -57t151 -24.5q103 -5 187.5 -38t144 -94.5t79.5 -151.5t-6 -208q-48 -198 -166.5 -305t-333.5 -135z" />
<glyph unicode="%" horiz-adv-x="1890" d="M576 781q-56 0 -111.5 19t-101.5 54t-82 81t-56 103.5t-20 117.5q0 98 53 184.5t138.5 136.5t179.5 50q95 0 182 -49.5t141.5 -136.5t54.5 -185.5t-54.5 -186t-142 -138t-181.5 -50.5zM131 0l1423 1498h346l-1423 -1498h-346zM578 1004q61 0 106.5 44t45.5 108t-45.5 108 t-106.5 44q-41 0 -75 -20t-54.5 -55t-20.5 -77q0 -32 12 -60.5t32 -48.5t47.5 -31.5t58.5 -11.5zM1460 -26q-94 0 -179.5 50.5t-138.5 137.5t-53 186q0 100 53 186.5t138.5 136.5t179.5 50q70 0 138.5 -30t121 -79.5t84 -119t31.5 -144.5q0 -99 -53.5 -186t-140.5 -137.5 t-181 -50.5zM1462 199q61 0 105.5 43.5t44.5 105.5q0 65 -44.5 108.5t-105.5 43.5q-63 0 -106.5 -43.5t-43.5 -108.5q0 -63 43.5 -106t106.5 -43z" />
<glyph unicode="&#x26;" horiz-adv-x="1413" d="M677 956q95 30 154.5 78t73.5 105q15 67 -10.5 109t-89.5 41q-37 0 -71.5 -17.5t-60.5 -50.5t-36 -76q-24 -102 40 -189zM334 459q-24 -88 25 -151t134 -63q66 0 136 28t110 69q-203 324 -205 324q-78 -30 -130 -84.5t-70 -122.5zM948 0l-83 131q-30 -26 -54.5 -44 t-62.5 -39t-78 -33.5t-96.5 -21.5t-122.5 -9q-93 0 -176.5 41t-138.5 106.5t-78.5 154t-2.5 176.5q17 75 51 136.5t84.5 110t106.5 86t131 74.5q-1 3 -10.5 22.5t-13 27.5t-12 30t-11.5 36t-7.5 37.5t-4.5 44t2.5 46t8.5 51.5q17 72 54.5 134t95 112.5t141.5 79.5t185 29 q76 0 144 -32t112 -83.5t63 -120t2 -138.5q-16 -65 -55.5 -124t-94.5 -104.5t-114 -80.5t-126 -64l169 -268l137 138h318l-338 -334l181 -308h-306z" />
<glyph unicode="'" horiz-adv-x="513" d="M334 1021q-1 11 -2.5 31t-4 73t-3.5 96.5t0 87.5t5 62q18 71 69.5 116t126.5 45q63 0 99.5 -47.5t21.5 -113.5q-13 -57 -81.5 -188t-89.5 -162h-141z" />
<glyph unicode="(" horiz-adv-x="733" d="M278 -272q-93 192 -125 424t8 468q29 193 95.5 382.5t179 374.5t256.5 326l206 -169q-124 -124 -219 -270t-155 -302.5t-85 -319.5q-22 -136 -22.5 -271.5t27 -270.5t79.5 -239z" />
<glyph unicode=")" horiz-adv-x="731" d="M616 1689q93 -192 125.5 -423.5t-7.5 -468.5q-29 -193 -95.5 -382.5t-179 -374t-256.5 -324.5l-207 168q186 184 303.5 415t155.5 478q22 135 22.5 270.5t-27 270t-79.5 238.5z" />
<glyph unicode="*" horiz-adv-x="799" d="M413 909l-133 110l155 152l-161 46l68 164l177 -52l29 183h180l-42 -183l181 50l33 -162l-202 -50l91 -173l-171 -87l-72 152z" />
<glyph unicode="+" horiz-adv-x="1315" d="M455 187l89 376h-373l67 285h376l88 374h285l-89 -374h376l-70 -285h-373l-90 -376h-286z" />
<glyph unicode="," horiz-adv-x="509" d="M-63 -211l87 350q17 68 64 114.5t121 46.5q66 0 107.5 -46t27.5 -111q-10 -56 -60 -117q-17 -19 -67 -78t-91 -109l-42 -50h-147z" />
<glyph unicode="-" horiz-adv-x="902" d="M137 525l68 274h668l-68 -274h-668z" />
<glyph unicode="." horiz-adv-x="503" d="M169 -19q-67 0 -113 46t-37 118q6 50 30.5 86.5t61.5 55.5t83 19q66 0 113.5 -44.5t38.5 -116.5q-9 -75 -56.5 -119.5t-120.5 -44.5z" />
<glyph unicode="/" horiz-adv-x="963" d="M-68 0l933 1496h314l-934 -1496h-313z" />
<glyph unicode="0" horiz-adv-x="1292" d="M531 -19q-101 0 -188 43t-147.5 124.5t-79 201t16.5 272.5l61 254q74 306 253 474.5t453 168.5q101 0 190 -44.5t149.5 -127.5t81.5 -201t-13 -264l-62 -260q-75 -311 -253.5 -476t-461.5 -165zM608 268q121 0 207 88.5t131 269.5l58 245q21 92 18 159.5t-27 112.5 t-64 67t-94 22q-129 0 -212 -88t-128 -271l-60 -249q-29 -121 -13.5 -200t62.5 -117.5t122 -38.5z" />
<glyph unicode="1" horiz-adv-x="757" d="M211 0l284 1192l-259 -38l55 225l335 119h252l-359 -1498h-308z" />
<glyph unicode="2" horiz-adv-x="1195" d="M-10 0q13 55 26 99.5t34.5 101.5t46.5 105.5t62 104t81 104t103.5 99.5t129.5 97q69 46 149 93.5t128.5 74.5t94 58t70 61.5t33.5 68.5q18 71 -29 123t-134 50q-32 0 -64 -9t-58.5 -25t-50.5 -36.5t-42 -43.5t-30.5 -46.5t-18.5 -45.5q0 -1 -15.5 2t-39.5 8t-53.5 11.5 t-58.5 13t-53 12t-39 8.5l-15 4q29 83 82 157.5t127.5 135.5t176 97t215.5 36q98 0 184 -37.5t140.5 -98.5t78.5 -141t7 -162q-13 -54 -32.5 -100.5t-40 -81.5t-56 -70t-61 -56.5t-75.5 -52t-80 -46.5t-92 -49l-6 -3t-5.5 -3t-6.5 -3.5t-6 -2.5q-69 -35 -127.5 -72.5 t-112 -80.5t-90.5 -90.5t-52 -94.5h668l-71 -274h-1022z" />
<glyph unicode="3" horiz-adv-x="1210" d="M483 -21q-49 1 -103 17.5t-107.5 48.5t-97.5 75t-74.5 102t-37.5 124l28 8t68 20t80.5 24.5t68.5 21.5l28 8q8 -72 64.5 -120t152.5 -48q107 0 176 53t92 146q6 26 6 47.5t-5.5 39t-15 32t-24.5 25.5t-32 19t-38.5 14t-44.5 9t-49 5q-6 2 -61 2l59 248q53 0 66 3 q45 3 84.5 15t71.5 33t55 53.5t33 73.5q19 78 -28 123t-131 45q-54 0 -97.5 -12.5t-75 -37t-52.5 -49.5t-42 -60l-240 75q22 52 55.5 100.5t85 96t113 82.5t145.5 56.5t178 21.5q86 0 166 -32.5t136 -87t81.5 -132t7.5 -160.5q-13 -59 -40 -111t-57.5 -86.5t-64.5 -60.5 t-61 -38.5t-47 -15.5q20 -2 45.5 -15.5t55 -42t48.5 -72t25.5 -105t-12.5 -140.5q-17 -74 -49 -137.5t-85 -120.5t-123 -97t-167 -63t-213 -23z" />
<glyph unicode="4" horiz-adv-x="1240" d="M628 0l66 278h-656l67 281l800 939h384l-224 -937h159l-68 -283h-156l-68 -278h-304zM392 563h373l138 576z" />
<glyph unicode="5" horiz-adv-x="1214" d="M502 -26q-79 0 -151.5 25t-125.5 65.5t-94 90.5t-63 101t-26 96l296 83q6 -31 21.5 -61t41.5 -56t66 -42t88 -16q110 0 186.5 63t104.5 172q26 107 -26 172t-149 65q-89 0 -150 -38.5t-90 -98.5l-274 51l254 852h875l-60 -260h-627l-102 -333q2 4 12.5 13.5t34 24.5 t54.5 27.5t79.5 22t103.5 9.5q82 0 157 -31.5t133.5 -94.5t79 -158.5t-7.5 -224.5q-40 -168 -126 -283.5t-216 -175.5t-299 -60z" />
<glyph unicode="6" horiz-adv-x="1231" d="M495 -24q-67 0 -134 25t-123 70.5t-95.5 110.5t-52.5 145.5t5 174.5q14 65 35 122t50 107t55 88t65 86q34 44 96.5 120.5t127 155.5t124 152t97.5 119l38 46h354l-473 -562q41 51 178 51q75 0 143.5 -31.5t120 -93t70 -151.5t-6.5 -207q-59 -260 -228.5 -394t-445.5 -134 zM572 258q113 1 183 66t97 176q25 110 -19.5 177.5t-142.5 67.5q-111 0 -180.5 -63t-98.5 -180q-26 -109 18.5 -178.5t142.5 -65.5z" />
<glyph unicode="7" horiz-adv-x="1109" d="M61 0l842 1226h-654l63 272h998l-56 -234l-855 -1264h-338z" />
<glyph unicode="8" horiz-adv-x="1271" d="M531 -21q-112 0 -205 34.5t-152.5 93t-83 140.5t-1.5 173q19 82 52 146t75 106t81.5 68t86.5 47q-60 40 -87 120.5t1 191.5q23 92 72 168t122 133t175.5 88t224.5 31q98 0 180.5 -32.5t136 -88.5t74.5 -135t1 -166q-28 -120 -102 -204.5t-159 -120.5q23 -8 44 -20 t44.5 -31.5t40 -47.5t27.5 -63t10.5 -84t-14.5 -106q-19 -77 -49.5 -140t-82 -120.5t-120.5 -96t-168.5 -61.5t-223.5 -23zM741 886q92 12 159 71t87 142q18 72 -26.5 124.5t-127.5 52.5q-65 0 -116 -25t-81 -65.5t-44 -92.5q-19 -78 21.5 -135t127.5 -72zM592 240 q57 0 105 16t81 43t54 61t29 73q11 48 -1 88t-42 67.5t-70 45t-90 26.5q-217 -59 -251 -229q-11 -51 5 -93.5t62.5 -70t117.5 -27.5z" />
<glyph unicode="9" horiz-adv-x="1222" d="M190 0l478 553q-27 -34 -109 -34q-78 0 -147.5 35.5t-118 100t-68 155t4.5 200.5q53 242 218.5 375.5t427.5 133.5q84 0 166 -34.5t146 -101t90 -162t-2 -217.5q-49 -201 -227 -416l-507 -588h-352zM692 775q98 0 170.5 63.5t97.5 173.5q28 111 -9.5 174.5t-147.5 63.5 q-104 -1 -174 -63t-98 -172q-27 -112 14.5 -176t146.5 -64z" />
<glyph unicode=":" horiz-adv-x="575" d="M284 314q-67 0 -112.5 46t-36.5 119q1 5 2 14t2 14l2 12q9 74 57.5 117t117.5 43q67 0 114 -44t39 -116q-6 -29 -7 -30v-10q-9 -76 -57 -120.5t-121 -44.5z" />
<glyph unicode=";" horiz-adv-x="573" d="M369 675q-67 0 -112.5 46t-37.5 118q6 50 30.5 86.5t62 55.5t82.5 19q67 0 114 -44.5t38 -116.5q-9 -75 -57 -119.5t-120 -44.5zM-21 -211l86 350q17 68 65 114.5t121 46.5q67 0 108 -46t27 -111q-10 -56 -59 -117q-11 -12 -35.5 -41t-52 -61.5t-53.5 -63.5t-42 -51 l-17 -20h-148z" />
<glyph unicode="&#x3c;" horiz-adv-x="1039" d="M821 26l-720 447l50 213l936 453l-75 -316l-569 -260l449 -251z" />
<glyph unicode="=" horiz-adv-x="1423" d="M260 835l60 250h1093l-59 -250h-1094zM131 300l61 251h1092l-60 -251h-1093z" />
<glyph unicode="&#x3e;" horiz-adv-x="1035" d="M502 1129l720 -447l-51 -213l-935 -455l74 318l570 258l-449 252z" />
<glyph unicode="?" horiz-adv-x="1107" d="M340 409q55 280 328 450q47 28 78 48.5t63 47.5t51 55.5t26 60.5q17 82 -32 130.5t-139 48.5q-189 0 -256 -181l-248 70q63 175 203 275t349 100q65 0 129.5 -21t119.5 -60.5t95 -91t58.5 -116.5t7.5 -132q-5 -34 -16 -66.5t-23.5 -59t-32.5 -53.5t-36 -46.5t-42.5 -43 t-44 -37.5t-47.5 -34.5t-45.5 -31t-46.5 -30t-44 -27.5q-87 -54 -136 -122t-57 -133h-262zM426 -26q-36 0 -66 11.5t-51.5 32.5t-33 52t-11.5 69q0 75 44.5 118t117.5 43t118.5 -43.5t45.5 -117.5q0 -50 -21 -88t-58 -57.5t-85 -19.5z" />
<glyph unicode="@" horiz-adv-x="1934" d="M842 -179q-123 0 -237 39t-204 111.5t-152 174.5t-79.5 227.5t13.5 272.5q34 144 100 272t161.5 232.5t214.5 180t265 117.5t306 43q118 2 228.5 -37t197 -111.5t144.5 -175.5t72 -229.5t-20 -273.5q-32 -131 -82.5 -233.5t-115 -171.5t-142 -105t-164.5 -36 q-54 0 -106 25t-89 74t-42 112q-11 -28 -72.5 -56t-126.5 -28q-70 0 -125 20.5t-89.5 58t-54.5 89t-19.5 112t16.5 127.5q20 83 61.5 153.5t99 122.5t133 81.5t159.5 28.5q69 0 117.5 -41t39.5 -81l58 88l129 -8l-119 -401q-17 -62 -24 -108t-3.5 -85t24 -59.5t58.5 -20.5 q34 1 66.5 18.5t66 55t64.5 106t54 162.5q36 144 20.5 257.5t-73.5 192t-158 119.5t-234 41q-132 0 -258.5 -48.5t-226.5 -132.5t-173 -200t-103 -247q-20 -82 -17 -159.5t21 -145.5t59 -124.5t97.5 -97t136 -63t175.5 -22.5q44 0 83.5 4.5t57.5 9.5l18 5q0 -13 0.5 -32 t2 -70.5t1.5 -70.5v-31q-61 -28 -211 -28zM956 431q40 1 75 22t65 68.5t49 118.5q55 213 -82 216q-45 1 -87 -25t-74.5 -75t-49.5 -112q-19 -70 -10.5 -117.5t38.5 -71.5t76 -24z" />
<glyph unicode="A" horiz-adv-x="1397" d="M525 511h391l-57 578zM-82 0l867 1498h306l179 -1498h-302l-30 255h-544l-154 -255h-322z" />
<glyph unicode="B" horiz-adv-x="1320" d="M21 0l359 1498h527q90 0 166 -21t130 -59t90 -91t44.5 -117.5t-6.5 -138.5q-26 -103 -97 -181t-151 -107q88 -25 139 -124.5t26 -219.5q-94 -439 -620 -439h-607zM527 884h238q103 0 170.5 44.5t89.5 134.5q20 85 -35 133t-157 48h-217zM378 262h297q111 0 179 44.5 t94 150.5q7 37 3.5 65.5t-20 50t-39 36.5t-53 24.5t-61 14t-63.5 4.5h-242z" />
<glyph unicode="C" horiz-adv-x="1368" d="M597 -24q-76 0 -152 25t-146.5 76t-115.5 130.5t-60 188.5t20 250l47 196q163 679 766 679q103 0 194 -38.5t156 -106t97.5 -167.5t19.5 -215h-294q8 120 -50 185t-172 65q-315 0 -412 -390l-50 -220q-32 -129 -10 -213.5t80.5 -126t148.5 -41.5q77 0 136 20t99.5 58 t67 81.5t48.5 102.5h297q-30 -91 -67 -164.5t-83.5 -134.5t-103 -105t-126 -74.5t-153 -45.5t-182.5 -15z" />
<glyph unicode="D" horiz-adv-x="1347" d="M21 0l359 1498h536q103 0 197 -46.5t161.5 -132t92.5 -206.5t-10 -269l-47 -198q-154 -646 -755 -646h-534zM386 274h234q83 0 150.5 28.5t114 81t77.5 117t50 145.5l47 198q21 80 14 149.5t-34 120.5t-77 80.5t-114 29.5h-234z" />
<glyph unicode="E" horiz-adv-x="1216" d="M21 0l359 1498h981l-63 -268h-684l-80 -342h535l-63 -268h-537l-85 -352h691l-63 -268h-991z" />
<glyph unicode="F" horiz-adv-x="1180" d="M16 0l360 1496h978l-68 -272h-676l-87 -365h532l-65 -273h-533l-141 -586h-300z" />
<glyph unicode="G" d="M592 -24q-75 0 -151 25t-146.5 76.5t-116 131t-60.5 188.5t19 249l46 200q40 162 103.5 285t155 211t216.5 133.5t280 45.5q98 0 189 -38.5t158 -105t102.5 -164t23.5 -207.5h-302q2 46 -8.5 86t-35 75.5t-70.5 56t-109 20.5q-159 0 -259.5 -103t-143.5 -285l-55 -224 q-41 -178 14.5 -279.5t199.5 -101.5q142 0 240 88.5t139 252.5h-278l54 237h582l-48 -199q-41 -174 -106.5 -298.5t-158.5 -203t-209.5 -115.5t-264.5 -37z" />
<glyph unicode="H" horiz-adv-x="1364" d="M16 0l360 1498h297l-146 -612h526l145 612h296l-359 -1498h-296l148 618h-522l-151 -618h-298z" />
<glyph unicode="I" horiz-adv-x="545" d="M16 0l360 1498h301l-361 -1498h-300z" />
<glyph unicode="J" horiz-adv-x="1123" d="M-50 187l225 182q21 -35 57 -60.5t78.5 -38t86.5 -12.5q134 0 218.5 82t127.5 255l215 903h296l-214 -896q-32 -137 -78 -240t-105.5 -176t-136.5 -118.5t-168 -67t-204 -21.5q-109 0 -225 59.5t-173 148.5z" />
<glyph unicode="K" horiz-adv-x="1359" d="M16 0l360 1498h295l-144 -606l661 606h390l-696 -644l368 -854h-350l-278 640l-200 -187l-110 -453h-296z" />
<glyph unicode="L" horiz-adv-x="1157" d="M16 0l360 1498h297l-293 -1224h675l-65 -274h-974z" />
<glyph unicode="M" horiz-adv-x="1678" d="M16 0l360 1498h314l188 -861l577 861h353l-359 -1498h-295l217 905l-491 -748h-205l-150 721l-211 -878h-298z" />
<glyph unicode="N" horiz-adv-x="1448" d="M16 0l360 1498h306l371 -971l231 971h296l-358 -1498h-322l-360 948l-228 -948h-296z" />
<glyph unicode="O" d="M597 -21q-105 0 -202.5 44.5t-169.5 129.5t-98 209.5t10 285.5l46 200q81 333 259.5 503t475.5 170q109 0 208 -45.5t170.5 -132t97 -211.5t-10.5 -284l-48 -200q-39 -164 -98.5 -284.5t-148 -208t-211 -132t-280.5 -44.5zM650 255q286 0 379 382l51 217 q45 186 -14.5 288t-194.5 102q-284 0 -380 -390l-50 -217q-27 -120 -12.5 -205t71.5 -131t150 -46z" />
<glyph unicode="P" horiz-adv-x="1280" d="M21 0l359 1498h554q52 0 100 -8.5t88.5 -23.5t75.5 -36.5t63 -49t49.5 -59t35 -68t19.5 -75t4 -81t-12 -85.5q-20 -81 -49 -147.5t-80.5 -130.5t-120.5 -107t-172.5 -69.5t-232.5 -26.5h-257l-127 -531h-297zM513 808h240q255 0 306 204q8 42 5 73.5t-20 54.5t-39 38.5 t-53 25t-61.5 14t-65.5 4.5h-213z" />
<glyph unicode="Q" horiz-adv-x="1355" d="M1023 -167l-150 193q-122 -47 -287 -47q-105 0 -200.5 44.5t-165.5 129.5t-94.5 209.5t11.5 285.5l46 200q81 332 263 502.5t480 170.5q110 0 207.5 -45.5t167.5 -132t94.5 -211.5t-12.5 -284l-48 -200q-72 -299 -222 -463l133 -169zM644 270q147 0 244 96t141 271 l51 217q29 119 12 202.5t-73.5 127.5t-142.5 44q-148 0 -244 -96t-141 -278l-50 -217q-41 -168 14 -267.5t189 -99.5z" />
<glyph unicode="R" horiz-adv-x="1326" d="M519 817h204q64 0 114 9t95 30t75 61t44 98q9 33 5.5 61t-13.5 49.5t-28.5 38t-41 28t-50.5 18.5t-56.5 10.5t-58.5 3.5h-190zM21 0l359 1498h534q113 0 209 -40t156 -106t84.5 -155.5t3.5 -184.5q-76 -315 -365 -408l150 -604h-304l-129 542h-268l-131 -542h-299z" />
<glyph unicode="S" horiz-adv-x="1273" d="M521 -28q-152 0 -292 75.5t-219 199.5l226 188q51 -81 139.5 -130.5t200.5 -49.5q129 0 207.5 48t94.5 128q12 60 2 102t-62 65t-152 26q-97 3 -179.5 38t-139 93t-80 142.5t-3.5 180.5q22 106 67 186t120.5 139t189.5 89.5t264 30.5q144 0 267.5 -59t184.5 -156 l-239 -179q-35 52 -109.5 85.5t-166.5 33.5q-119 0 -191.5 -40t-91.5 -119q-14 -55 5.5 -91.5t75.5 -57t151 -24.5q103 -5 187.5 -38t144 -94.5t79.5 -151.5t-6 -208q-38 -156 -117.5 -254.5t-216.5 -148t-341 -49.5z" />
<glyph unicode="T" horiz-adv-x="1242" d="M369 0l293 1224h-422l66 272h1137l-66 -272h-421l-294 -1224h-293z" />
<glyph unicode="U" horiz-adv-x="1330" d="M568 -21q-80 0 -154.5 25.5t-138 76t-103.5 127.5t-51 180.5t20 233.5l209 876h302l-211 -880q-28 -116 -12 -196.5t66.5 -122t126.5 -41.5q132 0 222.5 93.5t131.5 266.5l212 880h299l-209 -876q-78 -325 -251 -484t-459 -159z" />
<glyph unicode="V" horiz-adv-x="1351" d="M420 0l-144 1496h306l89 -1017l589 1017h322l-861 -1496h-301z" />
<glyph unicode="W" horiz-adv-x="1900" d="M342 0l-66 1498h310l16 -967l459 920h234l44 -922l460 969h331l-729 -1498h-300l-59 787l-384 -787h-316z" />
<glyph unicode="X" horiz-adv-x="1359" d="M-76 0l646 770l-266 728h344l167 -488l396 488h359l-632 -747l275 -751h-340l-179 489l-422 -489h-348z" />
<glyph unicode="Y" horiz-adv-x="1336" d="M407 0l139 576l-270 922h321l168 -570l452 570h351l-724 -922l-137 -576h-300z" />
<glyph unicode="Z" horiz-adv-x="1195" d="M-59 0l69 294l910 917h-667l69 287h1053l-67 -287l-918 -924h709l-70 -287h-1088z" />
<glyph unicode="[" horiz-adv-x="777" d="M-12 -181l438 1824h534l-66 -270h-242l-308 -1284h242l-63 -270h-535z" />
<glyph unicode="\" horiz-adv-x="918" d="M511 0l-220 1496h272l214 -1496h-266z" />
<glyph unicode="]" horiz-adv-x="777" d="M960 1637l-439 -1824h-533l65 269h243l308 1285h-244l64 270h536z" />
<glyph unicode="^" horiz-adv-x="1127" d="M382 992l-124 168l432 334h213l303 -383l-172 -143l-283 272z" />
<glyph unicode="_" horiz-adv-x="1199" d="M-65 -253l61 253h1208l-63 -253h-1206z" />
<glyph unicode="`" horiz-adv-x="777" d="M542 1211l-175 251l287 168l145 -419h-257z" />
<glyph unicode="a" horiz-adv-x="1172" d="M517 219q98 0 165 57t95 171l33 141q27 116 -15.5 183.5t-126.5 67.5q-188 0 -255 -251l-35 -131q-19 -77 0 -130t56.5 -80.5t82.5 -27.5zM409 -28q-71 0 -140 34t-122.5 98.5t-73 157t8.5 209.5l30 107q65 257 204 383t336 126q58 0 106 -15.5t79.5 -40.5t51 -54.5 t27.5 -60.5l94 143h212l-256 -1059h-179l-17 123q-19 -29 -47.5 -53.5t-71 -47.5t-105 -36.5t-137.5 -13.5z" />
<glyph unicode="b" horiz-adv-x="1189" d="M12 0l361 1498h298l-129 -542q12 19 29 36t42.5 34t56.5 29t73.5 20t89.5 8q53 0 106.5 -19.5t103 -59t80.5 -100t40 -142.5t-18 -186l-25 -105q-121 -485 -530 -485q-80 0 -156 48t-94 105l-91 -139h-237zM570 243q89 0 148.5 53.5t84.5 154.5l34 137 q26 108 -12.5 172.5t-115.5 64.5q-193 0 -250 -237l-33 -137q-12 -53 -5 -92t29.5 -65t53.5 -38.5t66 -12.5z" />
<glyph unicode="c" horiz-adv-x="1073" d="M457 -30q-84 0 -162 35t-135.5 99.5t-81 155.5t1.5 205l25 107q62 261 207.5 386t387.5 125q67 0 127.5 -18t109.5 -52.5t82 -85t44.5 -116t-4.5 -145.5l-254 18q13 71 -29.5 112t-129.5 41q-93 0 -160 -64.5t-96 -182.5l-34 -143q-24 -104 23.5 -169t135.5 -65 q176 0 250 127l231 -106q-46 -68 -93.5 -115t-111 -81.5t-145.5 -51t-189 -16.5z" />
<glyph unicode="d" horiz-adv-x="1165" d="M519 221q89 0 157.5 58t95.5 168l29 135q27 115 -12 184t-123 69q-66 0 -117.5 -31t-86 -86.5t-53.5 -135.5l-31 -135q-27 -106 17 -166t124 -60zM399 -21q-65 0 -130.5 32t-119 93.5t-73.5 152t6 208.5l23 105q62 254 205.5 383.5t339.5 129.5q51 0 101.5 -16t89.5 -47 t49 -70l133 550h297l-358 -1500h-181l-28 127q-37 -60 -127 -104t-227 -44z" />
<glyph unicode="e" horiz-adv-x="1083" d="M469 -21q-98 0 -180.5 33t-138.5 95t-76 151t6 201l32 133q24 98 68 179.5t101 138.5t126 96.5t142.5 58t150.5 18.5q92 0 166 -29t119.5 -77t69.5 -105.5t23 -118.5q0 -72 -25 -127t-73 -90t-106 -56t-133 -33l-389 -27q-26 -92 23 -146.5t167 -54.5q177 0 295 103 l146 -165q-43 -42 -85.5 -71.5t-102.5 -55t-141.5 -38.5t-184.5 -13zM403 642l268 16q81 10 111.5 34t27.5 61q-4 41 -45.5 70.5t-122.5 24.5q-62 -7 -109.5 -30t-82 -67.5t-47.5 -108.5z" />
<glyph unicode="f" horiz-adv-x="799" d="M-116 -399l63 262q61 -3 105 43t64 120l196 816h-145l52 219h141l9 30q49 196 178 300.5t333 104.5h105l-61 -228q-114 1 -171 -38t-82 -133l-13 -36h211l-52 -219h-205l-197 -816q-23 -95 -64.5 -171.5t-105.5 -136t-156 -90t-205 -27.5z" />
<glyph unicode="g" horiz-adv-x="1199" d="M531 234q181 0 232 221l32 129q14 65 11.5 110t-23.5 72.5t-50 40t-67 12.5q-92 0 -151 -57t-89 -178l-32 -129q-24 -100 19 -160.5t118 -60.5zM314 -479q-113 0 -227 54t-148 119q192 175 194 177q60 -92 221 -92q109 0 191.5 61t112.5 184l17 71q-40 -63 -99 -91 t-165 -28q-67 0 -134.5 31t-123.5 92.5t-76.5 153.5t5.5 216l23 103q61 249 197.5 377.5t331.5 128.5q88 0 155.5 -36t94.5 -100l101 121h237l-256 -1047q-32 -132 -88.5 -226.5t-139 -154t-186.5 -87t-238 -27.5z" />
<glyph unicode="h" horiz-adv-x="1176" d="M8 0l359 1498h308l-133 -548q27 40 69.5 69t98 44t119.5 15q86 0 153 -29t111 -88.5t54 -149.5t-18 -212l-144 -599h-299l143 599q25 109 -5 173.5t-122 64.5q-88 0 -154 -66.5t-91 -171.5l-143 -599h-306z" />
<glyph unicode="i" horiz-adv-x="556" d="M485 1213q-80 0 -127.5 44t-47.5 120q0 73 50 118t125 45q81 0 129 -44.5t48 -118.5q0 -37 -14 -68.5t-38.5 -52t-56.5 -32t-68 -11.5zM21 0l253 1061h304l-254 -1061h-303z" />
<glyph unicode="j" horiz-adv-x="602" d="M509 1215q-80 0 -127.5 43.5t-47.5 120.5q0 73 49.5 117t125.5 44q81 0 129 -43.5t48 -117.5q0 -51 -25 -88.5t-64.5 -56.5t-87.5 -19zM-274 -445l99 255q58 -14 105.5 6t79 68t49.5 120l251 1057h314l-253 -1063q-60 -255 -229 -371t-416 -72z" />
<glyph unicode="k" horiz-adv-x="1155" d="M21 0l367 1496h298l-193 -794l393 359h384l-475 -431l209 -630h-306l-139 443l-162 -135l-77 -308h-299z" />
<glyph unicode="l" horiz-adv-x="594" d="M467 0q-136 -5 -225 45t-122.5 158t9.5 276l244 1019h302l-240 -1013q-34 -123 -14.5 -182.5t104.5 -59.5z" />
<glyph unicode="m" horiz-adv-x="1775" d="M8 0l256 1065h233l22 -131q35 64 115 111.5t181 47.5q63 0 117 -19.5t92 -62t45 -99.5q35 43 68 73t78 56t104.5 39t133.5 13q70 0 131 -31.5t104.5 -92.5t57 -149.5t-12.5 -203.5l-147 -616h-295l146 610q28 116 -0.5 176t-105.5 60q-93 0 -146.5 -59t-81.5 -181 l-145 -606h-298l143 595q30 125 0.5 188t-107.5 63q-96 0 -155 -63t-90 -188l-145 -595h-298z" />
<glyph unicode="n" horiz-adv-x="1157" d="M10 2l254 1057h289l-28 -121q32 61 117.5 105t186.5 44q82 0 145.5 -28t106 -87t50.5 -152t-20 -223l-143 -597h-297l144 595q13 61 12 108.5t-16 80t-44.5 49.5t-72.5 17q-99 0 -153 -62t-86 -193l-141 -593h-304z" />
<glyph unicode="o" horiz-adv-x="1136" d="M493 -24q-89 0 -172 33t-147 96.5t-88.5 157t3.5 214.5l27 118q118 488 586 488q85 0 165.5 -32t143.5 -93.5t88 -152.5t-2 -210l-30 -118q-31 -127 -76.5 -217.5t-113.5 -155.5t-163 -96.5t-221 -31.5zM523 232q39 0 76 13t71.5 40.5t62 74.5t42.5 109l30 133 q25 104 -17 164.5t-132 60.5q-91 0 -157.5 -58t-91.5 -167l-31 -133q-26 -116 18 -176.5t129 -60.5z" />
<glyph unicode="p" horiz-adv-x="1172" d="M555 236q94 0 152.5 59t83.5 162l32 138q26 107 -7.5 167.5t-108.5 60.5q-93 0 -156.5 -56.5t-91.5 -171.5l-31 -138q-25 -99 10 -160t117 -61zM-95 -443l367 1502h209l32 -137q25 32 48.5 54.5t60.5 47.5t89 38t116 13q68 0 132.5 -30.5t116 -92t68 -154.5t-10.5 -218 l-30 -115q-59 -243 -185.5 -362t-329.5 -119q-75 0 -145 33t-97 90l-135 -550h-306z" />
<glyph unicode="q" horiz-adv-x="1168" d="M536 -443l132 550q-17 -37 -44.5 -62.5t-83.5 -43t-137 -17.5q-72 0 -140 30.5t-120.5 91.5t-71 151t8.5 208l27 115q66 260 198 377.5t325 117.5q91 0 162 -46.5t88 -106.5l112 137h214l-362 -1502h-308zM527 236q95 0 149.5 56t80.5 159l38 159q13 53 6.5 93t-28 66.5 t-51.5 40t-64 13.5q-90 0 -144 -57.5t-83 -177.5l-37 -137q-22 -95 15.5 -155t117.5 -60z" />
<glyph unicode="r" horiz-adv-x="872" d="M12 0l254 1061h213l32 -121q27 38 72.5 69t109.5 51t132 20q45 0 93.5 -12t79.5 -32l-144 -247q-20 9 -59.5 16t-79.5 7q-81 0 -156 -63t-100 -163l-141 -586h-306z" />
<glyph unicode="s" horiz-adv-x="1047" d="M431 -24q-69 0 -150.5 18.5t-166 61.5t-128.5 103l193 179q28 -47 108.5 -77.5t181.5 -30.5q77 0 134.5 21.5t69.5 68.5q10 44 -36 63.5t-164 27.5q-73 8 -135 37.5t-103.5 74t-59 105.5t-2.5 127q14 61 37.5 109.5t63 90t94.5 69t132.5 43.5t176.5 16q124 0 243 -49 t163 -114l-187 -181q-3 3 -8.5 9.5t-27.5 22.5t-48.5 28.5t-72 23.5t-97.5 12q-94 2 -144.5 -17.5t-60.5 -62.5q-11 -47 35 -69.5t152 -27.5q181 -6 270 -94t54 -244q-15 -63 -39.5 -114t-66 -95t-98 -73t-136 -45.5t-177.5 -16.5z" />
<glyph unicode="t" horiz-adv-x="727" d="M536 -16q-89 -8 -159 0t-116.5 30t-77 54.5t-43.5 75.5t-12.5 90.5t13.5 101.5l121 493h-121l55 234h124l72 304h300l-70 -304h177l-54 -234h-182l-110 -453q-11 -49 -7 -82t40.5 -48t110.5 -10z" />
<glyph unicode="u" horiz-adv-x="1193" d="M431 -30q-59 0 -114.5 17t-105.5 52.5t-81.5 91t-41.5 131.5t15 175q148 620 150 624h306l-148 -626q-24 -97 11.5 -153t113.5 -56q90 0 143 53t78 156l150 626h315l-256 -1061h-196l-31 116q-38 -63 -121.5 -104.5t-186.5 -41.5z" />
<glyph unicode="v" horiz-adv-x="1149" d="M350 0l-183 1061h316l87 -681l372 681h338l-626 -1061h-304z" />
<glyph unicode="w" horiz-adv-x="1727" d="M445 -24q-120 0 -206 60t-120.5 171.5t2.5 269.5l139 584h299l-144 -586q-14 -72 -14.5 -121t14.5 -79t38.5 -43t55.5 -13q82 0 134.5 63.5t86.5 208.5l135 570h293l-135 -566q-26 -100 -16 -161.5t38.5 -88t74.5 -26.5q88 0 131.5 62t77.5 214l135 566h287l-127 -578 q-57 -264 -188 -385.5t-341 -121.5q-33 0 -63.5 6t-56 16.5t-48.5 24.5t-40.5 30t-31.5 33.5t-23 35.5t-13 35q-52 -85 -149.5 -133t-224.5 -48z" />
<glyph unicode="x" horiz-adv-x="1105" d="M-70 0l477 542l-234 519h354l95 -296l220 296h388l-481 -530l225 -531h-346l-105 276l-207 -276h-386z" />
<glyph unicode="y" horiz-adv-x="1140" d="M-137 -420l103 241q202 -64 302 105q3 5 18.5 27.5t26.5 42t11 28.5l-157 1037h308l73 -698l388 694h336l-775 -1247q-61 -96 -139 -157.5t-161.5 -84.5t-166.5 -19.5t-167 31.5z" />
<glyph unicode="z" horiz-adv-x="1022" d="M-30 0l56 228l573 567h-420l61 266h843l-56 -230l-572 -567h450l-63 -264h-872z" />
<glyph unicode="{" horiz-adv-x="835" d="M572 -183h-61q-64 2 -125.5 32.5t-107 80.5t-66 121.5t-3.5 149.5q1 1 13.5 54.5t25.5 106.5t14 53q24 101 -12 147t-129 46l66 276q91 0 146.5 45t81.5 151l52 213q92 380 473 386h79l-61 -258q-73 0 -119 -20.5t-70.5 -58.5t-40.5 -102l-46 -191q-15 -62 -33 -108.5 t-43 -87.5t-60.5 -68t-80.5 -40q39 -14 61.5 -42t27.5 -68t0 -83t-18 -99l-51 -208q-13 -53 6.5 -93.5t57.5 -59t85 -18.5z" />
<glyph unicode="|" horiz-adv-x="575" d="M-8 -240l461 1923h266l-461 -1923h-266z" />
<glyph unicode="}" horiz-adv-x="835" d="M422 1681h61q64 -2 125.5 -32.5t107 -80t66 -121.5t3.5 -149q-1 -1 -9 -34.5t-17.5 -74t-17.5 -73.5t-9 -33q-11 -53 -8.5 -89.5t21.5 -59.5t50.5 -33.5t77.5 -10.5l-68 -276q-91 0 -146 -44.5t-81 -151.5l-51 -213q-92 -381 -474 -386h-79l62 257q106 0 156 42.5 t74 139.5l46 191q32 128 81 203.5t136 100.5q-39 14 -61.5 41.5t-28 67.5t-0.5 83.5t18 98.5l52 210q9 42 0.5 73.5t-31.5 53t-54 32t-66 10.5z" />
<glyph unicode="~" horiz-adv-x="1421" d="M338 561l-148 184q76 96 196 154.5t236 58.5q62 0 114 -12.5t86 -30t63 -35.5t58 -30.5t57 -12.5q75 2 130.5 38t91.5 83l175 -167q-81 -109 -190.5 -165t-232.5 -56q-47 0 -88.5 12.5t-73 30.5l-63 36t-74.5 30t-93 11q-106 -3 -244 -129z" />
<glyph unicode="&#xa1;" horiz-adv-x="588" d="M602 1308q66 0 112 -46t37 -119q-6 -49 -30.5 -86t-62 -55.5t-82.5 -18.5q-67 0 -113.5 44t-38.5 116q10 76 57.5 120.5t120.5 44.5zM608 884l-40 -555l-129 -538h-338l127 538l229 555h151z" />
<glyph unicode="&#xa2;" horiz-adv-x="1089" d="M1010 234q-71 -107 -160 -168t-220 -82l-56 -252h-290l54 260q-69 21 -124.5 62.5t-93.5 102.5t-49 138t9 170l27 107q47 203 154 321.5t279 155.5l52 261h300l-61 -266q61 -17 110 -51t83.5 -85t44 -117.5t-7.5 -148.5l-253 16q18 76 -28 119.5t-130 43.5 q-65 0 -118.5 -29t-89 -80.5t-52.5 -121.5l-34 -143q-12 -54 -3 -97t33.5 -73.5t60 -47t76.5 -16.5q57 0 105.5 14.5t86 43t60.5 69.5z" />
<glyph unicode="&#xa3;" horiz-adv-x="1286" d="M143 -57l-127 226q12 6 31 18t70 51t92.5 80.5t82.5 103.5t56 124q19 82 -2 156h-219l65 268h126q-12 62 14 186q17 78 62.5 145t118 118.5t177 81t230.5 29.5q87 0 183.5 -30t156.5 -69l-68 -279q-68 62 -153 92t-174 30q-103 0 -171.5 -46t-83.5 -110 q-10 -37 -11.5 -69.5t0.5 -43t7 -35.5h334l-64 -268l-244 -2q7 -26 8.5 -68t-8.5 -94q-12 -56 -54.5 -123t-102.5 -105q43 22 88 22q49 0 87 -12t58.5 -25.5t50.5 -25t64 -11.5q52 0 103.5 26.5t60.5 44.5l93 -224q-9 -15 -35.5 -36t-69 -44.5t-107.5 -40t-136 -16.5 q-43 0 -87 14t-75 30.5t-76.5 30.5t-92.5 14q-37 0 -80.5 -14.5t-81.5 -36.5t-59 -36t-37 -27z" />
<glyph unicode="&#xa5;" horiz-adv-x="1345" d="M707 0h-300l48 199l-282 174l334 38l39 165l-2 8l-286 175l227 26l-209 713h321l168 -570l452 570h351l-587 -747l209 -129l-340 -38l-6 -8l-39 -156l298 -184l-350 -40z" />
<glyph unicode="&#xa6;" horiz-adv-x="624" d="M264 890l189 785h314l-189 -785h-314zM0 -207l187 777h315l-188 -777h-314z" />
<glyph unicode="&#xa7;" horiz-adv-x="1012" d="M654 -6h-270q-52 0 -91.5 20t-58.5 54t-22.5 75t15.5 87t57 86q21 27 113 115q-85 52 -136.5 137.5t-51.5 184.5q0 113 67 207.5t171 136.5l171 141q40 32 21 41q-4 1 -11 1h-191l56 234h270q65 0 109 -31.5t58 -78.5t-2.5 -105.5t-64.5 -108.5q-17 -23 -110 -112 q90 -48 146.5 -135.5t56.5 -189.5q0 -82 -37.5 -157.5t-99.5 -127.5t-137 -76l-151 -124q-37 -35 -12 -40h192zM582 602q61 0 105.5 43.5t44.5 107.5t-44.5 108t-105.5 44q-62 0 -106.5 -44t-44.5 -108t44 -107.5t107 -43.5z" />
<glyph unicode="&#xa8;" horiz-adv-x="958" d="M934 1224q-60 0 -107.5 47t-47.5 110q0 42 22.5 78.5t58 57.5t74.5 21q30 0 59 -12.5t51 -33.5t35.5 -50t13.5 -61q0 -42 -23 -78.5t-59.5 -57.5t-76.5 -21zM477 1224q-60 0 -108.5 47t-48.5 110.5t48.5 110t108.5 46.5q61 0 108 -46.5t47 -110.5t-47 -110.5t-108 -46.5z " />
<glyph unicode="&#xa9;" horiz-adv-x="1375" d="M810 411q-117 0 -218 42t-173.5 115t-113.5 177.5t-41 224.5q0 118 42 221t115 175.5t175.5 114.5t218.5 42q117 0 219.5 -42t175 -115t114 -175.5t41.5 -220.5q0 -120 -42 -224t-115.5 -177.5t-176.5 -115.5t-221 -42zM815 546q121 0 215 56.5t144 152.5t50 215 q0 185 -112.5 299t-296.5 114q-120 0 -213.5 -54.5t-143 -148t-49.5 -210.5q0 -90 29 -168.5t81.5 -135t128.5 -88.5t167 -32zM825 690q-109 0 -183 73t-74 191v31q0 113 74.5 186t182.5 73q85 0 148 -48.5t86 -124.5l-127 -37q-11 41 -38.5 66t-68.5 25q-53 0 -86.5 -40 t-33.5 -98v-37q0 -61 34 -99.5t86 -38.5q78 0 111 78l127 -44q-74 -156 -238 -156z" />
<glyph unicode="&#xaa;" horiz-adv-x="883" d="M504 835q49 0 93.5 25t58.5 58l21 92q-13 9 -42.5 15t-50.5 6q-33 0 -67.5 -10t-65.5 -35t-40 -60q-9 -43 14.5 -67t78.5 -24zM407 666q-44 0 -87 17.5t-76 47t-48 74t-2 93.5q5 10 5 22q27 112 127 175t231 63q52 0 94 -10.5t56 -22.5q0 5 3.5 20.5l7 31t6 29.5t2.5 18 q-3 62 -112 62q-126 0 -222 -62l-58 147q78 47 155.5 70t185.5 23q67 0 122.5 -18.5t95.5 -55t54.5 -91.5t-1.5 -128l-119 -494h-187l14 108q0 -1 -3 -6.5t-7.5 -12t-12 -16t-18 -18.5t-24 -19t-32 -18t-40 -14.5t-50 -10.5t-60.5 -4zM84 338l43 183h668l-44 -183h-667z" />
<glyph unicode="&#xab;" horiz-adv-x="1300" d="M411 177l-230 357l28 116l365 346l156 -186l-268 -242l152 -234zM918 177l-230 357l27 116l365 346l156 -186l-268 -242l152 -234z" />
<glyph unicode="&#xad;" horiz-adv-x="902" d="M137 525l68 274h668l-68 -274h-668z" />
<glyph unicode="&#xae;" horiz-adv-x="1375" d="M812 411q-117 0 -218 42t-173.5 115t-113.5 177.5t-41 224.5q0 118 42 221.5t115 176t175.5 114t218.5 41.5q117 0 219.5 -42t175 -115t114 -175.5t41.5 -220.5q0 -120 -42 -224t-115.5 -177.5t-176.5 -115.5t-221 -42zM817 546q116 0 209 53t146.5 150.5t53.5 220.5 q0 187 -113 300t-296 113q-118 0 -209.5 -48.5t-145 -143t-53.5 -221.5q0 -94 31 -173.5t85.5 -134.5t130 -85.5t161.5 -30.5zM745 1000h80q87 0 87 61q0 24 -11.5 39t-29.5 21t-46 6h-80v-127zM624 698v540h235q77 0 129 -57t52 -124q0 -49 -32 -94t-62 -54l98 -211h-118 l-95 188h-86v-188h-121z" />
<glyph unicode="&#xaf;" horiz-adv-x="918" d="M251 1258l51 210h809l-50 -210h-810z" />
<glyph unicode="&#xb0;" horiz-adv-x="879" d="M606 770q-94 0 -180 50t-139 137t-53 186t53 185.5t139 136t180 49.5q70 0 138.5 -29.5t120.5 -79t84 -119t32 -143.5q0 -98 -54 -185t-140.5 -137.5t-180.5 -50.5zM608 992q61 0 105 43.5t44 107.5q0 66 -44 109t-105 43q-63 0 -108 -44t-45 -108t45 -107.5t108 -43.5z " />
<glyph unicode="&#xb1;" horiz-adv-x="1370" d="M1051 -4h-1041l64 264h393l71 303h-373l67 285h376l88 374h285l-89 -374h376l-70 -285h-373l-74 -303h362z" />
<glyph unicode="&#xb4;" horiz-adv-x="835" d="M388 1213l308 420l242 -222l-280 -198h-270z" />
<glyph unicode="&#xb6;" horiz-adv-x="1393" d="M985 2l361 1498h208l-358 -1498h-211zM523 0l127 529h-28q-72 0 -135.5 18.5t-111 51t-84.5 77.5t-55 98.5t-22.5 114t12.5 123.5q18 80 53.5 151t90.5 132.5t125 106t162 70.5t197 26h323l-358 -1498h-296z" />
<glyph unicode="&#xb7;" horiz-adv-x="372" d="M262 590q-69 0 -117 45.5t-48 119.5q0 68 50 117.5t117 49.5q45 0 82.5 -21.5t59.5 -60t22 -85.5q0 -74 -48 -119.5t-118 -45.5z" />
<glyph unicode="&#xb8;" horiz-adv-x="894" d="M217 10h101l6 -92q45 -17 78.5 -47t52 -67.5t25 -79t0.5 -83t-23 -78.5q-27 -52 -70 -86t-92.5 -47t-101.5 -10.5t-102 19.5l-121 48l89 181q118 -48 131 -50q34 -13 57.5 -4t36.5 34q3 6 5 11.5t3 11.5t0.5 12t-2.5 12t-5.5 12t-9 11.5t-13 10.5t-17.5 9l-129 51z" />
<glyph unicode="&#xba;" horiz-adv-x="855" d="M481 668q-58 0 -113 24.5t-94 70t-56 108.5t1 139l26 108q39 160 146.5 249.5t279.5 89.5q65 0 121.5 -24t94.5 -68.5t52 -107.5t-5 -139l-22 -108q-39 -161 -148.5 -251.5t-282.5 -90.5zM525 854q57 0 105.5 39.5t65.5 110.5l30 114q16 70 -11.5 113t-88.5 43 t-106 -42.5t-63 -113.5l-29 -114q-14 -69 14.5 -109.5t82.5 -40.5zM72 346l44 183h667l-42 -183h-669z" />
<glyph unicode="&#xbb;" horiz-adv-x="1300" d="M964 985l230 -357l-27 -115l-366 -346l-155 185l268 243l-153 234zM457 985l231 -357l-28 -115l-364 -346l-157 185l268 243l-152 234z" />
<glyph unicode="&#xbf;" horiz-adv-x="1140" d="M1046 1348q37 0 67 -11t51.5 -32t33 -52t11.5 -70q0 -74 -44.5 -117t-118.5 -43q-72 0 -118 43t-46 117q0 76 46 120.5t118 44.5zM1133 914q-55 -278 -330 -449q-46 -28 -77 -49t-63 -48t-51 -56t-26 -61q-17 -82 32 -130.5t139 -48.5q189 0 255 181l250 -70 q-63 -175 -203.5 -275t-349.5 -100q-81 0 -160.5 34t-139.5 89.5t-91 135t-18 163.5q7 44 23 85t34.5 72.5t48 64.5t52 54t61 48.5t59.5 41t60 38.5l39 24q87 55 136.5 123t57.5 133h262z" />
<glyph unicode="&#xc0;" horiz-adv-x="1397" d="M863 1584l-175 251l286 169l146 -420h-257zM525 511h391l-57 578zM-82 0l867 1498h306l179 -1498h-302l-30 255h-544l-154 -255h-322z" />
<glyph unicode="&#xc1;" horiz-adv-x="1397" d="M808 1596l307 421l244 -222l-281 -199h-270zM525 511h391l-57 578zM-82 0l867 1498h306l179 -1498h-302l-30 255h-544l-154 -255h-322z" />
<glyph unicode="&#xc2;" horiz-adv-x="1397" d="M736 1570l-110 139l274 234h249l178 -238l-169 -131l-173 151zM525 511h391l-57 578zM-82 0l867 1498h306l179 -1498h-302l-30 255h-544l-154 -255h-322z" />
<glyph unicode="&#xc3;" horiz-adv-x="1397" d="M1131 1603q-38 -2 -72 7t-60 22.5t-51.5 27.5t-57.5 23t-67 8q-51 -1 -87 -19.5t-70 -65.5q1 0 -31 12t-65 24l-32 12q30 103 122.5 181t208.5 83q47 1 88 -9t69.5 -25t53.5 -30.5t50.5 -26t48.5 -9.5q47 2 85.5 26.5t62.5 69.5l122 -50q-14 -48 -40 -91.5t-64.5 -82 t-94 -62.5t-119.5 -25zM525 511h391l-57 578zM-82 0l867 1498h306l179 -1498h-302l-30 255h-544l-154 -255h-322z" />
<glyph unicode="&#xc4;" horiz-adv-x="1397" d="M1202 1586q-39 0 -75 21.5t-58.5 58.5t-22.5 79q0 31 13.5 60.5t35 50t50 32.5t57.5 12q62 0 110.5 -46t48.5 -109q0 -64 -49 -111.5t-110 -47.5zM745 1586q-60 0 -108.5 47.5t-48.5 111.5q0 42 23 78t59 56.5t75 20.5q61 0 108 -45.5t47 -109.5t-47 -111.5t-108 -47.5z M525 511h391l-57 578zM-82 0l867 1498h306l179 -1498h-302l-30 255h-544l-154 -255h-322z" />
<glyph unicode="&#xc5;" horiz-adv-x="1397" d="M956 1530q26 0 48.5 13.5t35.5 36t13 48.5q0 39 -28.5 69t-68.5 30q-26 0 -49 -14t-37 -37t-14 -48q0 -39 30 -68.5t70 -29.5zM525 511h391l-57 578zM394 255l-154 -255h-322l841 1455q-67 78 -67 171q0 70 37.5 132t98.5 98t128 36q49 0 97 -21.5t84.5 -57.5t59.5 -85 t23 -102q0 -63 -32.5 -120t-86.5 -93l169 -1413h-302l-30 255h-544z" />
<glyph unicode="&#xc6;" horiz-adv-x="2037" d="M644 565h348l151 633zM-131 0l1160 1498h1177l-63 -268h-700l-82 -344h553l-64 -268h-552l-85 -350h705l-66 -268h-996l74 310h-481l-242 -310h-338z" />
<glyph unicode="&#xc7;" horiz-adv-x="1368" d="M761 -424q-27 -52 -70 -86t-92.5 -46.5t-101.5 -10.5t-103 19l-120 48l89 182q118 -49 130 -51q35 -13 58.5 -4t36.5 33q7 16 8 31.5t-11 32t-37 27.5l-128 50l84 185q-59 11 -112.5 35.5t-103.5 64t-86 93t-59.5 123.5t-23 155.5t23.5 188.5l47 196q163 679 766 679 q103 0 194 -38.5t156 -106t97.5 -167.5t19.5 -215h-294q8 120 -50 185t-172 65q-315 0 -412 -390l-50 -220q-32 -129 -10 -213.5t80.5 -126t148.5 -41.5q77 0 136 20t99.5 58t67 81.5t48.5 102.5h297q-45 -135 -104 -231.5t-141.5 -165.5t-191.5 -104t-251 -38l4 -46 q56 -20 94 -61.5t52.5 -91t11.5 -102.5t-25 -99z" />
<glyph unicode="&#xc8;" horiz-adv-x="1216" d="M757 1616l-175 250l287 169l146 -419h-258zM21 0l359 1498h981l-63 -268h-684l-80 -342h535l-63 -268h-537l-85 -352h691l-63 -268h-991z" />
<glyph unicode="&#xc9;" horiz-adv-x="1216" d="M668 1618l308 419l244 -221l-282 -198h-270zM21 0l359 1498h981l-63 -268h-684l-80 -342h535l-63 -268h-537l-85 -352h691l-63 -268h-991z" />
<glyph unicode="&#xca;" horiz-adv-x="1216" d="M654 1630l-110 140l275 234h248l177 -239l-169 -130l-172 152zM21 0l359 1498h981l-63 -268h-684l-80 -342h535l-63 -268h-537l-85 -352h691l-63 -268h-991z" />
<glyph unicode="&#xcb;" horiz-adv-x="1216" d="M1118 1624q-60 0 -108 47.5t-48 111.5q0 63 47.5 109t108.5 46t109.5 -45.5t48.5 -109.5t-48.5 -111.5t-109.5 -47.5zM660 1624q-60 0 -108 47.5t-48 111.5q0 63 48 109t108 46q62 0 109.5 -45.5t47.5 -109.5q0 -42 -22.5 -79t-58.5 -58.5t-76 -21.5zM21 0l359 1498h981 l-63 -268h-684l-80 -342h535l-63 -268h-537l-85 -352h691l-63 -268h-991z" />
<glyph unicode="&#xcc;" horiz-adv-x="545" d="M445 1626l-145 216l304 179l84 -395h-243zM16 0l360 1498h301l-361 -1498h-300z" />
<glyph unicode="&#xcd;" horiz-adv-x="545" d="M407 1616l207 381l276 -179l-238 -202h-245zM16 0l360 1498h301l-361 -1498h-300z" />
<glyph unicode="&#xce;" horiz-adv-x="545" d="M386 1610l-122 129l253 233h246l140 -229l-175 -129l-142 133zM16 0l360 1498h301l-361 -1498h-300z" />
<glyph unicode="&#xcf;" horiz-adv-x="545" d="M759 1622q-65 0 -100 42t-31 117q5 73 47 114t108 41q44 0 75 -18t46 -53t12 -84q-5 -75 -47.5 -117t-109.5 -42zM382 1622q-67 0 -102 42t-31 117q6 73 47 114t107 41q67 0 103 -41t30 -114q-5 -75 -46.5 -117t-107.5 -42zM16 -2l360 1498h301l-361 -1498h-300z" />
<glyph unicode="&#xd0;" horiz-adv-x="1406" d="M614 0h-534l146 610h-176l59 274h182l148 614h535q103 0 197.5 -46.5t161.5 -132t92.5 -206.5t-10.5 -269l-46 -198q-155 -646 -755 -646zM445 274h234q83 0 150 28.5t113.5 81t77.5 117t51 145.5l47 198q20 80 13.5 149.5t-33.5 120.5t-76.5 80.5t-114.5 29.5h-234 l-83 -340h233l-68 -274h-230z" />
<glyph unicode="&#xd1;" horiz-adv-x="1448" d="M1171 1618q-38 -2 -72 7t-60 23t-51.5 27.5t-57.5 23t-67 8.5q-25 -1 -45.5 -5.5t-39.5 -14.5t-36.5 -26.5t-34.5 -40.5l-32 12t-65 24l-32 13q30 102 122.5 180.5t208.5 82.5q47 1 88 -8.5t69.5 -24.5t53.5 -30t50.5 -25.5t49.5 -10.5q30 1 57.5 12t50.5 32t39 51 l122 -48q-14 -48 -40 -92t-64.5 -82.5t-94 -62t-119.5 -25.5zM16 0l360 1498h306l371 -971l231 971h296l-358 -1498h-322l-360 948l-228 -948h-296z" />
<glyph unicode="&#xd2;" d="M863 1633l-175 251l286 169l146 -420h-257zM597 -21q-105 0 -202.5 44.5t-169.5 129.5t-98 209.5t10 285.5l46 200q81 333 259.5 503t475.5 170q109 0 208 -45.5t170.5 -132t97 -211.5t-10.5 -284l-48 -200q-39 -164 -98.5 -284.5t-148 -208t-211 -132t-280.5 -44.5z M650 255q286 0 379 382l51 217q45 186 -14.5 288t-194.5 102q-284 0 -380 -390l-50 -217q-27 -120 -12.5 -205t71.5 -131t150 -46z" />
<glyph unicode="&#xd3;" d="M785 1637l308 420l242 -222l-280 -198h-270zM597 -21q-105 0 -202.5 44.5t-169.5 129.5t-98 209.5t10 285.5l46 200q81 333 259.5 503t475.5 170q109 0 208 -45.5t170.5 -132t97 -211.5t-10.5 -284l-48 -200q-39 -164 -98.5 -284.5t-148 -208t-211 -132t-280.5 -44.5z M650 255q286 0 379 382l51 217q45 186 -14.5 288t-194.5 102q-284 0 -380 -390l-50 -217q-27 -120 -12.5 -205t71.5 -131t150 -46z" />
<glyph unicode="&#xd4;" d="M719 1620l-109 139l274 234h249l177 -238l-169 -131l-173 152zM597 -21q-105 0 -202.5 44.5t-169.5 129.5t-98 209.5t10 285.5l46 200q81 333 259.5 503t475.5 170q109 0 208 -45.5t170.5 -132t97 -211.5t-10.5 -284l-48 -200q-39 -164 -98.5 -284.5t-148 -208t-211 -132 t-280.5 -44.5zM650 255q286 0 379 382l51 217q45 186 -14.5 288t-194.5 102q-284 0 -380 -390l-50 -217q-27 -120 -12.5 -205t71.5 -131t150 -46z" />
<glyph unicode="&#xd5;" d="M1120 1624q-38 -1 -72 7.5t-60 22.5t-52 27.5t-58 23t-66 8.5q-51 -2 -86.5 -21t-69.5 -66q1 0 -12 5t-32 12.5t-38.5 14.5t-32.5 12l-14 5q31 102 123 180.5t209 82.5q46 2 87 -8t70 -25t54 -30t50.5 -25.5t48.5 -9.5q47 1 85.5 25.5t61.5 68.5l123 -48q-9 -31 -24 -61 t-35 -59.5t-47 -54t-58.5 -44t-71.5 -31t-83 -12.5zM597 -21q-105 0 -202.5 44.5t-169.5 129.5t-98 209.5t10 285.5l46 200q81 333 259.5 503t475.5 170q109 0 208 -45.5t170.5 -132t97 -211.5t-10.5 -284l-48 -200q-39 -164 -98.5 -284.5t-148 -208t-211 -132t-280.5 -44.5 zM650 255q286 0 379 382l51 217q45 186 -14.5 288t-194.5 102q-284 0 -380 -390l-50 -217q-27 -120 -12.5 -205t71.5 -131t150 -46z" />
<glyph unicode="&#xd6;" d="M1198 1599q-60 0 -108 47t-48 111t48 110.5t108 46.5q61 0 110 -46.5t49 -110.5q0 -42 -23 -79t-59.5 -58t-76.5 -21zM741 1599q-60 0 -108.5 47t-48.5 111t48 110.5t109 46.5t108 -46.5t47 -110.5q0 -42 -22 -79t-58 -58t-75 -21zM597 -21q-105 0 -202.5 44.5 t-169.5 129.5t-98 209.5t10 285.5l46 200q81 333 259.5 503t475.5 170q109 0 208 -45.5t170.5 -132t97 -211.5t-10.5 -284l-48 -200q-39 -164 -98.5 -284.5t-148 -208t-211 -132t-280.5 -44.5zM650 255q286 0 379 382l51 217q45 186 -14.5 288t-194.5 102q-284 0 -380 -390 l-50 -217q-27 -120 -12.5 -205t71.5 -131t150 -46z" />
<glyph unicode="&#xd7;" horiz-adv-x="1391" d="M145 378l416 329l-247 329l217 175l246 -331l425 340l165 -212l-427 -337l256 -339l-218 -173l-255 338l-411 -330z" />
<glyph unicode="&#xd8;" horiz-adv-x="1370" d="M441 637q-6 -28 -15 -80l593 641q-59 46 -148 46q-284 0 -380 -390zM650 255q286 0 379 382l51 217q14 64 17 108l-606 -654q59 -53 159 -53zM597 -21q-83 0 -163.5 28t-144.5 82l-128 -137l-163 143l159 171q-72 163 -20 382l46 200q81 333 259.5 503t475.5 170 q173 0 304 -106l107 117l160 -146l-130 -142q78 -171 24 -396l-48 -200q-39 -164 -98.5 -284.5t-148 -208t-211 -132t-280.5 -44.5z" />
<glyph unicode="&#xd9;" horiz-adv-x="1330" d="M852 1618l-175 251l287 168l145 -419h-257zM568 -21q-80 0 -154.5 25.5t-138 76t-103.5 127.5t-51 180.5t20 233.5l209 876h302l-211 -880q-28 -116 -12 -196.5t66.5 -122t126.5 -41.5q132 0 222.5 93.5t131.5 266.5l212 880h299l-209 -876q-78 -325 -251 -484t-459 -159 z" />
<glyph unicode="&#xda;" horiz-adv-x="1330" d="M732 1616l308 419l242 -221l-280 -198h-270zM568 -21q-80 0 -154.5 25.5t-138 76t-103.5 127.5t-51 180.5t20 233.5l209 876h302l-211 -880q-28 -116 -12 -196.5t66.5 -122t126.5 -41.5q132 0 222.5 93.5t131.5 266.5l212 880h299l-209 -876q-78 -325 -251 -484 t-459 -159z" />
<glyph unicode="&#xdb;" horiz-adv-x="1330" d="M707 1624l-110 139l274 234h249l178 -238l-169 -131l-173 153zM568 -21q-80 0 -154.5 25.5t-138 76t-103.5 127.5t-51 180.5t20 233.5l209 876h302l-211 -880q-28 -116 -12 -196.5t66.5 -122t126.5 -41.5q132 0 222.5 93.5t131.5 266.5l212 880h299l-209 -876 q-78 -325 -251 -484t-459 -159z" />
<glyph unicode="&#xdc;" horiz-adv-x="1330" d="M1162 1599q-60 0 -108 47t-48 111t48 110.5t108 46.5q61 0 109.5 -46.5t48.5 -110.5t-48.5 -111t-109.5 -47zM705 1599q-60 0 -108.5 47t-48.5 111t48 110.5t109 46.5q39 0 75 -21t58.5 -57.5t22.5 -78.5q0 -64 -47.5 -111t-108.5 -47zM568 -21q-80 0 -154.5 25.5 t-138 76t-103.5 127.5t-51 180.5t20 233.5l209 876h302l-211 -880q-28 -116 -12 -196.5t66.5 -122t126.5 -41.5q132 0 222.5 93.5t131.5 266.5l212 880h299l-209 -876q-78 -325 -251 -484t-459 -159z" />
<glyph unicode="&#xdd;" horiz-adv-x="1336" d="M698 1596l308 421l242 -222l-280 -199h-270zM407 0l139 576l-270 922h321l168 -570l452 570h351l-724 -922l-137 -576h-300z" />
<glyph unicode="&#xde;" horiz-adv-x="1284" d="M21 0l359 1498h306l-66 -274h209q79 0 154.5 -20.5t140 -61t108.5 -100t59.5 -137t-7.5 -173.5q-59 -244 -225.5 -360.5t-438.5 -116.5h-234l-62 -255h-303zM451 523h247q110 0 182.5 56t97.5 160q25 99 -31.5 163t-153.5 64h-234z" />
<glyph unicode="&#xdf;" horiz-adv-x="1231" d="M16 0l239 985q38 158 107 262.5t178.5 159.5t260.5 55q87 0 164 -35t128.5 -92t72.5 -136t1 -163q-22 -94 -87.5 -167.5t-155.5 -107.5q45 -5 89 -33.5t78.5 -76.5t46.5 -114t-7 -147q-96 -398 -541 -398h-147l66 268q54 -2 93 0q79 3 135 30t80 77q20 34 27.5 69t1.5 68 t-35.5 59t-80.5 36q-52 17 -82.5 55t-19.5 85q4 16 9.5 30t13 24.5t15 18.5t17 15.5t17.5 13t19.5 13t19.5 13.5q134 68 151 156q19 75 -12 125t-113 50q-80 0 -137.5 -53.5t-81.5 -148.5l-238 -996h-292z" />
<glyph unicode="&#xe0;" horiz-adv-x="1172" d="M715 1224l-175 251l287 168l145 -419h-257zM517 219q98 0 165 57t95 171l33 141q27 116 -15.5 183.5t-126.5 67.5q-188 0 -255 -251l-35 -131q-19 -77 0 -130t56.5 -80.5t82.5 -27.5zM409 -28q-71 0 -140 34t-122.5 98.5t-73 157t8.5 209.5l30 107q65 257 204 383 t336 126q58 0 106 -15.5t79.5 -40.5t51 -54.5t27.5 -60.5l94 143h212l-256 -1059h-179l-17 123q-19 -29 -47.5 -53.5t-71 -47.5t-105 -36.5t-137.5 -13.5z" />
<glyph unicode="&#xe1;" horiz-adv-x="1172" d="M540 1232l308 420l243 -221l-281 -199h-270zM517 219q98 0 165 57t95 171l33 141q27 116 -15.5 183.5t-126.5 67.5q-188 0 -255 -251l-35 -131q-19 -77 0 -130t56.5 -80.5t82.5 -27.5zM409 -28q-71 0 -140 34t-122.5 98.5t-73 157t8.5 209.5l30 107q65 257 204 383 t336 126q58 0 106 -15.5t79.5 -40.5t51 -54.5t27.5 -60.5l94 143h212l-256 -1059h-179l-17 123q-19 -29 -47.5 -53.5t-71 -47.5t-105 -36.5t-137.5 -13.5z" />
<glyph unicode="&#xe2;" horiz-adv-x="1172" d="M555 1224l-110 139l274 233h249l177 -237l-169 -131l-173 151zM517 219q98 0 165 57t95 171l33 141q27 116 -15.5 183.5t-126.5 67.5q-188 0 -255 -251l-35 -131q-19 -77 0 -130t56.5 -80.5t82.5 -27.5zM409 -28q-71 0 -140 34t-122.5 98.5t-73 157t8.5 209.5l30 107 q65 257 204 383t336 126q58 0 106 -15.5t79.5 -40.5t51 -54.5t27.5 -60.5l94 143h212l-256 -1059h-179l-17 123q-19 -29 -47.5 -53.5t-71 -47.5t-105 -36.5t-137.5 -13.5z" />
<glyph unicode="&#xe3;" horiz-adv-x="1180" d="M936 1250q-37 -1 -71 7.5t-60.5 22.5t-52 28t-57.5 23t-67 8q-34 -1 -59 -8.5t-49 -26.5t-47 -50q1 0 -31.5 12t-64.5 24l-33 12q14 49 45 95t73 83t98 60t115 26q46 1 87 -9t69.5 -25.5t54 -30.5t50.5 -25.5t49 -9.5q23 0 44.5 7t40.5 18.5t35 29.5t28 40l123 -49 q-15 -48 -41 -91.5t-64.5 -82.5t-94 -62.5t-120.5 -25.5zM517 219q98 0 165 57t95 171l33 141q27 116 -15.5 183.5t-126.5 67.5q-188 0 -255 -251l-35 -131q-19 -77 0 -130t56.5 -80.5t82.5 -27.5zM409 -28q-71 0 -140 34t-122.5 98.5t-73 157t8.5 209.5l30 107 q65 257 204 383t336 126q58 0 106 -15.5t79.5 -40.5t51 -54.5t27.5 -60.5l94 143h212l-256 -1059h-179l-17 123q-19 -29 -47.5 -53.5t-71 -47.5t-105 -36.5t-137.5 -13.5z" />
<glyph unicode="&#xe4;" horiz-adv-x="1172" d="M1040 1238q-39 0 -75 21.5t-58.5 58.5t-22.5 79q0 63 48 109t108 46q62 0 110 -46t48 -109q0 -64 -48 -111.5t-110 -47.5zM582 1238q-60 0 -108 47.5t-48 111.5q0 63 48 109t108 46q61 0 109 -46t48 -109q0 -42 -22.5 -79t-58.5 -58.5t-76 -21.5zM517 219q98 0 165 57 t95 171l33 141q27 116 -15.5 183.5t-126.5 67.5q-188 0 -255 -251l-35 -131q-19 -77 0 -130t56.5 -80.5t82.5 -27.5zM409 -28q-71 0 -140 34t-122.5 98.5t-73 157t8.5 209.5l30 107q65 257 204 383t336 126q58 0 106 -15.5t79.5 -40.5t51 -54.5t27.5 -60.5l94 143h212 l-256 -1059h-179l-17 123q-19 -29 -47.5 -53.5t-71 -47.5t-105 -36.5t-137.5 -13.5z" />
<glyph unicode="&#xe5;" horiz-adv-x="1172" d="M787 1129q-67 0 -128 35.5t-98.5 96.5t-37.5 129q0 70 37.5 132t98.5 98t128 36q39 0 78 -13.5t72 -38.5t59 -58t40.5 -73.5t14.5 -82.5q0 -34 -10.5 -68t-28.5 -62.5t-43.5 -53t-54.5 -41.5t-61.5 -26.5t-65.5 -9.5zM787 1293q20 0 38 8t31 22t20.5 32t7.5 38 q0 38 -28.5 68t-68.5 30q-26 0 -49 -14t-36.5 -37t-13.5 -47q0 -40 30 -70t69 -30zM517 219q98 0 165 57t95 171l33 141q27 116 -15.5 183.5t-126.5 67.5q-188 0 -255 -251l-35 -131q-19 -77 0 -130t56.5 -80.5t82.5 -27.5zM409 -28q-71 0 -140 34t-122.5 98.5t-73 157 t8.5 209.5l30 107q65 257 204 383t336 126q58 0 106 -15.5t79.5 -40.5t51 -54.5t27.5 -60.5l94 143h212l-256 -1059h-179l-17 123q-19 -29 -47.5 -53.5t-71 -47.5t-105 -36.5t-137.5 -13.5z" />
<glyph unicode="&#xe6;" horiz-adv-x="1854" d="M1186 644l267 16q82 10 112.5 34t26.5 61q-3 41 -45 70.5t-124 24.5q-94 -10 -155.5 -60.5t-81.5 -145.5zM409 205q67 0 123 22t91.5 59t47.5 83l17 74q-56 20 -169 16q-41 0 -78 -7t-71.5 -20.5t-58.5 -38.5t-33 -59q-10 -41 6 -71t49 -44t76 -14zM1250 -19 q-128 0 -228.5 56.5t-143.5 158.5q-16 -27 -38 -52t-65 -57t-96.5 -55t-137.5 -39.5t-183 -16.5q-103 0 -186.5 41.5t-128 119.5t-31.5 175q1 3 3.5 14t3.5 14q25 153 155 233.5t357 80.5q162 0 201 -14q3 7 8 32.5t9.5 51t3.5 29.5q2 47 -41.5 76.5t-125.5 29.5 q-178 0 -304 -84l-99 193q100 64 205.5 93.5t269.5 29.5q99 0 172.5 -26t120.5 -80.5t59 -134.5q87 115 211.5 175t261.5 60q92 0 166 -29t119 -77t69 -105.5t23 -118.5q0 -72 -25 -127t-72.5 -90t-105.5 -56t-134 -33l-388 -27q-26 -92 22.5 -146.5t167.5 -54.5 q177 0 295 103l145 -165q-42 -42 -84.5 -71.5t-103 -55t-142 -38.5t-185.5 -13z" />
<glyph unicode="&#xe7;" horiz-adv-x="1073" d="M632 -426q-26 -52 -69 -86t-93 -47t-102 -11t-102 19l-121 49l89 182q118 -49 131 -51q34 -13 57.5 -4.5t36.5 33.5q8 16 8.5 31.5t-11 31.5t-36.5 28l-129 50l82 180q-73 17 -134.5 57t-105.5 103t-59 144.5t6 181.5l25 107q62 261 207.5 386t387.5 125q67 0 127.5 -18 t109.5 -52.5t82 -85t44.5 -116t-4.5 -145.5l-254 18q13 71 -29.5 112t-129.5 41q-93 0 -160 -64.5t-96 -182.5l-34 -143q-24 -104 23.5 -169t135.5 -65q176 0 250 127l231 -106q-43 -65 -88 -110.5t-104.5 -80t-134.5 -52.5t-172 -21l3 -42q55 -21 93 -62t52.5 -90.5 t11.5 -102.5t-25 -99z" />
<glyph unicode="&#xe8;" horiz-adv-x="1095" d="M624 1232l-175 251l287 169l146 -420h-258zM469 -21q-98 0 -180.5 33t-138.5 95t-76 151t6 201l32 133q24 98 68 179.5t101 138.5t126 96.5t142.5 58t150.5 18.5q92 0 166 -29t119.5 -77t69.5 -105.5t23 -118.5q0 -72 -25 -127t-73 -90t-106 -56t-133 -33l-389 -27 q-26 -92 23 -146.5t167 -54.5q177 0 295 103l146 -165q-43 -42 -85.5 -71.5t-102.5 -55t-141.5 -38.5t-184.5 -13zM403 642l268 16q81 10 111.5 34t27.5 61q-4 41 -45.5 70.5t-122.5 24.5q-62 -7 -109.5 -30t-82 -67.5t-47.5 -108.5z" />
<glyph unicode="&#xe9;" horiz-adv-x="1095" d="M515 1206l308 420l242 -221l-280 -199h-270zM469 -21q-98 0 -180.5 33t-138.5 95t-76 151t6 201l32 133q24 98 68 179.5t101 138.5t126 96.5t142.5 58t150.5 18.5q92 0 166 -29t119.5 -77t69.5 -105.5t23 -118.5q0 -72 -25 -127t-73 -90t-106 -56t-133 -33l-389 -27 q-26 -92 23 -146.5t167 -54.5q177 0 295 103l146 -165q-43 -42 -85.5 -71.5t-102.5 -55t-141.5 -38.5t-184.5 -13zM403 642l268 16q81 10 111.5 34t27.5 61q-4 41 -45.5 70.5t-122.5 24.5q-62 -7 -109.5 -30t-82 -67.5t-47.5 -108.5z" />
<glyph unicode="&#xea;" horiz-adv-x="1095" d="M497 1194l-109 139l274 235h250l177 -239l-169 -131l-173 152zM469 -21q-98 0 -180.5 33t-138.5 95t-76 151t6 201l32 133q24 98 68 179.5t101 138.5t126 96.5t142.5 58t150.5 18.5q92 0 166 -29t119.5 -77t69.5 -105.5t23 -118.5q0 -72 -25 -127t-73 -90t-106 -56 t-133 -33l-389 -27q-26 -92 23 -146.5t167 -54.5q177 0 295 103l146 -165q-43 -42 -85.5 -71.5t-102.5 -55t-141.5 -38.5t-184.5 -13zM403 642l268 16q81 10 111.5 34t27.5 61q-4 41 -45.5 70.5t-122.5 24.5q-62 -7 -109.5 -30t-82 -67.5t-47.5 -108.5z" />
<glyph unicode="&#xeb;" horiz-adv-x="1095" d="M983 1240q-60 0 -108 47.5t-48 111.5q0 63 47.5 109t108.5 46t109.5 -46t48.5 -109q0 -64 -48.5 -111.5t-109.5 -47.5zM525 1240q-60 0 -108 47.5t-48 111.5q0 63 48 109t108 46q62 0 109.5 -45.5t47.5 -109.5t-48 -111.5t-109 -47.5zM469 -21q-98 0 -180.5 33t-138.5 95 t-76 151t6 201l32 133q24 98 68 179.5t101 138.5t126 96.5t142.5 58t150.5 18.5q92 0 166 -29t119.5 -77t69.5 -105.5t23 -118.5q0 -72 -25 -127t-73 -90t-106 -56t-133 -33l-389 -27q-26 -92 23 -146.5t167 -54.5q177 0 295 103l146 -165q-43 -42 -85.5 -71.5t-102.5 -55 t-141.5 -38.5t-184.5 -13zM403 642l268 16q81 10 111.5 34t27.5 61q-4 41 -45.5 70.5t-122.5 24.5q-62 -7 -109.5 -30t-82 -67.5t-47.5 -108.5z" />
<glyph unicode="&#xec;" horiz-adv-x="556" d="M342 1204l-159 253l286 180l111 -433h-238zM21 0l253 1061h304l-254 -1061h-303z" />
<glyph unicode="&#xed;" horiz-adv-x="556" d="M306 1215l211 381l272 -185l-249 -196h-234zM21 0l253 1061h304l-254 -1061h-303z" />
<glyph unicode="&#xee;" horiz-adv-x="556" d="M314 1215l-122 144l221 221h247l135 -238l-169 -129l-129 139zM21 0l253 1061h304l-254 -1061h-303z" />
<glyph unicode="&#xef;" horiz-adv-x="556" d="M666 1256q-43 0 -74.5 18.5t-46.5 54.5t-9 84q3 37 16 66.5t32.5 49.5t47 30.5t60.5 10.5q44 0 75.5 -18.5t46.5 -54t9 -84.5q-9 -74 -50.5 -115.5t-106.5 -41.5zM298 1256q-68 0 -104 42t-27 115q9 75 49 116t104 41q68 0 105 -42t28 -115q-9 -74 -50 -115.5t-105 -41.5 zM21 0l253 1061h304l-254 -1061h-303z" />
<glyph unicode="&#xf0;" horiz-adv-x="1168" d="M469 -16q-83 0 -162 32t-140.5 94t-86 153t1.5 208l32 135q40 157 125.5 266.5t200.5 162t254 52.5q75 0 139.5 -35.5t84.5 -85.5q9 54 0 123t-34 137l-234 -68l-58 137l201 93q-43 54 -86 82l219 211q91 -81 143 -167l165 76l101 -236l-177 -50q62 -260 -40 -678 l-43 -177q-26 -106 -73.5 -189.5t-120.5 -146.5t-177.5 -96t-234.5 -33zM531 243q82 0 149.5 54t91.5 154l40 167q24 97 -14 157t-125 60q-85 0 -151 -58.5t-91 -158.5l-39 -167q-24 -101 16.5 -154.5t122.5 -53.5z" />
<glyph unicode="&#xf1;" horiz-adv-x="1178" d="M938 1264q-37 -2 -71 7t-60.5 22.5t-52 27.5t-57.5 23.5t-67 7.5q-50 -1 -86 -20t-69 -66q1 0 -31.5 12t-64.5 24l-33 12q30 103 122 181.5t209 82.5q46 1 87 -9t69.5 -25t54 -30t50.5 -25t49 -10q46 2 85.5 26t62.5 69l123 -49q-12 -37 -30 -72.5t-46.5 -70t-63.5 -60 t-81.5 -41.5t-98.5 -17zM30 2l252 1057h290l-28 -121q31 61 117 105t187 44q82 0 145 -28t106 -87t51.5 -152t-19.5 -223l-144 -597h-297l143 595q27 123 -4 189t-116 66q-51 0 -89.5 -16t-66.5 -49.5t-47.5 -79t-34.5 -110.5l-141 -593h-304z" />
<glyph unicode="&#xf2;" horiz-adv-x="1136" d="M650 1202l-175 251l286 169l146 -420h-257zM493 -24q-89 0 -172 33t-147 96.5t-88.5 157t3.5 214.5l27 118q118 488 586 488q85 0 165.5 -32t143.5 -93.5t88 -152.5t-2 -210l-30 -118q-31 -127 -76.5 -217.5t-113.5 -155.5t-163 -96.5t-221 -31.5zM523 232q39 0 76 13 t71.5 40.5t62 74.5t42.5 109l30 133q25 104 -17 164.5t-132 60.5q-91 0 -157.5 -58t-91.5 -167l-31 -133q-26 -116 18 -176.5t129 -60.5z" />
<glyph unicode="&#xf3;" horiz-adv-x="1136" d="M534 1200l308 420l243 -221l-282 -199h-269zM493 -24q-89 0 -172 33t-147 96.5t-88.5 157t3.5 214.5l27 118q118 488 586 488q85 0 165.5 -32t143.5 -93.5t88 -152.5t-2 -210l-30 -118q-31 -127 -76.5 -217.5t-113.5 -155.5t-163 -96.5t-221 -31.5zM523 232q39 0 76 13 t71.5 40.5t62 74.5t42.5 109l30 133q25 104 -17 164.5t-132 60.5q-91 0 -157.5 -58t-91.5 -167l-31 -133q-26 -116 18 -176.5t129 -60.5z" />
<glyph unicode="&#xf4;" horiz-adv-x="1136" d="M515 1198l-110 139l274 235h249l177 -239l-169 -131l-173 152zM493 -24q-89 0 -172 33t-147 96.5t-88.5 157t3.5 214.5l27 118q118 488 586 488q85 0 165.5 -32t143.5 -93.5t88 -152.5t-2 -210l-30 -118q-31 -127 -76.5 -217.5t-113.5 -155.5t-163 -96.5t-221 -31.5z M523 232q39 0 76 13t71.5 40.5t62 74.5t42.5 109l30 133q25 104 -17 164.5t-132 60.5q-91 0 -157.5 -58t-91.5 -167l-31 -133q-26 -116 18 -176.5t129 -60.5z" />
<glyph unicode="&#xf5;" horiz-adv-x="1136" d="M898 1222q-38 -2 -72 7t-60 22.5t-51.5 27.5t-57.5 23t-67 8q-50 -1 -86 -20t-69 -66q1 0 -31.5 12t-64.5 24l-33 12q14 49 45 95t73 83t98 60t115 26q46 1 87 -9t70 -25t54 -30t50.5 -25.5t49.5 -9.5q46 1 84.5 25.5t62.5 69.5l122 -49q-14 -48 -40 -91.5t-64.5 -82 t-94.5 -62.5t-120 -25zM493 -24q-89 0 -172 33t-147 96.5t-88.5 157t3.5 214.5l27 118q118 488 586 488q85 0 165.5 -32t143.5 -93.5t88 -152.5t-2 -210l-30 -118q-31 -127 -76.5 -217.5t-113.5 -155.5t-163 -96.5t-221 -31.5zM523 232q39 0 76 13t71.5 40.5t62 74.5 t42.5 109l30 133q25 104 -17 164.5t-132 60.5q-91 0 -157.5 -58t-91.5 -167l-31 -133q-26 -116 18 -176.5t129 -60.5z" />
<glyph unicode="&#xf6;" horiz-adv-x="1136" d="M1000 1217q-60 0 -108 47t-48 111t48 110.5t108 46.5q62 0 110 -46.5t48 -110.5q0 -42 -22.5 -78.5t-59 -58t-76.5 -21.5zM542 1217q-29 0 -57.5 13t-50 34t-35 50t-13.5 61q0 42 22.5 78.5t58.5 57.5t75 21q61 0 108.5 -46.5t47.5 -110.5t-47.5 -111t-108.5 -47z M493 -24q-89 0 -172 33t-147 96.5t-88.5 157t3.5 214.5l27 118q118 488 586 488q85 0 165.5 -32t143.5 -93.5t88 -152.5t-2 -210l-30 -118q-31 -127 -76.5 -217.5t-113.5 -155.5t-163 -96.5t-221 -31.5zM523 232q39 0 76 13t71.5 40.5t62 74.5t42.5 109l30 133 q25 104 -17 164.5t-132 60.5q-91 0 -157.5 -58t-91.5 -167l-31 -133q-26 -116 18 -176.5t129 -60.5z" />
<glyph unicode="&#xf7;" horiz-adv-x="1421" d="M821 936q-58 0 -99 48.5t-24 114.5q19 75 69.5 119t128.5 44q60 0 102 -47t25 -116q-19 -73 -72 -118t-130 -45zM171 559l65 270h1137l-65 -270h-1137zM622 116q-58 0 -97.5 47.5t-22.5 114.5q12 49 37 84.5t66.5 57t94.5 21.5q58 0 100 -48t25 -115q-12 -48 -39 -84 t-69.5 -57t-94.5 -21z" />
<glyph unicode="&#xf8;" horiz-adv-x="1143" d="M376 469q-6 -25 -9 -47l369 388q-40 17 -80 17q-91 0 -157.5 -58t-91.5 -167zM523 232q39 0 76 13t71.5 40.5t62 74.5t42.5 109l30 133q5 16 5 22l-363 -375q29 -17 76 -17zM493 -24q-130 0 -244 68l-112 -116l-123 120l113 119q-83 132 -38 310l27 118q118 488 586 488 q124 0 230 -64l93 96l135 -128l-95 -99q74 -127 32 -293l-30 -118q-31 -127 -76.5 -217.5t-113.5 -155.5t-163 -96.5t-221 -31.5z" />
<glyph unicode="&#xf9;" horiz-adv-x="1193" d="M692 1236l-175 251l286 169l147 -420h-258zM431 -30q-59 0 -114.5 17t-105.5 52.5t-81.5 91t-41.5 131.5t15 175q148 620 150 624h306l-148 -626q-24 -97 11.5 -153t113.5 -56q90 0 143 53t78 156l150 626h315l-256 -1061h-196l-31 116q-38 -63 -121.5 -104.5 t-186.5 -41.5z" />
<glyph unicode="&#xfa;" horiz-adv-x="1193" d="M525 1226l308 419l242 -222l-280 -197h-270zM431 -30q-59 0 -114.5 17t-105.5 52.5t-81.5 91t-41.5 131.5t15 175q148 620 150 624h306l-148 -626q-24 -97 11.5 -153t113.5 -56q90 0 143 53t78 156l150 626h315l-256 -1061h-196l-31 116q-38 -63 -121.5 -104.5 t-186.5 -41.5z" />
<glyph unicode="&#xfb;" horiz-adv-x="1193" d="M542 1234l-109 139l274 235h249l177 -239l-169 -131l-173 152zM431 -30q-59 0 -114.5 17t-105.5 52.5t-81.5 91t-41.5 131.5t15 175q148 620 150 624h306l-148 -626q-24 -97 11.5 -153t113.5 -56q90 0 143 53t78 156l150 626h315l-256 -1061h-196l-31 116 q-38 -63 -121.5 -104.5t-186.5 -41.5z" />
<glyph unicode="&#xfc;" horiz-adv-x="1193" d="M1015 1240q-60 0 -108 47.5t-48 111.5q0 63 47.5 109t108.5 46t109.5 -46t48.5 -109q0 -64 -48.5 -111.5t-109.5 -47.5zM557 1240q-39 0 -75 21.5t-58.5 58.5t-22.5 79q0 63 48 109t108 46q62 0 109 -45.5t47 -109.5t-47.5 -111.5t-108.5 -47.5zM431 -30q-59 0 -114.5 17 t-105.5 52.5t-81.5 91t-41.5 131.5t15 175q148 620 150 624h306l-148 -626q-24 -97 11.5 -153t113.5 -56q90 0 143 53t78 156l150 626h315l-256 -1061h-196l-31 116q-38 -63 -121.5 -104.5t-186.5 -41.5z" />
<glyph unicode="&#xfd;" horiz-adv-x="1117" d="M521 1244l308 420l242 -221l-280 -199h-270zM-137 -420l103 241q202 -64 302 105q3 5 18.5 27.5t26.5 42t11 28.5l-157 1037h308l73 -698l388 694h336l-775 -1247q-61 -96 -139 -157.5t-161.5 -84.5t-166.5 -19.5t-167 31.5z" />
<glyph unicode="&#xfe;" horiz-adv-x="1197" d="M574 236q95 0 154.5 58t86.5 163l33 138q25 108 -14.5 170t-112.5 62q-61 0 -110.5 -24.5t-86.5 -77t-55 -130.5l-34 -138q-25 -100 15 -160.5t124 -60.5zM-78 -415l458 1913h291l-127 -538q23 26 45.5 44.5t58.5 38t87.5 30t116.5 10.5q68 0 132.5 -31t116 -93.5 t68.5 -157t-11 -221.5l-29 -115q-58 -239 -200 -360t-349 -121q-43 0 -89 13.5t-85.5 42.5t-51.5 67l-124 -522h-308z" />
<glyph unicode="&#xff;" horiz-adv-x="1117" d="M978 1242q-59 0 -107 47.5t-48 111.5q0 63 47.5 109t107.5 46q62 0 110.5 -46t48.5 -109q0 -64 -48.5 -111.5t-110.5 -47.5zM521 1242q-60 0 -108 47.5t-48 111.5q0 63 48 109t108 46q62 0 109 -45.5t47 -109.5t-47.5 -111.5t-108.5 -47.5zM-137 -420l103 241 q202 -64 302 105q3 5 18.5 27.5t26.5 42t11 28.5l-157 1037h308l73 -698l388 694h336l-775 -1247q-61 -96 -139 -157.5t-161.5 -84.5t-166.5 -19.5t-167 31.5z" />
<glyph unicode="&#x100;" horiz-adv-x="1397" d="M542 1618l50 211h811l-51 -211h-810zM525 511h391l-57 578zM-82 0l867 1498h306l179 -1498h-302l-30 255h-544l-154 -255h-322z" />
<glyph unicode="&#x101;" horiz-adv-x="1212" d="M403 1302l50 210h811l-51 -210h-810zM517 219q98 0 165 57t95 171l33 141q27 116 -15.5 183.5t-126.5 67.5q-188 0 -255 -251l-35 -131q-19 -77 0 -130t56.5 -80.5t82.5 -27.5zM409 -28q-71 0 -140 34t-122.5 98.5t-73 157t8.5 209.5l30 107q65 257 204 383t336 126 q58 0 106 -15.5t79.5 -40.5t51 -54.5t27.5 -60.5l94 143h212l-256 -1059h-179l-17 123q-19 -29 -47.5 -53.5t-71 -47.5t-105 -36.5t-137.5 -13.5z" />
<glyph unicode="&#x102;" horiz-adv-x="1397" d="M948 1594q-58 0 -125 26t-122 71.5t-75 95.5l161 145q32 -49 84 -78t121 -29q41 0 83.5 12t84 36.5t74.5 58.5l145 -145q-155 -193 -431 -193zM525 511h391l-57 578zM-82 0l867 1498h306l179 -1498h-302l-30 255h-544l-154 -255h-322z" />
<glyph unicode="&#x103;" horiz-adv-x="1178" d="M767 1228q-57 0 -123.5 25.5t-122 70.5t-74.5 95l161 147q71 -109 204 -109q63 0 128 28.5t115 80.5l145 -147q-155 -191 -433 -191zM517 219q98 0 165 57t95 171l33 141q27 116 -15.5 183.5t-126.5 67.5q-188 0 -255 -251l-35 -131q-19 -77 0 -130t56.5 -80.5 t82.5 -27.5zM409 -28q-71 0 -140 34t-122.5 98.5t-73 157t8.5 209.5l30 107q65 257 204 383t336 126q58 0 106 -15.5t79.5 -40.5t51 -54.5t27.5 -60.5l94 143h212l-256 -1059h-179l-17 123q-19 -29 -47.5 -53.5t-71 -47.5t-105 -36.5t-137.5 -13.5z" />
<glyph unicode="&#x104;" horiz-adv-x="1397" d="M525 511h391l-57 578zM1206 -240l-57 -235h-217q-51 0 -94.5 21.5t-69.5 57.5t-36.5 79t3.5 90.5t52 87.5q17 21 73 75.5t104 97.5l-26 221h-544l-154 -255h-322l867 1498h306l179 -1498h-6l-239 -196q-22 -19 -18 -31.5t24 -12.5h175z" />
<glyph unicode="&#x105;" horiz-adv-x="1172" d="M905 -467h-217q-51 0 -95 21.5t-70 58t-36.5 79t3.5 90.5t52 87q32 42 209 203q5 5 24 15l-5 36q-19 -29 -47.5 -53.5t-71 -47.5t-105 -36.5t-137.5 -13.5q-71 0 -140 34t-122.5 98.5t-73 157t8.5 209.5l30 107q65 257 204 383t336 126q58 0 106 -15.5t79.5 -40.5 t51 -54.5t27.5 -60.5l94 143h212l-241 -998l38 -53l-238 -195q-22 -20 -18 -32.5t24 -12.5h175zM517 219q98 0 165 57t95 171l33 141q27 116 -15.5 183.5t-126.5 67.5q-188 0 -255 -251l-35 -131q-19 -77 0 -130t56.5 -80.5t82.5 -27.5z" />
<glyph unicode="&#x106;" horiz-adv-x="1368" d="M783 1610l308 419l242 -221l-280 -198h-270zM597 -24q-76 0 -152 25t-146.5 76t-115.5 130.5t-60 188.5t20 250l47 196q163 679 766 679q103 0 194 -38.5t156 -106t97.5 -167.5t19.5 -215h-294q8 120 -50 185t-172 65q-315 0 -412 -390l-50 -220q-32 -129 -10 -213.5 t80.5 -126t148.5 -41.5q77 0 136 20t99.5 58t67 81.5t48.5 102.5h297q-30 -91 -67 -164.5t-83.5 -134.5t-103 -105t-126 -74.5t-153 -45.5t-182.5 -15z" />
<glyph unicode="&#x107;" horiz-adv-x="1073" d="M529 1213l308 420l243 -222l-281 -198h-270zM457 -30q-84 0 -162 35t-135.5 99.5t-81 155.5t1.5 205l25 107q62 261 207.5 386t387.5 125q67 0 127.5 -18t109.5 -52.5t82 -85t44.5 -116t-4.5 -145.5l-254 18q13 71 -29.5 112t-129.5 41q-93 0 -160 -64.5t-96 -182.5 l-34 -143q-24 -104 23.5 -169t135.5 -65q176 0 250 127l231 -106q-46 -68 -93.5 -115t-111 -81.5t-145.5 -51t-189 -16.5z" />
<glyph unicode="&#x10a;" horiz-adv-x="1368" d="M996 1622q-62 0 -111.5 48t-49.5 113t49.5 113.5t111.5 48.5q63 0 111.5 -48t48.5 -114t-48.5 -113.5t-111.5 -47.5zM597 -24q-76 0 -152 25t-146.5 76t-115.5 130.5t-60 188.5t20 250l47 196q163 679 766 679q103 0 194 -38.5t156 -106t97.5 -167.5t19.5 -215h-294 q8 120 -50 185t-172 65q-315 0 -412 -390l-50 -220q-32 -129 -10 -213.5t80.5 -126t148.5 -41.5q77 0 136 20t99.5 58t67 81.5t48.5 102.5h297q-30 -91 -67 -164.5t-83.5 -134.5t-103 -105t-126 -74.5t-153 -45.5t-182.5 -15z" />
<glyph unicode="&#x10b;" horiz-adv-x="1073" d="M789 1248q-62 0 -111.5 48t-49.5 113t50 114t111 49q63 0 112 -48.5t49 -114t-49 -113.5t-112 -48zM457 -30q-84 0 -162 35t-135.5 99.5t-81 155.5t1.5 205l25 107q62 261 207.5 386t387.5 125q67 0 127.5 -18t109.5 -52.5t82 -85t44.5 -116t-4.5 -145.5l-254 18 q13 71 -29.5 112t-129.5 41q-93 0 -160 -64.5t-96 -182.5l-34 -143q-24 -104 23.5 -169t135.5 -65q176 0 250 127l231 -106q-46 -68 -93.5 -115t-111 -81.5t-145.5 -51t-189 -16.5z" />
<glyph unicode="&#x10c;" horiz-adv-x="1368" d="M846 1610l-164 234l143 126l177 -150l256 146l132 -128l-287 -228h-257zM597 -24q-76 0 -152 25t-146.5 76t-115.5 130.5t-60 188.5t20 250l47 196q163 679 766 679q103 0 194 -38.5t156 -106t97.5 -167.5t19.5 -215h-294q8 120 -50 185t-172 65q-315 0 -412 -390 l-50 -220q-32 -129 -10 -213.5t80.5 -126t148.5 -41.5q77 0 136 20t99.5 58t67 81.5t48.5 102.5h297q-30 -91 -67 -164.5t-83.5 -134.5t-103 -105t-126 -74.5t-153 -45.5t-182.5 -15z" />
<glyph unicode="&#x10d;" horiz-adv-x="1073" d="M618 1226l-165 234l144 126l178 -149l254 145l133 -129l-286 -227h-258zM457 -30q-84 0 -162 35t-135.5 99.5t-81 155.5t1.5 205l25 107q62 261 207.5 386t387.5 125q67 0 127.5 -18t109.5 -52.5t82 -85t44.5 -116t-4.5 -145.5l-254 18q13 71 -29.5 112t-129.5 41 q-93 0 -160 -64.5t-96 -182.5l-34 -143q-24 -104 23.5 -169t135.5 -65q176 0 250 127l231 -106q-46 -68 -93.5 -115t-111 -81.5t-145.5 -51t-189 -16.5z" />
<glyph unicode="&#x10e;" horiz-adv-x="1345" d="M723 1603l-164 235l143 126l178 -150l255 146l133 -129l-287 -228h-258zM21 0l359 1498h536q103 0 197 -46.5t161.5 -132t92.5 -206.5t-10 -269l-47 -198q-154 -646 -755 -646h-534zM386 274h234q83 0 150.5 28.5t114 81t77.5 117t50 145.5l47 198q21 80 14 149.5 t-34 120.5t-77 80.5t-114 29.5h-234z" />
<glyph unicode="&#x10f;" horiz-adv-x="1509" d="M1694 1530q42 0 73 -19.5t44.5 -56t2.5 -81.5q-10 -49 -57 -105q-17 -19 -66.5 -78t-90.5 -109l-42 -50h-141q74 314 81 340q16 67 68.5 113t127.5 46zM519 221q89 0 157.5 58t95.5 168l29 135q27 115 -12 184t-123 69q-66 0 -117.5 -31t-86 -86.5t-53.5 -135.5l-31 -135 q-27 -106 17 -166t124 -60zM399 -21q-65 0 -130.5 32t-119 93.5t-73.5 152t6 208.5l23 105q62 254 205.5 383.5t339.5 129.5q51 0 101.5 -16t89.5 -47t49 -70l133 550h297l-358 -1500h-181l-28 127q-37 -60 -127 -104t-227 -44z" />
<glyph unicode="&#x110;" horiz-adv-x="1406" d="M614 0h-534l146 610h-176l59 274h182l148 614h535q103 0 197.5 -46.5t161.5 -132t92.5 -206.5t-10.5 -269l-46 -198q-155 -646 -755 -646zM445 274h234q83 0 150 28.5t113.5 81t77.5 117t51 145.5l47 198q20 80 13.5 149.5t-33.5 120.5t-76.5 80.5t-114.5 29.5h-234 l-83 -340h233l-68 -274h-230z" />
<glyph unicode="&#x111;" horiz-adv-x="1216" d="M519 221q89 0 157.5 58t95.5 168l29 135q27 115 -12 184t-123 69q-66 0 -117.5 -31t-86 -86.5t-53.5 -135.5l-31 -135q-27 -106 17 -166t124 -60zM753 127q-37 -60 -127 -104t-227 -44q-65 0 -130.5 32t-119 93.5t-73.5 152t6 208.5l23 105q62 254 205.5 383.5 t339.5 129.5q51 0 101.5 -16t89.5 -47t49 -70l56 227h-227l53 220h226l25 103h297l-25 -103h154l-52 -220h-155l-280 -1177h-181z" />
<glyph unicode="&#x112;" horiz-adv-x="1216" d="M462 1650l51 210h810l-51 -210h-810zM21 0l359 1498h981l-63 -268h-684l-80 -342h535l-63 -268h-537l-85 -352h691l-63 -268h-991z" />
<glyph unicode="&#x113;" horiz-adv-x="1095" d="M318 1284l51 212h810l-50 -212h-811zM469 -21q-98 0 -180.5 33t-138.5 95t-76 151t6 201l32 133q24 98 68 179.5t101 138.5t126 96.5t142.5 58t150.5 18.5q92 0 166 -29t119.5 -77t69.5 -105.5t23 -118.5q0 -72 -25 -127t-73 -90t-106 -56t-133 -33l-389 -27 q-26 -92 23 -146.5t167 -54.5q177 0 295 103l146 -165q-43 -42 -85.5 -71.5t-102.5 -55t-141.5 -38.5t-184.5 -13zM403 642l268 16q81 10 111.5 34t27.5 61q-4 41 -45.5 70.5t-122.5 24.5q-62 -7 -109.5 -30t-82 -67.5t-47.5 -108.5z" />
<glyph unicode="&#x114;" horiz-adv-x="1216" d="M805 1592q-57 0 -123.5 26t-122 71t-74.5 96l161 145q71 -108 204 -108q41 0 84 12.5t84 37t75 58.5l145 -145q-156 -193 -433 -193zM21 0l359 1498h981l-63 -268h-684l-80 -342h535l-63 -268h-537l-85 -352h691l-63 -268h-991z" />
<glyph unicode="&#x115;" horiz-adv-x="1095" d="M707 1222q-58 0 -124.5 25.5t-121.5 70.5t-75 95l160 145q32 -48 84 -77.5t121 -29.5q63 0 128 28t115 79l145 -145q-155 -191 -432 -191zM469 -21q-98 0 -180.5 33t-138.5 95t-76 151t6 201l32 133q24 98 68 179.5t101 138.5t126 96.5t142.5 58t150.5 18.5q92 0 166 -29 t119.5 -77t69.5 -105.5t23 -118.5q0 -72 -25 -127t-73 -90t-106 -56t-133 -33l-389 -27q-26 -92 23 -146.5t167 -54.5q177 0 295 103l146 -165q-43 -42 -85.5 -71.5t-102.5 -55t-141.5 -38.5t-184.5 -13zM403 642l268 16q81 10 111.5 34t27.5 61q-4 41 -45.5 70.5 t-122.5 24.5q-62 -7 -109.5 -30t-82 -67.5t-47.5 -108.5z" />
<glyph unicode="&#x116;" horiz-adv-x="1216" d="M888 1603q-40 0 -77 21t-60 58.5t-23 80.5q0 66 49 114.5t111 48.5q63 0 112 -48.5t49 -114t-49 -113t-112 -47.5zM21 0l359 1498h981l-63 -268h-684l-80 -342h535l-63 -268h-537l-85 -352h691l-63 -268h-991z" />
<glyph unicode="&#x117;" horiz-adv-x="1095" d="M749 1240q-24 0 -47.5 8t-44 23t-36 34.5t-24.5 44.5t-9 51q0 65 49.5 114t111.5 49t111 -49t49 -114.5t-48.5 -113t-111.5 -47.5zM469 -21q-98 0 -180.5 33t-138.5 95t-76 151t6 201l32 133q24 98 68 179.5t101 138.5t126 96.5t142.5 58t150.5 18.5q92 0 166 -29 t119.5 -77t69.5 -105.5t23 -118.5q0 -72 -25 -127t-73 -90t-106 -56t-133 -33l-389 -27q-26 -92 23 -146.5t167 -54.5q177 0 295 103l146 -165q-43 -42 -85.5 -71.5t-102.5 -55t-141.5 -38.5t-184.5 -13zM403 642l268 16q81 10 111.5 34t27.5 61q-4 41 -45.5 70.5 t-122.5 24.5q-62 -7 -109.5 -30t-82 -67.5t-47.5 -108.5z" />
<glyph unicode="&#x118;" horiz-adv-x="1216" d="M954 -238l-58 -235h-217q-51 0 -95 21.5t-70 57.5t-36.5 79t4 90.5t52.5 87.5q29 37 137 137h-650l359 1498h981l-63 -268h-684l-80 -342h535l-63 -268h-537l-85 -352h691l-63 -268h-4l-236 -194q-21 -19 -17 -31.5t24 -12.5h175z" />
<glyph unicode="&#x119;" horiz-adv-x="1095" d="M787 -382h-217q-51 0 -95 21.5t-70 57.5t-36.5 79t3.5 90.5t52 87.5q7 9 23 25q-94 4 -172 38.5t-131 96.5t-71 149t7 196l32 133q24 98 68 179.5t101 138.5t126 96.5t142.5 58t150.5 18.5q92 0 166 -29t119.5 -77t69.5 -105.5t23 -118.5q0 -72 -25 -127t-73 -90 t-106 -56t-133 -33l-389 -27q-26 -92 23 -146.5t167 -54.5q177 0 295 103l146 -165q-54 -54 -112 -89l-209 -171q-22 -19 -17.5 -31.5t23.5 -12.5h176zM403 642l268 16q81 10 111.5 34t27.5 61q-4 41 -45.5 70.5t-122.5 24.5q-62 -7 -109.5 -30t-82 -67.5t-47.5 -108.5z" />
<glyph unicode="&#x11a;" horiz-adv-x="1216" d="M726 1618l-165 234l144 127l177 -150l255 146l133 -129l-287 -228h-257zM21 0l359 1498h981l-63 -268h-684l-80 -342h535l-63 -268h-537l-85 -352h691l-63 -268h-991z" />
<glyph unicode="&#x11b;" horiz-adv-x="1095" d="M572 1222l-165 233l144 127l177 -149l255 145l132 -129l-286 -227h-257zM469 -21q-98 0 -180.5 33t-138.5 95t-76 151t6 201l32 133q24 98 68 179.5t101 138.5t126 96.5t142.5 58t150.5 18.5q92 0 166 -29t119.5 -77t69.5 -105.5t23 -118.5q0 -72 -25 -127t-73 -90 t-106 -56t-133 -33l-389 -27q-26 -92 23 -146.5t167 -54.5q177 0 295 103l146 -165q-43 -42 -85.5 -71.5t-102.5 -55t-141.5 -38.5t-184.5 -13zM403 642l268 16q81 10 111.5 34t27.5 61q-4 41 -45.5 70.5t-122.5 24.5q-62 -7 -109.5 -30t-82 -67.5t-47.5 -108.5z" />
<glyph unicode="&#x11e;" d="M922 1614q-57 0 -124 25.5t-122 70.5t-74 96l159 145q21 -32 49.5 -55t68.5 -37.5t87 -14.5q42 0 84.5 12t84 36.5t74.5 58.5l145 -145q-154 -192 -432 -192zM592 -24q-75 0 -151 25t-146.5 76.5t-116 131t-60.5 188.5t19 249l46 200q40 162 103.5 285t155 211 t216.5 133.5t280 45.5q98 0 189 -38.5t158 -105t102.5 -164t23.5 -207.5h-302q2 46 -8.5 86t-35 75.5t-70.5 56t-109 20.5q-159 0 -259.5 -103t-143.5 -285l-55 -224q-41 -178 14.5 -279.5t199.5 -101.5q142 0 240 88.5t139 252.5h-278l54 237h582l-48 -199 q-41 -174 -106.5 -298.5t-158.5 -203t-209.5 -115.5t-264.5 -37z" />
<glyph unicode="&#x11f;" horiz-adv-x="1199" d="M765 1226q-42 0 -92.5 15t-95.5 40.5t-81 61.5t-51 74l161 147q71 -109 204 -109q63 0 128 28.5t115 80.5l145 -147q-155 -191 -433 -191zM531 234q181 0 232 221l32 129q14 65 11.5 110t-23.5 72.5t-50 40t-67 12.5q-92 0 -151 -57t-89 -178l-32 -129 q-24 -100 19 -160.5t118 -60.5zM314 -479q-113 0 -227 54t-148 119q192 175 194 177q60 -92 221 -92q109 0 191.5 61t112.5 184l17 71q-40 -63 -99 -91t-165 -28q-67 0 -134.5 31t-123.5 92.5t-76.5 153.5t5.5 216l23 103q61 249 197.5 377.5t331.5 128.5q88 0 155.5 -36 t94.5 -100l101 121h237l-256 -1047q-32 -132 -88.5 -226.5t-139 -154t-186.5 -87t-238 -27.5z" />
<glyph unicode="&#x120;" d="M978 1628q-61 0 -110 48t-49 113t49 113.5t110 48.5q63 0 112 -48t49 -113.5t-49 -113.5t-112 -48zM592 -24q-75 0 -151 25t-146.5 76.5t-116 131t-60.5 188.5t19 249l46 200q40 162 103.5 285t155 211t216.5 133.5t280 45.5q98 0 189 -38.5t158 -105t102.5 -164 t23.5 -207.5h-302q2 46 -8.5 86t-35 75.5t-70.5 56t-109 20.5q-159 0 -259.5 -103t-143.5 -285l-55 -224q-41 -178 14.5 -279.5t199.5 -101.5q142 0 240 88.5t139 252.5h-278l54 237h582l-48 -199q-41 -174 -106.5 -298.5t-158.5 -203t-209.5 -115.5t-264.5 -37z" />
<glyph unicode="&#x121;" horiz-adv-x="1199" d="M801 1244q-40 0 -76.5 21.5t-59.5 59t-23 80.5q0 65 49 114t110 49q41 0 78 -22t60 -60t23 -81q0 -65 -49 -113t-112 -48zM531 234q181 0 232 221l32 129q14 65 11.5 110t-23.5 72.5t-50 40t-67 12.5q-92 0 -151 -57t-89 -178l-32 -129q-24 -100 19 -160.5t118 -60.5z M314 -479q-113 0 -227 54t-148 119q192 175 194 177q60 -92 221 -92q109 0 191.5 61t112.5 184l17 71q-40 -63 -99 -91t-165 -28q-67 0 -134.5 31t-123.5 92.5t-76.5 153.5t5.5 216l23 103q61 249 197.5 377.5t331.5 128.5q88 0 155.5 -36t94.5 -100l101 121h237l-256 -1047 q-32 -132 -88.5 -226.5t-139 -154t-186.5 -87t-238 -27.5z" />
<glyph unicode="&#x123;" horiz-adv-x="1199" d="M1143 1633q-56 -236 -65 -272q-19 -73 -66.5 -117t-127.5 -44q-62 0 -101.5 47t-25.5 110q7 37 68 113q8 8 21 22t27.5 29t30.5 31l30 30l25.5 25.5l18.5 18.5l7 7h158zM531 234q181 0 232 221l32 129q14 65 11.5 110t-23.5 72.5t-50 40t-67 12.5q-92 0 -151 -57 t-89 -178l-32 -129q-24 -100 19 -160.5t118 -60.5zM314 -479q-113 0 -227 54t-148 119q192 175 194 177q60 -92 221 -92q109 0 191.5 61t112.5 184l17 71q-40 -63 -99 -91t-165 -28q-67 0 -134.5 31t-123.5 92.5t-76.5 153.5t5.5 216l23 103q61 249 197.5 377.5t331.5 128.5 q88 0 155.5 -36t94.5 -100l101 121h237l-256 -1047q-32 -132 -88.5 -226.5t-139 -154t-186.5 -87t-238 -27.5z" />
<glyph unicode="&#x126;" horiz-adv-x="1368" d="M527 886h526l50 215h-525zM465 618l-151 -618h-298l264 1101h-129l58 232h127l40 165h297l-41 -165h526l40 165h296l-41 -165h137l-54 -232h-137l-264 -1101h-296l148 618h-522z" />
<glyph unicode="&#x127;" horiz-adv-x="1184" d="M467 599l-145 -599h-306l280 1162h-133l54 228h133l26 108h308l-26 -108h242l-54 -228h-244l-51 -212q41 60 116 94t170 34q86 0 153 -29t111 -88.5t54 -149.5t-18 -212l-143 -599h-300l143 599q26 109 -4.5 173.5t-121.5 64.5q-88 0 -154 -66.5t-90 -171.5z" />
<glyph unicode="&#x12a;" horiz-adv-x="545" d="M304 1652l50 212h509l-51 -212h-508zM16 0l360 1498h301l-361 -1498h-300z" />
<glyph unicode="&#x12b;" horiz-adv-x="556" d="M199 1246l59 248h525l-62 -248h-522zM21 0l253 1061h304l-254 -1061h-303z" />
<glyph unicode="&#x12c;" horiz-adv-x="545" d="M538 1610q-61 0 -124 28t-108 78t-53 106l158 125q19 -49 63 -79t108 -30q66 0 125 30t101 79l140 -120q-57 -94 -165 -155.5t-245 -61.5zM16 0l360 1498h301l-361 -1498h-300z" />
<glyph unicode="&#x12d;" horiz-adv-x="556" d="M455 1240q-60 0 -116.5 29t-92.5 75.5t-43 96.5l145 117q10 -26 32.5 -46.5t52 -31t60.5 -10.5q42 0 75 7.5t64.5 28.5t55.5 55l133 -124q-65 -98 -152 -147.5t-214 -49.5zM21 0l253 1061h304l-254 -1061h-303z" />
<glyph unicode="&#x12e;" horiz-adv-x="554" d="M266 -240l-57 -235h-217q-51 0 -95 21.5t-70 57.5t-36.5 79t3.5 90.5t52 87.5q17 23 79.5 82.5t116.5 106.5l346 1448h302l-361 -1498h-7l-238 -196q-21 -19 -17 -31.5t24 -12.5h175z" />
<glyph unicode="&#x12f;" horiz-adv-x="556" d="M485 1213q-80 0 -127.5 44t-47.5 120q0 73 50 118t125 45q81 0 129 -44.5t48 -118.5q0 -37 -14 -68.5t-38.5 -52t-56.5 -32t-68 -11.5zM264 -240l-57 -235h-217q-51 0 -95 21.5t-70 57.5t-37 79t3.5 90.5t51.5 87.5q21 27 189 183l242 1017h304l-254 -1061h-4l-238 -196 q-21 -19 -17 -31.5t24 -12.5h175z" />
<glyph unicode="&#x130;" horiz-adv-x="556" d="M588 1618q-40 0 -76.5 21t-60 58.5t-23.5 80.5q0 65 49.5 114t110.5 49q63 0 112 -49t49 -114q0 -66 -49 -113t-112 -47zM28 0l358 1498h302l-361 -1498h-299z" />
<glyph unicode="&#x131;" horiz-adv-x="556" d="M21 0l253 1061h304l-254 -1061h-303z" />
<glyph unicode="&#x136;" horiz-adv-x="1359" d="M16 0l360 1498h295l-144 -606l661 606h390l-696 -644l368 -854h-350l-278 640l-200 -187l-110 -453h-296zM334 -513q56 237 65 273q42 160 193 160q62 0 101.5 -47t25.5 -109q-7 -40 -67 -114q-17 -19 -57 -59.5t-72 -72.5l-32 -31h-157z" />
<glyph unicode="&#x137;" horiz-adv-x="1155" d="M21 0l367 1496h298l-193 -794l393 359h384l-475 -431l209 -630h-306l-139 443l-162 -135l-77 -308h-299zM219 -542q57 236 65 272q20 73 67.5 117t127.5 44q61 0 100.5 -47t26.5 -110q-7 -38 -68 -114q-17 -19 -57 -59.5t-72 -71.5l-31 -31h-159z" />
<glyph unicode="&#x139;" horiz-adv-x="1165" d="M424 1622l308 419l242 -221l-280 -198h-270zM26 0l358 1498h298l-294 -1224h675l-65 -274h-972z" />
<glyph unicode="&#x13a;" horiz-adv-x="689" d="M445 1572l183 439l334 -298l-232 -141h-285zM469 0q-136 -5 -225 45t-122.5 158t9.5 276l245 1019h301l-240 -1013q-34 -123 -14.5 -182.5t104.5 -59.5z" />
<glyph unicode="&#x13b;" horiz-adv-x="1157" d="M16 0l360 1498h297l-293 -1224h675l-65 -274h-974zM211 -546q57 236 65 272q43 160 195 160q61 0 100.5 -47t25.5 -109q-7 -38 -68 -114q-10 -12 -30.5 -33t-42 -42.5t-42 -41.5t-32.5 -32l-13 -13h-158z" />
<glyph unicode="&#x13c;" horiz-adv-x="581" d="M467 0q-136 -5 -225 45t-122.5 158t9.5 276l244 1019h302l-240 -1013q-34 -123 -14.5 -182.5t104.5 -59.5zM-72 -551q58 237 66 273q43 160 193 160q62 0 101.5 -47t25.5 -109q-7 -40 -67 -114q-17 -19 -57 -59.5t-72 -72.5l-31 -31h-159z" />
<glyph unicode="&#x13d;" horiz-adv-x="1222" d="M905 1021q79 316 85 342q9 42 34 77.5t67 58t92 22.5q66 0 103 -44.5t20 -113.5q-12 -46 -60 -103q-10 -12 -34.5 -41t-51.5 -62t-52.5 -64t-42.5 -52l-16 -20h-144zM16 0l360 1498h297l-293 -1224h675l-65 -274h-974z" />
<glyph unicode="&#x13e;" horiz-adv-x="997" d="M1053 1530q64 0 100.5 -45t19.5 -112q-9 -47 -58 -105q-16 -19 -65.5 -78t-90.5 -109l-41 -50h-141q73 314 79 340q16 67 68.5 113t128.5 46zM467 0q-136 -5 -225 45t-122.5 158t9.5 276l244 1019h302l-240 -1013q-34 -123 -14.5 -182.5t104.5 -59.5z" />
<glyph unicode="&#x13f;" horiz-adv-x="1231" d="M16 0l360 1498h297l-293 -1224h675l-65 -274h-974zM1021 662q-40 0 -77 21.5t-60 59t-23 80.5q0 65 49 113.5t111 48.5t111 -48.5t49 -113.5q0 -26 -8.5 -50.5t-24 -44.5t-35.5 -35t-44 -23t-48 -8z" />
<glyph unicode="&#x140;" horiz-adv-x="976" d="M467 0q-136 -5 -225 45t-122.5 158t9.5 276l244 1019h302l-240 -1013q-34 -123 -14.5 -182.5t104.5 -59.5zM797 439q-68 0 -116.5 45.5t-48.5 119.5q0 67 50 116.5t117 49.5q69 0 117 -47.5t48 -118.5q0 -74 -48.5 -119.5t-118.5 -45.5z" />
<glyph unicode="&#x141;" horiz-adv-x="1214" d="M1046 0h-972l147 612l-141 -32l-48 262l257 58l144 598h297l-126 -526l272 64l48 -261l-388 -89l-99 -412h674z" />
<glyph unicode="&#x142;" horiz-adv-x="745" d="M572 0q-136 -5 -225 45t-122.5 158t9.5 276l32 127l-145 -30l-49 276l266 57l141 589h302l-125 -522l159 34l48 -278l-279 -59l-44 -188q-34 -123 -14.5 -182.5t104.5 -59.5z" />
<glyph unicode="&#x143;" horiz-adv-x="1448" d="M761 1592l308 421l243 -222l-281 -199h-270zM16 0l360 1498h306l371 -971l231 971h296l-358 -1498h-322l-360 948l-228 -948h-296z" />
<glyph unicode="&#x144;" horiz-adv-x="1157" d="M538 1226l308 419l243 -222l-281 -197h-270zM10 2l254 1057h289l-28 -121q32 61 117.5 105t186.5 44q82 0 145.5 -28t106 -87t50.5 -152t-20 -223l-143 -597h-297l144 595q13 61 12 108.5t-16 80t-44.5 49.5t-72.5 17q-99 0 -153 -62t-86 -193l-141 -593h-304z" />
<glyph unicode="&#x145;" horiz-adv-x="1448" d="M16 0l360 1498h306l371 -971l231 971h296l-358 -1498h-322l-360 948l-228 -948h-296zM367 -525q57 236 66 272q43 160 193 160q62 0 101.5 -47t25.5 -109q-7 -39 -67 -114q-17 -18 -57 -59t-72 -72l-32 -31h-158z" />
<glyph unicode="&#x146;" horiz-adv-x="1157" d="M10 2l254 1057h289l-28 -121q32 61 117.5 105t186.5 44q82 0 145.5 -28t106 -87t50.5 -152t-20 -223l-143 -597h-297l144 595q13 61 12 108.5t-16 80t-44.5 49.5t-72.5 17q-99 0 -153 -62t-86 -193l-141 -593h-304zM268 -557q57 237 66 273q42 159 193 159 q62 0 101.5 -46.5t25.5 -108.5q-7 -39 -68 -114q-11 -12 -31 -33.5t-41.5 -43l-41.5 -41.5l-33 -33l-13 -12h-158z" />
<glyph unicode="&#x147;" horiz-adv-x="1448" d="M863 1576l-165 234l144 126l177 -149l255 145l133 -128l-287 -228h-257zM16 0l360 1498h306l371 -971l231 971h296l-358 -1498h-322l-360 948l-228 -948h-296z" />
<glyph unicode="&#x148;" horiz-adv-x="1157" d="M622 1254l-165 233l145 127l177 -150l255 146l133 -129l-287 -227h-258zM10 2l254 1057h289l-28 -121q32 61 117.5 105t186.5 44q82 0 145.5 -28t106 -87t50.5 -152t-20 -223l-143 -597h-297l144 595q13 61 12 108.5t-16 80t-44.5 49.5t-72.5 17q-99 0 -153 -62t-86 -193 l-141 -593h-304z" />
<glyph unicode="&#x14c;" d="M553 1647l51 211h809l-50 -211h-810zM597 -21q-105 0 -202.5 44.5t-169.5 129.5t-98 209.5t10 285.5l46 200q81 333 259.5 503t475.5 170q109 0 208 -45.5t170.5 -132t97 -211.5t-10.5 -284l-48 -200q-39 -164 -98.5 -284.5t-148 -208t-211 -132t-280.5 -44.5zM650 255 q286 0 379 382l51 217q45 186 -14.5 288t-194.5 102q-284 0 -380 -390l-50 -217q-27 -120 -12.5 -205t71.5 -131t150 -46z" />
<glyph unicode="&#x14d;" horiz-adv-x="1136" d="M358 1268l51 211h811l-51 -211h-811zM493 -24q-89 0 -172 33t-147 96.5t-88.5 157t3.5 214.5l27 118q118 488 586 488q85 0 165.5 -32t143.5 -93.5t88 -152.5t-2 -210l-30 -118q-31 -127 -76.5 -217.5t-113.5 -155.5t-163 -96.5t-221 -31.5zM523 232q39 0 76 13 t71.5 40.5t62 74.5t42.5 109l30 133q25 104 -17 164.5t-132 60.5q-91 0 -157.5 -58t-91.5 -167l-31 -133q-26 -116 18 -176.5t129 -60.5z" />
<glyph unicode="&#x14e;" d="M950 1616q-58 0 -124.5 25.5t-122 70.5t-75.5 96l161 145q16 -24 36 -43t45 -33.5t57 -22.5t67 -8q63 0 127.5 27.5t114.5 79.5l145 -145q-155 -192 -431 -192zM597 -21q-105 0 -202.5 44.5t-169.5 129.5t-98 209.5t10 285.5l46 200q81 333 259.5 503t475.5 170 q109 0 208 -45.5t170.5 -132t97 -211.5t-10.5 -284l-48 -200q-39 -164 -98.5 -284.5t-148 -208t-211 -132t-280.5 -44.5zM650 255q286 0 379 382l51 217q45 186 -14.5 288t-194.5 102q-284 0 -380 -390l-50 -217q-27 -120 -12.5 -205t71.5 -131t150 -46z" />
<glyph unicode="&#x14f;" horiz-adv-x="1136" d="M723 1198q-57 0 -124 25.5t-122 71t-74 95.5l160 146q72 -108 204 -108q63 0 128 28t115 80l146 -146q-156 -192 -433 -192zM493 -24q-89 0 -172 33t-147 96.5t-88.5 157t3.5 214.5l27 118q118 488 586 488q85 0 165.5 -32t143.5 -93.5t88 -152.5t-2 -210l-30 -118 q-31 -127 -76.5 -217.5t-113.5 -155.5t-163 -96.5t-221 -31.5zM523 232q39 0 76 13t71.5 40.5t62 74.5t42.5 109l30 133q25 104 -17 164.5t-132 60.5q-91 0 -157.5 -58t-91.5 -167l-31 -133q-26 -116 18 -176.5t129 -60.5z" />
<glyph unicode="&#x150;" d="M1006 1641l308 420l242 -221l-280 -199h-270zM531 1641l306 420l243 -221l-279 -199h-270zM597 -21q-105 0 -202.5 44.5t-169.5 129.5t-98 209.5t10 285.5l46 200q81 333 259.5 503t475.5 170q109 0 208 -45.5t170.5 -132t97 -211.5t-10.5 -284l-48 -200 q-39 -164 -98.5 -284.5t-148 -208t-211 -132t-280.5 -44.5zM650 255q286 0 379 382l51 217q45 186 -14.5 288t-194.5 102q-284 0 -380 -390l-50 -217q-27 -120 -12.5 -205t71.5 -131t150 -46z" />
<glyph unicode="&#x151;" horiz-adv-x="1136" d="M765 1244l308 420l243 -221l-280 -199h-271zM291 1244l306 420l242 -221l-278 -199h-270zM491 -24q-89 0 -172 33t-147 96.5t-89 157t4 214.5l27 118q118 488 586 488q85 0 165.5 -32t143.5 -93.5t88 -152.5t-2 -210l-30 -118q-31 -127 -76.5 -217.5t-113.5 -155.5 t-163 -96.5t-221 -31.5zM521 232q31 0 60.5 8t59 26t54.5 45t45.5 67.5t31.5 90.5l31 133q25 104 -17 164.5t-132 60.5q-91 0 -157.5 -58t-91.5 -167l-32 -133q-26 -116 18.5 -176.5t129.5 -60.5z" />
<glyph unicode="&#x152;" horiz-adv-x="2148" d="M604 255q285 0 379 382l51 217q44 186 -15.5 288t-193.5 102q-285 0 -380 -390l-51 -217q-42 -179 13.5 -280.5t196.5 -101.5zM1008 0l38 159q-182 -180 -495 -180q-106 0 -203 44.5t-169.5 129.5t-98.5 209.5t11 285.5l46 200q81 333 259.5 503t474.5 170q137 0 256 -71 t181 -200l59 248h980l-62 -268h-684l-80 -342h536l-64 -268h-538l-84 -352h692l-63 -268h-992z" />
<glyph unicode="&#x153;" horiz-adv-x="1927" d="M1232 642l268 16q81 10 111.5 34t27.5 61q-4 41 -46 70.5t-123 24.5q-62 -7 -109.5 -30t-81.5 -67.5t-47 -108.5zM493 232q39 0 76 13t71.5 40.5t62 74.5t42.5 109l32 133q25 104 -18 164.5t-133 60.5q-60 0 -109.5 -25t-85.5 -76t-53 -124l-32 -133q-26 -116 18 -176.5 t129 -60.5zM1298 -21q-129 0 -230 56.5t-144 158.5q-72 -110 -184 -164t-275 -54q-89 0 -172.5 33t-147.5 96.5t-89 157t3 214.5l28 118q118 488 586 488q77 0 151.5 -26.5t137 -81.5t93.5 -129q86 116 211.5 176.5t263.5 60.5q73 0 136 -19.5t106.5 -51.5t74.5 -74.5 t45.5 -89.5t14.5 -95q0 -72 -25.5 -127t-73 -90t-105.5 -56t-133 -33l-389 -27q-26 -92 23 -146.5t167 -54.5q177 0 296 103l145 -165q-43 -42 -85.5 -71.5t-102.5 -55t-141.5 -38.5t-184.5 -13z" />
<glyph unicode="&#x154;" horiz-adv-x="1326" d="M660 1620l308 419l243 -221l-281 -198h-270zM519 817h204q64 0 114 9t95 30t75 61t44 98q9 33 5.5 61t-13.5 49.5t-28.5 38t-41 28t-50.5 18.5t-56.5 10.5t-58.5 3.5h-190zM21 0l359 1498h534q113 0 209 -40t156 -106t84.5 -155.5t3.5 -184.5q-76 -315 -365 -408 l150 -604h-304l-129 542h-268l-131 -542h-299z" />
<glyph unicode="&#x155;" horiz-adv-x="872" d="M356 1213l308 420l243 -222l-281 -198h-270zM12 0l254 1061h213l32 -121q27 38 72.5 69t109.5 51t132 20q45 0 93.5 -12t79.5 -32l-144 -247q-20 9 -59.5 16t-79.5 7q-81 0 -156 -63t-100 -163l-141 -586h-306z" />
<glyph unicode="&#x156;" horiz-adv-x="1326" d="M519 817h204q64 0 114 9t95 30t75 61t44 98q9 33 5.5 61t-13.5 49.5t-28.5 38t-41 28t-50.5 18.5t-56.5 10.5t-58.5 3.5h-190zM21 0l359 1498h534q113 0 209 -40t156 -106t84.5 -155.5t3.5 -184.5q-76 -315 -365 -408l150 -604h-304l-129 542h-268l-131 -542h-299z M316 -500q58 236 66 272q43 160 194 160q61 0 100.5 -46.5t25.5 -109.5q-7 -38 -68 -114q-7 -8 -20 -22t-27.5 -28.5l-30.5 -30.5t-30.5 -30t-26 -25.5t-17.5 -18.5l-7 -7h-159z" />
<glyph unicode="&#x157;" horiz-adv-x="872" d="M12 0l254 1061h213l32 -121q27 38 72.5 69t109.5 51t132 20q45 0 93.5 -12t79.5 -32l-144 -247q-20 9 -59.5 16t-79.5 7q-81 0 -156 -63t-100 -163l-141 -586h-306zM-91 -548q57 236 65 272q43 160 195 160q61 0 100.5 -47t26.5 -109q-7 -39 -68 -114q-17 -19 -57 -59.5 t-72 -71.5l-31 -31h-159z" />
<glyph unicode="&#x158;" horiz-adv-x="1326" d="M702 1618l-164 234l144 127l177 -150l254 146l133 -129l-286 -228h-258zM519 817h204q64 0 114 9t95 30t75 61t44 98q9 33 5.5 61t-13.5 49.5t-28.5 38t-41 28t-50.5 18.5t-56.5 10.5t-58.5 3.5h-190zM21 0l359 1498h534q113 0 209 -40t156 -106t84.5 -155.5t3.5 -184.5 q-76 -315 -365 -408l150 -604h-304l-129 542h-268l-131 -542h-299z" />
<glyph unicode="&#x159;" horiz-adv-x="894" d="M491 1204l-164 235l144 127l177 -151l255 146l133 -128l-287 -229h-258zM34 0l253 1061h213l31 -121q43 58 128.5 99t186.5 41q45 0 93.5 -12t79.5 -32l-143 -247q-20 9 -60 16t-80 7q-80 0 -155 -63t-100 -163l-141 -586h-306z" />
<glyph unicode="&#x15a;" horiz-adv-x="1273" d="M679 1633l308 420l243 -222l-280 -198h-271zM521 -28q-152 0 -292 75.5t-219 199.5l226 188q51 -81 139.5 -130.5t200.5 -49.5q129 0 207.5 48t94.5 128q12 60 2 102t-62 65t-152 26q-97 3 -179.5 38t-139 93t-80 142.5t-3.5 180.5q22 106 67 186t120.5 139t189.5 89.5 t264 30.5q144 0 267.5 -59t184.5 -156l-239 -179q-35 52 -109.5 85.5t-166.5 33.5q-119 0 -191.5 -40t-91.5 -119q-14 -55 5.5 -91.5t75.5 -57t151 -24.5q103 -5 187.5 -38t144 -94.5t79.5 -151.5t-6 -208q-38 -156 -117.5 -254.5t-216.5 -148t-341 -49.5z" />
<glyph unicode="&#x15b;" horiz-adv-x="1047" d="M479 1209l308 419l242 -221l-280 -198h-270zM431 -24q-69 0 -150.5 18.5t-166 61.5t-128.5 103l193 179q28 -47 108.5 -77.5t181.5 -30.5q77 0 134.5 21.5t69.5 68.5q10 44 -36 63.5t-164 27.5q-73 8 -135 37.5t-103.5 74t-59 105.5t-2.5 127q14 61 37.5 109.5t63 90 t94.5 69t132.5 43.5t176.5 16q124 0 243 -49t163 -114l-187 -181q-3 3 -8.5 9.5t-27.5 22.5t-48.5 28.5t-72 23.5t-97.5 12q-94 2 -144.5 -17.5t-60.5 -62.5q-11 -47 35 -69.5t152 -27.5q181 -6 270 -94t54 -244q-15 -63 -39.5 -114t-66 -95t-98 -73t-136 -45.5 t-177.5 -16.5z" />
<glyph unicode="&#x15e;" horiz-adv-x="1273" d="M723 -424q-22 -42 -54 -72.5t-69.5 -46.5t-79 -22t-83 -1t-81.5 18l-120 48l88 182q119 -49 131 -51q35 -13 59 -4t37 33q7 16 8 31.5t-11 32t-37 27.5l-129 50l80 173q-135 14 -257.5 88t-194.5 185l226 188q51 -81 139.5 -130.5t200.5 -49.5q129 0 207.5 48t94.5 128 q12 60 2 102t-62 65t-152 26q-97 3 -179.5 38t-139 93t-80 142.5t-3.5 180.5q22 106 67 186t120.5 139t189.5 89.5t264 30.5q144 0 267.5 -59t184.5 -156l-239 -179q-35 52 -109.5 85.5t-166.5 33.5q-119 0 -191.5 -40t-91.5 -119q-14 -55 5.5 -91.5t75.5 -57t151 -24.5 q103 -5 187.5 -38t144 -94.5t79.5 -151.5t-6 -208q-54 -222 -197 -330.5t-411 -119.5l2 -44q56 -20 94 -61.5t52.5 -91t11 -102.5t-24.5 -99z" />
<glyph unicode="&#x15f;" horiz-adv-x="1047" d="M590 -437q-27 -52 -70 -86t-92.5 -47t-101.5 -10.5t-102 19.5l-121 48l89 181q118 -48 130 -50q35 -13 59 -4t37 34q4 7 6 15t2 16t-3 16t-8 16t-14.5 15t-22.5 12l-129 51l89 197q-104 15 -202.5 59.5t-149.5 113.5l193 179q28 -47 108.5 -77.5t181.5 -30.5 q77 0 134.5 21.5t69.5 68.5q10 44 -36 63.5t-164 27.5q-73 8 -135 37.5t-103.5 74t-59 105.5t-2.5 127q14 61 37.5 109.5t63 90t94.5 69t132.5 43.5t176.5 16q124 0 243 -49t163 -114l-187 -181q-3 3 -8.5 9.5t-27.5 22.5t-48.5 28.5t-72 23.5t-97.5 12q-94 2 -144.5 -17.5 t-60.5 -62.5q-11 -47 35 -69.5t152 -27.5q181 -6 270 -94t54 -244q-18 -78 -52.5 -138t-92 -106.5t-145.5 -71.5t-205 -28l4 -58q45 -17 78.5 -47t51.5 -67.5t25 -79t1 -83t-23 -78.5z" />
<glyph unicode="&#x160;" horiz-adv-x="1273" d="M789 1633l-165 233l143 127l179 -149l254 145l133 -129l-287 -227h-257zM521 -28q-152 0 -292 75.5t-219 199.5l226 188q51 -81 139.5 -130.5t200.5 -49.5q129 0 207.5 48t94.5 128q12 60 2 102t-62 65t-152 26q-97 3 -179.5 38t-139 93t-80 142.5t-3.5 180.5 q22 106 67 186t120.5 139t189.5 89.5t264 30.5q144 0 267.5 -59t184.5 -156l-239 -179q-35 52 -109.5 85.5t-166.5 33.5q-119 0 -191.5 -40t-91.5 -119q-14 -55 5.5 -91.5t75.5 -57t151 -24.5q103 -5 187.5 -38t144 -94.5t79.5 -151.5t-6 -208q-38 -156 -117.5 -254.5 t-216.5 -148t-341 -49.5z" />
<glyph unicode="&#x161;" horiz-adv-x="1047" d="M572 1228l-165 234l144 126l177 -149l255 145l132 -129l-286 -227h-257zM431 -24q-69 0 -150.5 18.5t-166 61.5t-128.5 103l193 179q28 -47 108.5 -77.5t181.5 -30.5q77 0 134.5 21.5t69.5 68.5q10 44 -36 63.5t-164 27.5q-73 8 -135 37.5t-103.5 74t-59 105.5t-2.5 127 q14 61 37.5 109.5t63 90t94.5 69t132.5 43.5t176.5 16q124 0 243 -49t163 -114l-187 -181q-3 3 -8.5 9.5t-27.5 22.5t-48.5 28.5t-72 23.5t-97.5 12q-94 2 -144.5 -17.5t-60.5 -62.5q-11 -47 35 -69.5t152 -27.5q181 -6 270 -94t54 -244q-15 -63 -39.5 -114t-66 -95t-98 -73 t-136 -45.5t-177.5 -16.5z" />
<glyph unicode="&#x162;" horiz-adv-x="1242" d="M715 -431q-27 -51 -70 -85t-92.5 -47t-102 -11t-102.5 19l-120 48l88 183q119 -50 131 -52q35 -13 58 -4t37 34q4 9 6 18.5t1 19.5t-6 19t-15.5 18t-25.5 16l-129 50l94 205h-98l293 1224h-422l66 272h1137l-66 -272h-421l-294 -1224h-84l4 -76q56 -21 93.5 -62t52 -90.5 t11.5 -102.5t-24 -100z" />
<glyph unicode="&#x163;" horiz-adv-x="739" d="M459 -405q-26 -52 -69 -86t-93 -47t-102 -10.5t-102 19.5l-121 48l89 181q118 -48 131 -50q34 -13 58 -4t37 34q7 16 8 31.5t-11 31.5t-37 27l-129 51l99 217q-126 91 -76 298l121 493h-121l55 234h124l72 304h300l-70 -304h177l-54 -234h-182l-110 -453q-11 -49 -7 -82 t40.5 -48t110.5 -10l-61 -252q-127 -13 -212 10l3 -44q55 -21 93 -62.5t52.5 -90.5t11.5 -102t-25 -100z" />
<glyph unicode="&#x164;" horiz-adv-x="1242" d="M736 1626l-164 234l143 127l177 -149l255 145l133 -129l-286 -228h-258zM369 0l293 1224h-422l66 272h1137l-66 -272h-421l-294 -1224h-293z" />
<glyph unicode="&#x165;" horiz-adv-x="1093" d="M1109 1584q64 0 101 -44.5t20 -111.5q-10 -49 -57 -105q-17 -19 -66.5 -78t-90.5 -109l-42 -49h-141q74 313 81 339q10 43 35.5 78t67.5 57.5t92 22.5zM536 -16q-89 -8 -159 0t-116.5 30t-77 54.5t-43.5 75.5t-12.5 90.5t13.5 101.5l121 493h-121l55 234h124l72 304h300 l-70 -304h177l-54 -234h-182l-110 -453q-11 -49 -7 -82t40.5 -48t110.5 -10z" />
<glyph unicode="&#x16a;" horiz-adv-x="1330" d="M531 1669l51 211h811l-51 -211h-811zM568 -21q-80 0 -154.5 25.5t-138 76t-103.5 127.5t-51 180.5t20 233.5l209 876h302l-211 -880q-28 -116 -12 -196.5t66.5 -122t126.5 -41.5q132 0 222.5 93.5t131.5 266.5l212 880h299l-209 -876q-78 -325 -251 -484t-459 -159z" />
<glyph unicode="&#x16b;" horiz-adv-x="1193" d="M367 1286l51 212h810l-51 -212h-810zM431 -30q-59 0 -114.5 17t-105.5 52.5t-81.5 91t-41.5 131.5t15 175q148 620 150 624h306l-148 -626q-24 -97 11.5 -153t113.5 -56q90 0 143 53t78 156l150 626h315l-256 -1061h-196l-31 116q-38 -63 -121.5 -104.5t-186.5 -41.5z " />
<glyph unicode="&#x16c;" horiz-adv-x="1330" d="M900 1596q-42 0 -92.5 16t-95.5 41.5t-81.5 61.5t-50.5 74l161 145q32 -48 84 -77.5t121 -29.5q63 0 127.5 28t114.5 79l145 -145q-156 -193 -433 -193zM568 -21q-80 0 -154.5 25.5t-138 76t-103.5 127.5t-51 180.5t20 233.5l209 876h302l-211 -880q-28 -116 -12 -196.5 t66.5 -122t126.5 -41.5q132 0 222.5 93.5t131.5 266.5l212 880h299l-209 -876q-78 -325 -251 -484t-459 -159z" />
<glyph unicode="&#x16d;" horiz-adv-x="1193" d="M741 1226q-43 0 -93 15t-95.5 40.5t-81.5 61.5t-51 74l160 147q32 -50 84 -79.5t121 -29.5q63 0 127.5 28.5t114.5 80.5l146 -147q-155 -191 -432 -191zM431 -30q-59 0 -114.5 17t-105.5 52.5t-81.5 91t-41.5 131.5t15 175q148 620 150 624h306l-148 -626 q-24 -97 11.5 -153t113.5 -56q90 0 143 53t78 156l150 626h315l-256 -1061h-196l-31 116q-38 -63 -121.5 -104.5t-186.5 -41.5z" />
<glyph unicode="&#x16e;" horiz-adv-x="1330" d="M940 1538q-66 0 -127 35.5t-98.5 96.5t-37.5 129q0 70 37.5 132t98.5 98t127 36t127 -36t99 -98t38 -132q0 -68 -38 -129t-99 -96.5t-127 -35.5zM940 1703q41 0 69.5 29.5t28.5 68.5t-28.5 69t-69.5 30q-19 0 -37 -8t-31.5 -22t-21.5 -32t-8 -37q0 -39 29.5 -68.5 t68.5 -29.5zM568 -21q-80 0 -154.5 25.5t-138 76t-103.5 127.5t-51 180.5t20 233.5l209 876h302l-211 -880q-28 -116 -12 -196.5t66.5 -122t126.5 -41.5q132 0 222.5 93.5t131.5 266.5l212 880h299l-209 -876q-78 -325 -251 -484t-459 -159z" />
<glyph unicode="&#x16f;" horiz-adv-x="1193" d="M763 1186q-66 0 -127 35.5t-98.5 96t-37.5 129.5q0 70 37.5 132t98.5 98t127 36q49 0 97 -21.5t85 -57.5t59.5 -85.5t22.5 -101.5q0 -68 -38 -129t-99 -96.5t-127 -35.5zM763 1350q41 0 69.5 29.5t28.5 69.5q0 39 -29 69t-69 30q-39 0 -69 -30.5t-30 -68.5q0 -39 30 -69 t69 -30zM431 -30q-59 0 -114.5 17t-105.5 52.5t-81.5 91t-41.5 131.5t15 175q148 620 150 624h306l-148 -626q-24 -97 11.5 -153t113.5 -56q90 0 143 53t78 156l150 626h315l-256 -1061h-196l-31 116q-38 -63 -121.5 -104.5t-186.5 -41.5z" />
<glyph unicode="&#x170;" horiz-adv-x="1330" d="M970 1660l308 420l243 -222l-281 -198h-270zM495 1660l306 420l243 -222l-279 -198h-270zM568 -21q-80 0 -154.5 25.5t-138 76t-103.5 127.5t-51 180.5t20 233.5l209 876h302l-211 -880q-28 -116 -12 -196.5t66.5 -122t126.5 -41.5q132 0 222.5 93.5t131.5 266.5l212 880 h299l-209 -876q-78 -325 -251 -484t-459 -159z" />
<glyph unicode="&#x171;" horiz-adv-x="1197" d="M812 1268l308 419l243 -221l-280 -198h-271zM338 1268l306 419l242 -221l-278 -198h-270zM431 -30q-59 0 -114.5 17t-105.5 52.5t-81.5 91t-41.5 131.5t15 175q148 620 150 624h306l-148 -626q-24 -97 11.5 -153t113.5 -56q90 0 143 53t78 156l150 626h315l-256 -1061 h-196l-31 116q-38 -63 -121.5 -104.5t-186.5 -41.5z" />
<glyph unicode="&#x172;" horiz-adv-x="1330" d="M734 -437h-217q-51 0 -95 21.5t-70 57.5t-36.5 79t3.5 90.5t52 87.5q5 7 18 20t37 36.5t36 36.5q-68 15 -126.5 48t-107 86.5t-76 125.5t-33 165t21.5 205l209 876h302l-211 -880q-28 -116 -12 -196.5t66.5 -122t126.5 -41.5q132 0 222.5 93.5t131.5 266.5l212 880h299 l-209 -876q-59 -244 -170.5 -394.5t-282.5 -208.5l-215 -178q-22 -19 -18 -31.5t24 -12.5h175z" />
<glyph unicode="&#x173;" horiz-adv-x="1197" d="M861 -469h-217q-51 0 -95 21.5t-70 58t-36.5 79t3.5 90t51 87.5q33 42 210 203q15 12 40 19l-8 27q-38 -63 -121.5 -104.5t-186.5 -41.5q-59 0 -114.5 17t-105.5 52.5t-81.5 91t-41.5 131.5t15 175q148 620 150 624h306l-148 -626q-24 -97 11.5 -153t113.5 -56 q90 0 143 53t78 156l150 626h315l-252 -1049l4 -6l-238 -196q-21 -19 -17 -31.5t24 -12.5h175z" />
<glyph unicode="&#x174;" horiz-adv-x="1900" d="M970 1601l-109 140l274 234h248l178 -238l-168 -131l-173 151zM342 0l-66 1498h310l16 -967l459 920h234l44 -922l460 969h331l-729 -1498h-300l-59 787l-384 -787h-316z" />
<glyph unicode="&#x175;" horiz-adv-x="1670" d="M817 1238l-110 139l274 235h249l177 -239l-169 -131l-173 153zM445 -24q-120 0 -206 60t-120.5 171.5t2.5 269.5l139 584h299l-144 -586q-14 -72 -14.5 -121t14.5 -79t38.5 -43t55.5 -13q82 0 134.5 63.5t86.5 208.5l135 570h293l-135 -566q-26 -100 -16 -161.5t38.5 -88 t74.5 -26.5q88 0 131.5 62t77.5 214l135 566h287l-127 -578q-57 -264 -188 -385.5t-341 -121.5q-33 0 -63.5 6t-56 16.5t-48.5 24.5t-40.5 30t-31.5 33.5t-23 35.5t-13 35q-52 -85 -149.5 -133t-224.5 -48z" />
<glyph unicode="&#x176;" horiz-adv-x="1336" d="M705 1624l-110 139l274 234h249l177 -238l-168 -131l-173 153zM407 0l139 576l-270 922h321l168 -570l452 570h351l-724 -922l-137 -576h-300z" />
<glyph unicode="&#x177;" horiz-adv-x="1117" d="M509 1236l-110 139l274 235h249l177 -239l-169 -131l-173 153zM-137 -420l103 241q202 -64 302 105q3 5 18.5 27.5t26.5 42t11 28.5l-157 1037h308l73 -698l388 694h336l-775 -1247q-61 -96 -139 -157.5t-161.5 -84.5t-166.5 -19.5t-167 31.5z" />
<glyph unicode="&#x178;" horiz-adv-x="1336" d="M1147 1610q-38 0 -74 21t-58.5 57.5t-22.5 78.5q0 64 47.5 110.5t107.5 46.5q40 0 76.5 -21t59.5 -57.5t23 -78.5q0 -63 -48.5 -110t-110.5 -47zM690 1610q-60 0 -108 47t-48 110.5t48 110t108 46.5q61 0 108.5 -46.5t47.5 -110.5t-47.5 -110.5t-108.5 -46.5zM407 0 l139 576l-270 922h321l168 -570l452 570h351l-724 -922l-137 -576h-300z" />
<glyph unicode="&#x179;" horiz-adv-x="1195" d="M646 1628l308 421l242 -222l-280 -199h-270zM-59 0l69 294l910 917h-667l69 287h1053l-67 -287l-918 -924h709l-70 -287h-1088z" />
<glyph unicode="&#x17a;" horiz-adv-x="1022" d="M477 1222l308 419l242 -222l-280 -197h-270zM14 0l56 228l574 567h-420l60 266h843l-56 -230l-571 -567h450l-64 -264h-872z" />
<glyph unicode="&#x17b;" horiz-adv-x="1195" d="M871 1614q-61 0 -110.5 47.5t-49.5 112.5t49.5 113.5t110.5 48.5q63 0 111.5 -48.5t48.5 -113.5q0 -43 -22.5 -80.5t-59.5 -58.5t-78 -21zM-59 0l69 294l910 917h-667l69 287h1053l-67 -287l-918 -924h709l-70 -287h-1088z" />
<glyph unicode="&#x17c;" horiz-adv-x="1022" d="M726 1256q-62 0 -111.5 47t-49.5 112t50 114t111 49q41 0 78 -22t59.5 -60t22.5 -81q0 -65 -48.5 -112t-111.5 -47zM14 0l56 228l574 567h-420l60 266h843l-56 -230l-571 -567h450l-64 -264h-872z" />
<glyph unicode="&#x17d;" horiz-adv-x="1195" d="M741 1637l-165 235l143 125l177 -149l256 145l132 -129l-286 -227h-257zM-59 0l69 294l910 917h-667l69 287h1053l-67 -287l-918 -924h709l-70 -287h-1088z" />
<glyph unicode="&#x17e;" horiz-adv-x="1022" d="M568 1224l-165 233l143 127l177 -149l255 145l133 -129l-286 -227h-257zM14 0l56 228l574 567h-420l60 266h843l-56 -230l-571 -567h450l-64 -264h-872z" />
<glyph unicode="&#x1dd;" horiz-adv-x="1109" d="M896 1085q98 0 180.5 -33t138 -95.5t76 -151.5t-6.5 -201l-30 -133q-24 -98 -68.5 -179.5t-101.5 -138.5t-126 -96t-142.5 -57.5t-151.5 -18.5q-91 0 -165 29t-119.5 76.5t-69 105t-23.5 118.5q0 58 17.5 105t46.5 80t73 57.5t92 39.5t108 24l388 28q27 92 -22 146 t-167 54q-177 0 -296 -103l-145 166q43 42 85.5 71.5t102.5 55t141.5 38.5t184.5 13zM962 422l-268 -17q-81 -10 -111.5 -34t-27.5 -61q4 -41 45.5 -70.5t122.5 -24.5q94 10 156.5 61t82.5 146z" />
<glyph unicode="&#x1fa;" horiz-adv-x="1397" d="M793 1924l308 419l243 -221l-281 -198h-270zM956 1530q26 0 48.5 13.5t35.5 36t13 48.5q0 39 -28.5 69t-68.5 30q-26 0 -49 -14t-37 -37t-14 -48q0 -39 30 -68.5t70 -29.5zM525 511h391l-57 578zM394 255l-154 -255h-322l841 1455q-67 78 -67 171q0 70 37.5 132t98.5 98 t128 36q49 0 97 -21.5t84.5 -57.5t59.5 -85t23 -102q0 -63 -32.5 -120t-86.5 -93l169 -1413h-302l-30 255h-544z" />
<glyph unicode="&#x1fb;" horiz-adv-x="1172" d="M652 1698l308 420l242 -222l-280 -198h-270zM787 1129q-67 0 -128 35.5t-98.5 96.5t-37.5 129q0 70 37.5 132t98.5 98t128 36q39 0 78 -13.5t72 -38.5t59 -58t40.5 -73.5t14.5 -82.5q0 -34 -10.5 -68t-28.5 -62.5t-43.5 -53t-54.5 -41.5t-61.5 -26.5t-65.5 -9.5z M787 1293q20 0 38 8t31 22t20.5 32t7.5 38q0 38 -28.5 68t-68.5 30q-26 0 -49 -14t-36.5 -37t-13.5 -47q0 -40 30 -70t69 -30zM517 219q98 0 165 57t95 171l33 141q27 116 -15.5 183.5t-126.5 67.5q-188 0 -255 -251l-35 -131q-19 -77 0 -130t56.5 -80.5t82.5 -27.5z M409 -28q-71 0 -140 34t-122.5 98.5t-73 157t8.5 209.5l30 107q65 257 204 383t336 126q58 0 106 -15.5t79.5 -40.5t51 -54.5t27.5 -60.5l94 143h212l-256 -1059h-179l-17 123q-19 -29 -47.5 -53.5t-71 -47.5t-105 -36.5t-137.5 -13.5z" />
<glyph unicode="&#x1fc;" horiz-adv-x="2037" d="M1202 1628l308 421l243 -222l-280 -199h-271zM644 565h348l151 633zM-131 0l1160 1498h1177l-63 -268h-700l-82 -344h553l-64 -268h-552l-85 -350h705l-66 -268h-996l74 310h-481l-242 -310h-338z" />
<glyph unicode="&#x1fd;" horiz-adv-x="1854" d="M912 1196l308 420l242 -221l-281 -199h-269zM1186 644l267 16q82 10 112.5 34t26.5 61q-3 41 -45 70.5t-124 24.5q-94 -10 -155.5 -60.5t-81.5 -145.5zM409 205q67 0 123 22t91.5 59t47.5 83l17 74q-56 20 -169 16q-41 0 -78 -7t-71.5 -20.5t-58.5 -38.5t-33 -59 q-10 -41 6 -71t49 -44t76 -14zM1250 -19q-128 0 -228.5 56.5t-143.5 158.5q-16 -27 -38 -52t-65 -57t-96.5 -55t-137.5 -39.5t-183 -16.5q-103 0 -186.5 41.5t-128 119.5t-31.5 175q1 3 3.5 14t3.5 14q25 153 155 233.5t357 80.5q162 0 201 -14q3 7 8 32.5t9.5 51t3.5 29.5 q2 47 -41.5 76.5t-125.5 29.5q-178 0 -304 -84l-99 193q100 64 205.5 93.5t269.5 29.5q99 0 172.5 -26t120.5 -80.5t59 -134.5q87 115 211.5 175t261.5 60q92 0 166 -29t119 -77t69 -105.5t23 -118.5q0 -72 -25 -127t-72.5 -90t-105.5 -56t-134 -33l-388 -27 q-26 -92 22.5 -146.5t167.5 -54.5q177 0 295 103l145 -165q-42 -42 -84.5 -71.5t-103 -55t-142 -38.5t-185.5 -13z" />
<glyph unicode="&#x1fe;" horiz-adv-x="1377" d="M749 1652l308 419l243 -221l-281 -198h-270zM441 637q-6 -28 -15 -80l593 641q-59 46 -148 46q-284 0 -380 -390zM650 255q286 0 379 382l51 217q14 64 17 108l-606 -654q59 -53 159 -53zM597 -21q-83 0 -163.5 28t-144.5 82l-128 -137l-163 143l159 171q-72 163 -20 382 l46 200q81 333 259.5 503t475.5 170q173 0 304 -106l107 117l160 -146l-130 -142q78 -171 24 -396l-48 -200q-39 -164 -98.5 -284.5t-148 -208t-211 -132t-280.5 -44.5z" />
<glyph unicode="&#x1ff;" horiz-adv-x="1140" d="M525 1198l308 420l242 -221l-280 -199h-270zM376 469q-6 -25 -9 -47l369 388q-40 17 -80 17q-91 0 -157.5 -58t-91.5 -167zM523 232q39 0 76 13t71.5 40.5t62 74.5t42.5 109l30 133q5 16 5 22l-363 -375q29 -17 76 -17zM493 -24q-130 0 -244 68l-112 -116l-123 120 l113 119q-83 132 -38 310l27 118q118 488 586 488q124 0 230 -64l93 96l135 -128l-95 -99q74 -127 32 -293l-30 -118q-31 -127 -76.5 -217.5t-113.5 -155.5t-163 -96.5t-221 -31.5z" />
<glyph unicode="&#x218;" horiz-adv-x="1273" d="M521 -28q-152 0 -292 75.5t-219 199.5l226 188q51 -81 139.5 -130.5t200.5 -49.5q129 0 207.5 48t94.5 128q12 60 2 102t-62 65t-152 26q-97 3 -179.5 38t-139 93t-80 142.5t-3.5 180.5q22 106 67 186t120.5 139t189.5 89.5t264 30.5q144 0 267.5 -59t184.5 -156 l-239 -179q-35 52 -109.5 85.5t-166.5 33.5q-119 0 -191.5 -40t-91.5 -119q-14 -55 5.5 -91.5t75.5 -57t151 -24.5q103 -5 187.5 -38t144 -94.5t79.5 -151.5t-6 -208q-38 -156 -117.5 -254.5t-216.5 -148t-341 -49.5zM274 -555q58 237 66 273q43 159 194 159 q61 0 100.5 -46.5t25.5 -108.5q-7 -39 -68 -114q-10 -12 -30.5 -33t-42 -43t-41.5 -42l-33 -33l-12 -12h-159z" />
<glyph unicode="&#x219;" horiz-adv-x="1047" d="M431 -24q-69 0 -150.5 18.5t-166 61.5t-128.5 103l193 179q28 -47 108.5 -77.5t181.5 -30.5q77 0 134.5 21.5t69.5 68.5q10 44 -36 63.5t-164 27.5q-73 8 -135 37.5t-103.5 74t-59 105.5t-2.5 127q14 61 37.5 109.5t63 90t94.5 69t132.5 43.5t176.5 16q124 0 243 -49 t163 -114l-187 -181q-3 3 -8.5 9.5t-27.5 22.5t-48.5 28.5t-72 23.5t-97.5 12q-94 2 -144.5 -17.5t-60.5 -62.5q-11 -47 35 -69.5t152 -27.5q181 -6 270 -94t54 -244q-15 -63 -39.5 -114t-66 -95t-98 -73t-136 -45.5t-177.5 -16.5zM171 -553q57 237 65 273q43 159 195 159 q61 0 100.5 -46.5t25.5 -108.5q-7 -39 -68 -114q-17 -19 -57 -60t-72 -72l-31 -31h-158z" />
<glyph unicode="&#x21a;" horiz-adv-x="1242" d="M369 0l293 1224h-422l66 272h1137l-66 -272h-421l-294 -1224h-293zM240 -559q58 236 66 272q43 160 194 160q61 0 100.5 -46.5t25.5 -108.5q-7 -40 -67 -115q-17 -18 -57 -59t-72 -72l-31 -31h-159z" />
<glyph unicode="&#x21b;" horiz-adv-x="727" d="M536 -16q-89 -8 -159 0t-116.5 30t-77 54.5t-43.5 75.5t-12.5 90.5t13.5 101.5l121 493h-121l55 234h124l72 304h300l-70 -304h177l-54 -234h-182l-110 -453q-11 -49 -7 -82t40.5 -48t110.5 -10zM19 -546q57 236 65 272q43 160 194 160q62 0 101 -47t26 -109 q-8 -40 -67 -114q-11 -12 -31.5 -33t-42 -42.5l-41.5 -41.5t-33 -32l-13 -13h-158z" />
<glyph unicode="&#x2c6;" horiz-adv-x="803" d="M380 1213l-110 139l274 234h249l177 -238l-169 -131l-173 152z" />
<glyph unicode="&#x2c7;" horiz-adv-x="797" d="M443 1192l-165 234l144 126l177 -149l255 145l133 -129l-287 -227h-257z" />
<glyph unicode="&#x2d8;" horiz-adv-x="824" d="M595 1240q-57 0 -124 26t-122.5 71t-74.5 96l161 145q21 -32 49 -55.5t68.5 -38t87.5 -14.5q41 0 83.5 12t83.5 37t75 59l145 -145q-156 -193 -432 -193z" />
<glyph unicode="&#x2d9;" horiz-adv-x="340" d="M399 1224q-62 0 -111.5 47t-49.5 112q0 66 49.5 114.5t111.5 48.5t111 -48.5t49 -114.5q0 -65 -48.5 -112t-111.5 -47z" />
<glyph unicode="&#x2da;" horiz-adv-x="539" d="M493 1109q-66 0 -127 35.5t-98.5 96.5t-37.5 130q0 70 37.5 131.5t98.5 98t127 36.5t127 -36.5t99 -98t38 -131.5q0 -69 -38 -130t-99 -96.5t-127 -35.5zM493 1274q41 0 69 29.5t28 69.5q0 39 -28.5 69.5t-68.5 30.5q-39 0 -69 -31t-30 -69q0 -39 30 -69t69 -30z" />
<glyph unicode="&#x2db;" horiz-adv-x="771" d="M213 32q24 21 76 26.5t92 0.5l39 -4l61 -87l-238 -196q-22 -19 -18 -31.5t24 -12.5h175l-57 -235h-218q-51 0 -94.5 21.5t-69.5 57.5t-36.5 79t3.5 90.5t52 87.5q32 42 209 203z" />
<glyph unicode="&#x2dc;" horiz-adv-x="849" d="M755 1141q-38 -1 -72 7.5t-60 22.5t-51.5 27.5t-57.5 23t-67 8.5q-51 -2 -86.5 -21t-69.5 -66q1 0 -31 12.5t-65 24.5l-32 12q14 48 45 94t73 83t97.5 60.5t114.5 25.5q47 2 88 -8t69.5 -25t53.5 -30t50.5 -25.5t48.5 -9.5q47 1 86 25.5t63 68.5l121 -48 q-11 -38 -29.5 -73.5t-46.5 -69.5t-62.5 -59.5t-81 -42t-98.5 -17.5z" />
<glyph unicode="&#x2dd;" horiz-adv-x="1111" d="M749 1213l308 420l243 -222l-281 -198h-270zM274 1213l306 420l243 -222l-279 -198h-270z" />
<glyph unicode="&#x1e80;" horiz-adv-x="1900" d="M1099 1603l-175 251l287 169l146 -420h-258zM342 0l-66 1498h310l16 -967l459 920h234l44 -922l460 969h331l-729 -1498h-300l-59 787l-384 -787h-316z" />
<glyph unicode="&#x1e81;" horiz-adv-x="1723" d="M932 1224l-175 251l287 168l146 -419h-258zM445 -24q-120 0 -206 60t-120.5 171.5t2.5 269.5l139 584h299l-144 -586q-14 -72 -14.5 -121t14.5 -79t38.5 -43t55.5 -13q82 0 134.5 63.5t86.5 208.5l135 570h293l-135 -566q-26 -100 -16 -161.5t38.5 -88t74.5 -26.5 q88 0 131.5 62t77.5 214l135 566h287l-127 -578q-57 -264 -188 -385.5t-341 -121.5q-33 0 -63.5 6t-56 16.5t-48.5 24.5t-40.5 30t-31.5 33.5t-23 35.5t-13 35q-52 -85 -149.5 -133t-224.5 -48z" />
<glyph unicode="&#x1e82;" horiz-adv-x="1900" d="M1015 1606l308 419l243 -221l-282 -198h-269zM342 0l-66 1498h310l16 -967l459 920h234l44 -922l460 969h331l-729 -1498h-300l-59 787l-384 -787h-316z" />
<glyph unicode="&#x1e83;" horiz-adv-x="1723" d="M867 1217l308 420l242 -222l-280 -198h-270zM445 -24q-120 0 -206 60t-120.5 171.5t2.5 269.5l139 584h299l-144 -586q-14 -72 -14.5 -121t14.5 -79t38.5 -43t55.5 -13q82 0 134.5 63.5t86.5 208.5l135 570h293l-135 -566q-26 -100 -16 -161.5t38.5 -88t74.5 -26.5 q88 0 131.5 62t77.5 214l135 566h287l-127 -578q-57 -264 -188 -385.5t-341 -121.5q-33 0 -63.5 6t-56 16.5t-48.5 24.5t-40.5 30t-31.5 33.5t-23 35.5t-13 35q-52 -85 -149.5 -133t-224.5 -48z" />
<glyph unicode="&#x1e84;" horiz-adv-x="1900" d="M1433 1580q-39 0 -75 21.5t-59 58.5t-23 79q0 63 48 109t109 46t109 -46t48 -109q0 -42 -22.5 -79t-59 -58.5t-75.5 -21.5zM974 1580q-38 0 -74 21.5t-58.5 58.5t-22.5 79q0 63 47.5 109t107.5 46q62 0 109.5 -46t47.5 -109q0 -64 -47.5 -111.5t-109.5 -47.5zM342 0 l-66 1498h310l16 -967l459 920h234l44 -922l460 969h331l-729 -1498h-300l-59 787l-384 -787h-316z" />
<glyph unicode="&#x1e85;" horiz-adv-x="1723" d="M1276 1254q-60 0 -108 46.5t-48 110.5q0 42 22.5 78.5t58.5 57.5t75 21q62 0 110.5 -46.5t48.5 -110.5t-48.5 -110.5t-110.5 -46.5zM819 1254q-60 0 -108.5 46.5t-48.5 110.5t48.5 110.5t108.5 46.5q30 0 58 -12.5t49.5 -33.5t34.5 -50t13 -61q0 -64 -47 -110.5 t-108 -46.5zM445 -24q-120 0 -206 60t-120.5 171.5t2.5 269.5l139 584h299l-144 -586q-14 -72 -14.5 -121t14.5 -79t38.5 -43t55.5 -13q82 0 134.5 63.5t86.5 208.5l135 570h293l-135 -566q-26 -100 -16 -161.5t38.5 -88t74.5 -26.5q88 0 131.5 62t77.5 214l135 566h287 l-127 -578q-57 -264 -188 -385.5t-341 -121.5q-33 0 -63.5 6t-56 16.5t-48.5 24.5t-40.5 30t-31.5 33.5t-23 35.5t-13 35q-52 -85 -149.5 -133t-224.5 -48z" />
<glyph unicode="&#x1ef2;" horiz-adv-x="1336" d="M839 1610l-175 250l288 169l145 -419h-258zM407 0l139 576l-270 922h321l168 -570l452 570h351l-724 -922l-137 -576h-300z" />
<glyph unicode="&#x1ef3;" horiz-adv-x="1117" d="M660 1215l-175 251l287 169l146 -420h-258zM-137 -420l103 241q202 -64 302 105q3 5 18.5 27.5t26.5 42t11 28.5l-157 1037h308l73 -698l388 694h336l-775 -1247q-61 -96 -139 -157.5t-161.5 -84.5t-166.5 -19.5t-167 31.5z" />
<glyph unicode="&#x2000;" horiz-adv-x="1171" />
<glyph unicode="&#x2001;" horiz-adv-x="2343" />
<glyph unicode="&#x2002;" horiz-adv-x="1171" />
<glyph unicode="&#x2003;" horiz-adv-x="2343" />
<glyph unicode="&#x2004;" horiz-adv-x="781" />
<glyph unicode="&#x2005;" horiz-adv-x="585" />
<glyph unicode="&#x2006;" horiz-adv-x="390" />
<glyph unicode="&#x2007;" horiz-adv-x="390" />
<glyph unicode="&#x2008;" horiz-adv-x="292" />
<glyph unicode="&#x2009;" horiz-adv-x="468" />
<glyph unicode="&#x200a;" horiz-adv-x="130" />
<glyph unicode="&#x2010;" horiz-adv-x="902" d="M137 525l68 274h668l-68 -274h-668z" />
<glyph unicode="&#x2011;" horiz-adv-x="902" d="M137 525l68 274h668l-68 -274h-668z" />
<glyph unicode="&#x2012;" horiz-adv-x="902" d="M137 525l68 274h668l-68 -274h-668z" />
<glyph unicode="&#x2013;" horiz-adv-x="1159" d="M151 523l66 274h898l-66 -274h-898z" />
<glyph unicode="&#x2014;" horiz-adv-x="1938" d="M209 525l67 274h1562l-68 -274h-1561z" />
<glyph unicode="&#x2018;" horiz-adv-x="503" d="M360 1000q-64 0 -100.5 44t-19.5 112q9 48 58 106q17 19 66 77.5t90 108.5l41 50h142q-74 -315 -80 -340q-16 -67 -68.5 -112.5t-128.5 -45.5z" />
<glyph unicode="&#x2019;" horiz-adv-x="503" d="M485 1530q64 0 101 -45t20 -112q-9 -47 -58 -105q-17 -19 -66.5 -78t-90.5 -109l-41 -50h-141q74 314 80 340q17 67 69 113t127 46z" />
<glyph unicode="&#x201a;" horiz-adv-x="509" d="M334 459q0 -11 1.5 -31t4 -73t3.5 -96.5t0 -87.5t-5 -62q-19 -71 -70 -115t-127 -44q-63 0 -99.5 47t-20.5 112q13 58 81.5 188.5t89.5 161.5h142z" />
<glyph unicode="&#x201c;" horiz-adv-x="940" d="M360 1000q-64 0 -100.5 44t-19.5 112q9 48 58 106q17 19 66 77.5t90 108.5l41 50h142q-74 -315 -80 -340q-16 -67 -68.5 -112.5t-128.5 -45.5zM795 1000q-64 0 -101 44t-19 112q9 48 57 106q17 19 66.5 77.5t90.5 108.5l41 50h141q-73 -315 -79 -340 q-16 -67 -68.5 -112.5t-128.5 -45.5z" />
<glyph unicode="&#x201d;" horiz-adv-x="936" d="M912 1530q41 0 72.5 -19.5t44.5 -56t2 -81.5q-9 -49 -57 -105q-17 -19 -66 -78t-90 -109l-41 -50h-143q75 314 81 340q16 67 68.5 113t128.5 46zM485 1530q64 0 101 -45t20 -112q-9 -47 -58 -105q-17 -19 -66.5 -78t-90.5 -109l-41 -50h-141q74 314 80 340q17 67 69 113 t127 46z" />
<glyph unicode="&#x201e;" horiz-adv-x="956" d="M342 459q1 -11 2 -31t3.5 -73t3.5 -96.5t0 -87.5t-5 -62q-19 -71 -70 -115t-127 -44q-62 0 -98 47t-21 112q13 58 81.5 188.5t89.5 161.5h141zM789 459q1 -11 2 -31t3.5 -73t3.5 -96.5t0 -87.5t-5 -62q-12 -46 -37.5 -81.5t-66.5 -56.5t-92 -21q-62 0 -98.5 47t-21.5 112 q9 41 51 127t77 148.5t43 74.5h141z" />
<glyph unicode="&#x2020;" horiz-adv-x="1109" d="M373 270l175 724h-284l60 252h284l67 279h281l-68 -279h285l-62 -252h-282l-175 -724h-281z" />
<glyph unicode="&#x2022;" horiz-adv-x="801" d="M471 551q-45 0 -87 17.5t-73 47.5t-47.5 75t-12.5 96q10 105 79 171.5t170 66.5q94 0 161 -69t58 -169q-11 -106 -78.5 -171t-169.5 -65z" />
<glyph unicode="&#x2026;" horiz-adv-x="1532" d="M1196 -14q-71 0 -115 46.5t-35 116.5q10 71 58.5 116t117.5 45q70 0 114 -46t35 -115q-9 -71 -57.5 -117t-117.5 -46zM690 -14q-71 0 -115 46.5t-35 116.5q9 71 57.5 116t117.5 45q70 0 114.5 -46t35.5 -115q-6 -47 -29.5 -84t-61.5 -58t-84 -21zM171 -14 q-70 0 -114.5 47t-35.5 116q9 71 57.5 116t117.5 45t115 -46.5t37 -114.5q-9 -71 -58.5 -117t-118.5 -46z" />
<glyph unicode="&#x202f;" horiz-adv-x="468" />
<glyph unicode="&#x2039;" horiz-adv-x="795" d="M411 177l-230 357l28 116l365 346l156 -186l-268 -242l152 -234z" />
<glyph unicode="&#x203a;" horiz-adv-x="795" d="M462 1000l230 -356l-28 -117l-364 -346l-157 186l268 243l-151 234z" />
<glyph unicode="&#x205f;" horiz-adv-x="585" />
<glyph unicode="&#x20ac;" horiz-adv-x="1550" d="M825 -24q-144 0 -264.5 64.5t-194 179.5t-82.5 259h-246l83 183h166q15 78 23 99h-209l93 185h171q111 268 331 423t506 152q100 -1 196 -29t160.5 -67.5t97.5 -82.5l-146 -211q-61 70 -153.5 103.5t-200.5 33.5q-169 0 -301 -86t-213 -236h755l-117 -185h-708 q-17 -69 -21 -99h664l-114 -183h-538q15 -110 100.5 -182.5t226.5 -72.5q230 0 424 130l-64 -274q-165 -104 -425 -104z" />
<glyph unicode="&#x2190;" horiz-adv-x="1600" d="M616 74l-495 654l775 645l187 -196l-412 -333h867l-65 -270h-869l252 -323z" />
<glyph unicode="&#x2191;" horiz-adv-x="1520" d="M540 34l232 930l-418 -318l-149 198l807 652l496 -652l-240 -190l-226 310l-234 -930h-268z" />
<glyph unicode="&#x2192;" horiz-adv-x="1600" d="M833 87l-175 209l411 318h-864l63 270h869l-243 310l243 181l496 -647z" />
<glyph unicode="&#x2193;" horiz-adv-x="1516" d="M654 10l-493 652l242 188l223 -310l224 930h270l-222 -930l412 321l154 -199z" />
<glyph unicode="&#x2212;" horiz-adv-x="1381" d="M171 563l67 285h1101l-67 -285h-1101z" />
<glyph unicode="&#x25fc;" horiz-adv-x="1065" d="M0 1065h1065v-1065h-1065v1065z" />
<glyph unicode="&#xf6c3;" horiz-adv-x="575" d="M-91 -495q57 236 65 271q20 73 67 117t128 44q61 0 100.5 -47t26.5 -109q-7 -39 -68 -115q-17 -18 -57 -58.5t-72 -71.5l-31 -31h-159z" />
<glyph horiz-adv-x="1109" d="M719 546l-65 -278h-278l65 278h-282l60 251h283l46 197h-282l61 252h283l65 277h279l-66 -277h285l-62 -252h-284l-46 -197h282l-61 -251h-283z" />
<glyph horiz-adv-x="1355" d="M1023 -167l-152 193q-127 -47 -285 -47q-105 0 -200.5 44.5t-165.5 129.5t-94.5 209.5t11.5 285.5l46 200q81 332 263 502.5t480 170.5q110 0 207.5 -45.5t167.5 -132t94.5 -211.5t-12.5 -284l-48 -200q-72 -299 -222 -463l133 -169zM644 270q147 0 244 96t141 271 l51 217q29 119 12 202.5t-73.5 127.5t-142.5 44q-148 0 -244 -96t-141 -278l-50 -217q-41 -168 14 -267.5t189 -99.5z" />
<glyph horiz-adv-x="1089" d="M1010 234q-70 -107 -159 -168t-221 -82l-56 -252h-290l52 258q-68 22 -123 64.5t-93.5 103.5t-49 138t9.5 169l27 105q48 205 154 323.5t279 155.5l52 261h300l-61 -264q61 -18 110 -52t83.5 -85.5t44 -118t-7.5 -148.5l-253 16q18 76 -28 119.5t-130 43.5 q-65 0 -118.5 -29t-89 -80.5t-52.5 -121.5l-34 -143q-12 -54 -3 -97t33.5 -73.5t60 -47t76.5 -16.5q57 0 105.5 14.5t86 43t60.5 69.5z" />
<glyph horiz-adv-x="1276" d="M644 -240h-262l53 221q-130 20 -243.5 90.5t-181.5 175.5l226 188q51 -80 139 -128.5t201 -48.5q128 0 206.5 47.5t95.5 125.5q13 60 2.5 102t-62.5 65t-152 26q-97 3 -179.5 38t-139 93t-80 142.5t-3.5 180.5q19 95 57 168.5t99.5 131t152.5 92.5t210 47l48 196h262 l-51 -205q104 -23 187.5 -75.5t127.5 -124.5l-239 -179q-35 52 -109.5 85.5t-166.5 33.5q-119 0 -191.5 -40t-91.5 -119q-14 -55 5.5 -91.5t75.5 -57t151 -24.5q103 -5 187.5 -38t144 -94.5t79.5 -151.5t-6 -208q-48 -198 -166 -305t-332 -135z" />
<glyph horiz-adv-x="817" d="M-107 -342q28 155 91 257.5t195 193.5q52 37 114 71.5t95.5 52t60.5 43.5t34 58q9 39 -17 66.5t-74 27.5q-59 0 -94.5 -34.5t-52.5 -85.5q0 -1 -21 4t-50.5 12t-59 14.5t-49.5 12.5l-21 5q20 56 52.5 103.5t80.5 88t115.5 63.5t148.5 23q62 0 119.5 -24t97 -64t57.5 -96 t4 -114q-10 -42 -29 -79t-46.5 -67.5t-55 -55t-64.5 -48t-65 -39t-67 -35.5q-34 -18 -58.5 -33t-51.5 -35.5t-42.5 -44t-18.5 -48.5h385l-47 -193h-666z" />
</font>
</defs>
</svg>
