<?xml version="1.0" standalone="no"?>
<!DOCTYPE svg PUBLIC "-//W3C//DTD SVG 1.1//EN" "http://www.w3.org/Graphics/SVG/1.1/DTD/svg11.dtd" >
<svg xmlns="http://www.w3.org/2000/svg" xmlns:xlink="http://www.w3.org/1999/xlink" version="1.1">
<metadata></metadata>
<defs>
<font id="klimaitalic" horiz-adv-x="1113" >
<font-face units-per-em="2048" ascent="1565" descent="-483" />
<missing-glyph horiz-adv-x="386" />
<glyph unicode="&#x3c;&#x2d;&#x33;&#x35;&#x30;" horiz-adv-x="3784" d="M2978 -45q-104 0 -199.5 40.5t-165.5 109t-111.5 162.5t-41.5 197v572q0 103 41.5 196.5t111.5 160.5t165.5 106.5t199.5 39.5t200 -39.5t166 -106.5t112.5 -160.5t42.5 -196.5v-572q0 -82 -27 -160t-76 -140.5t-113 -109.5t-143 -73t-162 -26zM2978 271q45 0 83.5 22 t60.5 58.5t22 78.5v621q0 65 -49 113.5t-117.5 48.5t-116.5 -48.5t-48 -113.5v-621q0 -42 21.5 -78.5t60 -58.5t83.5 -22zM114 406q-22 0 -36 15l-259 338q-6 6 -6 21.5t6 21.5l259 335q6 11 21 17t26 1t18 -16.5t7 -22.5v-205h190q7 0 13.5 -6t10.5 -16t4 -21v-180 q0 -22 -12 -36t-34 -14h-172v-195q0 -7 -3 -14.5t-9 -13.5t-13 -9h-11zM521 13q-85 40 -170 129q-56 67 -115 161q-12 21 7 39q185 130 211 138q28 16 45 6q7 -10 37 -44t40 -48q44 -46 87.5 -70.5t93.5 -20.5q51 7 91.5 40.5t46.5 84.5q6 56 -18 104t-71 63q-12 5 -28.5 9 t-28.5 5.5l-32 4t-31 3.5q-86 11 -95 62q-9 72 6 175v4q0 13 1.5 19t7 14.5t20 13t39.5 6.5q118 21 162 50q38 26 50.5 77t-4.5 89q-16 43 -54.5 66.5t-91.5 23.5q-28 0 -61.5 -10t-58.5 -31q-37 -27 -88 -97q-31 -21 -57 -6q-15 12 -55 46.5t-76.5 66t-44.5 37.5 q-7 7 -9.5 18.5t2.5 18.5q5 8 14.5 23t25 36.5t36 45.5t43.5 47.5t51 46t56 37.5q90 45 220 46t234 -46q101 -48 169 -135t89 -195q16 -106 -14 -210t-104 -182q85 -82 119.5 -190.5t14.5 -220t-92 -203.5q-53 -67 -128 -112.5t-157.5 -64.5t-170 -12t-164.5 42zM1933 -28 q-121 -22 -242 2t-212 92q-99 67 -165 134q-23 32 6 60q36 37 151 168q17 17 25 22.5t17.5 4.5t23.5 -12q30 -29 86 -71q56 -41 127 -58.5t119 -10.5q38 11 66 27t44.5 36.5t25 37.5t14.5 39q5 22 6.5 45t-0.5 47.5t-8.5 46.5t-18 43t-28.5 35q-38 38 -93.5 52.5t-111.5 3.5 q-36 -10 -66.5 -35.5t-83.5 -85.5q-10 -10 -20 -13t-15.5 -2t-17.5 6t-18 7l-31.5 13.5t-51 22t-57 24.5t-47.5 20q-13 12 -17 19t-4 18q2 9 30 181.5t56.5 355t35.5 235.5q1 2 2.5 10t2 10t2.5 8t4 8l6 6t8 5t10.5 2.5t14.5 1.5h704q33 0 33 -29v-252q-12 -29 -33 -29h-468 q-3 -18 -20.5 -134t-20.5 -135q43 31 109.5 42t143 -1.5t149.5 -44.5t136 -95t96 -145q18 -45 26.5 -86.5t9.5 -66.5t1 -71q0 -189 -101 -316q-61 -77 -150.5 -130t-189.5 -68z" />
<glyph horiz-adv-x="0" />
<glyph unicode="&#xd;" horiz-adv-x="451" />
<glyph unicode=" "  horiz-adv-x="386" />
<glyph unicode="&#x09;" horiz-adv-x="386" />
<glyph unicode="&#xa0;" horiz-adv-x="386" />
<glyph unicode="!" horiz-adv-x="537" d="M222 342l137 569l146 616h43l-146 -616l-137 -569h-43zM180.5 -6q-16.5 0 -32 13t-15.5 34q0 14 8 26t19 17.5t21 5.5q16 0 31.5 -14t15.5 -35t-15.5 -34t-32 -13z" />
<glyph unicode="&#x22;" horiz-adv-x="616" d="M299 1065q95 397 101 421q7 27 12.5 37t17.5 10q13 0 16 -10.5t-3 -36.5q-3 -11 -27.5 -114t-48.5 -204t-25 -103h-43zM572 1065q95 397 101 421q5 19 8.5 28t8.5 14t14 5q12 0 15 -10.5t-3 -36.5q-3 -11 -27.5 -114t-48.5 -204t-25 -103h-43z" />
<glyph unicode="#" horiz-adv-x="1297" d="M452 484h375l84 314h-373zM308 103l90 338h-256l10 43h256l84 314h-268l10 43h269l84 320h45l-84 -320h375l83 320h45l-83 -320h284l-11 -43h-284l-84 -314h295l-11 -43h-295l-90 -338h-45l90 338h-376l-86 -338h-47z" />
<glyph unicode="$" horiz-adv-x="1348" d="M437 1157q-11 -52 -8.5 -94t21.5 -76t46 -59.5t66 -45t81 -32t92 -19.5l172 673q-183 -10 -308 -98.5t-162 -248.5zM587 28q65 0 130.5 14t130.5 43.5t118.5 71.5t94 103t57.5 134q13 53 14.5 98.5t-8 81.5t-26.5 65t-43.5 50.5t-57 37.5t-69.5 27t-78 18t-85 10 l-191 -754h13zM576 -15h-12l-57 -217h-45l57 222q-140 15 -248 99.5t-140 189.5l41 16q28 -98 124 -173.5t233 -91.5l193 758q-60 8 -114 27t-101.5 50t-76.5 73t-41 97t5 122q28 119 99 204.5t178.5 132t246.5 53.5l56 220h43l-56 -218h7q81 0 146.5 -16t110 -44.5 t72.5 -56.5t51 -64l-43 -26q-82 164 -348 164h-7l-174 -681q483 -49 387 -431q-25 -104 -85 -184t-140.5 -128t-172 -72.5t-189.5 -24.5z" />
<glyph unicode="%" horiz-adv-x="1627" d="M342 854q-60 0 -114 24t-95 67.5t-65.5 108.5t-24.5 142q0 76 24 140t65 106.5t95.5 66.5t114.5 24q131 0 214.5 -91.5t83.5 -245.5q0 -80 -22 -145t-61.5 -108t-94 -66t-120.5 -23zM86 0l1161 1527h54l-1161 -1527h-54zM342 897q44 0 82.5 12.5t70 37.5t54.5 60 t35.5 83.5t12.5 105.5q0 134 -72 214t-183 80q-106 0 -181 -80t-75 -214q0 -135 75 -217t181 -82zM1071 -8q-60 0 -114 24t-95.5 67t-65.5 108t-24 142q0 75 24 139.5t65 107.5t95 67t115 24q130 0 214.5 -92t84.5 -246q0 -107 -38.5 -184.5t-105.5 -117t-155 -39.5z M1071 35q112 0 184 78.5t72 219.5q0 134 -72.5 214.5t-183.5 80.5q-106 0 -181 -80.5t-75 -214.5q0 -135 75 -216.5t181 -81.5z" />
<glyph unicode="&#x26;" horiz-adv-x="1401" d="M607 876q40 16 62.5 24.5t62 25.5t63.5 29t59 31.5t57 36t48 39t43 45t31 50t21 56.5q33 134 -25 209.5t-184 75.5q-120 0 -217 -78.5t-129 -206.5q-8 -34 -9 -66.5t5.5 -60.5t15.5 -52t23 -47.5t25.5 -41t26 -37.5t21.5 -32zM172 426q-13 -64 -12.5 -122t22.5 -107.5 t58.5 -86t95 -57t132.5 -20.5q121 0 258.5 74t241.5 174q3 1 -92 136t-191.5 269.5t-97.5 134.5q-174 -60 -280.5 -167.5t-134.5 -227.5zM1166 0l-171 245q-129 -122 -260.5 -188.5t-276.5 -66.5q-75 0 -138.5 23t-105.5 64t-69.5 96.5t-31 119.5t11.5 133q16 65 50 125.5 t87 116.5t129.5 105t172.5 87q-3 5 -12.5 17.5t-19.5 26t-23 34.5t-23.5 42t-20 49t-14 55.5t-4 61t8.5 67.5q38 153 141.5 240.5t258.5 87.5q137 0 206.5 -91t33.5 -237q-11 -49 -39.5 -94.5t-68.5 -82t-83.5 -67t-95.5 -56t-92.5 -42.5t-84.5 -32l20 -29t52.5 -75.5 t72 -102.5l79 -112t72.5 -102t53 -75l21 -29l291 260h64l-329 -295l189 -279h-51z" />
<glyph unicode="'" horiz-adv-x="343" d="M299 1065q95 397 101 421q7 27 12.5 37t17.5 10q13 0 16 -10.5t-3 -36.5q-3 -11 -27.5 -114t-48.5 -204t-25 -103h-43z" />
<glyph unicode="(" horiz-adv-x="556" d="M228 -168q-29 51 -54 130.5t-43 185t-13.5 237t36.5 258.5q69 273 186.5 479t306.5 403l30 -35q-171 -166 -295.5 -383t-184.5 -469q-29 -124 -34.5 -250.5t9.5 -228t39 -179.5t54 -128z" />
<glyph unicode=")" horiz-adv-x="556" d="M415 1514q28 -51 53 -130.5t43 -185t13.5 -237t-36.5 -257.5q-69 -274 -186 -480t-306 -402l-31 34q172 166 296 383t184 469q30 124 35.5 250.5t-10 228t-39 179.5t-53.5 128z" />
<glyph unicode="*" horiz-adv-x="651" d="M338 1071l-32 33l184 176l-180 62l23 43l174 -65l55 221h45l-55 -221l213 71l5 -45l-216 -76l104 -182l-41 -23l-98 182z" />
<glyph unicode="+" horiz-adv-x="1242" d="M562 286l92 385h-385l10 43h386l90 378h43l-90 -378h384l-10 -43h-385l-93 -385h-42z" />
<glyph unicode="," horiz-adv-x="406" d="M15 -209q43 181 49 205q2 11 2.5 14.5t3 12.5t4 12l4.5 9t6.5 8t9 4t11.5 2q20 0 24 -18t-2 -44q-6 -25 -47 -119l-37 -86h-28z" />
<glyph unicode="-" horiz-adv-x="941" d="M168 521l10 43h641l-11 -43h-640z" />
<glyph unicode="." horiz-adv-x="396" d="M100.5 -6q-16.5 0 -31.5 13t-15 34q0 14 8 26t18.5 17.5t20.5 5.5q16 0 31.5 -14t15.5 -35t-15.5 -34t-32 -13z" />
<glyph unicode="/" horiz-adv-x="634" d="M-21 0l784 1529h48l-785 -1529h-47z" />
<glyph unicode="0" horiz-adv-x="1283" d="M533 -26q-109 0 -191 45t-132 135.5t-56.5 227t35.5 319.5l18 73q91 379 273.5 579t430.5 200q155 0 247.5 -87.5t114.5 -262t-40 -435.5l-20 -82q-86 -353 -258.5 -532.5t-421.5 -179.5zM544 17q218 0 381.5 170t242.5 499l18 82q87 372 14.5 557t-297.5 185 q-220 0 -392 -188.5t-259 -547.5l-18 -73q-80 -338 5 -511t305 -173z" />
<glyph unicode="1" horiz-adv-x="741" d="M329 0l357 1484l-413 -153l-6 37l425 159h45l-365 -1527h-43z" />
<glyph unicode="2" horiz-adv-x="1139" d="M30 0q33 143 80.5 247t126 191.5t181 157t257.5 146.5q153 77 245 145t135.5 132t62.5 147q11 53 9.5 103t-24 94t-57.5 76.5t-90.5 51.5t-124.5 19q-154 0 -278.5 -86t-191.5 -232l-39 17q70 159 207.5 251.5t307.5 92.5q72 0 132 -20.5t101 -57t67.5 -85.5t31.5 -105.5 t-6 -118.5q-12 -61 -38 -113t-63 -96.5t-93 -87.5t-122 -82.5t-157 -85.5q-139 -70 -234.5 -133t-171.5 -141.5t-123.5 -171.5t-76.5 -214l862 2l-10 -43h-906z" />
<glyph unicode="3" horiz-adv-x="1160" d="M456 -2q-334 0 -390 326q0 -1 11 2t21 8l11 4q53 -297 357 -297q128 0 232.5 45t174.5 129t97 200q41 167 -44.5 263t-291.5 98l-53 2l8 39q27 2 56 4q59 6 109.5 17t99.5 29.5t88.5 45t72.5 62t56.5 84t36.5 107.5q33 157 -41 250.5t-252 93.5q-78 0 -152.5 -27.5 t-129.5 -70.5t-94.5 -87.5t-62.5 -87.5l-36 10q24 50 68 101.5t105 98.5t143 76.5t167 29.5q79 0 141.5 -19.5t103.5 -54t65.5 -83t27.5 -106.5t-10 -124q-17 -77 -50 -139t-76 -103t-96.5 -69t-109 -40.5t-115.5 -12.5q84 0 151 -26t110 -75.5t57 -122t-9 -163.5 q-44 -191 -196 -304t-361 -113z" />
<glyph unicode="4" horiz-adv-x="1182" d="M692 0l96 396h-702l11 45l941 1081h63l-260 -1083h174l-11 -43h-173l-96 -396h-43zM146 439h652l247 1034z" />
<glyph unicode="5" horiz-adv-x="1186" d="M468 -26q-79 0 -145.5 22t-112 58t-79 86t-51.5 103t-26 112l45 10q8 -55 23.5 -102.5t45.5 -94t70.5 -79t102.5 -52.5t139 -20q99 0 190 35.5t160 97t118.5 142.5t71.5 172q49 209 -39.5 333t-283.5 124q-132 0 -240.5 -56t-150.5 -123l-68 5l205 780h787l-9 -43h-741 l-181 -688l5 5t15.5 15t25.5 22.5t36 26.5t45.5 28t55.5 27t64.5 22.5t75 15.5t84.5 6q213 0 311.5 -135.5t45.5 -360.5q-20 -82 -59.5 -157.5t-95.5 -136.5t-124 -106t-149 -69.5t-167 -24.5z" />
<glyph unicode="6" horiz-adv-x="1192" d="M484 -2q-67 0 -125 18t-101 50t-75.5 76t-47.5 95.5t-18.5 109.5t12.5 117q14 59 43.5 119t69 114t61.5 81.5t54 62.5l626 712h49l-626 -714q27 21 49.5 34.5t60 31t88 26.5t110.5 9q80 0 147 -25t112 -68.5t73.5 -103t31.5 -129.5t-13 -148q-23 -96 -75.5 -181 t-126.5 -149t-172.5 -101t-206.5 -37zM497 41q94 -1 182 32t155.5 90t116.5 135t71 166q28 118 -2 217t-113.5 157.5t-202.5 58.5q-191 0 -339 -122t-193 -311q-27 -116 4.5 -213t116 -154t204.5 -56z" />
<glyph unicode="7" horiz-adv-x="1110" d="M148 0l1036 1484h-860l9 43h910l-6 -35l-1040 -1492h-49z" />
<glyph unicode="8" horiz-adv-x="1186" d="M478 -17q-92 0 -167 28t-123.5 81t-66 128.5t5.5 171.5q19 82 64 153t106.5 122t130 87t142.5 57q-48 13 -90 43t-73 77t-40 107t7 134q17 70 61.5 137t106 119t142.5 84t163 32q58 0 108 -14t87 -38.5t64.5 -58.5t40.5 -75t16 -87t-10 -95q-15 -65 -53.5 -128 t-91.5 -114t-122 -86t-142 -44q43 -7 83 -21.5t79 -38.5t68 -56t49.5 -75t23.5 -95t-11 -116q-30 -127 -111 -222.5t-196.5 -146t-250.5 -50.5zM677 823q80 11 147.5 37t114.5 60t82.5 77.5t56.5 86.5t32 90q12 44 9.5 85.5t-14.5 78t-36.5 66.5t-57 51.5t-76.5 34t-94 12.5 q-76 0 -148.5 -28.5t-127.5 -75t-94.5 -106t-53.5 -120.5q-32 -129 32.5 -221.5t227.5 -127.5zM486 26q123 0 227.5 44.5t179 130t102.5 201.5q11 44 12.5 81.5t-6.5 69.5t-23.5 59t-40 49.5t-55 41t-70.5 34t-84.5 28t-97.5 23.5q-180 -42 -303 -148t-157 -248 q-21 -86 -5.5 -153.5t59.5 -115t111.5 -72.5t150.5 -25z" />
<glyph unicode="9" horiz-adv-x="1192" d="M314 0l628 714q-23 -17 -39 -27.5t-46 -26t-59.5 -24.5t-73 -16t-92.5 -7q-80 0 -147 24.5t-111.5 68t-73 103t-32 129.5t12.5 148q24 96 76.5 181t127 149.5t173 101.5t206.5 37q67 0 125 -18t100.5 -50t75 -76t47.5 -96t18 -110t-13 -117q-11 -48 -35 -99.5t-46 -87.5 t-57 -81.5t-48.5 -61t-41.5 -46.5l-626 -712h-49zM643 656q191 0 339 121.5t192 310.5q28 116 -3.5 213.5t-116 154.5t-202.5 56q-96 1 -184 -32t-156 -90.5t-117 -135.5t-71 -166q-27 -119 3 -217.5t113 -156.5t203 -58z" />
<glyph unicode=":" horiz-adv-x="399" d="M329 903q-10 0 -21 5t-19 16.5t-8 26t8 26t19 17.5t21 6q16 0 31.5 -14.5t15.5 -35.5t-15.5 -34t-31.5 -13zM123 37q-16 0 -31.5 13t-15.5 34t15.5 35t31.5 14t31.5 -14t15.5 -35t-15.5 -34t-31.5 -13z" />
<glyph unicode=";" horiz-adv-x="442" d="M342.5 901q-16.5 0 -32 13t-15.5 34q0 14 8 26t18.5 18t20.5 6q16 0 32 -14.5t16 -35.5t-15.5 -34t-32 -13zM28 -160q43 181 50 205q2 11 2.5 15t2.5 12.5t4 12t5 9t6.5 7.5t8.5 4t12 2q19 0 23 -18t-2 -44q-7 -24 -48 -119l-36 -86h-28z" />
<glyph unicode="&#x3c;" horiz-adv-x="1178" d="M909 43l-808 466l8 35l1030 460l-10 -52l-961 -429l753 -431z" />
<glyph unicode="=" horiz-adv-x="1594" d="M426 966l11 43h993l-10 -43h-994zM316 513l11 43h993l-11 -43h-993z" />
<glyph unicode="&#x3e;" horiz-adv-x="1178" d="M505 987l809 -466l-9 -35l-1030 -460l11 52l961 429l-752 431z" />
<glyph unicode="?" horiz-adv-x="1065" d="M421 338q38 160 131.5 283t217.5 204q125 81 200 166t95 164q24 102 -3 183.5t-101 128.5t-183 47q-161 0 -277 -84.5t-172 -225.5l-39 7q62 161 185.5 253.5t316.5 92.5q110 0 192 -54.5t115.5 -147t8.5 -200.5q-24 -99 -103 -185.5t-215 -177.5q-115 -74 -203 -191 t-123 -263h-43zM371.5 -6q-15.5 0 -27 12.5t-11.5 34.5t12 35.5t27 13.5t27 -13.5t12 -35.5t-12 -34.5t-27.5 -12.5z" />
<glyph unicode="@" horiz-adv-x="2056" d="M961 -207q-170 0 -317 62t-247 175.5t-139 274.5t9 360q44 184 141.5 346t229.5 278.5t296.5 183t335.5 66.5q88 0 171 -22t154 -63t132 -99t103 -130t67.5 -156t26 -177t-20.5 -193q-30 -122 -69.5 -217.5t-83 -158.5t-94.5 -103.5t-102 -58t-107 -17.5q-53 0 -97 35.5 t-65 105.5t3 175q-13 -30 -30 -58t-45 -59t-62 -53t-82 -37t-103 -15q-89 0 -154.5 49.5t-92.5 141t1 220.5q45 188 166.5 301t281.5 113q50 0 89.5 -19t62 -47t36.5 -62.5t17.5 -64.5t0.5 -53l48 196h43l-134 -549q-30 -131 9.5 -204t117.5 -73q47 0 90.5 16t88.5 53.5 t84 95t74.5 145.5t61.5 200q29 110 22 212.5t-38 191t-88.5 161.5t-131.5 125t-166.5 80.5t-192.5 28.5q-156 0 -310 -63.5t-281.5 -173.5t-223.5 -266t-139 -333q-45 -185 -10 -337t127.5 -260t234 -167.5t310.5 -59.5q55 0 111.5 8t85.5 17l29 8q0 -3 1 -7.5t2.5 -14 t2.5 -15.5t0 -6q-27 -11 -114 -22t-127 -11zM976 281q40 0 78.5 12t73 33.5t66 53.5t57 71t46 87t32.5 100q18 75 18 142.5t-18 121.5t-62.5 86t-109.5 32q-133 0 -244 -104.5t-150 -268.5t22.5 -265t190.5 -101z" />
<glyph unicode="A" horiz-adv-x="1352" d="M320 503h745l-140 976zM-43 0l946 1527h58l219 -1527h-43l-66 460h-778l-285 -460h-51z" />
<glyph unicode="B" horiz-adv-x="1315" d="M86 0l366 1527h453q77 0 140.5 -20.5t106.5 -56.5t71 -86t33 -109.5t-6 -125.5q-13 -64 -42.5 -120t-66 -93.5t-78.5 -65t-80.5 -41t-71.5 -15.5q33 -3 71.5 -19t79.5 -47.5t69 -79t39.5 -112.5t-9.5 -149q-46 -189 -190 -288t-371 -99h-514zM327 813h465q161 0 271.5 90 t142.5 228q11 56 9 107.5t-25.5 96.5t-61.5 78t-97.5 52t-133.5 19h-409zM142 43h467q205 0 337 91t172 258q21 91 4.5 161t-64 118.5t-119 73.5t-159.5 25h-464z" />
<glyph unicode="C" horiz-adv-x="1414" d="M673 -19q-94 0 -177.5 25t-156 78t-115.5 135t-55 195.5t24 260.5l39 158q37 153 97 275t131 203t156.5 135t171 77.5t176.5 23.5q105 0 192 -32t149.5 -92t92 -153t17.5 -207h-43q11 105 -14 188.5t-80.5 138t-137.5 83.5t-186 29q-81 0 -159 -22t-157.5 -73 t-146.5 -127t-124 -192.5t-92 -262.5l-37 -150q-28 -116 -28.5 -213t24 -167.5t68 -123t104.5 -84.5t131 -47.5t151 -15.5q184 0 334 123t215 324h45q-36 -107 -92.5 -195t-131.5 -154.5t-173.5 -103.5t-211.5 -37z" />
<glyph unicode="D" horiz-adv-x="1362" d="M86 0l366 1527h477q157 0 262.5 -82t141 -234t-14.5 -370l-38 -160q-40 -169 -110.5 -299.5t-163.5 -213.5t-204 -125.5t-238 -42.5h-478zM140 43h434q237 0 411 164.5t252 473.5l38 160q50 213 17 356t-128.5 215t-242.5 72h-435z" />
<glyph unicode="E" horiz-adv-x="1244" d="M86 0l366 1527h948l-9 -43h-905l-166 -690h697l-11 -43h-696l-170 -708h923l-12 -43h-965z" />
<glyph unicode="F" horiz-adv-x="1169" d="M86 0l368 1529h900l-10 -43h-858l-157 -655h714l-11 -43h-714l-189 -788h-43z" />
<glyph unicode="G" horiz-adv-x="1426" d="M597 -24q-104 0 -193 44.5t-151.5 132.5t-79.5 220t22 306l39 164q86 357 273 530.5t484 173.5q78 0 148 -22.5t122.5 -63t90.5 -93.5t55.5 -117t12.5 -131h-46q5 56 -8.5 110.5t-45 103t-78.5 86t-114.5 60t-146.5 22.5q-270 0 -447 -163t-259 -504l-35 -147 q-38 -170 -25.5 -295.5t68.5 -208.5t139.5 -124t186.5 -41q151 0 263 42t196 133t142.5 223t105.5 323h-512l9 42h555l-9 -42q-33 -136 -69.5 -240.5t-84 -192.5t-105 -148t-132 -102t-166 -61.5t-205.5 -19.5z" />
<glyph unicode="H" horiz-adv-x="1356" d="M86 0l366 1527h45l-181 -753h882l181 753h43l-368 -1527h-43l175 731h-880l-177 -731h-43z" />
<glyph unicode="I" horiz-adv-x="431" d="M86 0l366 1527h43l-366 -1527h-43z" />
<glyph unicode="J" horiz-adv-x="1092" d="M-33 228h43q17 -54 54 -96.5t83 -66.5t92.5 -36t89.5 -12q101 0 185 30.5t156 96t126.5 173.5t89.5 257l228 953h43l-228 -957q-75 -313 -221.5 -454.5t-387.5 -141.5q-35 0 -73.5 7t-82.5 25.5t-81 46.5t-68.5 73t-47.5 102z" />
<glyph unicode="K" horiz-adv-x="1313" d="M86 0l366 1527h45l-235 -973l1156 973h68l-826 -694l456 -833h-49l-441 804l-381 -320l-116 -484h-43z" />
<glyph unicode="L" horiz-adv-x="1135" d="M86 0l366 1527h43l-355 -1484h824l-12 -43h-866z" />
<glyph unicode="M" horiz-adv-x="1566" d="M86 0l366 1527h55l215 -1340l854 1340h56l-366 -1527h-43l347 1445l-848 -1326h-36l-210 1326l-347 -1445h-43z" />
<glyph unicode="N" horiz-adv-x="1461" d="M86 0l366 1527h53l626 -1476l353 1476h43l-366 -1527h-57l-620 1469l-355 -1469h-43z" />
<glyph unicode="O" horiz-adv-x="1403" d="M630 -13q-88 0 -165.5 25t-144 78t-105 134.5t-47.5 195.5t27 261l39 164q84 347 256.5 521.5t432.5 174.5q116 0 211.5 -42.5t162.5 -129.5t84.5 -217.5t-22.5 -306.5l-39 -164q-87 -359 -254 -524.5t-436 -169.5zM638 30q493 7 644 660l36 149q37 168 22.5 292.5 t-76 206t-151 121t-202.5 39.5q-234 0 -395 -165t-239 -494l-37 -149q-35 -143 -29.5 -252.5t38.5 -187.5t93 -127t134 -71.5t162 -21.5z" />
<glyph unicode="P" horiz-adv-x="1257" d="M86 0l366 1527h488q71 0 131 -15t103 -43t74.5 -67t45.5 -87t15.5 -104t-14.5 -117q-43 -181 -190.5 -293.5t-353.5 -112.5h-456l-166 -688h-43zM306 731h453q126 0 230 47t171 128t92 186q27 113 0 201t-110 139.5t-213 51.5h-443z" />
<glyph unicode="Q" horiz-adv-x="1431" d="M1122 -129l-143 213q-141 -93 -349 -97q-88 0 -165.5 25t-144 78t-105 134.5t-47.5 195.5t27 261l39 164q84 347 256.5 521.5t432.5 174.5q116 0 211.5 -42.5t162.5 -129.5t84.5 -217.5t-22.5 -306.5l-39 -164q-98 -408 -305 -570l144 -214zM638 30q183 4 316 93 l-133 197l37 29l133 -201q204 160 291 542l36 149q37 168 22.5 292.5t-76 206t-151 121t-202.5 39.5q-234 0 -395 -165t-239 -494l-37 -149q-35 -143 -29.5 -252.5t38.5 -187.5t93 -127t134 -71.5t162 -21.5z" />
<glyph unicode="R" horiz-adv-x="1315" d="M312 757h486q111 0 212.5 50t170 133t92.5 180q24 101 -7.5 184.5t-109.5 131.5t-184 48h-486zM86 0l366 1527h507q129 0 220.5 -53t127.5 -146t9 -208q-20 -83 -69 -156.5t-112 -123.5t-133.5 -81t-137.5 -37l177 -722h-48l-176 714h-516l-172 -714h-43z" />
<glyph unicode="S" horiz-adv-x="1305" d="M554 -15q-54 0 -106.5 12t-97 32.5t-84.5 48.5t-70.5 60.5t-53 68.5t-33.5 72l41 16q12 -41 36.5 -79.5t62.5 -72.5t85 -59.5t107 -40.5t125 -15q54 0 108.5 10t109 29.5t104.5 50t91 70t72 92.5t45 114q13 53 14.5 98.5t-7.5 81.5t-26 65t-44 50.5t-57.5 37.5t-69.5 27 t-78.5 18t-85.5 10q-53 5 -103.5 17.5t-98 34t-83.5 52t-61 71t-31 90.5t7 110q46 191 194.5 291.5t379.5 100.5q263 0 381 -181l-43 -26q-82 164 -348 164q-133 0 -239 -38t-180.5 -117t-101.5 -194q-12 -55 -8.5 -99.5t26 -80t54 -61.5t75.5 -44.5t91.5 -29.5t101.5 -17 q482 -49 386 -431q-26 -104 -85.5 -184t-140 -128t-172 -72.5t-189.5 -24.5z" />
<glyph unicode="T" horiz-adv-x="1122" d="M430 0l358 1486h-464l11 43h972l-10 -43h-466l-357 -1486h-44z" />
<glyph unicode="U" horiz-adv-x="1281" d="M523 -26q-229 0 -322.5 168.5t-19.5 472.5l217 912h43l-219 -916q-69 -282 12 -438t299 -156q229 0 382 154.5t222 439.5l220 916h43l-218 -912q-37 -157 -93.5 -274t-136.5 -200t-187 -125t-242 -42z" />
<glyph unicode="V" horiz-adv-x="1300" d="M525 0l-194 1529h43l188 -1467l887 1467h41l-920 -1529h-45z" />
<glyph unicode="W" horiz-adv-x="1966" d="M398 0l-65 1527h43l69 -1469l759 1411h46l92 -1426l761 1484h47l-789 -1527h-62l-88 1398l-751 -1398h-62z" />
<glyph unicode="X" horiz-adv-x="1257" d="M-26 0l686 742l-327 785h54l308 -747l694 747h52l-735 -787l307 -740h-52l-286 708l-647 -708h-54z" />
<glyph unicode="Y" horiz-adv-x="1237" d="M495 0l148 615l-310 912h52l292 -862l695 862h50l-736 -912l-148 -615h-43z" />
<glyph unicode="Z" horiz-adv-x="1165" d="M-21 0l8 37l1275 1447h-901l9 43h968l-7 -33l-1284 -1451h927l-10 -43h-985z" />
<glyph unicode="[" horiz-adv-x="687" d="M71 -64l389 1619h387l-10 -43h-345l-367 -1533h343l-10 -43h-387z" />
<glyph unicode="\" horiz-adv-x="663" d="M428 0l-84 1527h43l84 -1527h-43z" />
<glyph unicode="]" horiz-adv-x="689" d="M847 1553l-389 -1619h-387l11 42h344l368 1534h-345l11 43h387z" />
<glyph unicode="^" horiz-adv-x="987" d="M335 1144l-25 34l408 340h37l269 -355l-35 -26l-256 338z" />
<glyph unicode="_" horiz-adv-x="1024" d="M-19 -43l11 43h1042l-10 -43h-1043z" />
<glyph unicode="`" horiz-adv-x="257" d="M365 1266l-81 263l40 10l87 -273h-46z" />
<glyph unicode="a" d="M445 19q78 0 151 29t138.5 87t118.5 155.5t85 226.5l6 29q28 124 19 215.5t-50 151.5t-98 89.5t-125 29.5q-56 0 -114.5 -18.5t-116.5 -57.5t-108 -94t-90.5 -134t-63.5 -172l-12 -53q-28 -128 -19.5 -220t50.5 -150.5t100 -86t129 -27.5zM437 -24q-77 0 -142 30.5 t-113 95t-59 164t19 237.5l12 53q25 102 66.5 186.5t93.5 145.5t115 103.5t131.5 63t140.5 20.5q70 0 128.5 -28.5t95 -73.5t56 -98.5t17.5 -104.5l67 275h43l-252 -1045h-43l69 284q-15 -56 -51 -109t-90 -98.5t-133.5 -73t-170.5 -27.5z" />
<glyph unicode="b" horiz-adv-x="1156" d="M86 0l366 1527h43l-181 -757q19 42 49.5 83.5t73 82t91.5 71.5t110 49.5t123 18.5q113 0 192.5 -57.5t111.5 -171t-9 -282.5l-13 -55q-31 -126 -89.5 -228.5t-132.5 -168.5t-157 -101t-167 -35q-63 0 -114.5 18.5t-85.5 49.5t-57 72t-32.5 86.5t-7.5 92.5l-71 -295h-43z M509 19q70 0 143.5 32.5t141.5 92t124 155t84 210.5l13 55q27 117 17 204.5t-51 146.5t-100 88t-130 29q-54 0 -111 -18.5t-115 -58t-108 -95.5t-91.5 -137t-65.5 -177l-6 -29q-26 -106 -23.5 -187.5t24.5 -140.5t62 -96.5t88 -55.5t104 -18z" />
<glyph unicode="c" horiz-adv-x="1069" d="M447 -37q-79 0 -146.5 31.5t-117 95.5t-62.5 162t17 232l22 90q17 73 43.5 137t59 115.5t72 93.5t84 73t93.5 51.5t101 31t107 10.5q53 0 99 -14t79.5 -39t59 -59t38 -74t16 -84.5t-7.5 -91.5h-45q9 48 8.5 94t-19 86.5t-48.5 71.5t-79 49t-111 18q-82 0 -159.5 -29.5 t-145.5 -86t-121.5 -147.5t-80.5 -206l-22 -90q-28 -126 -19 -216t52.5 -148.5t105 -86t138.5 -27.5q126 0 230 58t161 141l41 -18q-160 -224 -443 -224z" />
<glyph unicode="d" horiz-adv-x="1135" d="M445 19q56 0 112.5 17.5t114 56.5t107.5 95.5t92 141t67 187.5l6 29q28 124 19.5 215.5t-49 151.5t-98 89.5t-126.5 29.5q-56 0 -115 -18.5t-117 -57.5t-108 -94t-91 -134t-64 -172l-12 -53q-28 -128 -19.5 -220t51 -150.5t101 -86t129.5 -27.5zM437 -24 q-57 0 -109.5 19.5t-99 60t-74 103t-33.5 148.5t21 196l12 53q25 102 66.5 186.5t93.5 145.5t115 103.5t131.5 63t140.5 20.5q70 0 129.5 -29.5t96 -75t55.5 -98.5t16 -102l180 757h43l-365 -1527h-39l69 286q-25 -61 -65.5 -114.5t-96 -98.5t-130 -71t-157.5 -26z" />
<glyph unicode="e" horiz-adv-x="1077" d="M468 -30q-73 0 -135.5 26t-105 72.5t-70 110t-32 137.5t9.5 155l9 40q30 143 85 253.5t127.5 180t158 105.5t180.5 36q74 0 137.5 -27t105.5 -72t59.5 -108t2.5 -132q-10 -44 -39 -80.5t-68 -60.5t-81 -38.5t-81 -17.5l-550 -82q-26 -122 0.5 -226t104 -166.5 t190.5 -62.5q272 0 408 200l34 -24q-24 -30 -46 -53.5t-53 -50t-66 -46t-77.5 -36t-95 -25t-112.5 -8.5zM187 511l546 84q40 3 85 20t86 53.5t53 82.5q14 63 -1.5 119t-54 93.5t-95 59.5t-120.5 22q-79 0 -153 -31.5t-141.5 -94t-121 -167t-83.5 -241.5z" />
<glyph unicode="f" horiz-adv-x="661" d="M-101 -335l9 42q32 -1 65.5 16t66 51t59 92.5t41.5 133.5l243 1011h-178l10 43h179l17 73q95 402 430 402h4l-10 -41q-140 0 -238 -89t-143 -272l-17 -73h307l-11 -43h-307l-243 -1011q-19 -92 -50.5 -159t-70.5 -104.5t-79 -54.5t-84 -17z" />
<glyph unicode="g" horiz-adv-x="1158" d="M447 24q166 0 301.5 130.5t184.5 340.5l21 86q56 229 -16.5 347.5t-245.5 118.5q-178 0 -309.5 -132t-189.5 -371l-8 -37q-58 -237 11.5 -360t250.5 -123zM333 -462q-70 0 -128 15.5t-98 42.5t-66.5 56t-44.5 62l37 19q13 -24 27.5 -42.5t40.5 -40t57.5 -36t80.5 -24 t107 -9.5q62 0 118 15t112 50t102 88.5t85 136t64 187.5l57 226q-16 -41 -41.5 -80.5t-65.5 -80.5t-88 -72t-113 -50.5t-137 -19.5q-123 0 -203.5 61.5t-106 178t14.5 286.5l8 37q63 266 204.5 406t349.5 140q51 0 94.5 -11t75.5 -31t57 -45t41 -55t25.5 -60t13.5 -61 l56 231h43l-239 -996q-35 -143 -89.5 -246.5t-125 -163t-150.5 -87t-175 -27.5z" />
<glyph unicode="h" d="M86 0l366 1527h43l-185 -774q15 41 36 80t50 77t65.5 69.5t79.5 55.5t95.5 37.5t110.5 13.5q112 0 185.5 -61.5t96.5 -177.5t-16 -283l-135 -564h-43l135 568q53 228 -9 351.5t-226 123.5q-58 0 -116 -20t-112 -60t-100.5 -96t-83.5 -132.5t-58 -166.5l-136 -568h-43z " />
<glyph unicode="i" horiz-adv-x="429" d="M464 1438q-9 0 -20 6.5t-19 17t-8 22.5q0 17 16 31t31 14t31 -14t16 -31.5t-16 -31.5t-31 -14zM86 0l254 1058h43l-254 -1058h-43z" />
<glyph unicode="j" horiz-adv-x="468" d="M484 1438q-9 0 -18 6.5t-15 17t-6 22.5q0 17 12.5 31t27 14t26.5 -14t12 -31.5t-12 -31.5t-27 -14zM-232 -392l10 43q36 -1 72 7t77.5 31.5t77 61t68 102t52.5 147.5l253 1058h43l-253 -1062q-23 -98 -61.5 -171t-79.5 -114t-90 -65.5t-88.5 -31.5t-80.5 -6z" />
<glyph unicode="k" horiz-adv-x="1014" d="M86 0l366 1527h43l-259 -1075l794 606h60l-585 -456l359 -602h-43l-350 576l-249 -191l-93 -385h-43z" />
<glyph unicode="l" horiz-adv-x="431" d="M303 -2q-105 -10 -143 63.5t-6 222.5l298 1243h45l-297 -1239q-19 -86 -17.5 -144t33.5 -85.5t96 -21.5z" />
<glyph unicode="m" horiz-adv-x="1736" d="M86 0l254 1058h43l-56 -233q17 43 48.5 85t78 82t113.5 65t143 25q59 0 109 -17.5t82 -46t54 -65t30.5 -74.5t5.5 -75q13 28 27.5 53t36 54t45 52.5t55 46t66 38t78 25t90.5 9.5q82 0 142 -26t98.5 -81t44 -140.5t-21.5 -204.5l-150 -630h-44l151 630q25 111 23 189.5 t-34 127.5t-85.5 71.5t-131.5 22.5q-149 0 -258 -105.5t-155 -297.5l-153 -638h-43l153 638q53 188 -10 294t-214 106q-65 0 -129 -25t-120.5 -73t-101 -125.5t-66.5 -174.5l-155 -640h-43z" />
<glyph unicode="n" horiz-adv-x="1135" d="M86 0l254 1058h43l-59 -239q34 70 95 128.5t148 96.5t180 38q98 0 165.5 -33t100 -93t36.5 -145.5t-23 -190.5l-148 -620h-43l148 617q24 96 22.5 174t-27.5 133t-86 84.5t-152 29.5q-70 0 -141.5 -28.5t-135 -80.5t-113.5 -133t-73 -179l-148 -617h-43z" />
<glyph unicode="o" horiz-adv-x="1083" d="M449 -17q-76 0 -146 31.5t-124 94t-72 155.5t10 216l21 92q57 240 198 375t341 135q86 0 158.5 -35.5t120 -101t63 -160t-12.5 -213.5l-21 -92q-58 -240 -198.5 -368.5t-337.5 -128.5zM460 26q63 0 123 17.5t115 54t101 89.5t82.5 127.5t58.5 165.5l21 90q34 149 5.5 253 t-107 159.5t-192.5 55.5q-175 0 -305 -124.5t-184 -343.5l-20 -90q-26 -115 -11.5 -200t61.5 -141.5t112 -84.5t140 -28z" />
<glyph unicode="p" horiz-adv-x="1156" d="M507 17q56 0 114.5 18.5t116 57t106.5 93t89 132t62 168.5l14 54q38 160 8.5 269t-100 165t-164.5 56q-56 0 -113 -17.5t-115 -56t-108 -95t-92 -141t-67 -187.5l-8 -30q-28 -124 -18.5 -215.5t51 -151.5t99 -89.5t125.5 -29.5zM-26 -468l366 1526h43l-73 -303 q21 48 51.5 92.5t73 86t91 72t109.5 49t126 18.5q75 0 139.5 -34.5t109.5 -102t57 -167t-18 -229.5l-13 -54q-29 -123 -85 -222t-128.5 -161.5t-155.5 -95.5t-170 -33q-70 0 -129 28.5t-96 73.5t-57.5 98.5t-19.5 104.5l-178 -747h-43z" />
<glyph unicode="q" horiz-adv-x="1156" d="M701 -468l179 747q-20 -43 -47 -83.5t-68 -82t-88.5 -71.5t-111 -49t-132.5 -19q-73 0 -137.5 32.5t-111.5 97t-60.5 160t14.5 222.5l12 54q31 126 89 228.5t131 168.5t157 101t170 35q76 0 135.5 -27.5t94.5 -73.5t52.5 -102t13.5 -115l74 303h43l-366 -1526h-43z M443 17q58 0 116.5 18.5t115.5 57.5t106 95.5t89 137.5t63 177l9 30q29 133 23.5 227t-45 154t-99 88t-137.5 28q-70 0 -144 -32.5t-142 -92t-123.5 -155t-83.5 -210.5l-13 -54q-26 -117 -16 -205t51 -146.5t100 -88t130 -29.5z" />
<glyph unicode="r" horiz-adv-x="786" d="M86 0l254 1058h43l-54 -227q11 28 34.5 60t59.5 65.5t79 60t98 43.5t112 17q118 0 174 -39l-10 -43q-45 39 -170 39q-65 0 -130 -26.5t-123 -75.5t-103.5 -126t-68.5 -172l-152 -634h-43z" />
<glyph unicode="s" horiz-adv-x="987" d="M376 -26q-109 0 -204.5 46.5t-156.5 131.5l41 22q61 -79 138 -118t193 -39q162 0 271.5 72t137.5 190q31 129 -35.5 191.5t-247.5 62.5q-74 0 -132.5 14.5t-94.5 40.5t-58.5 61.5t-24.5 77.5t8 90q14 58 47.5 106t88 86t137 59.5t185.5 21.5q60 0 114.5 -15t90.5 -38 t59.5 -44.5t34.5 -40.5l-41 -23q-1 3 -4 7t-14.5 16.5t-25 23.5t-36.5 24.5t-49 23t-62.5 16.5t-77.5 7q-167 0 -273.5 -64t-130.5 -164q-8 -40 -8.5 -76.5t16.5 -66.5t47.5 -52.5t85.5 -35t130 -12.5q185 0 266.5 -77.5t47.5 -219.5q-33 -142 -152.5 -223.5t-310.5 -81.5z " />
<glyph unicode="t" horiz-adv-x="638" d="M443 -10q-83 -6 -146.5 26t-91.5 93t-10 136l185 764h-191l8 42h193l94 387h43l-94 -387h259l-8 -42h-261l-180 -749q-26 -111 31.5 -173t179.5 -54z" />
<glyph unicode="u" horiz-adv-x="1079" d="M390 -19q-170 0 -240.5 128.5t-16.5 352.5q9 38 24 100t46.5 193.5t52 218t19.5 84.5h43l-142 -596q-50 -207 5.5 -322.5t218.5 -115.5q155 0 278 121t169 317l142 596h43l-254 -1058h-43l65 265q-18 -41 -40 -76.5t-58 -75t-78.5 -67.5t-103.5 -46.5t-130 -18.5z" />
<glyph unicode="v" horiz-adv-x="989" d="M380 0l-169 1058h47l150 -972l616 972h47l-663 -1058h-28z" />
<glyph unicode="w" horiz-adv-x="1551" d="M394 -21q-354 0 -218 577l121 502h45l-123 -508q-62 -285 -19 -407t202 -122q248 0 359 463l138 574h45l-138 -574q-53 -222 0.5 -342.5t186.5 -120.5q59 0 112.5 25t103.5 77.5t90.5 144.5t65.5 216l139 574h45l-139 -574q-27 -136 -72 -236t-101.5 -157.5t-119 -84.5 t-134.5 -27q-38 0 -70 9t-55.5 25t-43 37.5t-31.5 47t-21.5 53t-12 55t-4 54t3.5 50.5q-12 -42 -30.5 -84.5t-49.5 -88t-69 -79.5t-92 -56.5t-114 -22.5z" />
<glyph unicode="x" horiz-adv-x="989" d="M-21 0l522 542l-228 516h47l216 -486l455 486h52l-487 -527l240 -531h-47l-226 501l-484 -501h-60z" />
<glyph unicode="y" horiz-adv-x="1046" d="M-66 -361l15 45q37 -13 76 -13t81.5 13.5t85.5 48t81 86.5l121 194l-172 1045h45l163 -994l637 994h51l-804 -1253q-49 -68 -100 -109.5t-100 -55.5t-91.5 -14t-88.5 13z" />
<glyph unicode="z" horiz-adv-x="993" d="M0 0l8 37l934 978h-690l10 43h755l-6 -28l-942 -987h721l-12 -43h-778z" />
<glyph unicode="{" horiz-adv-x="739" d="M460 -88h-13q-44 0 -86 18.5t-72 52.5t-42.5 81.5t1.5 105.5q1 4 22.5 95.5t43 181t21.5 91.5q25 107 -17 149t-166 42l12 41q116 0 187.5 57t95.5 156l84 348q28 118 114.5 191.5t206.5 73.5h12l-10 -43q-104 0 -180.5 -61t-99.5 -161l-86 -350q-23 -102 -84.5 -163.5 t-134.5 -66.5q28 -2 52 -14t43 -37.5t22.5 -65t-8.5 -96.5l-88 -368q-24 -97 29 -158t149 -61z" />
<glyph unicode="|" horiz-adv-x="558" d="M74 -324l500 2085h43l-500 -2085h-43z" />
<glyph unicode="}" horiz-adv-x="741" d="M428 1600h13q45 0 86.5 -18.5t71.5 -52.5t42.5 -81.5t-1.5 -105.5q0 -4 -22.5 -95.5t-44 -181t-21.5 -91.5q-25 -107 17 -149.5t166 -42.5l-11 -40q-116 0 -187.5 -57t-95.5 -156l-84 -348q-28 -118 -114.5 -191.5t-205.5 -73.5h-13l11 43q103 0 179.5 61t99.5 161 l86 350q24 102 85 163.5t135 66.5q-29 2 -53 14t-43 37.5t-23 65t8 96.5l88 368q24 97 -28.5 158t-149.5 61z" />
<glyph unicode="~" horiz-adv-x="1059" d="M230 604l-37 20q12 24 25.5 43.5t34 39t45 33t58 22t72.5 8.5q32 0 62 -10t52.5 -24.5t48 -31.5t47.5 -31.5t50.5 -24.5t58.5 -10q40 0 80.5 18t70.5 46t44 59l41 -10q-30 -70 -99.5 -113t-146.5 -43q-37 0 -72.5 14t-64 33.5t-56 39t-60.5 33.5t-67 14q-124 0 -187 -125 z" />
<glyph unicode="&#xa1;" horiz-adv-x="541" d="M654 1250q16 0 31.5 -13.5t15.5 -34.5t-15.5 -35t-31.5 -14t-31.5 14t-15.5 35t15.5 34.5t31.5 13.5zM613 901l-137 -570l-147 -615h-43l147 615l137 570h43z" />
<glyph unicode="&#xa2;" horiz-adv-x="1167" d="M224 488q-30 -121 -18.5 -211.5t49 -147.5t100.5 -88l437 1004q-13 2 -39 2q-81 0 -159 -29.5t-146.5 -86t-122 -147t-80.5 -205.5zM490 -33q-52 0 -114 18l-92 -213h-48l102 230q-51 25 -89.5 66t-62.5 102.5t-25.5 140t20.5 177.5l22 91q31 126 86.5 224t129 160.5 t160.5 94.5t184 32q33 0 48 -2l75 174h47l-79 -183q113 -31 165.5 -130t27.5 -220h-45q14 50 8.5 100t-23.5 91.5t-57 73t-93 44.5l-443 -1012q52 -16 107 -16q126 0 230 58t161 141l41 -18q-160 -224 -443 -224z" />
<glyph unicode="&#xa3;" horiz-adv-x="1100" d="M-15 -26l-20 28q96 74 161.5 131.5t107 101.5t68 87.5t40 78t26.5 83.5q9 39 12 79t2.5 69t-6 63t-9.5 50t-11 41t-7 27h-197l12 43h176q0 2 -10.5 45t-13 60.5t-6.5 58t0 79.5t14 83q18 76 63.5 145.5t111.5 124.5t157 87.5t191 32.5q87 0 161.5 -36.5t103.5 -80.5 l-13 -47q-43 60 -105.5 90.5t-156.5 30.5q-85 0 -165.5 -30t-141.5 -78.5t-104 -111.5t-58 -129q-39 -154 17 -322h430l-11 -43h-410q0 -5 10 -46t15.5 -77t5 -94.5t-13.5 -113.5q-28 -116 -88.5 -202t-182.5 -181q87 51 174 51q37 0 70.5 -10t56.5 -24.5t48 -32t46 -32 t50.5 -24.5t61.5 -10q79 0 141.5 33t89.5 86l38 -11q-30 -52 -66.5 -84t-87 -48t-117.5 -16q-37 0 -69 9.5t-54 24t-47 31.5t-47 31.5t-54.5 24t-70.5 9.5q-56 0 -156 -41t-162 -94z" />
<glyph unicode="&#xa5;" horiz-adv-x="1303" d="M1069 281h-431l-68 -281h-43l68 281h-435l14 48h433l66 280h-421l15 47h396l-298 871h52l293 -862l694 862h49l-702 -871h425l-15 -47h-445l-67 -280h435z" />
<glyph unicode="&#xa6;" horiz-adv-x="558" d="M353 841l213 890h43l-213 -890h-43zM84 -277l206 862h43l-206 -862h-43z" />
<glyph unicode="&#xa7;" horiz-adv-x="1160" d="M632 -13h-176q-37 0 -61 21.5t-30 53.5t12 73t60 76q26 22 217 193q-95 1 -176.5 50.5t-129 132t-47.5 176.5q0 121 77.5 220.5t193.5 130.5l269 240q16 14 28.5 30t19 31.5t7.5 31t-4.5 26.5t-19 18t-33.5 7h-181l11 43h176q29 0 51 -13.5t32 -37t8.5 -51.5t-20 -60.5 t-52.5 -60.5q-26 -22 -217 -193h9q97 0 180 -51t130 -134t47 -177q0 -62 -22 -121t-60 -105.5t-91.5 -80t-115.5 -45.5l-264 -237q-33 -26 -48 -60t-2.5 -59t52.5 -25h181zM658 447q51 0 99.5 17t86.5 47.5t66.5 70t44 86.5t15.5 95q0 81 -40.5 154t-113 119t-158.5 46 q-85 0 -157.5 -45t-114.5 -118.5t-42 -155.5q0 -81 41.5 -153.5t114.5 -117.5t158 -45z" />
<glyph unicode="&#xa8;" horiz-adv-x="603" d="M755 1374q-15 0 -31 14t-16 31.5t16 31.5t31 14q7 0 15.5 -4t15.5 -10t11.5 -14.5t4.5 -16.5q0 -12 -8 -22.5t-18.5 -17t-20.5 -6.5zM316 1374q-15 0 -31 14t-16 31.5t16 31.5t31 14t31 -14t16 -31q0 -9 -4.5 -17.5t-11.5 -14.5t-15.5 -10t-15.5 -4z" />
<glyph unicode="&#xa9;" horiz-adv-x="1360" d="M821 544q-102 0 -192 36.5t-156 101.5t-104 160.5t-38 206.5q0 107 41.5 201.5t110 158.5t157.5 101t183 37q70 0 141 -23t134 -67.5t112 -104.5t77.5 -138.5t28.5 -164.5q0 -110 -38.5 -205t-105 -160.5t-157.5 -102.5t-194 -37zM823 587q95 0 177.5 34t142.5 93.5 t95 146.5t35 188q0 80 -26.5 153t-71.5 127t-102.5 94t-121.5 60.5t-128 20.5q-83 0 -164 -34.5t-144.5 -93.5t-102 -145t-38.5 -182q0 -102 36 -189.5t97 -146.5t143 -92.5t173 -33.5zM827 811q-87 0 -145 61.5t-58 155.5v49q0 88 57 148.5t144 60.5q72 0 123.5 -40.5 t64.5 -101.5l-39 -11q-28 110 -149 110q-67 0 -112.5 -47.5t-45.5 -116.5v-55q0 -50 20 -89t57 -60t83 -21q41 0 75.5 17.5t53.5 43.5t23 53l41 -4q-12 -60 -65 -106.5t-128 -46.5z" />
<glyph unicode="&#xaa;" horiz-adv-x="803" d="M423 697q55 0 114 21.5t97 45.5t65 49l50 207q-19 27 -77.5 40t-112.5 13q-111 0 -186 -49t-96 -138q-11 -46 -4 -81t28 -59t52.5 -36.5t69.5 -12.5zM413 654q-39 0 -76 15.5t-65 42.5t-40.5 68.5t-1.5 87.5q1 3 3 14.5t3 14.5q25 100 113.5 159.5t220.5 59.5 q124 0 189 -49l26 105q29 118 -4.5 176t-142.5 58q-128 0 -236 -83l-24 34q12 6 36 22t42 25.5t46.5 21t66 17.5t83.5 6q72 0 118.5 -30t63 -91.5t-6.5 -155.5l-121 -512h-43l23 103q-8 -12 -29.5 -29t-55.5 -35.5t-84.5 -31.5t-103.5 -13zM119 376l10 43h540l-11 -43h-539z " />
<glyph unicode="&#xab;" horiz-adv-x="1065" d="M365 306l-160 275l8 34l333 308l26 -35l-322 -297l148 -258zM751 306l-162 275l8 34l334 308l26 -35l-323 -297l148 -258z" />
<glyph unicode="&#xad;" horiz-adv-x="941" d="M168 521l10 43h641l-11 -43h-640z" />
<glyph unicode="&#xae;" horiz-adv-x="1360" d="M821 544q-102 0 -192 36.5t-156 101.5t-104 160.5t-38 206.5q0 107 41.5 201.5t110 158.5t157.5 101t183 37q70 0 141 -23t134 -67.5t112 -104.5t77.5 -138.5t28.5 -164.5q0 -110 -38.5 -205t-105 -160.5t-157.5 -102.5t-194 -37zM823 587q95 0 177.5 34t142.5 93.5 t95 146.5t35 188q0 80 -26.5 153t-71.5 127t-102.5 94t-121.5 60.5t-128 20.5q-83 0 -164 -34.5t-144.5 -93.5t-102 -145t-38.5 -182q0 -102 36 -189.5t97 -146.5t143 -92.5t173 -33.5zM722 1032h99q30 0 52.5 6t35.5 15.5t20.5 23.5t10 27t2.5 29q0 12 -1.5 20.5t-5.5 20 t-13.5 19.5t-24.5 16t-39.5 12t-57.5 4h-78v-193zM679 825v443h123q55 0 93 -12t56.5 -33t26 -42.5t7.5 -47.5q0 -47 -24 -86.5t-58 -48.5l92 -173h-47l-90 164h-136v-164h-43z" />
<glyph unicode="&#xaf;" horiz-adv-x="905" d="M338 1316l11 43h646l-10 -43h-647z" />
<glyph unicode="&#xb0;" horiz-adv-x="891" d="M624 833q-57 0 -111 18.5t-98 52.5t-77 78.5t-51 98.5t-18 111q0 69 28.5 135.5t76 116t113.5 79.5t137 30q97 0 180 -50.5t130 -134t47 -177t-47 -176t-130 -132.5t-180 -50zM626 876q85 0 157.5 44.5t113.5 117.5t41 154q0 80 -40.5 153t-113.5 119t-158 46t-158 -45 t-114.5 -118t-41.5 -155t41 -154.5t114 -117t159 -44.5z" />
<glyph unicode="&#xb1;" horiz-adv-x="1328" d="M1024 245h-788l12 41h356l93 385h-385l10 43h386l90 378h43l-90 -378h384l-10 -43h-385l-93 -385h385z" />
<glyph unicode="&#xb4;" horiz-adv-x="326" d="M238 1266l269 269l31 -33l-241 -236h-59z" />
<glyph unicode="&#xb6;" horiz-adv-x="1130" d="M724 6l366 1527h43l-365 -1527h-44zM495 0l172 718h-11q-33 0 -75.5 20.5t-84.5 58t-74 90t-44 117.5t5 140q44 186 173.5 284.5t313.5 98.5h33l-365 -1527h-43z" />
<glyph unicode="&#xb7;" horiz-adv-x="283" d="M205 660q-11 0 -20.5 4.5t-17 14.5t-7.5 25q0 10 4 19t11 14.5t14.5 8.5t15.5 3q16 0 30.5 -12t14.5 -33t-14.5 -32.5t-30.5 -11.5z" />
<glyph unicode="&#xb8;" horiz-adv-x="1590" d="M665 15h47l-54 -120q73 -26 120.5 -63t64.5 -76.5t16.5 -78t-18.5 -73.5q-38 -76 -123 -92t-185 30l-71 32l20 41l70 -34q181 -80 248 41q17 31 17.5 61.5t-17 61t-58 59.5t-102.5 52l-38 17z" />
<glyph unicode="&#xba;" horiz-adv-x="868" d="M507 679q-86 0 -148.5 44t-87.5 126t2 200l11 45q40 171 136.5 266t235.5 95q60 0 111.5 -24.5t87 -71t47.5 -113.5t-7 -152l-11 -45q-43 -183 -133.5 -276.5t-243.5 -93.5zM519 722q243 0 322 327l11 45q23 101 1 171.5t-77 109t-131 38.5q-110 0 -196 -84.5 t-122 -232.5l-11 -47q-35 -150 22 -238.5t181 -88.5zM140 376l10 43h562l-11 -43h-561z" />
<glyph unicode="&#xbb;" horiz-adv-x="1065" d="M737 923l162 -276l-9 -34l-334 -307l-25 34l323 296l-148 259zM353 923l160 -276l-8 -34l-333 -307l-26 34l322 296l-148 259z" />
<glyph unicode="&#xbf;" horiz-adv-x="1067" d="M911.5 907q15.5 0 27 -12.5t11.5 -34.5q0 -15 -5.5 -26.5t-14.5 -17t-19 -5.5q-15 0 -26.5 13.5t-11.5 35.5t11.5 34.5t27 12.5zM862 564q-38 -160 -131.5 -283.5t-217.5 -204.5t-199 -165.5t-95 -164.5q-24 -102 2.5 -183.5t100.5 -128.5t183 -47q161 0 277 84.5 t172 225.5l39 -7q-24 -62 -56 -113.5t-76.5 -95.5t-98 -74t-122 -46.5t-148.5 -16.5q-109 0 -191 54t-116 147t-9 201q24 99 103 185.5t216 177.5q114 74 201.5 191t122.5 264h43z" />
<glyph unicode="&#xc0;" horiz-adv-x="1352" d="M950 1671l-82 262l41 11l86 -273h-45zM320 503h745l-140 976zM-43 0l946 1527h58l219 -1527h-43l-66 460h-778l-285 -460h-51z" />
<glyph unicode="&#xc1;" horiz-adv-x="1369" d="M899 1660l269 269l30 -35l-241 -234h-58zM320 503h745l-140 976zM-43 0l946 1527h58l219 -1527h-43l-66 460h-778l-285 -460h-51z" />
<glyph unicode="&#xc2;" horiz-adv-x="1352" d="M749 1609l-27 34l267 220h37l164 -229l-35 -25l-151 211zM320 503h745l-140 976zM-43 0l946 1527h58l219 -1527h-43l-66 460h-778l-285 -460h-51z" />
<glyph unicode="&#xc3;" horiz-adv-x="1352" d="M1114 1693q-37 -3 -66 9t-49 30t-39.5 36.5t-47 30t-60.5 9.5q-123 -8 -179 -135q-1 -1 -10.5 3t-19.5 8l-9 4q14 32 31 57t43 48.5t64 38t86 17.5q37 2 66.5 -9t50 -29t40 -35.5t46.5 -29.5t59 -10q40 3 75.5 23.5t58 48.5t34.5 61l43 -6q-27 -75 -84.5 -120.5 t-132.5 -49.5zM320 503h745l-140 976zM-43 0l946 1527h58l219 -1527h-43l-66 460h-778l-285 -460h-51z" />
<glyph unicode="&#xc4;" horiz-adv-x="1352" d="M1190 1738q-10 0 -21 6t-19.5 16.5t-8.5 22.5q0 17 16.5 31t32 14t31.5 -14t16 -31t-16 -31t-31 -14zM751 1738q-16 0 -31.5 14t-15.5 31q0 9 4.5 17.5t11.5 14.5t15.5 9.5t15.5 3.5q15 0 31 -14t16 -31q0 -12 -8 -22.5t-19 -16.5t-20 -6zM320 503h745l-140 976zM-43 0 l946 1527h58l219 -1527h-43l-66 460h-778l-285 -460h-51z" />
<glyph unicode="&#xc5;" horiz-adv-x="1352" d="M944 1529q27 0 50 9.5t38 25.5t24 37.5t9 45.5q0 53 -35 91.5t-86 38.5q-49 0 -86 -38.5t-37 -91.5q0 -30 15.5 -57.5t44 -44t63.5 -16.5zM320 503h745l-140 976zM293 460l-285 -460h-51l927 1496q-31 12 -55 34.5t-37.5 53.5t-13.5 66q0 69 49.5 119.5t116.5 50.5 q33 0 63.5 -14t52.5 -37t35 -55t13 -67q0 -62 -39 -106.5t-101 -52.5l212 -1488h-43l-66 460h-778z" />
<glyph unicode="&#xc6;" horiz-adv-x="1911" d="M344 484h649l237 983zM-150 0l1375 1527h882l-8 -43h-821l-166 -684h671l-9 -43h-670l-173 -714h830l-11 -43h-872l105 441h-677l-398 -441h-58z" />
<glyph unicode="&#xc7;" horiz-adv-x="1414" d="M776 -426q-38 -76 -123 -92t-185 30l-70 32l19 41l71 -34q180 -80 247 41q17 30 17.5 61t-16.5 61.5t-57.5 59t-102.5 52.5l-38 16l62 143q-86 10 -159 40.5t-134.5 85.5t-96 135t-42.5 187t25 242l39 158q37 153 97 275t131 203t156.5 135t171 77.5t176.5 23.5 q105 0 192 -32t149.5 -92t92 -153t17.5 -207h-43q11 105 -14 188.5t-80.5 138t-137.5 83.5t-186 29q-81 0 -159 -22t-157.5 -73t-146.5 -127t-124 -192.5t-92 -262.5l-37 -150q-28 -116 -28.5 -213t24 -167.5t68 -123t104.5 -84.5t131 -47.5t151 -15.5q184 0 334 123 t215 324h45q-36 -107 -92.5 -195t-131.5 -154.5t-173.5 -103.5t-211.5 -37h-28l-52 -116q73 -26 120.5 -63t64.5 -77t16.5 -78.5t-18.5 -72.5z" />
<glyph unicode="&#xc8;" horiz-adv-x="1244" d="M892 1712l-81 262l41 10l86 -272h-46zM86 0l366 1527h948l-9 -43h-905l-166 -690h697l-11 -43h-696l-170 -708h923l-12 -43h-965z" />
<glyph unicode="&#xc9;" horiz-adv-x="1244" d="M757 1707l269 269l30 -35l-241 -234h-58zM86 0l366 1527h948l-9 -43h-905l-166 -690h697l-11 -43h-696l-170 -708h923l-12 -43h-965z" />
<glyph unicode="&#xca;" horiz-adv-x="1244" d="M722 1709l-25 35l267 220h36l163 -228l-34 -27l-150 211zM86 0l366 1527h948l-9 -43h-905l-166 -690h697l-11 -43h-696l-170 -708h923l-12 -43h-965z" />
<glyph unicode="&#xcb;" horiz-adv-x="1244" d="M1133 1789q-15 0 -31 14t-16 31.5t16 31.5t31 14q10 0 20.5 -6.5t18.5 -17t8 -22.5q0 -17 -16 -31t-31 -14zM695.5 1789q-9.5 0 -21 6t-19.5 17t-8 22q0 17 16.5 31.5t31.5 14.5t31 -14t16 -32q0 -11 -7.5 -22t-18.5 -17t-20.5 -6zM86 0l366 1527h948l-9 -43h-905 l-166 -690h697l-11 -43h-696l-170 -708h923l-12 -43h-965z" />
<glyph unicode="&#xcc;" horiz-adv-x="433" d="M471 1639l-65 195l35 13l76 -208h-46zM86 0l366 1527h43l-366 -1527h-43z" />
<glyph unicode="&#xcd;" horiz-adv-x="433" d="M466 1639l141 202l36 -29l-124 -173h-53zM86 0l366 1527h43l-366 -1527h-43z" />
<glyph unicode="&#xce;" horiz-adv-x="433" d="M359 1602l-26 35l188 150h35l113 -153l-35 -25l-98 135zM86 0l366 1527h43l-366 -1527h-43z" />
<glyph unicode="&#xcf;" horiz-adv-x="433" d="M441 1734q-15 0 -30 13.5t-15 31t15 31.5t30 14t30 -14t15 -31.5t-15 -31t-30 -13.5zM634 1731q-15 0 -30 14t-15 31.5t15 31.5t30 14t30 -14t15 -31.5t-15 -31.5t-30 -14zM86 2l366 1527h43l-366 -1527h-43z" />
<glyph unicode="&#xd0;" horiz-adv-x="1474" d="M688 0h-477l179 749h-271l8 43h273l176 735h478q157 0 262.5 -82t141 -234t-14.5 -370l-39 -160q-40 -169 -110.5 -299.5t-163.5 -213.5t-204.5 -125.5t-237.5 -42.5zM265 43h434q237 0 410.5 164.5t251.5 473.5l39 160q50 213 17 356t-129 215t-243 72h-434l-166 -692 h423l-8 -43h-425z" />
<glyph unicode="&#xd1;" horiz-adv-x="1461" d="M1190 1703q-31 -2 -57.5 6.5t-43 22t-35 30t-34.5 30t-40 22t-53 6.5q-122 -8 -178 -136q-1 -1 -11 3t-19 8l-9 4q13 31 30 56t43 49t64.5 39t85.5 18q37 2 67 -9.5t50 -29.5l40 -36t46.5 -30t59.5 -10q59 5 103 43.5t64 90.5l43 -7q-28 -75 -85 -120t-131 -50zM86 0 l366 1527h53l626 -1476l353 1476h43l-366 -1527h-57l-620 1469l-355 -1469h-43z" />
<glyph unicode="&#xd2;" horiz-adv-x="1403" d="M1043 1746l-82 263l41 10l86 -273h-45zM630 -13q-88 0 -165.5 25t-144 78t-105 134.5t-47.5 195.5t27 261l39 164q84 347 256.5 521.5t432.5 174.5q116 0 211.5 -42.5t162.5 -129.5t84.5 -217.5t-22.5 -306.5l-39 -164q-87 -359 -254 -524.5t-436 -169.5zM638 30 q493 7 644 660l36 149q37 168 22.5 292.5t-76 206t-151 121t-202.5 39.5q-234 0 -395 -165t-239 -494l-37 -149q-35 -143 -29.5 -252.5t38.5 -187.5t93 -127t134 -71.5t162 -21.5z" />
<glyph unicode="&#xd3;" horiz-adv-x="1403" d="M921 1734l269 268l29 -34l-240 -234h-58zM630 -13q-88 0 -165.5 25t-144 78t-105 134.5t-47.5 195.5t27 261l39 164q84 347 256.5 521.5t432.5 174.5q116 0 211.5 -42.5t162.5 -129.5t84.5 -217.5t-22.5 -306.5l-39 -164q-87 -359 -254 -524.5t-436 -169.5zM638 30 q493 7 644 660l36 149q37 168 22.5 292.5t-76 206t-151 121t-202.5 39.5q-234 0 -395 -165t-239 -494l-37 -149q-35 -143 -29.5 -252.5t38.5 -187.5t93 -127t134 -71.5t162 -21.5z" />
<glyph unicode="&#xd4;" horiz-adv-x="1403" d="M813 1716l-25 34l266 220h36l164 -228l-35 -26l-150 211zM630 -13q-88 0 -165.5 25t-144 78t-105 134.5t-47.5 195.5t27 261l39 164q84 347 256.5 521.5t432.5 174.5q116 0 211.5 -42.5t162.5 -129.5t84.5 -217.5t-22.5 -306.5l-39 -164q-87 -359 -254 -524.5 t-436 -169.5zM638 30q493 7 644 660l36 149q37 168 22.5 292.5t-76 206t-151 121t-202.5 39.5q-234 0 -395 -165t-239 -494l-37 -149q-35 -143 -29.5 -252.5t38.5 -187.5t93 -127t134 -71.5t162 -21.5z" />
<glyph unicode="&#xd5;" horiz-adv-x="1403" d="M1161 1716q-31 -2 -57 6t-43 22t-35 30t-34 30t-40.5 22t-52.5 6q-122 -8 -179 -135q-1 -1 -10.5 2.5t-18.5 7.5l-10 5q14 31 31 56t43 49t64 38.5t86 17.5q37 3 66.5 -8.5t50 -29.5t40 -36t46.5 -30t60 -10q59 4 103.5 43t64.5 90l43 -6q-19 -50 -50.5 -87t-74.5 -58.5 t-93 -24.5zM630 -13q-88 0 -165.5 25t-144 78t-105 134.5t-47.5 195.5t27 261l39 164q84 347 256.5 521.5t432.5 174.5q116 0 211.5 -42.5t162.5 -129.5t84.5 -217.5t-22.5 -306.5l-39 -164q-87 -359 -254 -524.5t-436 -169.5zM638 30q493 7 644 660l36 149 q37 168 22.5 292.5t-76 206t-151 121t-202.5 39.5q-234 0 -395 -165t-239 -494l-37 -149q-35 -143 -29.5 -252.5t38.5 -187.5t93 -127t134 -71.5t162 -21.5z" />
<glyph unicode="&#xd6;" horiz-adv-x="1403" d="M1182.5 1752q-15.5 0 -31.5 14t-16 31.5t16 31.5t31.5 14t31.5 -14t16 -31.5t-16 -31.5t-31.5 -14zM744 1752q-15 0 -31 14t-16 31.5t16 31.5t31.5 14t31.5 -14t16 -31q0 -12 -8 -22.5t-19 -17t-21 -6.5zM630 -13q-88 0 -165.5 25t-144 78t-105 134.5t-47.5 195.5t27 261 l39 164q84 347 256.5 521.5t432.5 174.5q116 0 211.5 -42.5t162.5 -129.5t84.5 -217.5t-22.5 -306.5l-39 -164q-87 -359 -254 -524.5t-436 -169.5zM638 30q493 7 644 660l36 149q37 168 22.5 292.5t-76 206t-151 121t-202.5 39.5q-234 0 -395 -165t-239 -494l-37 -149 q-35 -143 -29.5 -252.5t38.5 -187.5t93 -127t134 -71.5t162 -21.5z" />
<glyph unicode="&#xd7;" horiz-adv-x="1438" d="M193 269l564 445l-346 452l36 24l343 -450l556 450l26 -35l-559 -449l338 -444l-33 -30l-338 447l-561 -445z" />
<glyph unicode="&#xd8;" horiz-adv-x="1403" d="M240 690q-86 -359 70 -536l894 1248q-117 96 -293 96q-234 0 -395 -165t-239 -494zM1318 839q30 123 27 225.5t-30 177.5t-78 130l-895 -1247q115 -98 296 -95q493 7 644 660zM630 -13q-189 0 -312 105l-96 -135l-39 22l103 144q-55 56 -85 133.5t-34.5 185.5t28.5 239 l39 164q84 347 256.5 521.5t432.5 174.5q185 0 307 -103l79 111l37 -27l-82 -114q56 -59 86.5 -138.5t36 -187.5t-27.5 -237l-39 -164q-87 -359 -254 -524.5t-436 -169.5z" />
<glyph unicode="&#xd9;" horiz-adv-x="1281" d="M976 1652l-81 262l41 11l86 -273h-46zM523 -26q-229 0 -322.5 168.5t-19.5 472.5l217 912h43l-219 -916q-69 -282 12 -438t299 -156q229 0 382 154.5t222 439.5l220 916h43l-218 -912q-37 -157 -93.5 -274t-136.5 -200t-187 -125t-242 -42z" />
<glyph unicode="&#xda;" horiz-adv-x="1281" d="M819 1662l269 269l30 -35l-240 -234h-59zM523 -26q-229 0 -322.5 168.5t-19.5 472.5l217 912h43l-219 -916q-69 -282 12 -438t299 -156q229 0 382 154.5t222 439.5l220 916h43l-218 -912q-37 -157 -93.5 -274t-136.5 -200t-187 -125t-242 -42z" />
<glyph unicode="&#xdb;" horiz-adv-x="1281" d="M716 1639l-26 34l267 219h36l164 -228l-35 -25l-150 210zM523 -26q-229 0 -322.5 168.5t-19.5 472.5l217 912h43l-219 -916q-69 -282 12 -438t299 -156q229 0 382 154.5t222 439.5l220 916h43l-218 -912q-37 -157 -93.5 -274t-136.5 -200t-187 -125t-242 -42z" />
<glyph unicode="&#xdc;" horiz-adv-x="1281" d="M1153 1705q-15 0 -31 14t-16 31.5t16 31.5t31 14q9 0 20 -6.5t19 -17t8 -22.5q0 -17 -16 -31t-31 -14zM714 1705q-15 0 -31 14t-16 31q0 12 8 22.5t18.5 17t20.5 6.5q15 0 31 -14t16 -32q0 -11 -8 -22t-18.5 -17t-20.5 -6zM523 -26q-229 0 -322.5 168.5t-19.5 472.5 l217 912h43l-219 -916q-69 -282 12 -438t299 -156q229 0 382 154.5t222 439.5l220 916h43l-218 -912q-37 -157 -93.5 -274t-136.5 -200t-187 -125t-242 -42z" />
<glyph unicode="&#xdd;" horiz-adv-x="1237" d="M792 1637l268 269l30 -35l-241 -234h-57zM495 0l148 615l-310 912h52l292 -862l695 862h50l-736 -912l-148 -615h-43z" />
<glyph unicode="&#xde;" horiz-adv-x="1250" d="M449 1514h39l-86 -359h443q78 0 144 -22.5t111.5 -62.5t75 -94.5t34.5 -118.5t-10 -135q-44 -183 -189.5 -294.5t-354.5 -111.5h-456l-75 -314h-39zM392 1112l-181 -753h454q183 0 319 101.5t173 259.5q27 112 -2.5 200.5t-113 140t-206.5 51.5h-443z" />
<glyph unicode="&#xdf;" horiz-adv-x="1104" d="M86 0l254 1058q25 103 86.5 186.5t152 133.5t191.5 50q64 0 121.5 -27.5t96.5 -77t54.5 -116.5t-4.5 -147q-17 -77 -50 -138t-73.5 -99t-84 -58.5t-88.5 -24.5q61 0 114 -24t91 -71t50.5 -116t-8.5 -159q-20 -86 -59.5 -153.5t-101 -118.5t-152 -78.5t-205.5 -27.5h-71 l11 43h71q193 0 310 90t154 245q41 165 -37.5 255.5t-270.5 90.5q-17 0 -23 1t-9.5 5.5t-1.5 14.5q1 4 2.5 6.5t2.5 5t3.5 4t4 2.5t5 2t5 1.5t6 0.5h5.5h7h7q82 0 151.5 34.5t119.5 103t72 163.5q18 71 7 130.5t-42.5 102.5t-83.5 67.5t-115 24.5q-77 0 -155.5 -42 t-139.5 -117.5t-83 -165.5l-254 -1060h-43z" />
<glyph unicode="&#xe0;" d="M782 1311l-81 263l41 10l85 -273h-45zM445 19q78 0 151 29t138.5 87t118.5 155.5t85 226.5l6 29q28 124 19 215.5t-50 151.5t-98 89.5t-125 29.5q-56 0 -114.5 -18.5t-116.5 -57.5t-108 -94t-90.5 -134t-63.5 -172l-12 -53q-28 -128 -19.5 -220t50.5 -150.5t100 -86 t129 -27.5zM437 -24q-77 0 -142 30.5t-113 95t-59 164t19 237.5l12 53q25 102 66.5 186.5t93.5 145.5t115 103.5t131.5 63t140.5 20.5q70 0 128.5 -28.5t95 -73.5t56 -98.5t17.5 -104.5l67 275h43l-252 -1045h-43l69 284q-15 -56 -51 -109t-90 -98.5t-133.5 -73 t-170.5 -27.5z" />
<glyph unicode="&#xe1;" d="M654 1307l269 269l29 -35l-240 -234h-58zM445 19q78 0 151 29t138.5 87t118.5 155.5t85 226.5l6 29q28 124 19 215.5t-50 151.5t-98 89.5t-125 29.5q-56 0 -114.5 -18.5t-116.5 -57.5t-108 -94t-90.5 -134t-63.5 -172l-12 -53q-28 -128 -19.5 -220t50.5 -150.5t100 -86 t129 -27.5zM437 -24q-77 0 -142 30.5t-113 95t-59 164t19 237.5l12 53q25 102 66.5 186.5t93.5 145.5t115 103.5t131.5 63t140.5 20.5q70 0 128.5 -28.5t95 -73.5t56 -98.5t17.5 -104.5l67 275h43l-252 -1045h-43l69 284q-15 -56 -51 -109t-90 -98.5t-133.5 -73 t-170.5 -27.5z" />
<glyph unicode="&#xe2;" d="M579 1331l-27 34l267 219h37l164 -227l-35 -26l-150 210zM445 19q78 0 151 29t138.5 87t118.5 155.5t85 226.5l6 29q28 124 19 215.5t-50 151.5t-98 89.5t-125 29.5q-56 0 -114.5 -18.5t-116.5 -57.5t-108 -94t-90.5 -134t-63.5 -172l-12 -53q-28 -128 -19.5 -220 t50.5 -150.5t100 -86t129 -27.5zM437 -24q-77 0 -142 30.5t-113 95t-59 164t19 237.5l12 53q25 102 66.5 186.5t93.5 145.5t115 103.5t131.5 63t140.5 20.5q70 0 128.5 -28.5t95 -73.5t56 -98.5t17.5 -104.5l67 275h43l-252 -1045h-43l69 284q-15 -56 -51 -109t-90 -98.5 t-133.5 -73t-170.5 -27.5z" />
<glyph unicode="&#xe3;" d="M927 1374q-37 -2 -66 10t-49 30t-39.5 36.5t-47 30t-60.5 9.5q-122 -8 -179 -136q-1 0 -10.5 3.5t-18.5 8.5l-10 4q11 25 23 45.5t31.5 41.5t42.5 36t55.5 25t71.5 13q37 2 66.5 -9.5t50 -29t40 -35.5t46.5 -29.5t59 -9.5q40 2 75.5 23t58 49t34.5 61l43 -7 q-18 -50 -49.5 -87t-74.5 -58t-93 -25zM445 19q78 0 151 29t138.5 87t118.5 155.5t85 226.5l6 29q28 124 19 215.5t-50 151.5t-98 89.5t-125 29.5q-56 0 -114.5 -18.5t-116.5 -57.5t-108 -94t-90.5 -134t-63.5 -172l-12 -53q-28 -128 -19.5 -220t50.5 -150.5t100 -86 t129 -27.5zM437 -24q-77 0 -142 30.5t-113 95t-59 164t19 237.5l12 53q25 102 66.5 186.5t93.5 145.5t115 103.5t131.5 63t140.5 20.5q70 0 128.5 -28.5t95 -73.5t56 -98.5t17.5 -104.5l67 275h43l-252 -1045h-43l69 284q-15 -56 -51 -109t-90 -98.5t-133.5 -73 t-170.5 -27.5z" />
<glyph unicode="&#xe4;" d="M1004 1415q-15 0 -31 14t-16 31.5t16 31.5t31 14t31 -14t16 -31.5t-16 -31.5t-31 -14zM566 1415q-15 0 -31 14t-16 31.5t16 31.5t31 14q7 0 15.5 -4t15.5 -10t11.5 -14.5t4.5 -16.5q0 -12 -8 -22.5t-18.5 -17t-20.5 -6.5zM445 19q78 0 151 29t138.5 87t118.5 155.5 t85 226.5l6 29q28 124 19 215.5t-50 151.5t-98 89.5t-125 29.5q-56 0 -114.5 -18.5t-116.5 -57.5t-108 -94t-90.5 -134t-63.5 -172l-12 -53q-28 -128 -19.5 -220t50.5 -150.5t100 -86t129 -27.5zM437 -24q-77 0 -142 30.5t-113 95t-59 164t19 237.5l12 53q25 102 66.5 186.5 t93.5 145.5t115 103.5t131.5 63t140.5 20.5q70 0 128.5 -28.5t95 -73.5t56 -98.5t17.5 -104.5l67 275h43l-252 -1045h-43l69 284q-15 -56 -51 -109t-90 -98.5t-133.5 -73t-170.5 -27.5z" />
<glyph unicode="&#xe5;" d="M778 1256q-45 0 -83 21.5t-60 59t-22 83.5q0 45 23 84t61 62t81 23q44 0 82 -23t60 -62.5t22 -85.5q0 -45 -21 -82t-59 -58.5t-84 -21.5zM778 1299q54 0 87.5 34.5t33.5 84.5q0 52 -35 90.5t-86 38.5q-49 0 -85.5 -38.5t-36.5 -90.5q0 -48 35 -83.5t87 -35.5zM445 19 q78 0 151 29t138.5 87t118.5 155.5t85 226.5l6 29q28 124 19 215.5t-50 151.5t-98 89.5t-125 29.5q-56 0 -114.5 -18.5t-116.5 -57.5t-108 -94t-90.5 -134t-63.5 -172l-12 -53q-28 -128 -19.5 -220t50.5 -150.5t100 -86t129 -27.5zM437 -24q-77 0 -142 30.5t-113 95t-59 164 t19 237.5l12 53q25 102 66.5 186.5t93.5 145.5t115 103.5t131.5 63t140.5 20.5q70 0 128.5 -28.5t95 -73.5t56 -98.5t17.5 -104.5l67 275h43l-252 -1045h-43l69 284q-15 -56 -51 -109t-90 -98.5t-133.5 -73t-170.5 -27.5z" />
<glyph unicode="&#xe6;" horiz-adv-x="1664" d="M835 511l546 84q40 3 85 20t86 53.5t52 82.5q8 32 7.5 62t-8 57t-21.5 50.5t-33 43t-43 34.5t-51.5 25.5t-58 16t-62.5 5.5q-79 0 -153.5 -31.5t-141.5 -94t-120.5 -167t-83.5 -241.5zM1116 -30q-101 0 -179 48.5t-120 131.5t-45 188q-55 -167 -192.5 -261t-319.5 -94 q-99 0 -170.5 39t-100 103.5t-10.5 139.5l4 21q32 132 159 211t305 79q215 0 329 -63l49 203q36 150 -28 236t-221 86q-71 0 -130 -10.5t-103 -31t-67 -35t-52 -36.5l-21 36q8 4 31.5 22.5t48.5 32.5t65.5 30.5t101.5 26t137 9.5q149 0 229.5 -86t61.5 -228q53 105 127 177 t158 106.5t179 34.5q74 0 137.5 -27t105.5 -72t59.5 -108t2.5 -132q-12 -57 -58.5 -102t-101.5 -67.5t-108 -27.5l-552 -82q-25 -122 1.5 -226t104 -166.5t189.5 -62.5q273 0 409 200l35 -24q-29 -36 -56 -63.5t-68.5 -58.5t-86 -51t-106.5 -33t-133 -13zM271 26 q82 0 161.5 28t144.5 76.5t111.5 120t62.5 153.5l14 67q-37 28 -132 47.5t-196 14.5q-167 -6 -275.5 -71t-137.5 -185q-26 -112 38.5 -181.5t208.5 -69.5z" />
<glyph unicode="&#xe7;" horiz-adv-x="1069" d="M556 -435q-38 -76 -122.5 -92t-183.5 30l-72 33l19 41l72 -35q181 -80 248 41q13 24 16.5 48.5t-5.5 50t-29.5 49t-56.5 46t-85 40.5l-39 17l60 136q-68 13 -122.5 50t-92.5 101t-44.5 154t19.5 209l22 90q17 73 43.5 137t59 115.5t72 93.5t84 73t93.5 51.5t101 31 t107 10.5q53 0 99 -14t79.5 -39t59 -59t38 -74t16 -84.5t-7.5 -91.5h-45q9 48 8.5 94t-19 86.5t-48.5 71.5t-79 49t-111 18q-82 0 -159.5 -29.5t-145.5 -86t-121.5 -147.5t-80.5 -206l-22 -90q-28 -126 -19 -216t52.5 -148.5t105 -86t138.5 -27.5q126 0 230 58t161 141 l41 -18q-160 -224 -443 -224h-26l-47 -107q58 -20 100.5 -49t64.5 -59t31 -63t5 -62.5t-19 -57.5z" />
<glyph unicode="&#xe8;" horiz-adv-x="1077" d="M742 1325l-82 262l41 11l87 -273h-46zM468 -30q-73 0 -135.5 26t-105 72.5t-70 110t-32 137.5t9.5 155l9 40q30 143 85 253.5t127.5 180t158 105.5t180.5 36q74 0 137.5 -27t105.5 -72t59.5 -108t2.5 -132q-10 -44 -39 -80.5t-68 -60.5t-81 -38.5t-81 -17.5l-550 -82 q-26 -122 0.5 -226t104 -166.5t190.5 -62.5q272 0 408 200l34 -24q-24 -30 -46 -53.5t-53 -50t-66 -46t-77.5 -36t-95 -25t-112.5 -8.5zM187 511l546 84q40 3 85 20t86 53.5t53 82.5q14 63 -1.5 119t-54 93.5t-95 59.5t-120.5 22q-79 0 -153 -31.5t-141.5 -94t-121 -167 t-83.5 -241.5z" />
<glyph unicode="&#xe9;" horiz-adv-x="1077" d="M645 1325l269 269l30 -35l-240 -234h-59zM468 -30q-73 0 -135.5 26t-105 72.5t-70 110t-32 137.5t9.5 155l9 40q30 143 85 253.5t127.5 180t158 105.5t180.5 36q74 0 137.5 -27t105.5 -72t59.5 -108t2.5 -132q-10 -44 -39 -80.5t-68 -60.5t-81 -38.5t-81 -17.5l-550 -82 q-26 -122 0.5 -226t104 -166.5t190.5 -62.5q272 0 408 200l34 -24q-24 -30 -46 -53.5t-53 -50t-66 -46t-77.5 -36t-95 -25t-112.5 -8.5zM187 511l546 84q40 3 85 20t86 53.5t53 82.5q14 63 -1.5 119t-54 93.5t-95 59.5t-120.5 22q-79 0 -153 -31.5t-141.5 -94t-121 -167 t-83.5 -241.5z" />
<glyph unicode="&#xea;" horiz-adv-x="1077" d="M529 1303l-26 35l267 219h36l164 -228l-34 -26l-151 211zM468 -30q-73 0 -135.5 26t-105 72.5t-70 110t-32 137.5t9.5 155l9 40q30 143 85 253.5t127.5 180t158 105.5t180.5 36q74 0 137.5 -27t105.5 -72t59.5 -108t2.5 -132q-10 -44 -39 -80.5t-68 -60.5t-81 -38.5 t-81 -17.5l-550 -82q-26 -122 0.5 -226t104 -166.5t190.5 -62.5q272 0 408 200l34 -24q-24 -30 -46 -53.5t-53 -50t-66 -46t-77.5 -36t-95 -25t-112.5 -8.5zM187 511l546 84q40 3 85 20t86 53.5t53 82.5q14 63 -1.5 119t-54 93.5t-95 59.5t-120.5 22q-79 0 -153 -31.5 t-141.5 -94t-121 -167t-83.5 -241.5z" />
<glyph unicode="&#xeb;" horiz-adv-x="1077" d="M983 1389q-15 0 -31 14t-16 31t16 31t31 14t31 -14t16 -31q0 -11 -8 -22t-19 -17t-20 -6zM544 1389q-15 0 -31 14t-16 31t16 31t31 14q7 0 15.5 -3.5t15.5 -9.5t11.5 -14.5t4.5 -17.5q0 -11 -8 -22t-19 -17t-20 -6zM468 -30q-73 0 -135.5 26t-105 72.5t-70 110t-32 137.5 t9.5 155l9 40q30 143 85 253.5t127.5 180t158 105.5t180.5 36q74 0 137.5 -27t105.5 -72t59.5 -108t2.5 -132q-10 -44 -39 -80.5t-68 -60.5t-81 -38.5t-81 -17.5l-550 -82q-26 -122 0.5 -226t104 -166.5t190.5 -62.5q272 0 408 200l34 -24q-24 -30 -46 -53.5t-53 -50 t-66 -46t-77.5 -36t-95 -25t-112.5 -8.5zM187 511l546 84q40 3 85 20t86 53.5t53 82.5q14 63 -1.5 119t-54 93.5t-95 59.5t-120.5 22q-79 0 -153 -31.5t-141.5 -94t-121 -167t-83.5 -241.5z" />
<glyph unicode="&#xec;" horiz-adv-x="429" d="M394 1342l-115 242l37 18l123 -260h-45zM86 0l254 1058h43l-254 -1058h-43z" />
<glyph unicode="&#xed;" horiz-adv-x="429" d="M370 1295l256 258l30 -31l-235 -227h-51zM86 0l254 1058h43l-254 -1058h-43z" />
<glyph unicode="&#xee;" horiz-adv-x="429" d="M297 1348l-26 35l187 150h37l112 -152l-35 -27l-98 136zM86 0l254 1058h43l-254 -1058h-43z" />
<glyph unicode="&#xef;" horiz-adv-x="429" d="M363 1428q-9 0 -20 6t-19 17t-8 22q0 17 16 31t31.5 14t31.5 -14t16 -31t-16 -31t-32 -14zM556.5 1426q-15.5 0 -31.5 14t-16 31t16 31t31.5 14t31.5 -14t16 -31t-16 -31t-31.5 -14zM86 0l254 1058h43l-254 -1058h-43z" />
<glyph unicode="&#xf0;" horiz-adv-x="1100" d="M423 -21q-71 0 -134 31t-109.5 91.5t-60.5 150.5t12 208l35 140q52 219 194.5 353.5t329.5 134.5q52 0 100.5 -16.5t85.5 -44t65.5 -63t44.5 -76t18 -80.5q45 285 -9 493l-359 -54l-6 43l355 52q-35 115 -93 209l37 23q67 -112 99 -226l207 31l4 -41l-201 -31 q68 -281 -38 -722l-24 -97q-120 -509 -553 -509zM433 19q66 0 126.5 14.5t118.5 48.5t105.5 85.5t86 129.5t61.5 177l28 115q24 95 13 178.5t-46.5 145t-99 97t-145.5 35.5q-83 0 -160 -34.5t-138.5 -95t-107 -144.5t-68.5 -182l-29 -115q-36 -151 -8.5 -252t96 -152 t167.5 -51z" />
<glyph unicode="&#xf1;" horiz-adv-x="1139" d="M897 1385q-37 -2 -66.5 9.5t-49.5 30t-39.5 37t-46.5 30.5t-61 10q-121 -8 -178 -137q-1 -1 -11 3t-19 8l-9 5q13 31 30 56t43 48.5t64.5 38t85.5 17.5q37 3 67 -8.5t50 -29.5t40 -35.5t46.5 -29.5t59.5 -10q40 3 75 23.5t57.5 49t35.5 60.5l43 -6q-28 -75 -85 -120 t-132 -50zM90 0l254 1058h43l-58 -239q53 108 168.5 185.5t253.5 77.5q98 0 165.5 -33t100 -93t37 -145.5t-23.5 -190.5l-148 -620h-43l148 617q24 96 22.5 174t-27.5 133t-86 84.5t-152 29.5q-55 0 -112.5 -17.5t-112 -53t-101 -85.5t-82.5 -118t-55 -147l-148 -617h-43z " />
<glyph unicode="&#xf2;" horiz-adv-x="1083" d="M731 1270l-82 263l41 11l86 -274h-45zM449 -17q-76 0 -146 31.5t-124 94t-72 155.5t10 216l21 92q57 240 198 375t341 135q86 0 158.5 -35.5t120 -101t63 -160t-12.5 -213.5l-21 -92q-58 -240 -198.5 -368.5t-337.5 -128.5zM460 26q63 0 123 17.5t115 54t101 89.5 t82.5 127.5t58.5 165.5l21 90q34 149 5.5 253t-107 159.5t-192.5 55.5q-175 0 -305 -124.5t-184 -343.5l-20 -90q-26 -115 -11.5 -200t61.5 -141.5t112 -84.5t140 -28z" />
<glyph unicode="&#xf3;" horiz-adv-x="1083" d="M620 1275l268 269l30 -34l-241 -235h-57zM449 -17q-76 0 -146 31.5t-124 94t-72 155.5t10 216l21 92q57 240 198 375t341 135q86 0 158.5 -35.5t120 -101t63 -160t-12.5 -213.5l-21 -92q-58 -240 -198.5 -368.5t-337.5 -128.5zM460 26q63 0 123 17.5t115 54t101 89.5 t82.5 127.5t58.5 165.5l21 90q34 149 5.5 253t-107 159.5t-192.5 55.5q-175 0 -305 -124.5t-184 -343.5l-20 -90q-26 -115 -11.5 -200t61.5 -141.5t112 -84.5t140 -28z" />
<glyph unicode="&#xf4;" horiz-adv-x="1083" d="M519 1293l-27 34l267 220h37l163 -229l-34 -25l-151 211zM449 -17q-76 0 -146 31.5t-124 94t-72 155.5t10 216l21 92q57 240 198 375t341 135q86 0 158.5 -35.5t120 -101t63 -160t-12.5 -213.5l-21 -92q-58 -240 -198.5 -368.5t-337.5 -128.5zM460 26q63 0 123 17.5 t115 54t101 89.5t82.5 127.5t58.5 165.5l21 90q34 149 5.5 253t-107 159.5t-192.5 55.5q-175 0 -305 -124.5t-184 -343.5l-20 -90q-26 -115 -11.5 -200t61.5 -141.5t112 -84.5t140 -28z" />
<glyph unicode="&#xf5;" horiz-adv-x="1083" d="M866 1372q-36 -2 -65.5 10t-49.5 30t-39.5 36.5t-47 30t-60.5 9.5q-121 -8 -178 -136q-1 -1 -10.5 3t-18.5 9l-10 4q14 32 31 56.5t43 48.5t64 38.5t86 17.5q37 2 66.5 -9.5t49.5 -29t40 -35.5t46.5 -29.5t59.5 -10.5q58 5 103 43.5t65 90.5l43 -8q-28 -74 -85.5 -119 t-132.5 -50zM449 -17q-76 0 -146 31.5t-124 94t-72 155.5t10 216l21 92q57 240 198 375t341 135q86 0 158.5 -35.5t120 -101t63 -160t-12.5 -213.5l-21 -92q-58 -240 -198.5 -368.5t-337.5 -128.5zM460 26q63 0 123 17.5t115 54t101 89.5t82.5 127.5t58.5 165.5l21 90 q34 149 5.5 253t-107 159.5t-192.5 55.5q-175 0 -305 -124.5t-184 -343.5l-20 -90q-26 -115 -11.5 -200t61.5 -141.5t112 -84.5t140 -28z" />
<glyph unicode="&#xf6;" horiz-adv-x="1083" d="M968 1400q-15 0 -31 14t-16 31q0 8 4.5 16.5t11.5 15t15.5 10t15.5 3.5q15 0 31 -14t16 -31t-16 -31t-31 -14zM529 1400q-15 0 -31 14t-16 31t16 31t31 14t31 -14t16 -31q0 -12 -7.5 -22.5t-18.5 -16.5t-21 -6zM449 -17q-76 0 -146 31.5t-124 94t-72 155.5t10 216l21 92 q57 240 198 375t341 135q86 0 158.5 -35.5t120 -101t63 -160t-12.5 -213.5l-21 -92q-58 -240 -198.5 -368.5t-337.5 -128.5zM460 26q63 0 123 17.5t115 54t101 89.5t82.5 127.5t58.5 165.5l21 90q34 149 5.5 253t-107 159.5t-192.5 55.5q-175 0 -305 -124.5t-184 -343.5 l-20 -90q-26 -115 -11.5 -200t61.5 -141.5t112 -84.5t140 -28z" />
<glyph unicode="&#xf7;" horiz-adv-x="1330" d="M819 1015q-15 0 -27 13t-12 35q0 11 3.5 20.5t9 15.5t12.5 9.5t14 3.5q15 0 27 -14t12 -35.5t-12 -34.5t-27 -13zM273 692l11 43h900l-10 -43h-901zM636 297q-7 0 -14 3t-12.5 9t-9 15t-3.5 20q0 15 6 26.5t15 17.5t18 6q15 0 27 -14t12 -35.5t-11.5 -34.5t-27.5 -13z " />
<glyph unicode="&#xf8;" horiz-adv-x="1089" d="M456 -17q-83 0 -160 38t-128 108l-131 -133l-31 30l140 142q-66 129 -23 312l21 92q57 240 198 375t342 135q76 0 142 -27.5t112 -80.5l107 110l30 -33l-109 -111q100 -147 47 -368l-22 -92q-38 -160 -115 -272t-183.5 -168.5t-236.5 -56.5zM164 480q-40 -165 12 -280 l731 744q-81 94 -234 94q-115 0 -213 -55.5t-169 -161.5t-106 -251zM466 26q80 0 153.5 28t137 83t113 142.5t76.5 200.5l22 90q51 210 -32 339l-739 -749q22 -33 52.5 -58.5t65 -42t73 -25t78.5 -8.5z" />
<glyph unicode="&#xf9;" horiz-adv-x="1079" d="M755 1266l-82 263l41 10l86 -273h-45zM390 -19q-170 0 -240.5 128.5t-16.5 352.5q9 38 24 100t46.5 193.5t52 218t19.5 84.5h43l-142 -596q-50 -207 5.5 -322.5t218.5 -115.5q155 0 278 121t169 317l142 596h43l-254 -1058h-43l65 265q-18 -41 -40 -76.5t-58 -75 t-78.5 -67.5t-103.5 -46.5t-130 -18.5z" />
<glyph unicode="&#xfa;" horiz-adv-x="1079" d="M636 1245l269 269l31 -35l-241 -234h-59zM390 -19q-170 0 -240.5 128.5t-16.5 352.5q9 38 24 100t46.5 193.5t52 218t19.5 84.5h43l-142 -596q-50 -207 5.5 -322.5t218.5 -115.5q155 0 278 121t169 317l142 596h43l-254 -1058h-43l65 265q-18 -41 -40 -76.5t-58 -75 t-78.5 -67.5t-103.5 -46.5t-130 -18.5z" />
<glyph unicode="&#xfb;" horiz-adv-x="1079" d="M521 1293l-26 34l266 220h37l163 -229l-34 -25l-151 211zM390 -19q-170 0 -240.5 128.5t-16.5 352.5q9 38 24 100t46.5 193.5t52 218t19.5 84.5h43l-142 -596q-50 -207 5.5 -322.5t218.5 -115.5q155 0 278 121t169 317l142 596h43l-254 -1058h-43l65 265 q-18 -41 -40 -76.5t-58 -75t-78.5 -67.5t-103.5 -46.5t-130 -18.5z" />
<glyph unicode="&#xfc;" horiz-adv-x="1079" d="M936 1379q-16 0 -32 14t-16 31t16 31t31.5 14t31.5 -14t16 -31q0 -12 -8 -22.5t-19 -16.5t-20 -6zM497 1379q-16 0 -32 14t-16 31q0 8 5 16.5t12 15t15.5 10t15.5 3.5t15 -3.5t15 -10t12 -15t5 -16.5q0 -12 -8 -22.5t-19 -16.5t-20 -6zM390 -19q-170 0 -240.5 128.5 t-16.5 352.5q9 38 24 100t46.5 193.5t52 218t19.5 84.5h43l-142 -596q-50 -207 5.5 -322.5t218.5 -115.5q155 0 278 121t169 317l142 596h43l-254 -1058h-43l65 265q-18 -41 -40 -76.5t-58 -75t-78.5 -67.5t-103.5 -46.5t-130 -18.5z" />
<glyph unicode="&#xfd;" horiz-adv-x="1046" d="M647 1254l269 268l30 -34l-240 -234h-59zM-66 -361l15 45q37 -13 76 -13t81.5 13.5t85.5 48t81 86.5l121 194l-172 1045h45l163 -994l637 994h51l-804 -1253q-49 -68 -100 -109.5t-100 -55.5t-91.5 -14t-88.5 13z" />
<glyph unicode="&#xfe;" horiz-adv-x="1156" d="M507 17q56 0 114.5 18.5t116 57t106.5 93t89 132t62 168.5l14 54q38 160 8.5 269t-100 165t-164.5 56q-56 0 -113 -17.5t-115 -56t-108 -95t-92 -141t-67 -187.5l-8 -30q-28 -124 -18.5 -215.5t51 -151.5t99 -89.5t125.5 -29.5zM-26 -468l506 2107h43l-213 -884 q21 48 51.5 92.5t73 86t91 72t109.5 49t126 18.5q75 0 139.5 -34.5t109.5 -102t57 -167t-18 -229.5l-13 -54q-29 -123 -85 -222t-128.5 -161.5t-155.5 -95.5t-170 -33q-70 0 -129 28.5t-96 73.5t-57.5 98.5t-19.5 104.5l-178 -747h-43z" />
<glyph unicode="&#xff;" horiz-adv-x="1046" d="M1015 1387q-7 0 -15 3.5t-15 10t-12 15t-5 16.5q0 12 8 22.5t19 16.5t20 6q16 0 32 -14t16 -31t-16 -31t-32 -14zM576.5 1387q-15.5 0 -31.5 14t-16 31t16 31t31.5 14t31.5 -14t16 -31t-16 -31t-31.5 -14zM-66 -361l15 45q37 -13 76 -13t81.5 13.5t85.5 48t81 86.5 l121 194l-172 1045h45l163 -994l637 994h51l-804 -1253q-49 -68 -100 -109.5t-100 -55.5t-91.5 -14t-88.5 13z" />
<glyph unicode="&#x100;" horiz-adv-x="1352" d="M656 1724l11 43h647l-11 -43h-647zM320 503h745l-140 976zM-43 0l946 1527h58l219 -1527h-43l-66 460h-778l-285 -460h-51z" />
<glyph unicode="&#x101;" d="M499 1482l10 43h648l-10 -43h-648zM445 19q78 0 151 29t138.5 87t118.5 155.5t85 226.5l6 29q28 124 19 215.5t-50 151.5t-98 89.5t-125 29.5q-56 0 -114.5 -18.5t-116.5 -57.5t-108 -94t-90.5 -134t-63.5 -172l-12 -53q-28 -128 -19.5 -220t50.5 -150.5t100 -86 t129 -27.5zM437 -24q-77 0 -142 30.5t-113 95t-59 164t19 237.5l12 53q25 102 66.5 186.5t93.5 145.5t115 103.5t131.5 63t140.5 20.5q70 0 128.5 -28.5t95 -73.5t56 -98.5t17.5 -104.5l67 275h43l-252 -1045h-43l69 284q-15 -56 -51 -109t-90 -98.5t-133.5 -73 t-170.5 -27.5z" />
<glyph unicode="&#x102;" horiz-adv-x="1352" d="M970 1662q-67 0 -125.5 23.5t-102.5 69.5t-71 110l39 17q74 -177 273 -177q92 0 174.5 44t171.5 139l30 -31q-95 -107 -189 -151t-200 -44zM320 503h745l-140 976zM-43 0l946 1527h58l219 -1527h-43l-66 460h-778l-285 -460h-51z" />
<glyph unicode="&#x103;" d="M785 1309q-102 0 -180.5 53t-118.5 150l39 17q75 -177 273 -177q92 0 174.5 44t171.5 139l30 -29q-95 -108 -189.5 -152.5t-199.5 -44.5zM445 19q78 0 151 29t138.5 87t118.5 155.5t85 226.5l6 29q28 124 19 215.5t-50 151.5t-98 89.5t-125 29.5q-56 0 -114.5 -18.5 t-116.5 -57.5t-108 -94t-90.5 -134t-63.5 -172l-12 -53q-28 -128 -19.5 -220t50.5 -150.5t100 -86t129 -27.5zM437 -24q-77 0 -142 30.5t-113 95t-59 164t19 237.5l12 53q25 102 66.5 186.5t93.5 145.5t115 103.5t131.5 63t140.5 20.5q70 0 128.5 -28.5t95 -73.5t56 -98.5 t17.5 -104.5l67 275h43l-252 -1045h-43l69 284q-15 -56 -51 -109t-90 -98.5t-133.5 -73t-170.5 -27.5z" />
<glyph unicode="&#x104;" horiz-adv-x="1352" d="M320 503h745l-140 976zM1075 -400l-10 -43h-177q-36 0 -60.5 21.5t-30.5 53t12 72.5t59 77q29 24 137 121t117 104q5 4 13 9l-64 445h-778l-285 -460h-51l946 1527h58l219 -1527h-2l-286 -256q-19 -16 -33 -35.5t-18.5 -38.5t-2 -35t17 -25.5t39.5 -9.5h180z" />
<glyph unicode="&#x105;" d="M445 19q78 0 151 29t138.5 87t118.5 155.5t85 226.5l6 29q28 124 19 215.5t-50 151.5t-98 89.5t-125 29.5q-56 0 -114.5 -18.5t-116.5 -57.5t-108 -94t-90.5 -134t-63.5 -172l-12 -53q-28 -128 -19.5 -220t50.5 -150.5t100 -86t129 -27.5zM755 -398l-11 -43h-176 q-36 0 -60.5 21.5t-30.5 53t11.5 72.5t59.5 77q23 19 82.5 72t111.5 100t60 53q13 9 15 9l65 267q-15 -56 -51 -109t-90 -98.5t-133.5 -73t-170.5 -27.5q-77 0 -142 30.5t-113 95t-59 164t19 237.5l12 53q25 102 66.5 186.5t93.5 145.5t115 103.5t131.5 63t140.5 20.5 q70 0 128.5 -28.5t95 -73.5t56 -98.5t17.5 -104.5l67 275h43l-250 -1041v-2l-2 -2l-284 -254q-24 -20 -39 -45t-16.5 -47t13 -37t44.5 -15h181z" />
<glyph unicode="&#x106;" horiz-adv-x="1414" d="M914 1714l268 268l31 -34l-241 -234h-58zM673 -19q-94 0 -177.5 25t-156 78t-115.5 135t-55 195.5t24 260.5l39 158q37 153 97 275t131 203t156.5 135t171 77.5t176.5 23.5q105 0 192 -32t149.5 -92t92 -153t17.5 -207h-43q11 105 -14 188.5t-80.5 138t-137.5 83.5 t-186 29q-81 0 -159 -22t-157.5 -73t-146.5 -127t-124 -192.5t-92 -262.5l-37 -150q-28 -116 -28.5 -213t24 -167.5t68 -123t104.5 -84.5t131 -47.5t151 -15.5q184 0 334 123t215 324h45q-36 -107 -92.5 -195t-131.5 -154.5t-173.5 -103.5t-211.5 -37z" />
<glyph unicode="&#x107;" horiz-adv-x="1069" d="M649 1288l269 269l30 -35l-240 -234h-59zM447 -37q-79 0 -146.5 31.5t-117 95.5t-62.5 162t17 232l22 90q17 73 43.5 137t59 115.5t72 93.5t84 73t93.5 51.5t101 31t107 10.5q53 0 99 -14t79.5 -39t59 -59t38 -74t16 -84.5t-7.5 -91.5h-45q9 48 8.5 94t-19 86.5 t-48.5 71.5t-79 49t-111 18q-82 0 -159.5 -29.5t-145.5 -86t-121.5 -147.5t-80.5 -206l-22 -90q-28 -126 -19 -216t52.5 -148.5t105 -86t138.5 -27.5q126 0 230 58t161 141l41 -18q-160 -224 -443 -224z" />
<glyph unicode="&#x10a;" horiz-adv-x="1414" d="M1044.5 1757q-15.5 0 -31 14t-15.5 31t15.5 31t31 14t31.5 -14t16 -31t-16 -31t-31.5 -14zM673 -19q-94 0 -177.5 25t-156 78t-115.5 135t-55 195.5t24 260.5l39 158q37 153 97 275t131 203t156.5 135t171 77.5t176.5 23.5q105 0 192 -32t149.5 -92t92 -153t17.5 -207 h-43q11 105 -14 188.5t-80.5 138t-137.5 83.5t-186 29q-81 0 -159 -22t-157.5 -73t-146.5 -127t-124 -192.5t-92 -262.5l-37 -150q-28 -116 -28.5 -213t24 -167.5t68 -123t104.5 -84.5t131 -47.5t151 -15.5q184 0 334 123t215 324h45q-36 -107 -92.5 -195t-131.5 -154.5 t-173.5 -103.5t-211.5 -37z" />
<glyph unicode="&#x10b;" horiz-adv-x="1069" d="M796 1379q-15 0 -31 14t-16 31t16 31t31 14q7 0 15.5 -3.5t15.5 -10t11.5 -15t4.5 -16.5q0 -12 -8 -22.5t-19 -16.5t-20 -6zM447 -37q-79 0 -146.5 31.5t-117 95.5t-62.5 162t17 232l22 90q17 73 43.5 137t59 115.5t72 93.5t84 73t93.5 51.5t101 31t107 10.5q53 0 99 -14 t79.5 -39t59 -59t38 -74t16 -84.5t-7.5 -91.5h-45q9 48 8.5 94t-19 86.5t-48.5 71.5t-79 49t-111 18q-82 0 -159.5 -29.5t-145.5 -86t-121.5 -147.5t-80.5 -206l-22 -90q-28 -126 -19 -216t52.5 -148.5t105 -86t138.5 -27.5q126 0 230 58t161 141l41 -18 q-160 -224 -443 -224z" />
<glyph unicode="&#x10c;" horiz-adv-x="1414" d="M991 1690l-164 228l35 26l151 -210l255 210l27 -34l-267 -220h-37zM673 -19q-94 0 -177.5 25t-156 78t-115.5 135t-55 195.5t24 260.5l39 158q37 153 97 275t131 203t156.5 135t171 77.5t176.5 23.5q105 0 192 -32t149.5 -92t92 -153t17.5 -207h-43q11 105 -14 188.5 t-80.5 138t-137.5 83.5t-186 29q-81 0 -159 -22t-157.5 -73t-146.5 -127t-124 -192.5t-92 -262.5l-37 -150q-28 -116 -28.5 -213t24 -167.5t68 -123t104.5 -84.5t131 -47.5t151 -15.5q184 0 334 123t215 324h45q-36 -107 -92.5 -195t-131.5 -154.5t-173.5 -103.5t-211.5 -37 z" />
<glyph unicode="&#x10d;" horiz-adv-x="1069" d="M737 1327l-163 228l35 25l150 -210l256 210l26 -33l-267 -220h-37zM447 -37q-79 0 -146.5 31.5t-117 95.5t-62.5 162t17 232l22 90q17 73 43.5 137t59 115.5t72 93.5t84 73t93.5 51.5t101 31t107 10.5q53 0 99 -14t79.5 -39t59 -59t38 -74t16 -84.5t-7.5 -91.5h-45 q9 48 8.5 94t-19 86.5t-48.5 71.5t-79 49t-111 18q-82 0 -159.5 -29.5t-145.5 -86t-121.5 -147.5t-80.5 -206l-22 -90q-28 -126 -19 -216t52.5 -148.5t105 -86t138.5 -27.5q126 0 230 58t161 141l41 -18q-160 -224 -443 -224z" />
<glyph unicode="&#x10e;" horiz-adv-x="1362" d="M876 1693l-164 227l35 26l150 -210l256 210l25 -34l-267 -219h-35zM92 0l366 1527h478q157 0 262.5 -82t141.5 -234t-15 -370l-39 -160q-23 -97 -56.5 -182t-74.5 -154t-91 -125t-106 -97t-118.5 -68.5t-130 -41t-139.5 -13.5h-478zM146 43h435q236 0 410 164.5 t252 473.5l39 160q50 213 17 356t-128.5 215t-243.5 72h-435z" />
<glyph unicode="&#x10f;" horiz-adv-x="1442" d="M1594 1535q24 0 15 -43l-20 -84l-81 -343h-43q94 403 101 427q9 43 28 43zM445 19q56 0 112.5 17.5t114 56.5t107.5 95.5t92 141t67 187.5l6 29q28 124 19.5 215.5t-49 151.5t-98 89.5t-126.5 29.5q-56 0 -115 -18.5t-117 -57.5t-108 -94t-91 -134t-64 -172l-12 -53 q-28 -128 -19.5 -220t51 -150.5t101 -86t129.5 -27.5zM437 -24q-57 0 -109.5 19.5t-99 60t-74 103t-33.5 148.5t21 196l12 53q25 102 66.5 186.5t93.5 145.5t115 103.5t131.5 63t140.5 20.5q70 0 129.5 -29.5t96 -75t55.5 -98.5t16 -102l180 757h43l-365 -1527h-39l69 286 q-25 -61 -65.5 -114.5t-96 -98.5t-130 -71t-157.5 -26z" />
<glyph unicode="&#x110;" horiz-adv-x="1474" d="M681 0h-476l178 749h-272l10 43h273l176 735h477q157 0 263 -82t141.5 -234t-15.5 -370l-38 -160q-41 -169 -111 -299.5t-163 -213.5t-204.5 -125.5t-238.5 -42.5zM258 43h434q237 0 411 164.5t251 473.5l39 160q51 213 17.5 356t-129 215t-243.5 72h-434l-165 -692h423 l-8 -43h-426z" />
<glyph unicode="&#x111;" horiz-adv-x="1186" d="M445 19q56 0 112.5 17.5t114 56.5t107.5 95.5t92 141t67 187.5l6 29q28 124 19.5 215.5t-49 151.5t-98 89.5t-126.5 29.5q-56 0 -115 -18.5t-117 -57.5t-108 -94t-91 -134t-64 -172l-12 -53q-28 -128 -19.5 -220t51 -150.5t101 -86t129.5 -27.5zM886 286 q-25 -61 -65.5 -114.5t-96 -98.5t-130 -71t-157.5 -26q-57 0 -109.5 19.5t-99 60t-74 103t-33.5 148.5t21 196l12 53q25 102 66.5 186.5t93.5 145.5t115 103.5t131.5 63t140.5 20.5q70 0 129.5 -29.5t96 -75t55.5 -98.5t16 -102l116 486h-346l10 45h347l53 226h43l-53 -226 h223l-10 -45h-224l-301 -1256h-39z" />
<glyph unicode="&#x112;" horiz-adv-x="1244" d="M632 1828l11 43h647l-10 -43h-648zM86 0l366 1527h948l-9 -43h-905l-166 -690h697l-11 -43h-696l-170 -708h923l-12 -43h-965z" />
<glyph unicode="&#x113;" horiz-adv-x="1077" d="M437 1455l10 43h647l-10 -43h-647zM468 -30q-73 0 -135.5 26t-105 72.5t-70 110t-32 137.5t9.5 155l9 40q30 143 85 253.5t127.5 180t158 105.5t180.5 36q74 0 137.5 -27t105.5 -72t59.5 -108t2.5 -132q-10 -44 -39 -80.5t-68 -60.5t-81 -38.5t-81 -17.5l-550 -82 q-26 -122 0.5 -226t104 -166.5t190.5 -62.5q272 0 408 200l34 -24q-24 -30 -46 -53.5t-53 -50t-66 -46t-77.5 -36t-95 -25t-112.5 -8.5zM187 511l546 84q40 3 85 20t86 53.5t53 82.5q14 63 -1.5 119t-54 93.5t-95 59.5t-120.5 22q-79 0 -153 -31.5t-141.5 -94t-121 -167 t-83.5 -241.5z" />
<glyph unicode="&#x114;" horiz-adv-x="1244" d="M918 1701q-102 0 -180 52.5t-118 149.5l38 17q75 -176 273 -176q92 0 175 43.5t172 139.5l29 -31q-95 -107 -189.5 -151t-199.5 -44zM86 0l366 1527h948l-9 -43h-905l-166 -690h697l-11 -43h-696l-170 -708h923l-12 -43h-965z" />
<glyph unicode="&#x115;" horiz-adv-x="1077" d="M731 1329q-102 0 -180 52.5t-118 149.5l38 18q75 -177 273 -177q92 0 174.5 44t171.5 139l30 -30q-95 -107 -189.5 -151.5t-199.5 -44.5zM468 -30q-73 0 -135.5 26t-105 72.5t-70 110t-32 137.5t9.5 155l9 40q30 143 85 253.5t127.5 180t158 105.5t180.5 36 q74 0 137.5 -27t105.5 -72t59.5 -108t2.5 -132q-10 -44 -39 -80.5t-68 -60.5t-81 -38.5t-81 -17.5l-550 -82q-26 -122 0.5 -226t104 -166.5t190.5 -62.5q272 0 408 200l34 -24q-24 -30 -46 -53.5t-53 -50t-66 -46t-77.5 -36t-95 -25t-112.5 -8.5zM187 511l546 84q40 3 85 20 t86 53.5t53 82.5q14 63 -1.5 119t-54 93.5t-95 59.5t-120.5 22q-79 0 -153 -31.5t-141.5 -94t-121 -167t-83.5 -241.5z" />
<glyph unicode="&#x116;" horiz-adv-x="1244" d="M948 1757q-15 0 -31 14t-16 31q0 11 8 22t19 17t20 6q15 0 31 -14t16 -31t-16 -31t-31 -14zM86 0l366 1527h948l-9 -43h-905l-166 -690h697l-11 -43h-696l-170 -708h923l-12 -43h-965z" />
<glyph unicode="&#x117;" horiz-adv-x="1077" d="M751 1379q-16 0 -31.5 14t-15.5 31t15.5 31t31 14t31.5 -14t16 -31q0 -12 -8 -22.5t-19 -16.5t-20 -6zM468 -30q-73 0 -135.5 26t-105 72.5t-70 110t-32 137.5t9.5 155l9 40q30 143 85 253.5t127.5 180t158 105.5t180.5 36q74 0 137.5 -27t105.5 -72t59.5 -108t2.5 -132 q-10 -44 -39 -80.5t-68 -60.5t-81 -38.5t-81 -17.5l-550 -82q-26 -122 0.5 -226t104 -166.5t190.5 -62.5q272 0 408 200l34 -24q-24 -30 -46 -53.5t-53 -50t-66 -46t-77.5 -36t-95 -25t-112.5 -8.5zM187 511l546 84q40 3 85 20t86 53.5t53 82.5q14 63 -1.5 119t-54 93.5 t-95 59.5t-120.5 22q-79 0 -153 -31.5t-141.5 -94t-121 -167t-83.5 -241.5z" />
<glyph unicode="&#x118;" horiz-adv-x="1244" d="M948 -400l-10 -43h-177q-36 0 -60 21.5t-30 53t12 72.5t59 77q22 18 73 63.5t106 95.5l66 60h-901l366 1527h948l-9 -43h-905l-166 -690h697l-11 -43h-696l-170 -708h923l-12 -43l-286 -256q-24 -20 -38.5 -45t-16.5 -47t12.5 -37t45.5 -15h180z" />
<glyph unicode="&#x119;" horiz-adv-x="1077" d="M554 -363q-36 -1 -60.5 19.5t-31 52t10.5 73.5t58 78q46 40 161 150q-93 -40 -224 -40q-73 0 -135.5 26t-105 72.5t-70 110t-32 137.5t9.5 155l9 40q30 143 85 253.5t127.5 180t158 105.5t180.5 36q74 0 137.5 -27t105.5 -72t59.5 -108t2.5 -132q-10 -44 -39 -80.5 t-68 -60.5t-81 -38.5t-81 -17.5l-550 -82q-26 -122 0.5 -226t104 -166.5t190.5 -62.5q272 0 408 200l34 -24q-50 -62 -85 -92l4 -11l-283 -262q-23 -21 -37 -46.5t-15 -47.5t14.5 -36.5t45.5 -13.5l180 4l-11 -45zM187 511l546 84q40 3 85 20t86 53.5t53 82.5 q14 63 -1.5 119t-54 93.5t-95 59.5t-120.5 22q-79 0 -153 -31.5t-141.5 -94t-121 -167t-83.5 -241.5z" />
<glyph unicode="&#x11a;" horiz-adv-x="1244" d="M886 1729l-164 228l35 25l150 -210l256 210l27 -34l-267 -219h-37zM86 0l366 1527h948l-9 -43h-905l-166 -690h697l-11 -43h-696l-170 -708h923l-12 -43h-965z" />
<glyph unicode="&#x11b;" horiz-adv-x="1077" d="M692 1301l-163 228l35 26l150 -211l256 211l25 -35l-266 -219h-37zM468 -30q-73 0 -135.5 26t-105 72.5t-70 110t-32 137.5t9.5 155l9 40q30 143 85 253.5t127.5 180t158 105.5t180.5 36q74 0 137.5 -27t105.5 -72t59.5 -108t2.5 -132q-10 -44 -39 -80.5t-68 -60.5 t-81 -38.5t-81 -17.5l-550 -82q-26 -122 0.5 -226t104 -166.5t190.5 -62.5q272 0 408 200l34 -24q-24 -30 -46 -53.5t-53 -50t-66 -46t-77.5 -36t-95 -25t-112.5 -8.5zM187 511l546 84q40 3 85 20t86 53.5t53 82.5q14 63 -1.5 119t-54 93.5t-95 59.5t-120.5 22 q-79 0 -153 -31.5t-141.5 -94t-121 -167t-83.5 -241.5z" />
<glyph unicode="&#x11e;" horiz-adv-x="1426" d="M1015 1707q-102 0 -180.5 53t-118.5 150l39 17q75 -177 273 -177q92 0 174.5 44t171.5 139l30 -30q-95 -107 -189 -151.5t-200 -44.5zM597 -24q-104 0 -193 44.5t-151.5 132.5t-79.5 220t22 306l39 164q86 357 273 530.5t484 173.5q78 0 148 -22.5t122.5 -63t90.5 -93.5 t55.5 -117t12.5 -131h-46q5 56 -8.5 110.5t-45 103t-78.5 86t-114.5 60t-146.5 22.5q-270 0 -447 -163t-259 -504l-35 -147q-38 -170 -25.5 -295.5t68.5 -208.5t139.5 -124t186.5 -41q151 0 263 42t196 133t142.5 223t105.5 323h-512l9 42h555l-9 -42q-33 -136 -69.5 -240.5 t-84 -192.5t-105 -148t-132 -102t-166 -61.5t-205.5 -19.5z" />
<glyph unicode="&#x11f;" horiz-adv-x="1158" d="M802 1307q-102 0 -180.5 53t-118.5 150l39 17q74 -177 273 -177q92 0 174.5 44t171.5 139l31 -29q-49 -56 -98.5 -94.5t-98 -60.5t-95.5 -32t-98 -10zM447 24q166 0 301.5 130.5t184.5 340.5l21 86q56 229 -16.5 347.5t-245.5 118.5q-178 0 -309.5 -132t-189.5 -371 l-8 -37q-58 -237 11.5 -360t250.5 -123zM333 -462q-70 0 -128 15.5t-98 42.5t-66.5 56t-44.5 62l37 19q13 -24 27.5 -42.5t40.5 -40t57.5 -36t80.5 -24t107 -9.5q62 0 118 15t112 50t102 88.5t85 136t64 187.5l57 226q-16 -41 -41.5 -80.5t-65.5 -80.5t-88 -72t-113 -50.5 t-137 -19.5q-123 0 -203.5 61.5t-106 178t14.5 286.5l8 37q63 266 204.5 406t349.5 140q51 0 94.5 -11t75.5 -31t57 -45t41 -55t25.5 -60t13.5 -61l56 231h43l-239 -996q-35 -143 -89.5 -246.5t-125 -163t-150.5 -87t-175 -27.5z" />
<glyph unicode="&#x120;" horiz-adv-x="1426" d="M1028 1818q-15 0 -31 14t-16 31t16 31t31 14t31 -14t16 -31t-16 -31t-31 -14zM597 -24q-104 0 -193 44.5t-151.5 132.5t-79.5 220t22 306l39 164q86 357 273 530.5t484 173.5q78 0 148 -22.5t122.5 -63t90.5 -93.5t55.5 -117t12.5 -131h-46q5 56 -8.5 110.5t-45 103 t-78.5 86t-114.5 60t-146.5 22.5q-270 0 -447 -163t-259 -504l-35 -147q-38 -170 -25.5 -295.5t68.5 -208.5t139.5 -124t186.5 -41q151 0 263 42t196 133t142.5 223t105.5 323h-512l9 42h555l-9 -42q-33 -136 -69.5 -240.5t-84 -192.5t-105 -148t-132 -102t-166 -61.5 t-205.5 -19.5z" />
<glyph unicode="&#x121;" horiz-adv-x="1158" d="M785 1381q-15 0 -31.5 14t-16.5 31t16.5 31t32 14t31.5 -14t16 -31q0 -9 -5 -17.5t-12 -14.5t-15.5 -9.5t-15.5 -3.5zM447 24q166 0 301.5 130.5t184.5 340.5l21 86q56 229 -16.5 347.5t-245.5 118.5q-178 0 -309.5 -132t-189.5 -371l-8 -37q-58 -237 11.5 -360 t250.5 -123zM333 -462q-70 0 -128 15.5t-98 42.5t-66.5 56t-44.5 62l37 19q13 -24 27.5 -42.5t40.5 -40t57.5 -36t80.5 -24t107 -9.5q62 0 118 15t112 50t102 88.5t85 136t64 187.5l57 226q-16 -41 -41.5 -80.5t-65.5 -80.5t-88 -72t-113 -50.5t-137 -19.5 q-123 0 -203.5 61.5t-106 178t14.5 286.5l8 37q63 266 204.5 406t349.5 140q51 0 94.5 -11t75.5 -31t57 -45t41 -55t25.5 -60t13.5 -61l56 231h43l-239 -996q-35 -143 -89.5 -246.5t-125 -163t-150.5 -87t-175 -27.5z" />
<glyph unicode="&#x123;" horiz-adv-x="1223" d="M929 1566q-43 -181 -49 -205q-3 -15 -4 -20.5t-4.5 -16t-7 -14.5t-10 -7.5t-15.5 -3.5q-20 0 -24.5 18t2.5 44q6 24 47 118l37 87h28zM511 24q166 0 301.5 130.5t185.5 340.5l22 86q55 229 -17.5 347.5t-245.5 118.5q-178 0 -309.5 -132t-189.5 -371l-8 -37 q-58 -237 11 -360t250 -123zM398 -462q-70 0 -128 15.5t-98 42.5t-67 56t-45 62l37 19q9 -16 18.5 -30t24.5 -30t32 -28.5t41.5 -25t52.5 -20.5t65 -13t80 -5q61 0 117.5 15t112 50t102 88.5t85.5 136t64 187.5l56 226q-16 -41 -41.5 -80.5t-65.5 -80.5t-88 -72t-113 -50.5 t-137 -19.5q-123 0 -203 61.5t-105.5 178t14.5 286.5l8 37q63 267 204 406.5t349 139.5q61 0 111.5 -16t84 -42t58 -61t37 -70.5t16.5 -73.5l56 231h43l-238 -996q-35 -143 -89.5 -246.5t-125 -163t-150.5 -87t-175 -27.5z" />
<glyph unicode="&#x126;" horiz-adv-x="1414" d="M316 774h882l90 373h-882zM306 731l-177 -731h-43l275 1147h-172l11 39h170l82 341h45l-82 -341h882l82 341h43l-82 -341h234l-11 -39h-234l-275 -1147h-43l175 731h-880z" />
<glyph unicode="&#x127;" horiz-adv-x="1126" d="M277 568l-135 -568h-43l309 1293h-205l10 43h206l45 191h43l-45 -191h390l-11 -43h-389l-130 -540q18 50 45 96t66.5 90t86.5 76t109 51.5t130 19.5q113 0 186.5 -61.5t96.5 -177.5t-16 -283l-136 -564h-43l136 568q53 228 -8.5 351.5t-225.5 123.5q-59 0 -116.5 -20 t-112 -60t-101 -96t-83.5 -132.5t-59 -166.5z" />
<glyph unicode="&#x12a;" horiz-adv-x="433" d="M349 1714l10 43h345l-12 -43h-343zM86 0l366 1527h43l-366 -1527h-43z" />
<glyph unicode="&#x12b;" horiz-adv-x="429" d="M293 1484l8 43h344l-9 -43h-343zM86 0l254 1058h43l-254 -1058h-43z" />
<glyph unicode="&#x12c;" horiz-adv-x="429" d="M499 1654q-73 0 -127 42.5t-75 96.5l38 17q17 -45 62 -79t114 -34q120 0 236 115l29 -29q-52 -58 -125 -93.5t-152 -35.5zM86 0l366 1527h43l-366 -1527h-43z" />
<glyph unicode="&#x12d;" horiz-adv-x="429" d="M433 1374q-73 0 -127.5 43t-75.5 97l39 17q16 -45 61.5 -79t114.5 -34q119 0 234 115l31 -29q-52 -58 -125.5 -94t-151.5 -36zM86 0l254 1058h43l-254 -1058h-43z" />
<glyph unicode="&#x12e;" horiz-adv-x="427" d="M13 -443h-177q-36 0 -60.5 21.5t-30 53t12.5 72.5t59 77q18 15 59.5 51.5t80.5 71.5t73 66t41 36q2 1 5.5 3.5t5.5 3.5l361 1514h43l-363 -1519l4 -8l-287 -256q-19 -16 -33 -35.5t-18.5 -38.5t-2 -35t17 -25.5t38.5 -9.5h182z" />
<glyph unicode="&#x12f;" horiz-adv-x="449" d="M464 1438q-9 0 -20 6.5t-19 17t-8 22.5q0 17 16 31t31 14t31 -14t16 -31.5t-16 -31.5t-31 -14zM17 -443h-177q-36 0 -60 21.5t-30 53t12 72.5t60 77q22 19 81.5 72t111.5 99.5t61 53.5q8 9 14 9l250 1043h43l-254 -1056l2 -2l-285 -256q-20 -16 -33.5 -35.5t-18.5 -38.5 t-2.5 -35t17.5 -25.5t39 -9.5h180z" />
<glyph unicode="&#x130;" horiz-adv-x="433" d="M536 1731q-16 0 -32 14t-16 31.5t16 31.5t31.5 14t31.5 -14t16 -31q0 -12 -8 -22.5t-19 -17t-20 -6.5zM86 0l366 1527h43l-366 -1527h-43z" />
<glyph unicode="&#x131;" horiz-adv-x="429" d="M86 0l254 1058h43l-254 -1058h-43z" />
<glyph unicode="&#x136;" horiz-adv-x="1313" d="M86 0l366 1527h45l-235 -973l1156 973h68l-826 -694l456 -833h-49l-441 804l-381 -320l-116 -484h-43zM509 -392q43 181 50 205q2 15 3.5 20.5t4.5 16t7 14.5t10.5 7.5t15.5 3.5q19 0 23.5 -18t-1.5 -44q-7 -24 -48 -119l-36 -86h-29z" />
<glyph unicode="&#x137;" horiz-adv-x="1014" d="M86 0l366 1527h43l-259 -1075l794 606h60l-585 -456l359 -602h-43l-350 576l-249 -191l-93 -385h-43zM404 -408q43 179 50 203q2 15 3.5 20.5l4.5 16.5t7 15t10.5 7.5t15.5 3.5q19 0 23.5 -18.5t-1.5 -44.5q-3 -9 -7.5 -22t-10.5 -27t-11.5 -25.5t-11 -24.5t-8.5 -18 l-35 -86h-29z" />
<glyph unicode="&#x139;" horiz-adv-x="1169" d="M499 1722l269 269l30 -34l-242 -235h-57zM121 0l365 1527h43l-355 -1484h824l-11 -43h-866z" />
<glyph unicode="&#x13a;" horiz-adv-x="429" d="M458 1637l139 202l37 -29l-125 -173h-51zM301 -2q-106 -10 -143.5 63.5t-5.5 222.5l297 1243h46l-298 -1239q-19 -86 -17 -144t34 -85.5t96 -21.5z" />
<glyph unicode="&#x13b;" horiz-adv-x="1135" d="M86 0l366 1527h43l-355 -1484h824l-12 -43h-866zM430 -474q44 181 50 205q2 11 2.5 15t2.5 12.5t4 12t5 9t6.5 7.5t8.5 4t12 2q19 0 23 -18t-2 -44q-7 -24 -47 -118l-37 -87h-28z" />
<glyph unicode="&#x13c;" horiz-adv-x="431" d="M303 -2q-105 -10 -143 63.5t-6 222.5l298 1243h45l-297 -1239q-19 -86 -17.5 -144t33.5 -85.5t96 -21.5zM71 -471q43 180 50 204q2 15 3.5 20.5t4.5 16t7 14.5t10.5 7.5t15.5 3.5q19 0 23 -18t-2 -44q-7 -24 -48 -118l-36 -86h-28z" />
<glyph unicode="&#x13d;" horiz-adv-x="1135" d="M944 1149q76 317 82 341q9 43 28 43q24 0 15 -43l-37 -154l-45 -187h-43zM86 0l366 1527h43l-355 -1484h824l-12 -43h-866z" />
<glyph unicode="&#x13e;" horiz-adv-x="763" d="M892 1535q25 0 15 -43l-19 -84l-82 -343h-43q95 403 101 427q10 43 28 43zM303 -2q-105 -10 -143 63.5t-6 222.5l298 1243h45l-297 -1239q-19 -86 -17.5 -144t33.5 -85.5t96 -21.5z" />
<glyph unicode="&#x13f;" horiz-adv-x="1135" d="M86 0l366 1527h43l-355 -1484h824l-12 -43h-866zM1069 701q-10 0 -21 6.5t-18.5 17t-7.5 22.5q0 17 16 31t31 14t31 -14t16 -31.5t-16 -31.5t-31 -14z" />
<glyph unicode="&#x140;" horiz-adv-x="745" d="M303 -2q-105 -10 -143 63.5t-6 222.5l298 1243h45l-297 -1239q-19 -86 -17.5 -144t33.5 -85.5t96 -21.5zM628 531q-17 0 -31 11t-14 32t14.5 33.5t30.5 12.5t30.5 -12.5t14.5 -33.5t-14 -32t-31 -11z" />
<glyph unicode="&#x141;" horiz-adv-x="1151" d="M970 0h-867l168 697l-267 -95l-12 41l289 104l187 780h43l-182 -766l436 155l13 -38l-460 -164l-160 -671h823z" />
<glyph unicode="&#x142;" horiz-adv-x="489" d="M331 -2q-106 -10 -143.5 63.5t-4.5 222.5l139 584l-221 -113l-17 37l251 131l145 604h45l-138 -579l224 117l17 -37l-254 -131l-146 -609q-19 -86 -17.5 -144t33.5 -85.5t96 -21.5z" />
<glyph unicode="&#x143;" horiz-adv-x="1461" d="M897 1650l269 268l30 -34l-242 -234h-57zM86 0l366 1527h53l626 -1476l353 1476h43l-366 -1527h-57l-620 1469l-355 -1469h-43z" />
<glyph unicode="&#x144;" horiz-adv-x="1135" d="M663 1309l268 269l30 -34l-241 -235h-57zM86 0l254 1058h43l-59 -239q34 70 95 128.5t148 96.5t180 38q98 0 165.5 -33t100 -93t36.5 -145.5t-23 -190.5l-148 -620h-43l148 617q24 96 22.5 174t-27.5 133t-86 84.5t-152 29.5q-70 0 -141.5 -28.5t-135 -80.5t-113.5 -133 t-73 -179l-148 -617h-43z" />
<glyph unicode="&#x145;" horiz-adv-x="1461" d="M86 0l366 1527h53l626 -1476l353 1476h43l-366 -1527h-57l-620 1469l-355 -1469h-43zM542 -490q43 180 49 204q2 11 3 15t3 12.5t3.5 12t4.5 9t6.5 8t9 4t11.5 1.5q20 0 24.5 -18t-2.5 -44q-6 -24 -47 -118l-37 -86h-28z" />
<glyph unicode="&#x146;" horiz-adv-x="1135" d="M86 0l254 1058h43l-59 -239q34 70 95 128.5t148 96.5t180 38q98 0 165.5 -33t100 -93t36.5 -145.5t-23 -190.5l-148 -620h-43l148 617q24 96 22.5 174t-27.5 133t-86 84.5t-152 29.5q-70 0 -141.5 -28.5t-135 -80.5t-113.5 -133t-73 -179l-148 -617h-43zM396 -468 q43 179 49 203q3 15 4 20.5t4.5 16t7 14.5t10 7.5t15.5 3.5q20 0 24 -18t-3 -44q-6 -24 -47 -118l-37 -85h-27z" />
<glyph unicode="&#x147;" horiz-adv-x="1461" d="M970 1602l-164 228l35 25l150 -210l256 210l26 -33l-267 -220h-36zM86 0l366 1527h53l626 -1476l353 1476h43l-366 -1527h-57l-620 1469l-355 -1469h-43z" />
<glyph unicode="&#x148;" horiz-adv-x="1135" d="M749 1323l-164 228l35 25l150 -211l256 211l25 -35l-266 -218h-36zM86 0l254 1058h43l-59 -239q34 70 95 128.5t148 96.5t180 38q98 0 165.5 -33t100 -93t36.5 -145.5t-23 -190.5l-148 -620h-43l148 617q24 96 22.5 174t-27.5 133t-86 84.5t-152 29.5q-70 0 -141.5 -28.5 t-135 -80.5t-113.5 -133t-73 -179l-148 -617h-43z" />
<glyph unicode="&#x14c;" horiz-adv-x="1403" d="M699 1796l11 43h647l-11 -43h-647zM630 -13q-88 0 -165.5 25t-144 78t-105 134.5t-47.5 195.5t27 261l39 164q84 347 256.5 521.5t432.5 174.5q116 0 211.5 -42.5t162.5 -129.5t84.5 -217.5t-22.5 -306.5l-39 -164q-87 -359 -254 -524.5t-436 -169.5zM638 30 q493 7 644 660l36 149q37 168 22.5 292.5t-76 206t-151 121t-202.5 39.5q-234 0 -395 -165t-239 -494l-37 -149q-35 -143 -29.5 -252.5t38.5 -187.5t93 -127t134 -71.5t162 -21.5z" />
<glyph unicode="&#x14d;" horiz-adv-x="1083" d="M449 1482l11 43h648l-12 -43h-647zM449 -17q-76 0 -146 31.5t-124 94t-72 155.5t10 216l21 92q57 240 198 375t341 135q86 0 158.5 -35.5t120 -101t63 -160t-12.5 -213.5l-21 -92q-58 -240 -198.5 -368.5t-337.5 -128.5zM460 26q63 0 123 17.5t115 54t101 89.5 t82.5 127.5t58.5 165.5l21 90q34 149 5.5 253t-107 159.5t-192.5 55.5q-175 0 -305 -124.5t-184 -343.5l-20 -90q-26 -115 -11.5 -200t61.5 -141.5t112 -84.5t140 -28z" />
<glyph unicode="&#x14e;" horiz-adv-x="1403" d="M991 1701q-67 0 -125.5 23.5t-102.5 69t-71 109.5l39 17q74 -176 273 -176q92 0 174.5 43.5t171.5 139.5l31 -31q-95 -107 -189.5 -151t-200.5 -44zM630 -13q-88 0 -165.5 25t-144 78t-105 134.5t-47.5 195.5t27 261l39 164q84 347 256.5 521.5t432.5 174.5 q116 0 211.5 -42.5t162.5 -129.5t84.5 -217.5t-22.5 -306.5l-39 -164q-87 -359 -254 -524.5t-436 -169.5zM638 30q493 7 644 660l36 149q37 168 22.5 292.5t-76 206t-151 121t-202.5 39.5q-234 0 -395 -165t-239 -494l-37 -149q-35 -143 -29.5 -252.5t38.5 -187.5t93 -127 t134 -71.5t162 -21.5z" />
<glyph unicode="&#x14f;" horiz-adv-x="1083" d="M729 1325q-68 0 -126 23.5t-102 69t-71 109.5l38 17q75 -176 274 -176q92 0 174.5 43.5t171.5 139.5l30 -31q-64 -72 -131 -116.5t-128 -61.5t-130 -17zM449 -17q-76 0 -146 31.5t-124 94t-72 155.5t10 216l21 92q57 240 198 375t341 135q86 0 158.5 -35.5t120 -101 t63 -160t-12.5 -213.5l-21 -92q-58 -240 -198.5 -368.5t-337.5 -128.5zM460 26q63 0 123 17.5t115 54t101 89.5t82.5 127.5t58.5 165.5l21 90q34 149 5.5 253t-107 159.5t-192.5 55.5q-175 0 -305 -124.5t-184 -343.5l-20 -90q-26 -115 -11.5 -200t61.5 -141.5t112 -84.5 t140 -28z" />
<glyph unicode="&#x150;" horiz-adv-x="1403" d="M1049 1718l269 269l30 -34l-240 -235h-59zM796 1718l269 269l29 -34l-240 -235h-58zM630 -13q-88 0 -165.5 25t-144 78t-105 134.5t-47.5 195.5t27 261l39 164q84 347 256.5 521.5t432.5 174.5q116 0 211.5 -42.5t162.5 -129.5t84.5 -217.5t-22.5 -306.5l-39 -164 q-87 -359 -254 -524.5t-436 -169.5zM638 30q493 7 644 660l36 149q37 168 22.5 292.5t-76 206t-151 121t-202.5 39.5q-234 0 -395 -165t-239 -494l-37 -149q-35 -143 -29.5 -252.5t38.5 -187.5t93 -127t134 -71.5t162 -21.5z" />
<glyph unicode="&#x151;" horiz-adv-x="1083" d="M757 1318l269 269l30 -34l-241 -235h-58zM503 1318l269 269l30 -34l-240 -235h-59zM449 -17q-76 0 -146 31.5t-124 94t-72 155.5t10 216l21 92q57 240 198 375t341 135q86 0 158.5 -35.5t120 -101t63 -160t-12.5 -213.5l-21 -92q-58 -240 -198.5 -368.5t-337.5 -128.5z M460 26q63 0 123 17.5t115 54t101 89.5t82.5 127.5t58.5 165.5l21 90q34 149 5.5 253t-107 159.5t-192.5 55.5q-175 0 -305 -124.5t-184 -343.5l-20 -90q-26 -115 -11.5 -200t61.5 -141.5t112 -84.5t140 -28z" />
<glyph unicode="&#x152;" horiz-adv-x="2206" d="M568 30q492 7 643 660l36 149q38 168 23.5 292.5t-76 206t-151.5 121t-202 39.5q-234 0 -395 -165t-239 -494l-37 -149q-35 -143 -29.5 -252.5t38 -187.5t93 -127t134.5 -71.5t162 -21.5zM1047 0l82 344q-95 -182 -235 -268.5t-335 -88.5q-88 0 -165.5 25t-144 78 t-105 134.5t-47.5 195.5t28 261l39 164q168 696 688 696q71 0 136 -16.5t122 -51t100 -84.5t70 -120.5t34 -154.5l99 413h948l-8 -43h-906l-165 -690h696l-10 -43h-698l-169 -708h922l-10 -43h-966z" />
<glyph unicode="&#x153;" horiz-adv-x="1775" d="M1206 -30q-144 0 -236.5 96t-105.5 246q-74 -161 -197 -245t-282 -84q-76 0 -146.5 31.5t-124 94t-72 155.5t8.5 216l23 92q57 240 198 375t341 135q141 0 238 -90t108 -245q52 111 127.5 188t162 114t183.5 37q74 0 137.5 -27t105.5 -72t60 -108t3 -132 q-13 -57 -59.5 -102t-101 -67.5t-108.5 -27.5l-551 -82q-26 -122 1 -226t104 -166.5t190 -62.5q272 0 408 200l35 -24q-29 -36 -56 -63.5t-68 -58.5t-86 -51t-107 -33t-133 -13zM942 572l-13 -61l542 84q40 3 85 20t86 53.5t53 82.5q15 63 -1 119t-54.5 93.5t-95 59.5 t-120.5 22q-72 0 -140.5 -26t-131.5 -78t-116 -139t-88 -200l-2 -10l-2 -10zM396 26q79 0 152.5 28t137 82t112 140t75.5 195l9 40q11 52 21 84q21 105 7.5 187.5t-55 139.5t-106.5 86.5t-147 29.5q-175 0 -304.5 -124t-183.5 -344l-22 -90q-25 -115 -10.5 -200t62 -141.5 t112.5 -84.5t140 -28z" />
<glyph unicode="&#x154;" horiz-adv-x="1315" d="M770 1734l268 268l31 -34l-242 -234h-57zM312 757h486q111 0 212.5 50t170 133t92.5 180q24 101 -7.5 184.5t-109.5 131.5t-184 48h-486zM86 0l366 1527h507q129 0 220.5 -53t127.5 -146t9 -208q-20 -83 -69 -156.5t-112 -123.5t-133.5 -81t-137.5 -37l177 -722h-48 l-176 714h-516l-172 -714h-43z" />
<glyph unicode="&#x155;" horiz-adv-x="786" d="M495 1266l268 269l31 -33l-242 -236h-57zM86 0l254 1058h43l-54 -227q11 28 34.5 60t59.5 65.5t79 60t98 43.5t112 17q118 0 174 -39l-10 -43q-45 39 -170 39q-65 0 -130 -26.5t-123 -75.5t-103.5 -126t-68.5 -172l-152 -634h-43z" />
<glyph unicode="&#x156;" horiz-adv-x="1315" d="M312 757h486q111 0 212.5 50t170 133t92.5 180q24 101 -7.5 184.5t-109.5 131.5t-184 48h-486zM86 0l366 1527h507q129 0 220.5 -53t127.5 -146t9 -208q-20 -83 -69 -156.5t-112 -123.5t-133.5 -81t-137.5 -37l177 -722h-48l-176 714h-516l-172 -714h-43zM456 -486 q43 180 49 205q3 14 4 20t4.5 16t7 14t10 8t15.5 4q20 0 24 -18t-2 -44q-6 -25 -47 -119l-37 -86h-28z" />
<glyph unicode="&#x157;" horiz-adv-x="786" d="M86 0l254 1058h43l-54 -227q11 28 34.5 60t59.5 65.5t79 60t98 43.5t112 17q118 0 174 -39l-10 -43q-45 39 -170 39q-65 0 -130 -26.5t-123 -75.5t-103.5 -126t-68.5 -172l-152 -634h-43zM-6 -474q43 181 49 205q2 13 3 17.5t3.5 14t5 13t6.5 9t10 7t13 1.5 q19 0 23.5 -18t-2.5 -44q-6 -24 -47 -118l-37 -87h-27z" />
<glyph unicode="&#x158;" horiz-adv-x="1315" d="M856 1688l-164 228l35 25l151 -210l255 210l26 -33l-267 -220h-36zM312 757h486q111 0 212.5 50t170 133t92.5 180q24 101 -7.5 184.5t-109.5 131.5t-184 48h-486zM86 0l366 1527h507q129 0 220.5 -53t127.5 -146t9 -208q-20 -83 -69 -156.5t-112 -123.5t-133.5 -81 t-137.5 -37l177 -722h-48l-176 714h-516l-172 -714h-43z" />
<glyph unicode="&#x159;" horiz-adv-x="796" d="M600 1290l-163 228l34 26l151 -210l256 210l25 -34l-267 -220h-36zM97 0l254 1058h43l-54 -227q12 28 35 60t59 65.5t79 60t98 43.5t111 17q118 0 175 -39l-11 -43q-44 39 -170 39q-43 0 -86.5 -11.5t-85 -34t-80.5 -57t-71.5 -78t-58.5 -99.5t-41 -120l-153 -634h-43z " />
<glyph unicode="&#x15a;" horiz-adv-x="1305" d="M790 1738l268 269l30 -35l-241 -234h-57zM554 -15q-54 0 -106.5 12t-97 32.5t-84.5 48.5t-70.5 60.5t-53 68.5t-33.5 72l41 16q12 -41 36.5 -79.5t62.5 -72.5t85 -59.5t107 -40.5t125 -15q54 0 108.5 10t109 29.5t104.5 50t91 70t72 92.5t45 114q13 53 14.5 98.5 t-7.5 81.5t-26 65t-44 50.5t-57.5 37.5t-69.5 27t-78.5 18t-85.5 10q-53 5 -103.5 17.5t-98 34t-83.5 52t-61 71t-31 90.5t7 110q46 191 194.5 291.5t379.5 100.5q263 0 381 -181l-43 -26q-82 164 -348 164q-133 0 -239 -38t-180.5 -117t-101.5 -194q-12 -55 -8.5 -99.5 t26 -80t54 -61.5t75.5 -44.5t91.5 -29.5t101.5 -17q482 -49 386 -431q-26 -104 -85.5 -184t-140 -128t-172 -72.5t-189.5 -24.5z" />
<glyph unicode="&#x15b;" horiz-adv-x="987" d="M566 1250l269 268l29 -34l-240 -234h-58zM376 -26q-109 0 -204.5 46.5t-156.5 131.5l41 22q61 -79 138 -118t193 -39q162 0 271.5 72t137.5 190q31 129 -35.5 191.5t-247.5 62.5q-74 0 -132.5 14.5t-94.5 40.5t-58.5 61.5t-24.5 77.5t8 90q14 58 47.5 106t88 86t137 59.5 t185.5 21.5q60 0 114.5 -15t90.5 -38t59.5 -44.5t34.5 -40.5l-41 -23q-1 3 -4 7t-14.5 16.5t-25 23.5t-36.5 24.5t-49 23t-62.5 16.5t-77.5 7q-167 0 -273.5 -64t-130.5 -164q-8 -40 -8.5 -76.5t16.5 -66.5t47.5 -52.5t85.5 -35t130 -12.5q185 0 266.5 -77.5t47.5 -219.5 q-33 -142 -152.5 -223.5t-310.5 -81.5z" />
<glyph unicode="&#x15e;" horiz-adv-x="1305" d="M733 -421q-38 -76 -122.5 -92.5t-184.5 29.5l-71 32l19 41l71 -34q180 -80 247 41q14 24 17 48.5t-5.5 49.5t-28.5 48.5t-56 46t-86 41.5l-38 18l59 137q-54 0 -106.5 12t-97 32.5t-84.5 48.5t-70.5 60.5t-53 68.5t-33.5 72l41 16q12 -41 36.5 -79.5t62.5 -72.5t85 -59.5 t107 -40.5t125 -15q54 0 108.5 10t109 29.5t104.5 50t91 70t72 92.5t45 114q13 53 14.5 98.5t-7.5 81.5t-26 65t-44 50.5t-57.5 37.5t-69.5 27t-78.5 18t-85.5 10q-53 5 -103.5 17.5t-98 34t-83.5 52t-61 71t-31 90.5t7 110q46 191 194.5 291.5t379.5 100.5q263 0 381 -181 l-43 -26q-82 164 -348 164q-133 0 -239 -38t-180.5 -117t-101.5 -194q-12 -55 -8.5 -99.5t26 -80t54 -61.5t75.5 -44.5t91.5 -29.5t101.5 -17q482 -49 386 -431q-24 -98 -78 -174.5t-127.5 -124.5t-157.5 -75t-176 -33l-52 -118q73 -26 120.5 -63t64.5 -76.5t16.5 -77.5 t-18.5 -73z" />
<glyph unicode="&#x15f;" horiz-adv-x="987" d="M540 -428q-38 -76 -123.5 -92t-184.5 30l-70 32l19 41l71 -35q180 -79 247 41q17 31 17.5 62t-17 61.5t-58 59t-101.5 52.5l-39 16l58 134q-103 3 -194 50t-150 128l41 22q61 -79 138 -118t193 -39q162 0 271.5 72t137.5 190q31 129 -35.5 191.5t-247.5 62.5 q-74 0 -132.5 14.5t-94.5 40.5t-58.5 61.5t-24.5 77.5t8 90q14 58 47.5 106t88 86t137 59.5t185.5 21.5q60 0 114.5 -15t90.5 -38t59.5 -44.5t34.5 -40.5l-41 -23q-1 3 -4 7t-14.5 16.5t-25 23.5t-36.5 24.5t-49 23t-62.5 16.5t-77.5 7q-167 0 -273.5 -64t-130.5 -164 q-8 -40 -8.5 -76.5t16.5 -66.5t47.5 -52.5t85.5 -35t130 -12.5q185 0 266.5 -77.5t47.5 -219.5q-15 -67 -51 -121.5t-90 -94t-128 -62.5t-164 -27l-49 -112q73 -25 120 -62t64.5 -77t16.5 -78.5t-18 -72.5z" />
<glyph unicode="&#x160;" horiz-adv-x="1305" d="M964 1731l-164 228l35 25l150 -210l256 210l25 -33l-266 -220h-36zM554 -15q-54 0 -106.5 12t-97 32.5t-84.5 48.5t-70.5 60.5t-53 68.5t-33.5 72l41 16q12 -41 36.5 -79.5t62.5 -72.5t85 -59.5t107 -40.5t125 -15q54 0 108.5 10t109 29.5t104.5 50t91 70t72 92.5t45 114 q13 53 14.5 98.5t-7.5 81.5t-26 65t-44 50.5t-57.5 37.5t-69.5 27t-78.5 18t-85.5 10q-53 5 -103.5 17.5t-98 34t-83.5 52t-61 71t-31 90.5t7 110q46 191 194.5 291.5t379.5 100.5q263 0 381 -181l-43 -26q-82 164 -348 164q-133 0 -239 -38t-180.5 -117t-101.5 -194 q-12 -55 -8.5 -99.5t26 -80t54 -61.5t75.5 -44.5t91.5 -29.5t101.5 -17q482 -49 386 -431q-26 -104 -85.5 -184t-140 -128t-172 -72.5t-189.5 -24.5z" />
<glyph unicode="&#x161;" horiz-adv-x="987" d="M652 1297l-164 228l35 26l150 -211l256 211l25 -35l-266 -219h-36zM376 -26q-109 0 -204.5 46.5t-156.5 131.5l41 22q61 -79 138 -118t193 -39q162 0 271.5 72t137.5 190q31 129 -35.5 191.5t-247.5 62.5q-74 0 -132.5 14.5t-94.5 40.5t-58.5 61.5t-24.5 77.5t8 90 q14 58 47.5 106t88 86t137 59.5t185.5 21.5q60 0 114.5 -15t90.5 -38t59.5 -44.5t34.5 -40.5l-41 -23q-1 3 -4 7t-14.5 16.5t-25 23.5t-36.5 24.5t-49 23t-62.5 16.5t-77.5 7q-167 0 -273.5 -64t-130.5 -164q-8 -40 -8.5 -76.5t16.5 -66.5t47.5 -52.5t85.5 -35t130 -12.5 q185 0 266.5 -77.5t47.5 -219.5q-33 -142 -152.5 -223.5t-310.5 -81.5z" />
<glyph unicode="&#x162;" horiz-adv-x="1122" d="M430 0l358 1486h-464l11 43h972l-10 -43h-466l-357 -1486h-44zM423 -6h48l-54 -121q72 -26 119.5 -62.5t65 -76.5t16.5 -78t-18 -73q-39 -76 -123.5 -92.5t-183.5 29.5l-71 33l18 41l72 -35q180 -80 247 41q17 31 17.5 61.5t-17 61t-58 59.5t-101.5 52l-39 18z" />
<glyph unicode="&#x163;" horiz-adv-x="651" d="M406 -342q-38 -76 -123 -92t-184 30l-71 32l19 41l72 -34q180 -80 246 41q18 30 18 61t-17 61.5t-57.5 59t-101.5 52.5l-39 16l62 143h2q-62 72 -37 176l185 764h-191l8 42h193l94 387h43l-94 -387h259l-8 -42h-261l-180 -749q-26 -111 31.5 -173t179.5 -54l-11 -43 q-112 -7 -178 47l-41 -88q72 -26 119.5 -63t65 -77t16.5 -78.5t-19 -72.5z" />
<glyph unicode="&#x164;" horiz-adv-x="1122" d="M825 1712l-162 227l34 27l150 -211l257 211l25 -35l-267 -219h-37zM430 0l358 1486h-464l11 43h972l-10 -43h-466l-357 -1486h-44z" />
<glyph unicode="&#x165;" horiz-adv-x="810" d="M1000 1699q11 0 15.5 -11t-0.5 -32l-20 -84l-81 -345h-44q96 405 102 429q5 23 11 33t17 10zM443 -10q-83 -6 -146.5 26t-91.5 93t-10 136l185 764h-191l8 42h193l94 387h43l-94 -387h259l-8 -42h-261l-180 -749q-26 -111 31.5 -173t179.5 -54z" />
<glyph unicode="&#x16a;" horiz-adv-x="1281" d="M624 1793l10 43h648l-12 -43h-646zM523 -26q-229 0 -322.5 168.5t-19.5 472.5l217 912h43l-219 -916q-69 -282 12 -438t299 -156q229 0 382 154.5t222 439.5l220 916h43l-218 -912q-37 -157 -93.5 -274t-136.5 -200t-187 -125t-242 -42z" />
<glyph unicode="&#x16b;" horiz-adv-x="1079" d="M394 1484l10 43h647l-10 -43h-647zM390 -19q-170 0 -240.5 128.5t-16.5 352.5q9 38 24 100t46.5 193.5t52 218t19.5 84.5h43l-142 -596q-50 -207 5.5 -322.5t218.5 -115.5q155 0 278 121t169 317l142 596h43l-254 -1058h-43l65 265q-18 -41 -40 -76.5t-58 -75 t-78.5 -67.5t-103.5 -46.5t-130 -18.5z" />
<glyph unicode="&#x16c;" horiz-adv-x="1281" d="M931 1690q-67 0 -125 23.5t-102.5 69t-71.5 109.5l39 18q75 -176 273 -176q92 0 174.5 43.5t171.5 138.5l30 -30q-95 -107 -189 -151.5t-200 -44.5zM523 -26q-229 0 -322.5 168.5t-19.5 472.5l217 912h43l-219 -916q-69 -282 12 -438t299 -156q229 0 382 154.5t222 439.5 l220 916h43l-218 -912q-37 -157 -93.5 -274t-136.5 -200t-187 -125t-242 -42z" />
<glyph unicode="&#x16d;" horiz-adv-x="1079" d="M731 1329q-102 0 -180 52.5t-118 149.5l38 18q75 -177 273 -177q92 0 174.5 44t171.5 139l30 -30q-95 -107 -189.5 -151.5t-199.5 -44.5zM390 -19q-170 0 -240.5 128.5t-16.5 352.5q9 38 24 100t46.5 193.5t52 218t19.5 84.5h43l-142 -596q-50 -207 5.5 -322.5 t218.5 -115.5q155 0 278 121t169 317l142 596h43l-254 -1058h-43l65 265q-18 -41 -40 -76.5t-58 -75t-78.5 -67.5t-103.5 -46.5t-130 -18.5z" />
<glyph unicode="&#x16e;" horiz-adv-x="1281" d="M921 1623q-46 0 -84 21.5t-60 59.5t-22 83q0 69 49.5 119.5t116.5 50.5t115 -50.5t48 -121.5q0 -68 -46.5 -115t-116.5 -47zM921 1666q36 0 63.5 16.5t42 43.5t14.5 59q0 53 -34.5 91t-85.5 38q-32 0 -60 -17t-45.5 -47t-17.5 -65q0 -48 35.5 -83.5t87.5 -35.5zM523 -26 q-229 0 -322.5 168.5t-19.5 472.5l217 912h43l-219 -916q-69 -282 12 -438t299 -156q229 0 382 154.5t222 439.5l220 916h43l-218 -912q-37 -157 -93.5 -274t-136.5 -200t-187 -125t-242 -42z" />
<glyph unicode="&#x16f;" horiz-adv-x="1079" d="M727 1258q-70 0 -117.5 47.5t-47.5 116.5t49 119.5t116 50.5t115 -50.5t48 -121.5q0 -69 -46.5 -115.5t-116.5 -46.5zM727 1301q35 0 63 16.5t42.5 43t14.5 59.5q0 25 -9 49t-25 41.5t-38.5 28t-47.5 10.5q-49 0 -86 -38.5t-37 -90.5q0 -48 35 -83.5t88 -35.5zM390 -19 q-170 0 -240.5 128.5t-16.5 352.5q9 38 24 100t46.5 193.5t52 218t19.5 84.5h43l-142 -596q-50 -207 5.5 -322.5t218.5 -115.5q155 0 278 121t169 317l142 596h43l-254 -1058h-43l65 265q-18 -41 -40 -76.5t-58 -75t-78.5 -67.5t-103.5 -46.5t-130 -18.5z" />
<glyph unicode="&#x170;" horiz-adv-x="1281" d="M957 1693l268 268l31 -34l-241 -234h-58zM704 1693l268 268l30 -34l-241 -234h-57zM523 -26q-229 0 -322.5 168.5t-19.5 472.5l217 912h43l-219 -916q-69 -282 12 -438t299 -156q229 0 382 154.5t222 439.5l220 916h43l-218 -912q-37 -157 -93.5 -274t-136.5 -200 t-187 -125t-242 -42z" />
<glyph unicode="&#x171;" horiz-adv-x="1079" d="M710 1307l269 269l30 -35l-241 -234h-58zM456 1307l268 269l31 -35l-242 -234h-57zM390 -19q-170 0 -240.5 128.5t-16.5 352.5q9 38 24 100t46.5 193.5t52 218t19.5 84.5h43l-142 -596q-50 -207 5.5 -322.5t218.5 -115.5q155 0 278 121t169 317l142 596h43l-254 -1058 h-43l65 265q-18 -41 -40 -76.5t-58 -75t-78.5 -67.5t-103.5 -46.5t-130 -18.5z" />
<glyph unicode="&#x172;" horiz-adv-x="1281" d="M595 -439h-176q-36 0 -60.5 21.5t-30.5 53t12 72.5t60 77l220 196q-57 -7 -97 -7q-229 0 -322.5 168.5t-19.5 472.5l217 912h43l-219 -916q-69 -282 12 -438t299 -156q229 0 382 154.5t222 439.5l220 916h43l-218 -912q-63 -261 -180 -416.5t-303 -202.5l-276 -248 q-33 -27 -47.5 -60.5t-2 -58.5t52.5 -25h181z" />
<glyph unicode="&#x173;" horiz-adv-x="1079" d="M675 -400l-10 -43h-177q-36 0 -60.5 21.5t-30.5 53t12 72.5t59 77q23 19 82.5 72t111.5 99.5t60 53.5q14 9 18 11l60 248q-18 -41 -40 -76.5t-58 -75t-78.5 -67.5t-103.5 -46.5t-130 -18.5q-170 0 -240.5 128.5t-16.5 352.5q9 38 24 100t46.5 193.5t52 218t19.5 84.5h43 l-142 -596q-50 -207 5.5 -322.5t218.5 -115.5q155 0 278 121t169 317l142 596h43l-254 -1058l-286 -256q-24 -20 -38.5 -45t-16.5 -47t12.5 -37t45.5 -15h180z" />
<glyph unicode="&#x174;" horiz-adv-x="1966" d="M1063 1639l-27 34l267 219h37l164 -228l-35 -25l-151 210zM398 0l-65 1527h43l69 -1469l759 1411h46l92 -1426l761 1484h47l-789 -1527h-62l-88 1398l-751 -1398h-62z" />
<glyph unicode="&#x175;" horiz-adv-x="1551" d="M733 1290l-25 35l266 219h37l163 -228l-35 -26l-150 212zM394 -21q-354 0 -218 577l121 502h45l-123 -508q-62 -285 -19 -407t202 -122q248 0 359 463l138 574h45l-138 -574q-53 -222 0.5 -342.5t186.5 -120.5q59 0 112.5 25t103.5 77.5t90.5 144.5t65.5 216l139 574h45 l-139 -574q-27 -136 -72 -236t-101.5 -157.5t-119 -84.5t-134.5 -27q-38 0 -70 9t-55.5 25t-43 37.5t-31.5 47t-21.5 53t-12 55t-4 54t3.5 50.5q-12 -42 -30.5 -84.5t-49.5 -88t-69 -79.5t-92 -56.5t-114 -22.5z" />
<glyph unicode="&#x176;" horiz-adv-x="1237" d="M692 1660l-25 35l266 219h37l163 -228l-34 -26l-151 211zM495 0l148 615l-310 912h52l292 -862l695 862h50l-736 -912l-148 -615h-43z" />
<glyph unicode="&#x177;" horiz-adv-x="1046" d="M550 1290l-25 35l267 219h35l164 -228l-34 -26l-151 212zM-66 -361l15 45q37 -13 76 -13t81.5 13.5t85.5 48t81 86.5l121 194l-172 1045h45l163 -994l637 994h51l-804 -1253q-49 -68 -100 -109.5t-100 -55.5t-91.5 -14t-88.5 13z" />
<glyph unicode="&#x178;" horiz-adv-x="1237" d="M1101.5 1759q-15.5 0 -31.5 14t-16 31t16 31t31.5 14t31.5 -14t16 -31t-16 -31t-31.5 -14zM663 1759q-8 0 -16 3.5t-15 9.5t-12 14.5t-5 17.5q0 17 16 31t31.5 14t31.5 -14t16 -31t-16 -31t-31 -14zM495 0l148 615l-310 912h52l292 -862l695 862h50l-736 -912l-148 -615 h-43z" />
<glyph unicode="&#x179;" horiz-adv-x="1165" d="M800 1757l269 268l30 -34l-241 -234h-58zM-21 0l8 37l1275 1447h-901l9 43h968l-7 -33l-1284 -1451h927l-10 -43h-985z" />
<glyph unicode="&#x17a;" horiz-adv-x="993" d="M591 1278l269 269l30 -35l-241 -234h-58zM0 0l8 37l934 978h-690l10 43h755l-6 -28l-942 -987h721l-12 -43h-778z" />
<glyph unicode="&#x17b;" horiz-adv-x="1165" d="M888.5 1826q-15.5 0 -31.5 14t-16 31q0 9 5 17.5t12 14.5t15 9.5t15 3.5q16 0 32 -14t16 -31t-16 -31t-31.5 -14zM-21 0l8 37l1275 1447h-901l9 43h968l-7 -33l-1284 -1451h927l-10 -43h-985z" />
<glyph unicode="&#x17c;" horiz-adv-x="993" d="M673 1383q-7 0 -15.5 3.5t-15.5 9.5t-11.5 14.5t-4.5 17.5t4.5 17.5t11.5 14.5t15.5 9.5t15.5 3.5q15 0 31 -14t16 -31t-16 -31t-31 -14zM0 0l8 37l934 978h-690l10 43h755l-6 -28l-942 -987h721l-12 -43h-778z" />
<glyph unicode="&#x17d;" horiz-adv-x="1165" d="M860 1734l-163 227l34 26l151 -210l255 210l26 -34l-266 -219h-37zM-21 0l8 37l1275 1447h-901l9 43h968l-7 -33l-1284 -1451h927l-10 -43h-985z" />
<glyph unicode="&#x17e;" horiz-adv-x="993" d="M660 1295l-163 227l34 27l150 -211l257 211l26 -35l-267 -219h-37zM0 0l8 37l934 978h-690l10 43h755l-6 -28l-942 -987h721l-12 -43h-778z" />
<glyph unicode="&#x1dd;" horiz-adv-x="1069" d="M878 1088q73 0 135.5 -26.5t105 -72.5t70 -109.5t32 -137.5t-9.5 -155l-9 -41q-20 -95 -51.5 -176.5t-72 -144.5t-88.5 -111.5t-102.5 -79.5t-113.5 -46.5t-122 -15.5q-74 0 -137.5 26.5t-105.5 72t-59.5 109t-3.5 132.5q13 57 59.5 101.5t101 67t108.5 26.5l551 82 q25 122 -1.5 226t-104 167t-190.5 63q-273 0 -408 -200l-34 23q29 36 56 64t68.5 58.5t86 50.5t106.5 33.5t133 13.5zM1159 546l-546 -84q-23 -1 -49 -8t-54 -20t-52 -30.5t-43 -42.5t-25 -53q-15 -64 0.5 -120t54.5 -94t95 -59.5t120 -21.5q63 0 123 19t117.5 60.5t106 103 t88.5 151t64 199.5z" />
<glyph unicode="&#x1fa;" horiz-adv-x="1352" d="M918 1978l268 269l31 -35l-241 -234h-58zM944 1529q27 0 50 9.5t38 25.5t24 37.5t9 45.5q0 53 -35 91.5t-86 38.5q-49 0 -86 -38.5t-37 -91.5q0 -30 15.5 -57.5t44 -44t63.5 -16.5zM320 503h745l-140 976zM293 460l-285 -460h-51l927 1496q-31 12 -55 34.5t-37.5 53.5 t-13.5 66q0 69 49.5 119.5t116.5 50.5q33 0 63.5 -14t52.5 -37t35 -55t13 -67q0 -62 -39 -106.5t-101 -52.5l212 -1488h-43l-66 460h-778z" />
<glyph unicode="&#x1fb;" d="M776 1736l269 268l30 -34l-240 -234h-59zM778 1256q-45 0 -83 21.5t-60 59t-22 83.5q0 45 23 84t61 62t81 23q44 0 82 -23t60 -62.5t22 -85.5q0 -45 -21 -82t-59 -58.5t-84 -21.5zM778 1299q54 0 87.5 34.5t33.5 84.5q0 52 -35 90.5t-86 38.5q-49 0 -85.5 -38.5 t-36.5 -90.5q0 -48 35 -83.5t87 -35.5zM445 19q78 0 151 29t138.5 87t118.5 155.5t85 226.5l6 29q28 124 19 215.5t-50 151.5t-98 89.5t-125 29.5q-56 0 -114.5 -18.5t-116.5 -57.5t-108 -94t-90.5 -134t-63.5 -172l-12 -53q-28 -128 -19.5 -220t50.5 -150.5t100 -86 t129 -27.5zM437 -24q-77 0 -142 30.5t-113 95t-59 164t19 237.5l12 53q25 102 66.5 186.5t93.5 145.5t115 103.5t131.5 63t140.5 20.5q70 0 128.5 -28.5t95 -73.5t56 -98.5t17.5 -104.5l67 275h43l-252 -1045h-43l69 284q-15 -56 -51 -109t-90 -98.5t-133.5 -73 t-170.5 -27.5z" />
<glyph unicode="&#x1fc;" horiz-adv-x="2042" d="M1359 1709l269 269l30 -34l-240 -235h-59zM344 484h649l237 983zM-150 0l1375 1527h882l-8 -43h-821l-166 -684h671l-9 -43h-670l-173 -714h830l-11 -43h-872l105 441h-677l-398 -441h-58z" />
<glyph unicode="&#x1fd;" horiz-adv-x="1664" d="M1015 1320l269 269l30 -34l-241 -235h-58zM835 511l546 84q40 3 85 20t86 53.5t52 82.5q8 32 7.5 62t-8 57t-21.5 50.5t-33 43t-43 34.5t-51.5 25.5t-58 16t-62.5 5.5q-79 0 -153.5 -31.5t-141.5 -94t-120.5 -167t-83.5 -241.5zM1116 -30q-101 0 -179 48.5t-120 131.5 t-45 188q-55 -167 -192.5 -261t-319.5 -94q-99 0 -170.5 39t-100 103.5t-10.5 139.5l4 21q32 132 159 211t305 79q215 0 329 -63l49 203q36 150 -28 236t-221 86q-71 0 -130 -10.5t-103 -31t-67 -35t-52 -36.5l-21 36q8 4 31.5 22.5t48.5 32.5t65.5 30.5t101.5 26t137 9.5 q149 0 229.5 -86t61.5 -228q53 105 127 177t158 106.5t179 34.5q74 0 137.5 -27t105.5 -72t59.5 -108t2.5 -132q-12 -57 -58.5 -102t-101.5 -67.5t-108 -27.5l-552 -82q-25 -122 1.5 -226t104 -166.5t189.5 -62.5q273 0 409 200l35 -24q-29 -36 -56 -63.5t-68.5 -58.5 t-86 -51t-106.5 -33t-133 -13zM271 26q82 0 161.5 28t144.5 76.5t111.5 120t62.5 153.5l14 67q-37 28 -132 47.5t-196 14.5q-167 -6 -275.5 -71t-137.5 -185q-26 -112 38.5 -181.5t208.5 -69.5z" />
<glyph unicode="&#x1fe;" horiz-adv-x="1403" d="M839 1759l269 269l29 -35l-240 -234h-58zM240 690q-86 -359 70 -536l894 1248q-117 96 -293 96q-234 0 -395 -165t-239 -494zM1318 839q30 123 27 225.5t-30 177.5t-78 130l-895 -1247q115 -98 296 -95q493 7 644 660zM630 -13q-189 0 -312 105l-96 -135l-39 22l103 144 q-55 56 -85 133.5t-34.5 185.5t28.5 239l39 164q84 347 256.5 521.5t432.5 174.5q185 0 307 -103l79 111l37 -27l-82 -114q56 -59 86.5 -138.5t36 -187.5t-27.5 -237l-39 -164q-87 -359 -254 -524.5t-436 -169.5z" />
<glyph unicode="&#x1ff;" horiz-adv-x="1089" d="M652 1314l269 268l29 -33l-240 -235h-58zM456 -17q-83 0 -160 38t-128 108l-131 -133l-31 30l140 142q-66 129 -23 312l21 92q57 240 198 375t342 135q76 0 142 -27.5t112 -80.5l107 110l30 -33l-109 -111q100 -147 47 -368l-22 -92q-38 -160 -115 -272t-183.5 -168.5 t-236.5 -56.5zM164 480q-40 -165 12 -280l731 744q-81 94 -234 94q-115 0 -213 -55.5t-169 -161.5t-106 -251zM466 26q80 0 153.5 28t137 83t113 142.5t76.5 200.5l22 90q51 210 -32 339l-739 -749q22 -33 52.5 -58.5t65 -42t73 -25t78.5 -8.5z" />
<glyph unicode="&#x218;" horiz-adv-x="1305" d="M554 -15q-54 0 -106.5 12t-97 32.5t-84.5 48.5t-70.5 60.5t-53 68.5t-33.5 72l41 16q12 -41 36.5 -79.5t62.5 -72.5t85 -59.5t107 -40.5t125 -15q54 0 108.5 10t109 29.5t104.5 50t91 70t72 92.5t45 114q13 53 14.5 98.5t-7.5 81.5t-26 65t-44 50.5t-57.5 37.5t-69.5 27 t-78.5 18t-85.5 10q-53 5 -103.5 17.5t-98 34t-83.5 52t-61 71t-31 90.5t7 110q46 191 194.5 291.5t379.5 100.5q263 0 381 -181l-43 -26q-82 164 -348 164q-133 0 -239 -38t-180.5 -117t-101.5 -194q-12 -55 -8.5 -99.5t26 -80t54 -61.5t75.5 -44.5t91.5 -29.5t101.5 -17 q482 -49 386 -431q-26 -104 -85.5 -184t-140 -128t-172 -72.5t-189.5 -24.5zM484 -471q43 180 49 204q3 13 4 17.5t3 14t4.5 13t7 9t10 7t12.5 1.5q20 0 24 -18t-3 -44q-6 -24 -47 -118l-37 -86h-27z" />
<glyph unicode="&#x219;" horiz-adv-x="987" d="M376 -26q-109 0 -204.5 46.5t-156.5 131.5l41 22q61 -79 138 -118t193 -39q162 0 271.5 72t137.5 190q31 129 -35.5 191.5t-247.5 62.5q-74 0 -132.5 14.5t-94.5 40.5t-58.5 61.5t-24.5 77.5t8 90q14 58 47.5 106t88 86t137 59.5t185.5 21.5q60 0 114.5 -15t90.5 -38 t59.5 -44.5t34.5 -40.5l-41 -23q-1 3 -4 7t-14.5 16.5t-25 23.5t-36.5 24.5t-49 23t-62.5 16.5t-77.5 7q-167 0 -273.5 -64t-130.5 -164q-8 -40 -8.5 -76.5t16.5 -66.5t47.5 -52.5t85.5 -35t130 -12.5q185 0 266.5 -77.5t47.5 -219.5q-33 -142 -152.5 -223.5t-310.5 -81.5z M378 -474q44 181 50 205q1 2 1 6q4 20 6.5 29.5t11 18t21.5 8.5q20 0 24.5 -18t-2.5 -44q-6 -24 -47 -118l-37 -87h-28z" />
<glyph unicode="&#x21a;" horiz-adv-x="1122" d="M430 0l358 1486h-464l11 43h972l-10 -43h-466l-357 -1486h-44zM387 -445q44 180 50 205q2 14 3.5 20t4.5 16t7 14t10.5 8t15.5 4q19 0 23 -18t-2 -44q-7 -25 -47 -119l-37 -86h-28z" />
<glyph unicode="&#x21b;" horiz-adv-x="638" d="M443 -10q-83 -6 -146.5 26t-91.5 93t-10 136l185 764h-191l8 42h193l94 387h43l-94 -387h259l-8 -42h-261l-180 -749q-26 -111 31.5 -173t179.5 -54zM101 -474q43 181 49 205q2 13 3 17.5t3.5 14t5 13t6.5 9t10 7t13 1.5q20 0 24.5 -18t-2.5 -44q-6 -24 -47 -118l-37 -87 h-28z" />
<glyph unicode="&#x2c6;" horiz-adv-x="513" d="M256 1290l-26 35l267 219h36l164 -228l-34 -26l-152 212z" />
<glyph unicode="&#x2c7;" horiz-adv-x="513" d="M443 1290l-164 228l35 26l150 -210l256 210l27 -34l-267 -220h-37z" />
<glyph unicode="&#x2d8;" horiz-adv-x="732" d="M566 1268q-68 0 -126 24t-102.5 69.5t-70.5 109.5l39 17q74 -177 273 -177q92 0 174.5 44t171.5 139l29 -29q-95 -107 -189 -152t-199 -45z" />
<glyph unicode="&#x2d9;" horiz-adv-x="113" d="M290 1374q-15 0 -31 14t-16 31.5t16 31.5t31 14t31.5 -14t16.5 -31.5t-16.5 -31.5t-31.5 -14z" />
<glyph unicode="&#x2da;" horiz-adv-x="439" d="M452 1245q-70 0 -118 47t-48 116q0 45 22.5 84.5t61 62.5t82.5 23t81.5 -23t59.5 -63t22 -86q0 -68 -46.5 -114.5t-116.5 -46.5zM452 1288q53 0 86.5 34.5t33.5 83.5q0 53 -34.5 91t-85.5 38q-24 0 -46.5 -10t-39.5 -27.5t-27 -41.5t-10 -50q0 -48 35 -83t88 -35z" />
<glyph unicode="&#x2db;" horiz-adv-x="1169" d="M624 -45q12 11 24 14t17 1l6 -3l8 -18l-285 -257q-20 -15 -33.5 -35t-18.5 -38.5t-2 -34.5t17.5 -26t38.5 -10h180l-10 -43h-176q-37 0 -61.5 21.5t-30.5 53.5t12 73t60 76q22 19 81.5 72.5t111.5 100t61 53.5z" />
<glyph unicode="&#x2dc;" horiz-adv-x="673" d="M677 1233q-36 -3 -65.5 9t-49.5 30t-39.5 36.5t-47 30.5t-60.5 9q-122 -8 -179 -135q-1 -1 -10.5 2.5t-18.5 7.5l-10 4q11 25 23.5 45.5t31.5 42t42 36.5t55.5 25.5t71.5 12.5q37 2 66.5 -9.5t50 -29t40 -35.5t46.5 -30t60 -10q58 4 103 43t65 90l43 -6 q-28 -75 -85.5 -120t-132.5 -49z" />
<glyph unicode="&#x2dd;" horiz-adv-x="537" d="M471 1266l269 269l30 -33l-241 -236h-58zM217 1266l269 269l31 -33l-242 -236h-58z" />
<glyph unicode="&#x1e80;" horiz-adv-x="1966" d="M1196 1639l-82 261l41 12l86 -273h-45zM398 0l-65 1527h43l69 -1469l759 1411h46l92 -1426l761 1484h47l-789 -1527h-62l-88 1398l-751 -1398h-62z" />
<glyph unicode="&#x1e81;" horiz-adv-x="1551" d="M911 1266l-80 263l39 10l87 -273h-46zM394 -21q-354 0 -218 577l121 502h45l-123 -508q-62 -285 -19 -407t202 -122q248 0 359 463l138 574h45l-138 -574q-53 -222 0.5 -342.5t186.5 -120.5q59 0 112.5 25t103.5 77.5t90.5 144.5t65.5 216l139 574h45l-139 -574 q-27 -136 -72 -236t-101.5 -157.5t-119 -84.5t-134.5 -27q-38 0 -70 9t-55.5 25t-43 37.5t-31.5 47t-21.5 53t-12 55t-4 54t3.5 50.5q-12 -42 -30.5 -84.5t-49.5 -88t-69 -79.5t-92 -56.5t-114 -22.5z" />
<glyph unicode="&#x1e82;" horiz-adv-x="1966" d="M1182 1634l269 269l31 -34l-241 -235h-59zM398 0l-65 1527h43l69 -1469l759 1411h46l92 -1426l761 1484h47l-789 -1527h-62l-88 1398l-751 -1398h-62z" />
<glyph unicode="&#x1e83;" horiz-adv-x="1551" d="M911 1270l269 269l31 -33l-241 -236h-59zM394 -21q-354 0 -218 577l121 502h45l-123 -508q-62 -285 -19 -407t202 -122q248 0 359 463l138 574h45l-138 -574q-53 -222 0.5 -342.5t186.5 -120.5q59 0 112.5 25t103.5 77.5t90.5 144.5t65.5 216l139 574h45l-139 -574 q-27 -136 -72 -236t-101.5 -157.5t-119 -84.5t-134.5 -27q-38 0 -70 9t-55.5 25t-43 37.5t-31.5 47t-21.5 53t-12 55t-4 54t3.5 50.5q-12 -42 -30.5 -84.5t-49.5 -88t-69 -79.5t-92 -56.5t-114 -22.5z" />
<glyph unicode="&#x1e84;" horiz-adv-x="1966" d="M1455.5 1718q-9.5 0 -20.5 6t-19 17t-8 22q0 17 16 31t31 14q10 0 21 -6t19.5 -17t8.5 -22t-8.5 -22t-19.5 -17t-20.5 -6zM1017.5 1718q-15.5 0 -31.5 14t-16 31q0 11 8 22t19 17t20 6q16 0 32 -14t16 -31t-16 -31t-31.5 -14zM398 0l-65 1527h43l69 -1469l759 1411h46 l92 -1426l761 1484h47l-789 -1527h-62l-88 1398l-751 -1398h-62z" />
<glyph unicode="&#x1e85;" horiz-adv-x="1551" d="M1221 1422q-15 0 -31 14t-16 31t16 31t31 14q10 0 21 -6t18.5 -17t7.5 -22q0 -17 -16 -31t-31 -14zM782.5 1422q-15.5 0 -31.5 14t-16 31t16 31t31.5 14t32 -14t16.5 -31t-16.5 -31t-32 -14zM394 -21q-354 0 -218 577l121 502h45l-123 -508q-62 -285 -19 -407t202 -122 q248 0 359 463l138 574h45l-138 -574q-53 -222 0.5 -342.5t186.5 -120.5q59 0 112.5 25t103.5 77.5t90.5 144.5t65.5 216l139 574h45l-139 -574q-27 -136 -72 -236t-101.5 -157.5t-119 -84.5t-134.5 -27q-38 0 -70 9t-55.5 25t-43 37.5t-31.5 47t-21.5 53t-12 55t-4 54 t3.5 50.5q-12 -42 -30.5 -84.5t-49.5 -88t-69 -79.5t-92 -56.5t-114 -22.5z" />
<glyph unicode="&#x1ef2;" horiz-adv-x="1237" d="M882 1650l-82 262l41 11l86 -273h-45zM495 0l148 615l-310 912h52l292 -862l695 862h50l-736 -912l-148 -615h-43z" />
<glyph unicode="&#x1ef3;" horiz-adv-x="1046" d="M772 1282l-82 262l41 11l86 -273h-45zM-66 -361l15 45q37 -13 76 -13t81.5 13.5t85.5 48t81 86.5l121 194l-172 1045h45l163 -994l637 994h51l-804 -1253q-49 -68 -100 -109.5t-100 -55.5t-91.5 -14t-88.5 13z" />
<glyph unicode="&#x2000;" horiz-adv-x="1123" />
<glyph unicode="&#x2001;" horiz-adv-x="2247" />
<glyph unicode="&#x2002;" horiz-adv-x="1123" />
<glyph unicode="&#x2003;" horiz-adv-x="2247" />
<glyph unicode="&#x2004;" horiz-adv-x="749" />
<glyph unicode="&#x2005;" horiz-adv-x="561" />
<glyph unicode="&#x2006;" horiz-adv-x="374" />
<glyph unicode="&#x2007;" horiz-adv-x="374" />
<glyph unicode="&#x2008;" horiz-adv-x="280" />
<glyph unicode="&#x2009;" horiz-adv-x="449" />
<glyph unicode="&#x200a;" horiz-adv-x="124" />
<glyph unicode="&#x2010;" horiz-adv-x="941" d="M168 521l10 43h641l-11 -43h-640z" />
<glyph unicode="&#x2011;" horiz-adv-x="941" d="M168 521l10 43h641l-11 -43h-640z" />
<glyph unicode="&#x2012;" horiz-adv-x="941" d="M168 521l10 43h641l-11 -43h-640z" />
<glyph unicode="&#x2013;" horiz-adv-x="1173" d="M200 521l11 43h809l-11 -43h-809z" />
<glyph unicode="&#x2014;" horiz-adv-x="1954" d="M297 521l11 43h1395l-10 -43h-1396z" />
<glyph unicode="&#x2018;" horiz-adv-x="343" d="M322 1056q-24 0 -14 43l19 83l81 345h44q-95 -404 -101 -428q-10 -43 -29 -43z" />
<glyph unicode="&#x2019;" horiz-adv-x="345" d="M430 1535q25 0 15 -43l-19 -84l-82 -343h-43q95 403 101 427q10 43 28 43z" />
<glyph unicode="&#x201a;" horiz-adv-x="343" d="M195 460q-94 -397 -101 -421q-6 -28 -12 -37.5t-18 -9.5q-13 0 -16 10.5t3 36.5q3 10 28 113.5t49 204t24 103.5h43z" />
<glyph unicode="&#x201c;" horiz-adv-x="616" d="M322 1056q-24 0 -14 43l19 83l81 345h44q-95 -404 -101 -428q-10 -43 -29 -43zM595 1056q-24 0 -14 43l19 83l81 345h43q-94 -404 -100 -428q-10 -43 -29 -43z" />
<glyph unicode="&#x201d;" horiz-adv-x="616" d="M701 1535q25 0 15 -43l-19 -84l-82 -343h-43q95 403 101 427q10 43 28 43zM430 1535q25 0 15 -43l-19 -84l-82 -343h-43q95 403 101 427q10 43 28 43z" />
<glyph unicode="&#x201e;" horiz-adv-x="610" d="M195 460q-94 -397 -101 -421q-6 -28 -12 -37.5t-18 -9.5q-13 0 -16 10.5t3 36.5q3 10 28 113.5t49 204t24 103.5h43zM462 460q-95 -397 -101 -421q-6 -28 -12 -37.5t-18 -9.5q-13 0 -16 10.5t3 36.5q3 10 27.5 113.5t48.5 204t25 103.5h43z" />
<glyph unicode="&#x2020;" horiz-adv-x="977" d="M484 462l154 652h-273l11 43h273l73 308h46l-73 -308h247l-11 -43h-247l-155 -652h-45z" />
<glyph unicode="&#x2022;" horiz-adv-x="560" d="M349 617q-41 0 -75 30.5t-34 72.5q0 28 16.5 54t41.5 41.5t51 15.5q39 0 71 -34t32 -77q0 -42 -32 -72.5t-71 -30.5z" />
<glyph unicode="&#x2026;" horiz-adv-x="921" d="M625.5 -6q-16.5 0 -31.5 13t-15 34q0 14 8 26t18.5 17.5t20.5 5.5q16 0 31.5 -14t15.5 -35t-15.5 -34t-32 -13zM359 -6q-16 0 -31.5 13t-15.5 34q0 14 8 26t18.5 17.5t20.5 5.5q16 0 31.5 -14t15.5 -35t-15.5 -34t-31.5 -13zM100.5 -6q-16.5 0 -31.5 13t-15 34q0 14 8 26 t18.5 17.5t20.5 5.5q16 0 31.5 -14t15.5 -35t-15.5 -34t-32 -13z" />
<glyph unicode="&#x202f;" horiz-adv-x="449" />
<glyph unicode="&#x2039;" horiz-adv-x="681" d="M363 299l-160 275l8 35l333 307l26 -34l-322 -297l148 -258z" />
<glyph unicode="&#x203a;" horiz-adv-x="681" d="M349 905l160 -275l-8 -35l-333 -307l-26 34l322 298l-148 258z" />
<glyph unicode="&#x205f;" horiz-adv-x="561" />
<glyph unicode="&#x20ac;" horiz-adv-x="1528" d="M804 -28q-92 0 -168.5 24t-131 67t-95 103t-60 132t-27 153.5t4.5 168.5h-179l26 43h159q32 163 52 210h-172l21 43h162q100 304 297.5 471t469.5 164q68 -1 125.5 -13t99 -31t77 -46.5t59 -54.5t44.5 -60l-27 -39q-28 45 -59.5 78t-77.5 62.5t-109.5 45t-143.5 15.5 q-165 0 -304 -70.5t-242 -202.5t-166 -319h868l-29 -43h-852q-7 -26 -17.5 -67t-19.5 -82.5t-11 -60.5h766l-28 -43h-744q-11 -86 -5 -163.5t23 -145t53 -122t87 -93.5t124.5 -60t164.5 -21q114 0 208.5 22t187.5 64l-11 -43q-154 -86 -400 -86z" />
<glyph unicode="&#x2190;" horiz-adv-x="1524" d="M542 119l-423 550l685 554l27 -33l-622 -504h1244l-10 -43h-1250l383 -499z" />
<glyph unicode="&#x2191;" horiz-adv-x="1321" d="M538 0l359 1492l-628 -513l-26 36l686 553l421 -557l-39 -24l-371 505l-359 -1492h-43z" />
<glyph unicode="&#x2192;" horiz-adv-x="1524" d="M825 107l-25 35l622 503h-1246l11 43h1249l-382 498l34 27l424 -550z" />
<glyph unicode="&#x2193;" horiz-adv-x="1321" d="M554 0l-421 556l39 25l372 -505l359 1492h43l-359 -1492l628 513l26 -37z" />
<glyph unicode="&#x2212;" horiz-adv-x="1262" d="M269 671l10 43h833l-11 -43h-832z" />
<glyph unicode="&#x25fc;" horiz-adv-x="1053" d="M0 1054h1054v-1054h-1054v1054z" />
<glyph unicode="&#xf6c3;" horiz-adv-x="277" d="M-58 -509q43 179 50 203q2 15 3.5 20.5l4.5 16.5t7 15t10.5 7.5t15.5 3.5q19 0 23 -18.5t-2 -44.5q-6 -22 -48 -117l-36 -86h-28z" />
<glyph horiz-adv-x="979" d="M591 776l-74 -312h-46l75 312h-260l9 43h259l72 295h-256l10 43h256l76 310h45l-76 -310h263l-11 -43h-262l-71 -295h260l-8 -43h-261z" />
<glyph horiz-adv-x="1412" d="M1122 -187l-172 251q-132 -73 -318 -77q-88 0 -165.5 25t-144 78t-105 134.5t-47.5 195.5t27 261l39 164q84 347 256.5 521.5t432.5 174.5q116 0 211.5 -42.5t162.5 -129.5t84.5 -217.5t-22.5 -306.5l-38 -164q-54 -223 -137 -369.5t-201 -225.5l174 -252zM640 30 q494 7 644 660l36 149q38 168 23 292.5t-76.5 206t-151 121t-201.5 39.5q-235 0 -396 -165t-239 -494l-36 -149q-36 -143 -30.5 -252.5t38.5 -187.5t93 -127t134 -71.5t162 -21.5z" />
<glyph horiz-adv-x="1130" d="M447 -37q-43 0 -75 9l-103 -256h-45l107 267q-59 20 -104.5 59.5t-75.5 102.5t-33.5 146.5t20.5 192.5l22 90q17 73 43.5 137t59 115.5t72 93.5t84 73t93.5 51.5t101 31t107 10.5q24 0 35 -2l103 264h47l-105 -271q79 -19 132 -72t71 -126.5t1 -154.5h-45q9 48 8.5 94 t-19 86.5t-48.5 71.5t-79 49t-111 18q-82 0 -159.5 -29.5t-145.5 -86t-121.5 -147.5t-80.5 -206l-22 -90q-28 -126 -19 -216t52.5 -148.5t105 -86t138.5 -27.5q126 0 230 58t161 141l41 -18q-160 -224 -443 -224z" />
<glyph horiz-adv-x="1309" d="M527 -322h-43l72 307h-4q-80 0 -156 25.5t-133 67t-98 94t-58 107.5l41 16q15 -52 50.5 -99t87.5 -85t124.5 -60.5t153.5 -22.5q65 0 130.5 14t130 43.5t118 71.5t94 103t57.5 134q13 53 14.5 98.5t-8 81.5t-26.5 65t-43.5 50.5t-57 37.5t-69.5 27t-78.5 18t-85.5 10 q-53 5 -103.5 17.5t-98 34t-83.5 52t-61 71t-31.5 90.5t7.5 110q46 190 192.5 291t368.5 101l69 275h43l-69 -275q74 -3 134 -20t101 -45t67.5 -55t48.5 -61l-43 -26q-82 164 -349 164q-132 0 -238 -38t-180.5 -117t-101.5 -194q-12 -55 -8.5 -99.5t26 -80t54 -61.5 t75.5 -44.5t91.5 -29.5t101.5 -17q482 -49 386 -431q-19 -79 -58.5 -144t-91 -111t-115.5 -79t-132 -50.5t-140 -22.5z" />
<glyph horiz-adv-x="753" d="M-92 -415q17 74 39.5 129t60.5 110t97 102t143 91q63 32 103.5 55.5t79 50t61.5 51.5t40.5 55.5t26.5 67.5q24 99 -20 154.5t-139 55.5q-91 0 -166.5 -56.5t-108.5 -157.5l-43 4q26 79 72.5 135.5t111.5 87t142 30.5q49 0 90.5 -17.5t69.5 -50.5t38.5 -80t-2.5 -105 q-13 -53 -40.5 -97t-75 -83t-98 -70.5t-130.5 -72.5q-59 -31 -105 -63.5t-77 -64t-53.5 -68t-36.5 -71.5t-25 -79h499l-8 -43h-546z" />
</font>
</defs>
</svg>
