<?xml version="1.0" standalone="no"?>
<!DOCTYPE svg PUBLIC "-//W3C//DTD SVG 1.1//EN" "http://www.w3.org/Graphics/SVG/1.1/DTD/svg11.dtd" >
<svg xmlns="http://www.w3.org/2000/svg" xmlns:xlink="http://www.w3.org/1999/xlink" version="1.1">
<metadata></metadata>
<defs>
<font id="klimaregular" horiz-adv-x="1403" >
<font-face units-per-em="2048" ascent="1565" descent="-483" />
<missing-glyph horiz-adv-x="439" />
<glyph unicode="&#x3c;&#x2d;&#x33;&#x35;&#x30;" horiz-adv-x="3784" d="M3086 -45q-104 0 -199.5 40.5t-165.5 109t-112 162.5t-42 197v572q0 103 42 196.5t112 160.5t165.5 106.5t199.5 39.5t199.5 -39.5t166 -106.5t112.5 -160.5t42 -196.5v-572q0 -103 -42 -197t-112 -162.5t-166 -109t-200 -40.5zM3086 271q34 0 65 13t53 34.5t35 51 t13 60.5v621q0 65 -48.5 113.5t-117.5 48.5q-45 0 -83.5 -22.5t-60.5 -59.5t-22 -80v-621q0 -65 48.5 -112t117.5 -47zM222 406q-22 0 -37 15l-259 338q-6 6 -6 21.5t6 21.5l259 335q6 11 21 17t26 1t18.5 -16.5t7.5 -22.5v-205h189q11 0 20 -13.5t9 -29.5v-180 q0 -22 -11.5 -36t-34.5 -14h-172v-195q0 -11 -7.5 -21.5t-18.5 -15.5h-10zM628 13q-85 40 -170 129q-52 62 -114 161q-11 21 7 39q186 130 211 138q28 16 45 6q7 -10 36.5 -44t40.5 -48q43 -46 86.5 -70.5t93.5 -20.5q52 7 92 40.5t46 84.5q6 56 -18 104t-70 63 q-17 7 -34.5 10.5t-47.5 7t-38 4.5q-86 11 -95 62q-8 72 7 175v5q-1 10 -0.5 15t4 12.5t10 11.5t19.5 8t33 5q120 21 164 50q37 26 49.5 77t-4.5 89q-16 43 -54.5 66.5t-91.5 23.5q-12 0 -27 -2t-31 -7t-33 -13t-30 -19q-37 -27 -88 -97q-30 -21 -56 -6q-15 12 -55 46.5 t-76 66t-45 37.5q-7 7 -9.5 18.5t2.5 18.5q12 22 39 60t81 92.5t106 83.5q90 45 220 46t234 -46q67 -32 120.5 -82t88.5 -113.5t49 -134.5q16 -106 -14 -209.5t-105 -182.5q85 -82 120 -190.5t15 -220t-91 -203.5q-54 -67 -129 -112.5t-157.5 -64.5t-170.5 -12t-165 42z M2041 -28q-121 -22 -242.5 2t-211.5 92q-97 65 -165 134q-23 32 6 60q28 29 150 168q24 24 34.5 27t32.5 -12q30 -29 86 -71q56 -41 126.5 -58.5t118.5 -10.5q38 11 66 27t44.5 36.5t25 37.5t14.5 39q6 28 6.5 57t-4 58.5t-17.5 56.5t-34 45q-25 26 -59.5 41t-70.5 18.5 t-74 -3.5q-36 -10 -67.5 -36t-83.5 -85q-10 -10 -19.5 -13t-15 -2t-17.5 6t-18 7q-9 4 -44.5 19.5t-78 33.5t-64.5 27l-13 13t-6.5 10.5t-2.5 13.5q4 14 56.5 346t66.5 426q0 2 1.5 10t2.5 10t3 8t3.5 8t5.5 6t8 5t10.5 2.5t14.5 1.5h705q33 0 33 -29v-252q-12 -29 -33 -29 h-469q-3 -18 -20.5 -134t-20.5 -135q43 31 109.5 42t143 -1.5t150 -44.5t136.5 -95t96 -145q18 -45 26 -87t9 -65.5t1 -71.5q0 -189 -101 -316q-61 -77 -150 -130t-189 -68z" />
<glyph horiz-adv-x="0" />
<glyph unicode="&#xd;" horiz-adv-x="451" />
<glyph unicode=" "  horiz-adv-x="439" />
<glyph unicode="&#x09;" horiz-adv-x="439" />
<glyph unicode="&#xa0;" horiz-adv-x="439" />
<glyph unicode="!" horiz-adv-x="569" d="M245 376l-40 568v583h160v-583l-41 -568h-79zM283.5 -17q-31.5 0 -60.5 17t-47 47t-18 64q0 53 38 90t88 37q49 0 89 -37.5t40 -89.5q0 -34 -19 -64t-49 -47t-61.5 -17z" />
<glyph unicode="&#x22;" horiz-adv-x="698" d="M131 1101q-55 329 -55 335q0 53 27.5 87t74.5 34q45 0 76.5 -35.5t31.5 -85.5l-58 -335h-97zM468 1101q-55 329 -55 335q0 53 28 87t76 34q44 0 75.5 -35.5t31.5 -85.5l-58 -335h-98z" />
<glyph unicode="#" horiz-adv-x="1321" d="M454 632h295l43 238h-295zM219 191l58 306h-219l26 135h217l50 238h-228l25 136h228l59 284h144l-52 -284h294l59 284h140l-52 -284h247l-25 -136h-248l-50 -238h259l-24 -135h-259l-64 -306h-144l56 306h-295l-56 -306h-146z" />
<glyph unicode="$" horiz-adv-x="1305" d="M331 1125q0 -98 62 -150t188 -78v488q-116 -19 -183 -85.5t-67 -174.5zM1002 433q0 65 -15 111.5t-47 77.5t-76 50t-109 32v-558q120 21 183.5 95.5t63.5 191.5zM755 -226h-174v211q-158 15 -282.5 91t-199.5 180l120 103q81 -96 167.5 -150.5t194.5 -66.5v582 q-77 9 -149 39.5t-131 79.5t-95 121.5t-36 155.5q0 174 110 287.5t301 136.5v200h174v-200q239 -28 370 -185l-121 -105q-35 46 -102 81.5t-147 47.5v-513q91 -14 163 -45t128.5 -82t86.5 -129t30 -179q0 -99 -30 -178.5t-85 -134.5t-128.5 -88.5t-164.5 -46.5v-213z" />
<glyph unicode="%" horiz-adv-x="1719" d="M471 823q-65 0 -122.5 23.5t-102 67.5t-70.5 113t-26 153q0 80 26 147t69.5 111.5t102 69.5t123.5 25q68 0 127 -24.5t102.5 -69t68.5 -111.5t25 -148q0 -169 -90.5 -263t-232.5 -94zM219 0l1078 1527h189l-1078 -1527h-189zM474 961q73 0 122 55.5t49 161.5 q0 98 -48 155.5t-123 57.5q-77 0 -125 -57t-48 -156q0 -100 47.5 -158.5t125.5 -58.5zM1235 -21q-66 0 -124.5 23.5t-103 67.5t-70.5 112.5t-26 152.5q0 79 26 146t70.5 112t103 70t124.5 25q139 0 230.5 -96t91.5 -257q0 -169 -90 -262.5t-232 -93.5zM1235 117q75 0 124 55 t49 161q0 98 -48 155.5t-125 57.5q-76 0 -123 -57t-47 -156q0 -100 46.5 -158t123.5 -58z" />
<glyph unicode="&#x26;" horiz-adv-x="1429" d="M542 927q63 23 111.5 53t79 64t46 70t15.5 72q0 56 -20.5 102t-66.5 76t-110 29q-78 -1 -135.5 -52.5t-57.5 -138.5q0 -37 9.5 -72t28 -67t32 -51.5t38 -48.5t30.5 -36zM521 148q176 0 331 194q-362 405 -364 405q-129 -48 -192.5 -131t-63.5 -179q0 -127 78.5 -208 t210.5 -81zM523 -8q-128 -1 -231.5 54t-163 156.5t-59.5 230.5q0 135 80 250.5t236 194.5q-34 42 -63 87.5t-55.5 112t-26.5 122.5q0 67 26 129t72 110.5t116 78t153 29.5q79 0 145.5 -29t110 -78.5t67.5 -115t24 -140.5q0 -120 -84 -216t-227 -155l321 -355l191 213h222 l-304 -325l295 -348h-207l-195 221q-52 -52 -95.5 -88t-99 -70t-117.5 -51.5t-131 -17.5z" />
<glyph unicode="'" horiz-adv-x="361" d="M131 1101q-55 329 -55 335q0 53 27.5 87t74.5 34q45 0 76.5 -35.5t31.5 -85.5l-58 -335h-97z" />
<glyph unicode="(" horiz-adv-x="624" d="M374 -219q-53 75 -99.5 165t-89 205t-68 254.5t-25.5 282.5q0 126 12 234.5t33 197t56.5 176t75.5 161.5t96 164l132 -90q-62 -100 -102 -183t-72 -184t-46.5 -217t-14.5 -259q0 -463 247 -817z" />
<glyph unicode=")" horiz-adv-x="624" d="M215 1617q53 -76 99.5 -166t89 -205t68 -254t25.5 -282q0 -157 -17 -284.5t-54.5 -239.5t-84 -204t-117.5 -206l-132 91q62 100 102 183t72 183.5t46.5 216.5t14.5 260q0 462 -247 817z" />
<glyph unicode="*" horiz-adv-x="749" d="M262 1020l-100 72l124 151l-189 45l38 122l179 -56l-15 187h134l-18 -184l178 53l39 -117l-187 -52l127 -142l-101 -77l-103 156z" />
<glyph unicode="+" horiz-adv-x="1307" d="M570 240v388h-377v157h377v381h161v-381h383v-157h-383v-388h-161z" />
<glyph unicode="," horiz-adv-x="537" d="M273 234q49 0 80.5 -31t31.5 -89q0 -48 -39 -142q-1 -2 -18.5 -55t-33.5 -105l-17 -52h-115v354q0 58 30.5 89t80.5 31z" />
<glyph unicode="-" horiz-adv-x="930" d="M135 542v162h661v-162h-661z" />
<glyph unicode="." horiz-adv-x="521" d="M260 -17q-32 0 -62 17.5t-48.5 48t-18.5 65.5q0 53 39.5 89.5t89.5 36.5q51 0 91.5 -36.5t40.5 -89.5t-40.5 -92t-91.5 -39z" />
<glyph unicode="/" horiz-adv-x="810" d="M69 0l497 1527h176l-508 -1527h-165z" />
<glyph unicode="0" horiz-adv-x="1328" d="M667 -17q-121 0 -217.5 44t-167.5 131.5t-109.5 228t-39.5 325.5q-3 11 -3 50.5t3 52.5q1 148 26 268t71 206t111.5 144t147 86t178.5 28q121 0 218.5 -46t167.5 -136t108 -229.5t39 -320.5v-103q-1 -359 -142 -544t-391 -185zM669 140q369 0 369 582v84q-3 583 -371 583 q-371 0 -374 -583v-84q2 -296 95.5 -439t280.5 -143z" />
<glyph unicode="1" horiz-adv-x="732" d="M378 0v1325l-292 -67l-26 135l346 134h134v-1527h-162z" />
<glyph unicode="2" horiz-adv-x="1225" d="M133 0q0 56 1.5 97.5t6.5 91t14 88t24.5 83.5t37.5 82t53.5 79t72 80t93 79t116.5 81q83 52 135 89t95.5 74.5t66 71t34.5 70t12 81.5q0 105 -83 176.5t-219 69.5q-60 0 -113.5 -22.5t-92 -59t-64 -84t-35.5 -100.5l-159 28q16 79 55 149.5t97.5 126t139.5 88t172 32.5 q106 0 193.5 -31.5t145.5 -85.5t90.5 -126.5t33.5 -154.5q2 -79 -20 -145t-71 -124.5t-110.5 -107.5t-155.5 -109q-51 -33 -82.5 -54t-72 -49t-63.5 -48t-51.5 -47.5t-44 -51t-32.5 -53t-25 -60.5t-13 -68t-5 -78h776v-158h-953z" />
<glyph unicode="3" horiz-adv-x="1201" d="M564 -10q-69 0 -139.5 23t-136.5 65.5t-122.5 111.5t-89.5 154q0 -1 37.5 13t74.5 29l38 14q15 -46 47 -90.5t75 -81.5t101 -59.5t119 -22.5q158 0 238 76.5t80 218.5q0 70 -20 120t-62 82t-100.5 49.5t-141.5 23.5q-34 4 -72 4v150q27 0 69 6q51 6 93.5 18t79 33.5 t62 50.5t39.5 69.5t14 89.5q0 79 -32.5 136.5t-98 88.5t-160.5 31q-222 0 -300 -225l-147 47q11 44 34 88.5t61.5 89.5t88 79.5t118 56.5t145.5 22q131 0 235 -51.5t162 -143.5t58 -207q0 -52 -10.5 -98t-28.5 -80.5t-40.5 -62.5t-47.5 -47.5t-48 -31t-44 -16.5 q28 -7 59 -21.5t67.5 -45t65 -70.5t47.5 -102t18 -135q-2 -207 -130.5 -330t-354.5 -119z" />
<glyph unicode="4" horiz-adv-x="1221" d="M768 0v353h-704v156l658 1016h207v-1022h179v-157h-179v-346h-161zM248 509h520v805z" />
<glyph unicode="5" horiz-adv-x="1214" d="M600 -24q-87 0 -163 24t-129.5 62t-97 89.5t-70 101.5t-43.5 104l155 47q15 -49 42 -94.5t67.5 -86.5t101 -65.5t130.5 -24.5q151 0 241.5 94.5t90.5 258.5t-88.5 252.5t-241.5 88.5q-41 0 -80 -8.5t-71.5 -25t-59.5 -39.5t-46.5 -51t-29.5 -60l-170 20l20 864h846v-157 h-692l-13 -490l5.5 5t17.5 14.5t28.5 20.5t42 22.5t55 21t70 15.5t84.5 6q84 0 158 -22t133 -64.5t102 -102.5t66.5 -139t24 -170.5t-23 -172t-67 -142t-103.5 -106t-134.5 -67.5t-157.5 -23z" />
<glyph unicode="6" horiz-adv-x="1225" d="M607 -2q-101 0 -190.5 37t-155.5 101.5t-104 158t-38 202.5q0 97 24 179.5t68 166.5q48 90 155.5 266.5t192.5 307.5l84 132h192l-412 -607q16 20 70 36.5t141 16.5q93 0 179.5 -37t151.5 -102t104 -160t39 -204q0 -100 -33.5 -189t-95.5 -157t-158.5 -108t-213.5 -40z M604 154q162 0 252 88.5t90 247.5q0 166 -87.5 257.5t-243.5 91.5q-153 0 -245.5 -93t-92.5 -251q0 -153 90 -247t237 -94z" />
<glyph unicode="7" horiz-adv-x="1120" d="M200 0l643 1368h-779v157h960v-142l-641 -1383h-183z" />
<glyph unicode="8" horiz-adv-x="1274" d="M638 -17q-224 0 -360.5 117.5t-137.5 307.5q-1 76 18 140t45.5 103t65.5 72t67 48t62 29q-207 120 -205 357q2 174 121 282t318 108q78 0 148 -20.5t123 -57t91.5 -84.5t58.5 -106t20 -120q0 -75 -23.5 -140.5t-60.5 -109t-77.5 -71t-80.5 -38.5q28 -9 49 -16t55 -23.5 t59 -35t53.5 -49t46.5 -66t29.5 -86t11.5 -109.5q-1 -74 -22.5 -140t-63.5 -119.5t-101.5 -92t-138.5 -59.5t-171 -21zM626 868q71 11 127 39.5t90 68.5t51 85.5t17 93.5q0 67 -34.5 120.5t-98.5 83.5t-146 30q-130 0 -203.5 -61t-73.5 -167q0 -50 16 -96t47.5 -86t84.5 -69 t123 -42zM643 140q156 0 243.5 75.5t87.5 205.5q0 44 -13 82t-31 64t-51 49.5t-58.5 37t-69 27.5t-68 20t-68.5 17q-21 4 -30 6q-72 -20 -124.5 -49.5t-82.5 -60t-47.5 -67.5t-22.5 -68t-5 -66q2 -123 87.5 -198t252.5 -75z" />
<glyph unicode="9" horiz-adv-x="1225" d="M583 0h-191l410 607q-16 -20 -70 -37.5t-141 -17.5q-93 0 -179 37.5t-151 103t-103.5 160.5t-38.5 203q0 100 33.5 189t95.5 157.5t158 108.5t214 40q108 0 199 -36t154.5 -100.5t99 -156.5t35.5 -202q0 -58 -12 -124.5t-32.5 -128.5t-46.5 -111q-47 -90 -156 -263 t-193 -301zM611 710q153 0 245 92.5t92 251.5q0 152 -93 245.5t-240 93.5q-80 0 -143 -23t-105.5 -66.5t-65 -106.5t-22.5 -143q0 -165 88 -254.5t244 -89.5z" />
<glyph unicode=":" horiz-adv-x="567" d="M284 759q-51 0 -90.5 39.5t-39.5 91.5q0 54 39.5 92t90.5 38q49 0 89 -38t40 -92q0 -34 -19 -65t-49 -48.5t-61 -17.5zM284 21q-51 0 -90.5 39t-39.5 92q0 54 39.5 91.5t90.5 37.5q49 0 89 -37.5t40 -91.5q0 -34 -19 -65t-49 -48.5t-61 -17.5z" />
<glyph unicode=";" horiz-adv-x="521" d="M260 763q-32 0 -62 17.5t-48.5 48t-18.5 66.5q0 52 39.5 89.5t89.5 37.5q51 0 91.5 -37.5t40.5 -89.5q0 -54 -40.5 -93t-91.5 -39zM262 256q49 0 80.5 -31.5t31.5 -89.5q0 -47 -39 -141q-2 -2 -19 -55.5t-33 -105.5l-16 -52h-117v354q0 58 31.5 89.5t80.5 31.5z" />
<glyph unicode="&#x3c;" horiz-adv-x="1149" d="M979 90l-885 454v135l885 456v-178l-682 -346l682 -334v-187z" />
<glyph unicode="=" horiz-adv-x="1588" d="M269 905v158h1051v-158h-1051zM269 408v158h1051v-158h-1051z" />
<glyph unicode="&#x3e;" horiz-adv-x="1149" d="M158 1114l883 -454v-135l-883 -456v179l681 345l-681 334v187z" />
<glyph unicode="?" horiz-adv-x="1120" d="M426 398q0 93 19.5 171.5t54.5 136.5t73.5 100t86.5 78q57 42 87.5 67.5t56.5 57t35.5 63t9.5 72.5q0 112 -75 180.5t-210 68.5q-52 0 -103 -17t-95.5 -49.5t-75.5 -85t-40 -116.5l-158 19q10 80 47 152.5t96 129.5t145 91t186 34q106 0 192.5 -34t141 -91.5t83.5 -130 t30 -154.5q1 -37 -5 -70.5t-14 -59t-26 -52.5t-31 -44t-40 -42t-42 -37t-48 -38.5t-48 -38.5q-94 -75 -133 -154t-39 -207h-161zM513.5 -17q-49.5 0 -88 38t-38.5 90.5t38.5 89.5t88 37t88 -37t38.5 -89.5t-38.5 -90.5t-88 -38z" />
<glyph unicode="@" horiz-adv-x="2056" d="M1092 -234q-149 0 -285.5 39.5t-247.5 114t-193.5 177t-127.5 235t-45 279.5q0 118 30 231t84 208.5t131 176.5t168.5 137.5t200.5 88t223 31.5q173 0 327.5 -63.5t266 -174t176.5 -266.5t65 -333q0 -111 -19.5 -203.5t-53 -157t-79.5 -110t-98.5 -67t-110.5 -21.5 q-18 0 -40 4t-50 12.5t-56 24t-54 36.5t-48 53t-35 70q-4 -33 -64.5 -63t-120.5 -32q-120 -3 -211 53.5t-136 153.5t-42 217q2 119 46 210t129 143t200 50q45 -2 85 -17.5t65.5 -37.5t40.5 -46.5t17 -45.5l5 101l128 -6l-13 -492q-9 -126 33.5 -188t122.5 -60q28 1 54 11.5 t53 39.5t46.5 74t31.5 119.5t12 170.5q0 149 -51.5 279t-141 220t-213.5 140t-265 47q-136 -3 -260.5 -59t-216 -149.5t-146 -225.5t-54.5 -280q0 -109 29 -210.5t89.5 -190t146.5 -154t207.5 -103t264.5 -37.5l74 4q1 -9 3 -23.5t5.5 -46.5t6 -52.5t1.5 -20.5 q-5 -15 -90 -15zM1024 342q80 5 124.5 65.5t47.5 192t-43 200.5t-138 70q-63 2 -111.5 -33t-74 -95t-27.5 -135q-3 -121 60 -194.5t162 -70.5z" />
<glyph unicode="A" d="M426 525h550l-275 755zM64 0l556 1527h162l558 -1527h-172l-134 368h-664l-134 -368h-172z" />
<glyph unicode="B" horiz-adv-x="1328" d="M154 0v1527h543q88 0 167 -28t140 -78t97 -126.5t36 -167.5q0 -60 -13.5 -111t-34 -85.5t-48.5 -62.5t-54 -44.5t-54 -27.5q35 -7 71.5 -24.5t73.5 -49t66 -72t47 -98.5t18 -123.5t-20 -127.5t-61.5 -116.5t-101 -95.5t-144.5 -65t-185 -24h-543zM324 866h373 q128 0 202.5 75t74.5 184q0 33 -8.5 66t-29.5 66t-52 57.5t-80 40t-109 15.5h-371v-504zM324 158h373q174 0 260 74t86 207q0 123 -94.5 197t-253.5 74h-371v-552z" />
<glyph unicode="C" horiz-adv-x="1399" d="M727 -21q-103 0 -193.5 25.5t-168.5 79.5t-134 133.5t-88 194.5t-32 255v178q0 144 30.5 261t85 199t132 137t169.5 81t199 26q99 0 182 -22.5t147 -65.5t111 -105.5t76.5 -141.5t42.5 -176h-164q-16 114 -61 190.5t-129 118.5t-205 42q-216 0 -334 -131.5t-118 -410.5 v-180q0 -109 21.5 -197t60.5 -149.5t95.5 -103t124.5 -60.5t150 -19q182 0 278.5 96.5t119.5 272.5h163q-28 -251 -171 -389.5t-390 -138.5z" />
<glyph unicode="D" horiz-adv-x="1369" d="M154 0v1527h523q119 0 224 -46t185 -130t126 -214t46 -288v-178q0 -163 -44.5 -292t-123 -211t-183.5 -125t-230 -43h-523zM316 158h361q200 0 309.5 133t109.5 380v178q0 121 -31.5 219.5t-87 164.5t-132.5 101.5t-168 35.5h-361v-1212z" />
<glyph unicode="E" horiz-adv-x="1260" d="M164 0v1527h940v-157h-780v-516h633v-157h-633v-539h805v-158h-965z" />
<glyph unicode="F" horiz-adv-x="1221" d="M164 0v1527h942v-157h-782v-521h635v-157h-635v-692h-160z" />
<glyph unicode="G" horiz-adv-x="1410" d="M708 -24q-100 0 -187 25.5t-161.5 80t-127.5 135t-83 196t-30 256.5v183q0 168 45.5 302t125.5 219.5t186.5 130.5t231.5 45q122 0 223 -36.5t170.5 -101.5t113 -150t58.5 -186h-159q-8 44 -25.5 85.5t-50 84.5t-76 74.5t-109.5 51.5t-145 20q-94 0 -172 -34 t-135.5 -99.5t-89.5 -169t-32 -234.5v-187q0 -265 113.5 -399.5t315.5 -134.5q204 0 314.5 132.5t110.5 386.5h-406v161h566v-136q1 -144 -27 -261.5t-80 -198.5t-126 -136t-162 -80t-190 -25z" />
<glyph unicode="H" horiz-adv-x="1408" d="M174 0v1527h161v-682h738v682h162v-1527h-162v688h-738v-688h-161z" />
<glyph unicode="I" horiz-adv-x="487" d="M164 0v1527h160v-1527h-160z" />
<glyph unicode="J" horiz-adv-x="1126" d="M435 -24q-74 0 -152.5 23.5t-158 78.5t-130.5 133l129 92q50 -78 141.5 -124t172.5 -46q169 0 262 113t93 343v938h160v-936q0 -120 -24 -219.5t-69 -172.5t-108.5 -123.5t-143 -75t-172.5 -24.5z" />
<glyph unicode="K" horiz-adv-x="1344" d="M164 0v1527h160v-811l736 811h218l-611 -673l636 -854h-202l-545 733l-232 -259v-474h-160z" />
<glyph unicode="L" horiz-adv-x="1160" d="M168 0v1527h161v-1369h759v-158h-920z" />
<glyph unicode="M" horiz-adv-x="1654" d="M164 0v1527h219l440 -1157l450 1157h219v-1527h-161v1227l-428 -1089h-163l-416 1085v-1223h-160z" />
<glyph unicode="N" horiz-adv-x="1479" d="M164 0v1527h199l792 -1279v1279h161v-1527h-198l-794 1284v-1284h-160z" />
<glyph unicode="O" horiz-adv-x="1399" d="M699 -17q-126 0 -230.5 42.5t-183.5 126t-122.5 216t-43.5 303.5v183q0 132 27 243t77.5 194t121.5 140.5t160.5 86.5t193.5 29q131 0 238.5 -47t184 -134.5t118.5 -218.5t42 -293v-183q0 -165 -43 -296.5t-120.5 -216.5t-184 -130t-235.5 -45zM699 140q201 0 311 136.5 t110 394.5v183q0 257 -110.5 396t-310.5 139q-201 0 -310.5 -137.5t-109.5 -397.5v-183q0 -259 109.5 -395t310.5 -136z" />
<glyph unicode="P" horiz-adv-x="1291" d="M164 0v1527h513q113 0 208.5 -35t161.5 -95.5t102.5 -144t36.5 -179.5q0 -94 -37.5 -176t-104 -140t-161.5 -91.5t-206 -33.5h-353v-632h-160zM324 1370v-580h349q98 0 177 33t126.5 98t47.5 152q0 138 -98 217.5t-253 79.5h-349z" />
<glyph unicode="Q" d="M1133 -142l-142 198q-123 -73 -292 -73q-126 0 -230.5 42.5t-183.5 126t-122.5 216t-43.5 303.5v183q0 132 27 243t77.5 194t121.5 140.5t160.5 86.5t193.5 29q131 0 238.5 -47t184 -134.5t118.5 -218.5t42 -293v-183q0 -328 -164 -513l146 -205zM699 140q114 0 200 45 l-152 213l131 97l144 -202q98 136 98 378v183q0 257 -110.5 396t-310.5 139q-201 0 -310.5 -137.5t-109.5 -397.5v-183q0 -259 109.5 -395t310.5 -136z" />
<glyph unicode="R" horiz-adv-x="1321" d="M324 798h355q166 0 257.5 71.5t91.5 205.5q0 90 -45.5 157.5t-124.5 102.5t-179 35h-355v-572zM164 0v1527h517q112 0 207.5 -35t161 -95t103 -142.5t37.5 -177.5q0 -86 -27.5 -159t-71.5 -121.5t-93.5 -79.5t-100.5 -44l314 -673h-179l-299 640h-409v-640h-160z" />
<glyph unicode="S" horiz-adv-x="1305" d="M654 -19q-94 0 -182.5 23.5t-157.5 63t-123 87t-92 101.5l120 103q93 -111 195.5 -166t239.5 -55q168 0 258 77.5t90 217.5q0 48 -9 86t-24 66.5t-43 49.5t-58 35.5t-77 25t-92.5 16.5t-111.5 12q-62 6 -121.5 26t-113 55t-94 80t-64.5 106t-24 129q0 195 135 312 t362 117q151 0 267.5 -50.5t190.5 -139.5l-121 -105q-43 58 -137 97.5t-198 39.5q-101 0 -176.5 -30t-118.5 -90.5t-43 -145.5q0 -51 17.5 -89t48 -64t80 -45t104.5 -30t131 -19q79 -9 145.5 -28.5t124 -55t97 -84.5t62 -119t22.5 -156q0 -112 -38.5 -199.5t-107.5 -142.5 t-161 -83.5t-202 -28.5z" />
<glyph unicode="T" horiz-adv-x="1242" d="M540 0v1370h-450v157h1063v-157h-449v-1370h-164z" />
<glyph unicode="U" horiz-adv-x="1287" d="M645 -24q-168 0 -286.5 72.5t-181.5 218.5t-63 357v903h161v-907q0 -251 93.5 -369t276.5 -118q185 0 276.5 119t91.5 368v907h161v-903q0 -312 -135 -480t-394 -168z" />
<glyph unicode="V" horiz-adv-x="1328" d="M583 0l-534 1527h173l443 -1271l443 1271h172l-533 -1527h-164z" />
<glyph unicode="W" horiz-adv-x="1945" d="M468 0l-419 1527h168l347 -1246l361 1106h113l355 -1118l336 1258h167l-408 -1527h-179l-328 1043l-334 -1043h-179z" />
<glyph unicode="X" horiz-adv-x="1315" d="M62 0l490 759l-472 768h189l387 -626l407 626h193l-499 -766l464 -761h-189l-378 617l-400 -617h-192z" />
<glyph unicode="Y" horiz-adv-x="1293" d="M566 0v611l-512 916h184l409 -731l407 731h185l-512 -916v-611h-161z" />
<glyph unicode="Z" horiz-adv-x="1184" d="M69 0v158l830 1212h-807v157h1020v-132l-847 -1237h849v-158h-1045z" />
<glyph unicode="[" horiz-adv-x="741" d="M164 -123v1736h481v-158h-321v-1420h321v-158h-481z" />
<glyph unicode="\" horiz-adv-x="810" d="M576 0l-507 1527h176l497 -1527h-166z" />
<glyph unicode="]" horiz-adv-x="741" d="M579 1611v-1736h-482v158h320v1420h-320v158h482z" />
<glyph unicode="^" horiz-adv-x="936" d="M86 1243l349 290h92l325 -300l-110 -104l-262 236l-297 -234z" />
<glyph unicode="_" horiz-adv-x="1122" d="M-6 -152v152h1133v-152h-1133z" />
<glyph unicode="`" horiz-adv-x="788" d="M148 1225l-275 263l164 135l271 -398h-160z" />
<glyph unicode="a" horiz-adv-x="1110" d="M497 140q62 0 122.5 22.5t102 56.5t67.5 73.5t26 72.5v103q-49 20 -115 26t-167 3q-139 -5 -199.5 -51.5t-60.5 -137.5q0 -82 55.5 -125t168.5 -43zM460 -17q-96 0 -176.5 41t-126.5 110.5t-46 151.5v45q0 74 32.5 134.5t89 100.5t133 61.5t165.5 21.5q106 0 168.5 -9.5 t115.5 -28.5v122q0 87 -59.5 138.5t-187.5 51.5q-192 0 -318 -96l-86 134q171 118 408 118q191 0 297.5 -96t106.5 -282v-701h-161v146q-24 -62 -120 -112.5t-235 -50.5z" />
<glyph unicode="b" horiz-adv-x="1184" d="M164 0v1527h165v-632q20 80 109 133.5t192 53.5q93 0 171.5 -31t138.5 -90t93.5 -153.5t33.5 -214.5v-125q0 -98 -24.5 -180t-66 -138t-98 -94.5t-119 -56.5t-129.5 -18q-99 0 -184 47.5t-119 125.5v-154h-163zM615 138q55 0 105 18.5t92.5 56t67.5 103t25 150.5v127 q0 162 -77.5 247t-212.5 85q-127 0 -209 -92.5t-82 -239.5v-127q0 -79 25 -143t67 -103.5t93 -60.5t106 -21z" />
<glyph unicode="c" horiz-adv-x="1122" d="M595 -30q-97 0 -181.5 32.5t-148 94t-100 157.5t-36.5 214v121q0 111 37 205t100.5 157t149 98t181.5 35q101 0 182 -28t142.5 -89t95.5 -152l-151 -60q-18 60 -61 99.5t-95 56t-115 16.5q-66 0 -122.5 -24t-97 -67.5t-63 -106t-22.5 -136.5v-129q0 -161 83.5 -249 t221.5 -88q202 0 275 148l152 -58q-61 -123 -170.5 -185t-256.5 -62z" />
<glyph unicode="d" horiz-adv-x="1186" d="M572 138q55 0 105.5 21t92.5 60.5t67 103.5t25 143v127q0 58 -13.5 109.5t-39.5 92t-61 70t-80 45t-96 15.5q-142 0 -217.5 -88.5t-75.5 -243.5v-127q0 -79 23.5 -142.5t63.5 -103.5t93 -61t113 -21zM556 -19q-66 0 -129.5 20t-119 61t-97.5 98t-66.5 136.5t-24.5 171.5 v125q0 91 22 169.5t61.5 136.5t94 99.5t120.5 62.5t139 21q104 0 191.5 -53.5t110.5 -133.5v632h166v-1527h-164v154q-23 -52 -71 -92t-108.5 -60.5t-124.5 -20.5z" />
<glyph unicode="e" horiz-adv-x="1160" d="M604 -26q-98 0 -184.5 32.5t-154 93.5t-107 158t-39.5 218v103q0 103 24 187.5t66 142.5t101 98t128 58.5t147 18.5q99 0 180.5 -30t144.5 -90t98 -159.5t35 -230.5v-116h-762q1 -84 28 -148t73.5 -102t103.5 -57.5t123 -19.5q199 0 298 129l125 -100 q-53 -68 -118 -109.5t-139.5 -59t-170.5 -17.5zM281 613h597q0 161 -77.5 237.5t-213.5 76.5q-139 0 -221 -78t-85 -236z" />
<glyph unicode="f" horiz-adv-x="794" d="M258 0v909h-166v158h166v82q0 63 13 121t41 109.5t69 89.5t100.5 60t131.5 22h95v-160q-154 7 -221.5 -48.5t-67.5 -201.5v-74h285v-158h-285v-909h-161z" />
<glyph unicode="g" horiz-adv-x="1182" d="M574 140q127 0 206.5 91.5t79.5 248.5v107q0 171 -77 255.5t-209 84.5q-137 0 -216 -93t-79 -268v-65q0 -179 78.5 -270t216.5 -91zM566 -476q-130 0 -243 52t-177 145q0 1 59 52t60 53q49 -67 127.5 -105.5t171.5 -38.5q150 0 223 83t73 276v111q-17 -40 -50.5 -73 t-74.5 -53.5t-86.5 -31.5t-89.5 -11q-92 0 -172.5 35t-140 98t-93.5 157.5t-34 208.5v103q0 111 34.5 205.5t94 158t140 99.5t171.5 36q105 0 184.5 -38.5t114.5 -112.5v125h164v-1017q0 -135 -34 -235.5t-95.5 -161t-143 -90.5t-183.5 -30z" />
<glyph unicode="h" horiz-adv-x="1188" d="M164 0v1527h160v-606q29 67 123.5 116t186.5 49q206 0 313 -126.5t107 -378.5v-581h-162v581q0 103 -15 170.5t-49 107t-82 55t-120 15.5q-133 0 -217.5 -98t-84.5 -250v-581h-160z" />
<glyph unicode="i" horiz-adv-x="487" d="M164 1299v228h160v-228h-160zM164 0v1058h160v-1058h-160z" />
<glyph unicode="j" horiz-adv-x="530" d="M207 1318v209h161v-209h-161zM-21 -430v157q98 -10 163 60.5t65 208.5v1062h161v-1062q0 -90 -22.5 -164t-60.5 -124t-88.5 -83.5t-105.5 -47t-112 -7.5z" />
<glyph unicode="k" horiz-adv-x="1081" d="M164 0v1527h160v-955l480 486h226l-454 -461l478 -597h-207l-385 482l-138 -138v-344h-160z" />
<glyph unicode="l" horiz-adv-x="487" d="M164 0v1527h160v-1527h-160z" />
<glyph unicode="m" horiz-adv-x="1808" d="M162 0v1058h158v-133q17 41 56 77t100.5 60t130.5 24q51 0 100.5 -12.5t94.5 -37t79 -66t48 -94.5q46 99 141 154.5t212 55.5q96 0 171 -35.5t121.5 -98t70 -145.5t23.5 -181v-626h-160v604q0 166 -55.5 245.5t-179.5 79.5q-130 0 -204 -86.5t-74 -238.5v-604h-160v602 q4 167 -54.5 247t-180.5 80q-92 0 -154.5 -39.5t-93 -112t-30.5 -175.5v-602h-160z" />
<glyph unicode="n" horiz-adv-x="1182" d="M176 0v1058h159v-133q41 76 125.5 119.5t186.5 43.5q85 0 158 -32.5t126.5 -93t83.5 -152.5t30 -206v-604h-161v602q0 166 -65 247.5t-204 81.5q-131 0 -204 -87.5t-73 -241.5v-602h-162z" />
<glyph unicode="o" horiz-adv-x="1171" d="M583 -19q-69 0 -134 18.5t-123.5 58.5t-102 97.5t-69 140.5t-25.5 182v105q0 116 35.5 211.5t97 157.5t144 96t177.5 34q75 0 144 -22.5t126.5 -66t100 -103t66 -138.5t23.5 -169v-105q0 -71 -14 -134t-38.5 -112.5t-58.5 -91t-74.5 -70.5t-86 -49.5t-93 -30t-95.5 -9.5z M583 138q39 0 77.5 9.5t79.5 34.5t72 62t50.5 97t19.5 135v107q0 103 -39.5 181.5t-107 119.5t-152.5 41q-89 0 -154.5 -40t-102 -117.5t-36.5 -184.5v-107q0 -73 17.5 -132t46.5 -96.5t67.5 -63t78.5 -36t83 -10.5z" />
<glyph unicode="p" horiz-adv-x="1173" d="M615 138q133 0 211.5 85.5t78.5 247.5v126q0 85 -25 150.5t-67.5 103.5t-92.5 57t-105 19q-56 0 -106.5 -19t-92.5 -56.5t-67 -103t-25 -151.5v-126q0 -156 80.5 -244.5t210.5 -88.5zM324 150v-610h-160v1518h158v-131q32 52 84 88.5t107.5 52.5t112.5 16q67 0 130 -18.5 t120 -57.5t99 -95.5t67 -138t25 -179.5v-121q0 -121 -34.5 -216.5t-95.5 -155t-140 -90.5t-171 -31q-60 0 -119.5 19t-110 58.5t-72.5 91.5z" />
<glyph unicode="q" horiz-adv-x="1171" d="M546 -19q-93 0 -172 32t-139 93t-94 155.5t-34 212.5v121q0 96 24.5 177t66.5 137.5t98.5 96.5t119.5 59t130 19q88 0 171 -39.5t132 -117.5v131h160v-1518h-162v610q-22 -52 -72.5 -91.5t-109.5 -58.5t-119 -19zM559 138q129 0 208.5 88.5t79.5 244.5v126 q0 86 -24.5 151t-66 103t-91.5 57t-106 19q-58 0 -108.5 -18.5t-92 -56.5t-65.5 -103t-24 -152v-126q0 -85 20.5 -149.5t59 -104.5t91 -59.5t119.5 -19.5z" />
<glyph unicode="r" horiz-adv-x="810" d="M164 0v1058h160v-144q13 37 46.5 69.5t75.5 52.5t86 31.5t81 11.5q41 0 66 -1.5t55 -9t56 -21.5l-55 -146q-40 22 -126 22q-131 0 -208 -96.5t-77 -252.5v-574h-160z" />
<glyph unicode="s" horiz-adv-x="1046" d="M540 -26q-54 0 -87.5 1.5t-87 10.5t-95.5 25.5t-95 49t-104 79.5l105 118q131 -127 353 -127q120 0 184.5 43.5t64.5 126.5q0 40 -9 66.5t-28 45t-56 29.5t-86 16.5t-125 7.5q-99 3 -177.5 38t-127 103.5t-48.5 160.5q0 316 423 316q126 0 221.5 -37t155.5 -101 l-106 -121q-4 4 -11.5 11t-33 24.5t-54.5 31t-75 24.5t-95 11q-129 2 -197 -36.5t-68 -110.5q0 -81 74 -116.5t242 -41.5q341 -10 341 -321q0 -153 -101.5 -240t-296.5 -87z" />
<glyph unicode="t" horiz-adv-x="718" d="M243 306v599h-167v155h167v358h161v-358h224v-155h-224v-604q0 -153 224 -153v-156h-62q-44 0 -89 12t-87 37.5t-75 62t-52.5 89t-19.5 113.5z" />
<glyph unicode="u" horiz-adv-x="1139" d="M536 -24q-88 0 -162 30.5t-128.5 88t-85.5 147t-31 201.5v615h161v-615q0 -310 260 -310q62 0 111.5 20.5t84 59.5t53 97.5t18.5 132.5v615h162v-1058h-162v140q-19 -49 -66.5 -87.5t-104.5 -57.5t-110 -19z" />
<glyph unicode="v" horiz-adv-x="1100" d="M466 0l-397 1058h174l305 -820l310 820h174l-404 -1058h-162z" />
<glyph unicode="w" horiz-adv-x="1562" d="M419 0l-343 1058h169l250 -770l221 770h129l239 -768l234 768h170l-325 -1058h-157l-218 699l-216 -699h-153z" />
<glyph unicode="x" horiz-adv-x="1075" d="M76 0l365 536l-355 522h195l255 -379l266 379h198l-370 -522l361 -536h-193l-262 387l-265 -387h-195z" />
<glyph unicode="y" horiz-adv-x="1126" d="M127 -394l47 151q110 -36 166 -10.5t95 126.5q1 3 23 63t22 62l-404 1060h174l312 -834l318 834h171l-483 -1267q-21 -56 -51.5 -98t-66 -65.5t-75 -36.5t-82 -13t-83.5 7t-83 21z" />
<glyph unicode="z" horiz-adv-x="1001" d="M86 0v131l583 770h-572v157h804v-118l-593 -782h608v-158h-830z" />
<glyph unicode="{" horiz-adv-x="808" d="M658 -138q-44 0 -58 3q-57 7 -109.5 32t-94.5 64.5t-67.5 98.5t-25.5 127v312q0 98 -56 137t-176 39v150q116 0 174 47t58 156v297q0 143 82.5 231t221.5 96q12 2 51 2v-160q-69 0 -113 -21t-62.5 -59t-18.5 -94v-292q0 -84 -15 -140.5t-39.5 -85.5t-63.5 -45 q118 -49 118 -256v-308q0 -42 16 -74.5t38.5 -50t51.5 -29t50 -15t38 -3.5v-159z" />
<glyph unicode="|" horiz-adv-x="601" d="M215 -286v2026h172v-2026h-172z" />
<glyph unicode="}" horiz-adv-x="823" d="M166 1656q43 0 58 -2q56 -7 108.5 -32t95 -65t68 -98.5t25.5 -127.5v-311q0 -98 56 -137.5t176 -39.5v-151q-116 0 -174 -46.5t-58 -155.5v-297q0 -143 -82.5 -230.5t-221.5 -95.5q-12 -2 -51 -2v159q103 0 148 44t45 129v293q0 85 15.5 141.5t40.5 85t63 44.5 q-119 49 -119 256v308q0 35 -11 64t-29 46.5t-38.5 30.5t-43.5 19t-40 8.5t-31 2.5v160z" />
<glyph unicode="~" horiz-adv-x="1283" d="M129 712q7 34 32 72t65 73t101 58t129 23q50 0 95 -10t76.5 -24.5t62.5 -31.5t53.5 -31.5t49 -24.5t50.5 -10q66 0 108.5 36.5t46.5 78.5l157 -33q-11 -46 -36.5 -87t-66 -76t-102 -55.5t-135.5 -20.5q-54 0 -101.5 13.5t-82 33.5t-66.5 39.5t-66 33t-69 13.5 q-31 0 -59 -11.5t-46 -30t-29 -37t-17 -36.5z" />
<glyph unicode="&#xa1;" horiz-adv-x="569" d="M271 1295q49 0 88 -38.5t39 -91t-39 -90t-88 -37.5q-50 0 -89.5 37.5t-39.5 90t40 91t89 38.5zM310 901l41 -568v-583h-162v583l41 568h80z" />
<glyph unicode="&#xa2;" horiz-adv-x="1122" d="M290 464q0 -102 36 -176.5t100 -115.5l140 753q-124 -9 -200 -100t-76 -232v-129zM595 -30q-26 0 -39 2l-35 -196h-168l43 232q-123 54 -195 172t-72 288v121q0 111 37 205t100 156.5t147.5 98t179.5 35.5l41 219h179l-48 -243q184 -57 252 -245l-151 -60 q-34 103 -131 146l-148 -774h8q202 0 275 148l152 -58q-61 -123 -170.5 -185t-256.5 -62z" />
<glyph unicode="&#xa3;" horiz-adv-x="1303" d="M195 -56l-107 136q6 4 15 11.5t36 33t51.5 53t54 69.5t51 85.5t36 99t14.5 110.5q0 20 -2 40.5t-5.5 37t-9 35t-10 30t-11.5 27.5t-10 22t-9.5 18.5t-7.5 12.5h-215v166h147q-45 92 -45 249q0 73 34 142.5t93.5 123.5t148.5 87t192 33q54 0 114 -13t117.5 -36.5 t98.5 -53.5v-179q-65 54 -153 85.5t-177 30.5q-138 0 -217 -66t-79 -162q0 -57 10.5 -107t19.5 -72t24 -54q3 -5 4 -8h363v-166h-295q3 -2 16 -35.5t27 -88.5t14 -95q0 -54 -12 -108.5t-44 -114.5t-82 -101q37 21 83 21q50 0 91.5 -8.5t68 -20.5t51.5 -26t43 -26t42 -20.5 t49 -8.5q59 0 96 30t48 69l129 -90q-28 -69 -101.5 -124t-167.5 -55q-43 0 -80.5 9t-63 22t-53.5 28.5t-52.5 28.5t-60 22t-74.5 9q-56 0 -124 -44.5t-114 -93.5z" />
<glyph unicode="&#xa5;" horiz-adv-x="1293" d="M1106 267h-379v-267h-161v267h-396v159h396v181h-396v158h310l-426 762h184l409 -731l407 731h185l-426 -762h293v-158h-379v-181h379v-159z" />
<glyph unicode="&#xa6;" horiz-adv-x="603" d="M213 873v847h179v-847h-179zM213 -245v828h179v-828h-179z" />
<glyph unicode="&#xa7;" horiz-adv-x="889" d="M628 -35h-195q-46 0 -86.5 19t-66.5 53t-36.5 75t4 90.5t53.5 94.5q18 22 73 81q-125 26 -209.5 127.5t-84.5 231.5q0 93 46 174t124 132l-2 2l199 219q23 25 31 43.5t-3.5 30.5t-46.5 12h-172v158h196q45 0 85.5 -19t66.5 -53t36.5 -75t-4 -90.5t-53.5 -94.5 q-2 -2 -29 -32t-43 -48q83 -16 151 -67.5t108.5 -129t40.5 -162.5q0 -93 -48 -175.5t-127 -133.5l-199 -219q-17 -18 -25.5 -33.5t-8.5 -27.5t13.5 -18.5t39.5 -6.5h172v-158zM445 529q86 0 145 59.5t59 148.5q0 91 -58.5 150t-145.5 59q-86 0 -145.5 -60t-59.5 -148.5 t59.5 -148.5t145.5 -60z" />
<glyph unicode="&#xa8;" horiz-adv-x="962" d="M546 1278q-44 0 -78.5 34t-34.5 81t34.5 81t78.5 34q46 0 81.5 -34t35.5 -81t-35.5 -81t-81.5 -34zM105 1278q-44 0 -78.5 34t-34.5 81t34.5 81t78.5 34q46 0 81.5 -34t35.5 -81t-35.5 -81t-81.5 -34z" />
<glyph unicode="&#xa9;" horiz-adv-x="1465" d="M729 419q-120 0 -222.5 40.5t-176.5 114t-116 180.5t-42 235q0 125 43 230.5t117.5 178.5t178 114t222.5 41q120 0 224 -41t178.5 -114t117 -178.5t42.5 -230.5q0 -127 -43 -234t-118 -180.5t-179.5 -114.5t-225.5 -41zM733 531q93 0 175 34t141 94t93 145.5t34 184.5 q0 101 -34 185.5t-93 141.5t-140.5 88.5t-175.5 31.5q-93 0 -174 -33t-139 -91t-91.5 -141.5t-33.5 -181.5q0 -81 21.5 -152.5t61 -127t93 -95.5t121 -61.5t141.5 -21.5zM744 708q-107 0 -178 74t-71 186v41q0 108 71 181.5t178 73.5q80 0 141.5 -46.5t84.5 -121.5l-112 -38 q-12 42 -42 68.5t-72 26.5q-55 0 -88.5 -41t-33.5 -101v-47q0 -65 32 -105t90 -40q41 0 71.5 23t46.5 61l112 -45q-21 -44 -53.5 -77.5t-78.5 -53t-98 -19.5z" />
<glyph unicode="&#xaa;" horiz-adv-x="844" d="M394 802q66 0 112.5 25.5t63.5 60.5v127q-36 34 -157 34q-69 0 -110 -38.5t-41 -92.5q0 -27 10 -49t27 -36.5t41.5 -22.5t53.5 -8zM353 663q-70 0 -129 30t-93 83.5t-34 120.5v24q0 111 78.5 175.5t230.5 64.5q27 0 59.5 -4.5t62.5 -13.5t42 -21v115q0 40 -39.5 66 t-122.5 26q-16 0 -31.5 -1t-30.5 -4.5t-26 -6t-25 -8.5l-21 -9t-20 -11t-16.5 -9.5t-17 -10.5l-13.5 -9l-78 110q128 97 297 97q83 0 138.5 -15t92.5 -49t53.5 -89t16.5 -136v-507h-153v90q-3 -9 -16 -23t-38 -32t-69.5 -30.5t-97.5 -12.5zM109 331v127h618v-127h-618z" />
<glyph unicode="&#xab;" horiz-adv-x="1231" d="M471 234l-299 340v103l299 343l112 -99l-250 -295l250 -293zM927 234l-299 340v103l299 343l111 -99l-248 -295l248 -293z" />
<glyph unicode="&#xad;" horiz-adv-x="930" d="M135 542v162h661v-162h-661z" />
<glyph unicode="&#xae;" horiz-adv-x="1508" d="M751 419q-120 0 -222.5 40.5t-176.5 114t-116.5 180.5t-42.5 235q0 125 43 230.5t118 178.5t178.5 114t222.5 41q161 0 288.5 -70t200 -199t72.5 -295q0 -127 -42.5 -234t-117.5 -180.5t-179.5 -114.5t-225.5 -41zM755 531q93 0 175 34t141 94t93 145.5t34 184.5 q0 101 -34 185.5t-93 141.5t-140.5 88.5t-175.5 31.5q-62 0 -119.5 -14.5t-105.5 -42t-88 -67.5t-68 -89t-43 -109t-15 -125q0 -100 33.5 -186t92 -145.5t139.5 -93t174 -33.5zM675 1015h82q88 0 88 62q0 37 -22.5 52t-65.5 15h-82v-129zM566 712v538h226q78 0 125 -52 t47 -121q0 -50 -30.5 -95.5t-60.5 -54.5l101 -215h-108l-96 197h-95v-197h-109z" />
<glyph unicode="&#xaf;" horiz-adv-x="958" d="M8 1268v158h813v-158h-813z" />
<glyph unicode="&#xb0;" horiz-adv-x="889" d="M443 800q-95 0 -179 49.5t-134 134t-50 182.5q0 96 50 180.5t134 134.5t179 50q97 0 182 -50t135.5 -134.5t50.5 -180.5q0 -59 -19.5 -114.5t-54 -100.5t-79.5 -79t-101 -53t-114 -19zM445 957q86 0 145 60t59 149q0 60 -27 108t-73.5 74t-103.5 26q-86 0 -145.5 -60 t-59.5 -148.5t59.5 -148.5t145.5 -60z" />
<glyph unicode="&#xb1;" horiz-adv-x="1354" d="M1133 135h-918v146h380v347h-376v157h376v381h162v-381h382v-157h-382v-347h376v-146z" />
<glyph unicode="&#xb4;" horiz-adv-x="911" d="M320 1250l244 393l167 -149l-253 -244h-158z" />
<glyph unicode="&#xb6;" horiz-adv-x="1285" d="M1004 4v1527h174v-1527h-174zM821 0h-174v632h-30q-121 0 -218.5 33t-161 92t-97 139.5t-33.5 176.5q0 97 35.5 180t100 144t161 95.5t213.5 34.5h204v-1527z" />
<glyph unicode="&#xb7;" horiz-adv-x="300" d="M150.5 643q-47.5 0 -85 36t-37.5 86.5t37.5 87.5t85 37t85 -37t37.5 -87.5t-37.5 -86.5t-85 -36z" />
<glyph unicode="&#xb8;" horiz-adv-x="1264" d="M538 -531l-140 43l47 150q140 -45 142 -45q38 -15 74 -3.5t45 48.5q12 40 -8 69t-70 41l-129 41l60 211h67l32 -104q130 -36 180 -116.5t18 -190.5q-31 -97 -120 -139t-198 -5z" />
<glyph unicode="&#xba;" horiz-adv-x="859" d="M428 669q-70 0 -130.5 25t-105 70t-70 113t-25.5 149v75q0 109 39.5 189t114.5 122.5t177 42.5q105 0 181 -43.5t116 -123t40 -187.5v-75q0 -114 -45 -196t-120.5 -121.5t-171.5 -39.5zM428 815q85 0 132 51.5t47 157.5v77q0 68 -20.5 115.5t-60.5 72.5t-98 25 q-91 0 -131.5 -54.5t-40.5 -158.5v-77q0 -101 46.5 -155t125.5 -54zM119 331v127h616v-127h-616z" />
<glyph unicode="&#xbb;" horiz-adv-x="1231" d="M761 1032l299 -340v-103l-299 -341l-112 98l250 294l-250 293zM306 1032l298 -340v-103l-298 -341l-113 98l250 294l-250 293z" />
<glyph unicode="&#xbf;" horiz-adv-x="1120" d="M589 1133q49 0 88 -38.5t39 -90.5t-39 -89t-88 -37t-88 37t-39 89q0 34 18.5 64.5t47.5 47.5t61 17zM677 718q0 -93 -19 -171.5t-54 -136.5t-73.5 -100t-87.5 -78q-56 -42 -86.5 -67.5t-57 -57t-36 -63t-9.5 -72.5q0 -111 75.5 -180t210.5 -69q52 0 103 17t95 49.5 t75.5 85t40.5 117.5l157 -20q-10 -80 -47 -152.5t-96 -129.5t-145 -91t-185 -34q-107 0 -193 34t-140.5 91t-84 130t-30.5 154q0 33 3.5 62.5t13 55.5t19 47t27 43t30.5 37.5t37 36t38.5 32.5t43 34.5t42.5 34.5q94 75 133.5 154t39.5 207h160z" />
<glyph unicode="&#xc0;" d="M673 1641l-275 262l164 136l271 -398h-160zM426 525h550l-275 755zM64 0l556 1527h162l558 -1527h-172l-134 368h-664l-134 -368h-172z" />
<glyph unicode="&#xc1;" d="M589 1643l244 393l167 -148l-253 -245h-158zM426 525h550l-275 755zM64 0l556 1527h162l558 -1527h-172l-134 368h-664l-134 -368h-172z" />
<glyph unicode="&#xc2;" d="M462 1592l-86 74l235 240h181l232 -238l-91 -74l-232 152zM426 525h550l-275 755zM64 0l556 1527h162l558 -1527h-172l-134 368h-664l-134 -368h-172z" />
<glyph unicode="&#xc3;" d="M320 1682q12 82 78.5 145t163.5 67q61 4 113 -8t80.5 -28t58.5 -29t52 -11q48 1 81 22t40 50l112 -39q1 -11 -2.5 -26t-12 -33t-20 -36t-29.5 -35t-39 -30t-49 -22t-59 -11q-45 -2 -90.5 10.5t-76.5 29t-70.5 30t-74.5 12.5q-116 -8 -148 -93zM426 525h550l-275 755z M64 0l556 1527h162l558 -1527h-172l-134 368h-664l-134 -368h-172z" />
<glyph unicode="&#xc4;" d="M933 1634q-44 0 -79 34.5t-35 81.5t35 81t79 34q46 0 81 -33.5t35 -81t-35 -82t-81 -34.5zM492 1634q-28 0 -54.5 15.5t-43 42.5t-16.5 58q0 47 35 81t79 34q46 0 81.5 -34t35.5 -81t-35.5 -81.5t-81.5 -34.5zM426 525h550l-275 755zM64 0l556 1527h162l558 -1527h-172 l-134 368h-664l-134 -368h-172z" />
<glyph unicode="&#xc5;" d="M699 1531q52 0 84 33t32 83q0 48 -32.5 83t-83.5 35t-84.5 -35t-33.5 -83q0 -50 33.5 -83t84.5 -33zM426 525h550l-275 755zM370 368l-134 -368h-172l523 1436q-60 32 -96.5 89.5t-36.5 126.5q0 94 75.5 169t169.5 75q93 0 168 -75t75 -169q0 -45 -16.5 -87t-45 -74 t-65.5 -53l525 -1438h-172l-134 368h-664z" />
<glyph unicode="&#xc6;" horiz-adv-x="2033" d="M490 533h497v813zM-26 0l935 1527h1009v-157h-769v-518h618v-157h-618v-537h776v-158h-938v376h-593l-230 -376h-190z" />
<glyph unicode="&#xc7;" horiz-adv-x="1399" d="M946 -385q-20 -64 -67.5 -105t-111.5 -52t-139 13l-140 43l48 151q139 -45 141 -45q38 -15 74 -3.5t45 48.5q12 40 -8 68.5t-70 40.5l-129 41l47 168q-89 11 -167 43t-144 88.5t-113.5 134t-74 184t-26.5 234.5v178q0 144 30.5 261t85 199t132 137t169.5 81t199 26 q99 0 182 -22.5t147 -65.5t111 -105.5t76.5 -141.5t42.5 -176h-164q-16 114 -61 190.5t-129 118.5t-205 42q-216 0 -334 -131.5t-118 -410.5v-180q0 -109 21.5 -197t60.5 -149.5t95.5 -103t124.5 -60.5t150 -19q182 0 278.5 96.5t119.5 272.5h163q-28 -250 -170.5 -389 t-386.5 -139l18 -57q129 -36 179.5 -116.5t17.5 -190.5z" />
<glyph unicode="&#xc8;" horiz-adv-x="1272" d="M652 1690l-276 263l164 135l271 -398h-159zM164 0v1527h940v-157h-780v-516h633v-157h-633v-539h805v-158h-965z" />
<glyph unicode="&#xc9;" horiz-adv-x="1272" d="M468 1703l244 394l168 -149l-254 -245h-158zM164 0v1527h940v-157h-780v-516h633v-157h-633v-539h805v-158h-965z" />
<glyph unicode="&#xca;" horiz-adv-x="1272" d="M398 1707l-86 76l234 238h181l232 -236l-91 -76l-232 154zM164 0v1527h940v-157h-780v-516h633v-157h-633v-539h805v-158h-965z" />
<glyph unicode="&#xcb;" horiz-adv-x="1272" d="M849 1712q-44 0 -79 34.5t-35 81.5q0 31 16.5 57.5t43 41t54.5 14.5q30 0 57 -14.5t43.5 -41t16.5 -57.5t-16.5 -58t-43.5 -42.5t-57 -15.5zM408 1712q-44 0 -78.5 34.5t-34.5 81.5t34.5 80t78.5 33q46 0 81.5 -33t35.5 -80q0 -31 -16.5 -58t-43.5 -42.5t-57 -15.5z M164 0v1527h940v-157h-780v-516h633v-157h-633v-539h805v-158h-965z" />
<glyph unicode="&#xcc;" horiz-adv-x="502" d="M209 1677l-176 168l178 133l174 -301h-176zM164 0v1527h160v-1527h-160z" />
<glyph unicode="&#xcd;" horiz-adv-x="502" d="M127 1675l174 301l183 -133l-176 -168h-181zM164 0v1527h160v-1527h-160z" />
<glyph unicode="&#xce;" horiz-adv-x="502" d="M140 1647l-121 71l145 219h180l140 -219l-123 -68l-107 115zM164 0v1527h160v-1527h-160z" />
<glyph unicode="&#xcf;" horiz-adv-x="502" d="M419 1712q-46 0 -79.5 33.5t-33.5 82.5q0 32 15.5 58.5t41.5 40.5t56 14q46 0 80 -32t34 -81q0 -32 -16 -59t-42 -42t-56 -15zM82 1712q-46 0 -79 33.5t-33 82.5t33 81t79 32q30 0 56 -14t41.5 -40.5t15.5 -58.5q0 -49 -33.5 -82.5t-79.5 -33.5zM164 0v1527h160v-1527 h-160z" />
<glyph unicode="&#xd0;" horiz-adv-x="1457" d="M763 0h-523v686h-221v155h221v686h523q95 0 182 -28.5t159.5 -86t126 -137.5t83.5 -189.5t30 -236.5v-178q0 -163 -44.5 -292t-123 -211t-183.5 -125t-230 -43zM402 158h361q200 0 309.5 133t109.5 380v178q0 121 -31 219.5t-87 164.5t-133 101.5t-168 35.5h-361v-529 h338v-155h-338v-528z" />
<glyph unicode="&#xd1;" horiz-adv-x="1470" d="M349 1709q11 83 77 146t163 68q61 3 113.5 -9t81 -28t58.5 -29t53 -12q47 1 80.5 22.5t39.5 50.5l112 -38q0 -17 -7 -39.5t-24 -48.5t-40.5 -48.5t-60.5 -38.5t-79 -19q-46 -2 -91.5 10.5t-76.5 28.5t-70.5 29.5t-73.5 12.5q-116 -7 -148 -92zM164 0v1527h199l792 -1279 v1279h161v-1527h-198l-794 1284v-1284h-160z" />
<glyph unicode="&#xd2;" d="M708 1712l-275 262l162 135l271 -397h-158zM699 -17q-126 0 -230.5 42.5t-183.5 126t-122.5 216t-43.5 303.5v183q0 132 27 243t77.5 194t121.5 140.5t160.5 86.5t193.5 29q131 0 238.5 -47t184 -134.5t118.5 -218.5t42 -293v-183q0 -165 -43 -296.5t-120.5 -216.5 t-184 -130t-235.5 -45zM699 140q201 0 311 136.5t110 394.5v183q0 257 -110.5 396t-310.5 139q-201 0 -310.5 -137.5t-109.5 -397.5v-183q0 -259 109.5 -395t310.5 -136z" />
<glyph unicode="&#xd3;" d="M523 1709l242 394l168 -148l-254 -246h-156zM699 -17q-126 0 -230.5 42.5t-183.5 126t-122.5 216t-43.5 303.5v183q0 132 27 243t77.5 194t121.5 140.5t160.5 86.5t193.5 29q131 0 238.5 -47t184 -134.5t118.5 -218.5t42 -293v-183q0 -165 -43 -296.5t-120.5 -216.5 t-184 -130t-235.5 -45zM699 140q201 0 311 136.5t110 394.5v183q0 257 -110.5 396t-310.5 139q-201 0 -310.5 -137.5t-109.5 -397.5v-183q0 -259 109.5 -395t310.5 -136z" />
<glyph unicode="&#xd4;" d="M452 1673l-87 75l235 239h180l233 -237l-90 -75l-233 153zM699 -17q-126 0 -230.5 42.5t-183.5 126t-122.5 216t-43.5 303.5v183q0 132 27 243t77.5 194t121.5 140.5t160.5 86.5t193.5 29q131 0 238.5 -47t184 -134.5t118.5 -218.5t42 -293v-183q0 -165 -43 -296.5 t-120.5 -216.5t-184 -130t-235.5 -45zM699 140q201 0 311 136.5t110 394.5v183q0 257 -110.5 396t-310.5 139q-201 0 -310.5 -137.5t-109.5 -397.5v-183q0 -259 109.5 -395t310.5 -136z" />
<glyph unicode="&#xd5;" d="M301 1720q12 82 78 145.5t163 67.5q61 4 113 -8t80.5 -28.5t59 -29.5t52.5 -12q32 1 58.5 12t42.5 27t20 35l111 -39q1 -16 -6 -39t-24 -49t-40.5 -48.5t-60.5 -38.5t-80 -18q-37 -2 -73.5 6t-65 20.5t-56 25.5t-58 21.5t-59.5 8.5q-116 -8 -148 -93zM699 -17 q-126 0 -230.5 42.5t-183.5 126t-122.5 216t-43.5 303.5v183q0 132 27 243t77.5 194t121.5 140.5t160.5 86.5t193.5 29q131 0 238.5 -47t184 -134.5t118.5 -218.5t42 -293v-183q0 -165 -43 -296.5t-120.5 -216.5t-184 -130t-235.5 -45zM699 140q201 0 311 136.5t110 394.5 v183q0 257 -110.5 396t-310.5 139q-201 0 -310.5 -137.5t-109.5 -397.5v-183q0 -259 109.5 -395t310.5 -136z" />
<glyph unicode="&#xd6;" d="M914 1662q-45 0 -79.5 34.5t-34.5 82.5q0 47 34.5 80t79.5 33t80.5 -33t35.5 -80q0 -48 -35.5 -82.5t-80.5 -34.5zM474 1662q-45 0 -80 35t-35 82q0 31 16.5 57.5t43 41t55.5 14.5q45 0 80 -33t35 -80q0 -48 -35 -82.5t-80 -34.5zM699 -17q-126 0 -230.5 42.5t-183.5 126 t-122.5 216t-43.5 303.5v183q0 132 27 243t77.5 194t121.5 140.5t160.5 86.5t193.5 29q131 0 238.5 -47t184 -134.5t118.5 -218.5t42 -293v-183q0 -165 -43 -296.5t-120.5 -216.5t-184 -130t-235.5 -45zM699 140q201 0 311 136.5t110 394.5v183q0 257 -110.5 396t-310.5 139 q-201 0 -310.5 -137.5t-109.5 -397.5v-183q0 -259 109.5 -395t310.5 -136z" />
<glyph unicode="&#xd7;" horiz-adv-x="1500" d="M215 288l425 424l-416 417l109 112l418 -418l419 420l114 -114l-420 -419l422 -422l-112 -112l-419 421l-426 -423z" />
<glyph unicode="&#xd8;" d="M279 671q0 -187 56 -308l626 938q-106 88 -262 88q-201 0 -310.5 -137.5t-109.5 -397.5v-183zM699 140q201 0 311 136.5t110 394.5v183q0 186 -57 307l-624 -935q99 -86 260 -86zM699 -17q-207 0 -350 109l-93 -139l-137 84l117 176q-117 173 -117 458v183q0 132 27 243 t77.5 194t121.5 140.5t160.5 86.5t193.5 29q207 0 350 -115l86 129l138 -86l-110 -166q119 -179 119 -455v-183q0 -165 -43 -296.5t-120.5 -216.5t-184 -130t-235.5 -45z" />
<glyph unicode="&#xd9;" horiz-adv-x="1303" d="M675 1664l-275 263l164 135l271 -398h-160zM645 -24q-168 0 -286.5 72.5t-181.5 218.5t-63 357v903h161v-907q0 -251 93.5 -369t276.5 -118q185 0 276.5 119t91.5 368v907h161v-903q0 -312 -135 -480t-394 -168z" />
<glyph unicode="&#xda;" horiz-adv-x="1303" d="M478 1652l242 393l168 -149l-254 -244h-156zM645 -24q-168 0 -286.5 72.5t-181.5 218.5t-63 357v903h161v-907q0 -251 93.5 -369t276.5 -118q185 0 276.5 119t91.5 368v907h161v-903q0 -312 -135 -480t-394 -168z" />
<glyph unicode="&#xdb;" horiz-adv-x="1303" d="M417 1658l-86 76l235 238h181l232 -236l-91 -76l-232 152zM645 -24q-168 0 -286.5 72.5t-181.5 218.5t-63 357v903h161v-907q0 -251 93.5 -369t276.5 -118q185 0 276.5 119t91.5 368v907h161v-903q0 -312 -135 -480t-394 -168z" />
<glyph unicode="&#xdc;" horiz-adv-x="1303" d="M873 1654q-22 0 -42.5 9t-36.5 24.5t-25.5 37.5t-9.5 45q0 47 34.5 80.5t79.5 33.5t80.5 -33.5t35.5 -80.5q0 -31 -16.5 -58t-43.5 -42.5t-56 -15.5zM433 1654q-29 0 -55.5 15.5t-43 42.5t-16.5 58q0 47 35 80.5t80 33.5t80 -33.5t35 -80.5t-35 -81.5t-80 -34.5zM645 -24 q-168 0 -286.5 72.5t-181.5 218.5t-63 357v903h161v-907q0 -251 93.5 -369t276.5 -118q185 0 276.5 119t91.5 368v907h161v-903q0 -312 -135 -480t-394 -168z" />
<glyph unicode="&#xdd;" horiz-adv-x="1293" d="M488 1641l243 393l168 -148l-254 -245h-157zM566 0v611l-512 916h184l409 -731l407 731h185l-512 -916v-611h-161z" />
<glyph unicode="&#xde;" horiz-adv-x="1295" d="M164 0v1527h160v-304h362q146 0 260 -55.5t179 -161.5t65 -247q0 -134 -65 -240t-179.5 -164t-257.5 -58h-364v-297h-160zM324 454h366q98 0 174 37t119 107t43 163q0 142 -93 224t-243 82h-366v-613z" />
<glyph unicode="&#xdf;" horiz-adv-x="1197" d="M162 0v1047q0 87 30.5 163.5t83.5 131t127.5 85.5t160.5 31q184 0 294 -115t110 -300q0 -104 -57.5 -183.5t-149.5 -102.5q134 0 221 -102t87 -270q0 -76 -23.5 -141t-64 -111.5t-94.5 -79.5t-116.5 -49.5t-130.5 -16.5h-121v157h105q139 1 210.5 64.5t72.5 174.5 q1 61 -12 106t-44.5 81.5t-86.5 58.5t-134 29q-17 2 -32 6.5t-32.5 13t-28 25.5t-10.5 39q0 13 3.5 23.5t8 18t12 14.5t13.5 11t15.5 8.5t14.5 6t13 3.5q59 18 100.5 45t62 58t28.5 57.5t8 53.5q0 119 -63 189.5t-177 70.5q-111 0 -177.5 -71t-66.5 -181v-1049h-160z" />
<glyph unicode="&#xe0;" horiz-adv-x="1117" d="M595 1256l-275 262l164 136l271 -398h-160zM497 140q62 0 122.5 22.5t102 56.5t67.5 73.5t26 72.5v103q-49 20 -115 26t-167 3q-139 -5 -199.5 -51.5t-60.5 -137.5q0 -82 55.5 -125t168.5 -43zM460 -17q-96 0 -176.5 41t-126.5 110.5t-46 151.5v45q0 74 32.5 134.5 t89 100.5t133 61.5t165.5 21.5q106 0 168.5 -9.5t115.5 -28.5v122q0 87 -59.5 138.5t-187.5 51.5q-192 0 -318 -96l-86 134q171 118 408 118q191 0 297.5 -96t106.5 -282v-701h-161v146q-24 -62 -120 -112.5t-235 -50.5z" />
<glyph unicode="&#xe1;" horiz-adv-x="1117" d="M365 1295l244 393l167 -149l-253 -244h-158zM497 140q62 0 122.5 22.5t102 56.5t67.5 73.5t26 72.5v103q-49 20 -115 26t-167 3q-139 -5 -199.5 -51.5t-60.5 -137.5q0 -82 55.5 -125t168.5 -43zM460 -17q-96 0 -176.5 41t-126.5 110.5t-46 151.5v45q0 74 32.5 134.5 t89 100.5t133 61.5t165.5 21.5q106 0 168.5 -9.5t115.5 -28.5v122q0 87 -59.5 138.5t-187.5 51.5q-192 0 -318 -96l-86 134q171 118 408 118q191 0 297.5 -96t106.5 -282v-701h-161v146q-24 -62 -120 -112.5t-235 -50.5z" />
<glyph unicode="&#xe2;" horiz-adv-x="1117" d="M338 1270l-86 76l234 238h181l232 -236l-91 -75l-232 153zM497 140q62 0 122.5 22.5t102 56.5t67.5 73.5t26 72.5v103q-49 20 -115 26t-167 3q-139 -5 -199.5 -51.5t-60.5 -137.5q0 -82 55.5 -125t168.5 -43zM460 -17q-96 0 -176.5 41t-126.5 110.5t-46 151.5v45 q0 74 32.5 134.5t89 100.5t133 61.5t165.5 21.5q106 0 168.5 -9.5t115.5 -28.5v122q0 87 -59.5 138.5t-187.5 51.5q-192 0 -318 -96l-86 134q171 118 408 118q191 0 297.5 -96t106.5 -282v-701h-161v146q-24 -62 -120 -112.5t-235 -50.5z" />
<glyph unicode="&#xe3;" horiz-adv-x="1117" d="M164 1338q12 82 77.5 145t162.5 68q50 3 93.5 -4.5t72.5 -20t53 -25t46 -21t41 -7.5q47 2 80.5 23.5t40.5 50.5l111 -39q1 -17 -6.5 -39.5t-24 -49t-40.5 -49t-60.5 -38.5t-79.5 -18q-46 -3 -91.5 10t-76.5 29t-70 29.5t-74 12.5q-116 -7 -148 -92zM497 140 q62 0 122.5 22.5t102 56.5t67.5 73.5t26 72.5v103q-49 20 -115 26t-167 3q-139 -5 -199.5 -51.5t-60.5 -137.5q0 -82 55.5 -125t168.5 -43zM460 -17q-96 0 -176.5 41t-126.5 110.5t-46 151.5v45q0 74 32.5 134.5t89 100.5t133 61.5t165.5 21.5q106 0 168.5 -9.5t115.5 -28.5 v122q0 87 -59.5 138.5t-187.5 51.5q-192 0 -318 -96l-86 134q171 118 408 118q191 0 297.5 -96t106.5 -282v-701h-161v146q-24 -62 -120 -112.5t-235 -50.5z" />
<glyph unicode="&#xe4;" horiz-adv-x="1117" d="M755 1297q-44 0 -79.5 34.5t-35.5 81.5q0 31 17 57.5t43 41.5t55 15q30 0 56.5 -15t42.5 -41.5t16 -57.5q0 -47 -35 -81.5t-80 -34.5zM314 1297q-44 0 -79 34.5t-35 81.5q0 31 16.5 57.5t42.5 41.5t55 15q46 0 81 -33.5t35 -80.5q0 -31 -16.5 -58t-43 -42.5t-56.5 -15.5z M497 140q62 0 122.5 22.5t102 56.5t67.5 73.5t26 72.5v103q-49 20 -115 26t-167 3q-139 -5 -199.5 -51.5t-60.5 -137.5q0 -82 55.5 -125t168.5 -43zM460 -17q-96 0 -176.5 41t-126.5 110.5t-46 151.5v45q0 74 32.5 134.5t89 100.5t133 61.5t165.5 21.5q106 0 168.5 -9.5 t115.5 -28.5v122q0 87 -59.5 138.5t-187.5 51.5q-192 0 -318 -96l-86 134q171 118 408 118q191 0 297.5 -96t106.5 -282v-701h-161v146q-24 -62 -120 -112.5t-235 -50.5z" />
<glyph unicode="&#xe5;" horiz-adv-x="1117" d="M568 1176q-96 0 -171 72.5t-75 173.5q0 95 76 169.5t170 74.5q93 0 168 -75t75 -169q0 -101 -74.5 -173.5t-168.5 -72.5zM568 1301q51 0 83.5 33t32.5 84q0 31 -14.5 57.5t-41 43t-60.5 16.5q-51 0 -85 -35t-34 -82q0 -50 33.5 -83.5t85.5 -33.5zM497 140 q62 0 122.5 22.5t102 56.5t67.5 73.5t26 72.5v103q-49 20 -115 26t-167 3q-139 -5 -199.5 -51.5t-60.5 -137.5q0 -82 55.5 -125t168.5 -43zM460 -17q-96 0 -176.5 41t-126.5 110.5t-46 151.5v45q0 74 32.5 134.5t89 100.5t133 61.5t165.5 21.5q106 0 168.5 -9.5t115.5 -28.5 v122q0 87 -59.5 138.5t-187.5 51.5q-192 0 -318 -96l-86 134q171 118 408 118q191 0 297.5 -96t106.5 -282v-701h-161v146q-24 -62 -120 -112.5t-235 -50.5z" />
<glyph unicode="&#xe6;" horiz-adv-x="1818" d="M976 613h596q0 82 -21 143t-60 98t-91 55t-118 18q-139 0 -220.5 -78t-85.5 -236zM1299 -26q-124 0 -231 52t-173 150q-19 -29 -44 -55.5t-62.5 -52t-82 -44t-105 -30t-127.5 -11.5q-183 0 -287.5 85t-104.5 216v36q0 98 57 172.5t150 112.5t206 38q189 0 281 -34v135 q-1 39 -14.5 71t-41 58.5t-76.5 41t-115 14.5q-113 0 -194.5 -26t-121.5 -64l-94 131q58 47 163 78t251 31q286 0 370 -170q63 88 160.5 131.5t216.5 43.5q99 0 181 -30t144.5 -90t97.5 -159.5t35 -230.5v-116h-762q1 -84 28 -148t73 -102t103 -57.5t123 -19.5 q200 0 299 129l125 -100q-53 -68 -117.5 -109.5t-139.5 -59t-171 -17.5zM464 133q132 0 222 66t90 166v106q-104 43 -279 34q-82 -3 -141.5 -30t-88.5 -70.5t-29 -98.5q0 -83 60 -128t166 -45z" />
<glyph unicode="&#xe7;" horiz-adv-x="1122" d="M821 -419q-31 -97 -120 -139t-198 -6l-140 43l48 151q139 -45 141 -45q38 -14 74 -2.5t45 47.5q13 40 -7.5 68.5t-70.5 41.5l-129 41l57 193q-84 12 -155 50t-124 99t-83 149.5t-30 195.5v121q0 111 37 205t100.5 157t149 98t181.5 35q101 0 182 -28t142.5 -89t95.5 -152 l-151 -60q-18 60 -61 99.5t-95 56t-115 16.5q-66 0 -122.5 -24t-97 -67.5t-63 -106t-22.5 -136.5v-129q0 -161 83.5 -249t221.5 -88q202 0 275 148l152 -58q-61 -123 -170.5 -185t-254.5 -62l27 -81q129 -37 179.5 -117t17.5 -191z" />
<glyph unicode="&#xe8;" horiz-adv-x="1173" d="M607 1305l-276 263l164 135l270 -398h-158zM604 -26q-98 0 -184.5 32.5t-154 93.5t-107 158t-39.5 218v103q0 103 24 187.5t66 142.5t101 98t128 58.5t147 18.5q99 0 180.5 -30t144.5 -90t98 -159.5t35 -230.5v-116h-762q1 -84 28 -148t73.5 -102t103.5 -57.5t123 -19.5 q199 0 298 129l125 -100q-53 -68 -118 -109.5t-139.5 -59t-170.5 -17.5zM281 613h597q0 161 -77.5 237.5t-213.5 76.5q-139 0 -221 -78t-85 -236z" />
<glyph unicode="&#xe9;" horiz-adv-x="1173" d="M417 1264l243 394l167 -148l-253 -246h-157zM604 -26q-98 0 -184.5 32.5t-154 93.5t-107 158t-39.5 218v103q0 103 24 187.5t66 142.5t101 98t128 58.5t147 18.5q99 0 180.5 -30t144.5 -90t98 -159.5t35 -230.5v-116h-762q1 -84 28 -148t73.5 -102t103.5 -57.5t123 -19.5 q199 0 298 129l125 -100q-53 -68 -118 -109.5t-139.5 -59t-170.5 -17.5zM281 613h597q0 161 -77.5 237.5t-213.5 76.5q-139 0 -221 -78t-85 -236z" />
<glyph unicode="&#xea;" horiz-adv-x="1173" d="M346 1245l-86 75l235 239h180l232 -236l-90 -76l-232 153zM604 -26q-98 0 -184.5 32.5t-154 93.5t-107 158t-39.5 218v103q0 103 24 187.5t66 142.5t101 98t128 58.5t147 18.5q99 0 180.5 -30t144.5 -90t98 -159.5t35 -230.5v-116h-762q1 -84 28 -148t73.5 -102 t103.5 -57.5t123 -19.5q199 0 298 129l125 -100q-53 -68 -118 -109.5t-139.5 -59t-170.5 -17.5zM281 613h597q0 161 -77.5 237.5t-213.5 76.5q-139 0 -221 -78t-85 -236z" />
<glyph unicode="&#xeb;" horiz-adv-x="1173" d="M804 1290q-44 0 -79 34.5t-35 81.5q0 31 16.5 57.5t43 41.5t54.5 15q46 0 81.5 -33.5t35.5 -80.5q0 -31 -16.5 -58t-43.5 -42.5t-57 -15.5zM363 1290q-44 0 -78.5 34.5t-34.5 81.5t34.5 80.5t78.5 33.5q46 0 81.5 -33.5t35.5 -80.5q0 -31 -16.5 -58t-43.5 -42.5 t-57 -15.5zM604 -26q-98 0 -184.5 32.5t-154 93.5t-107 158t-39.5 218v103q0 103 24 187.5t66 142.5t101 98t128 58.5t147 18.5q99 0 180.5 -30t144.5 -90t98 -159.5t35 -230.5v-116h-762q1 -84 28 -148t73.5 -102t103.5 -57.5t123 -19.5q199 0 298 129l125 -100 q-53 -68 -118 -109.5t-139.5 -59t-170.5 -17.5zM281 613h597q0 161 -77.5 237.5t-213.5 76.5q-139 0 -221 -78t-85 -236z" />
<glyph unicode="&#xec;" horiz-adv-x="513" d="M187 1266l-148 263l164 133l146 -396h-162zM176 0v1058h162v-1058h-162z" />
<glyph unicode="&#xed;" horiz-adv-x="517" d="M166 1256l154 391l170 -149l-168 -242h-156zM176 0v1058h162v-1058h-162z" />
<glyph unicode="&#xee;" horiz-adv-x="515" d="M144 1256l-107 71l131 239h181l131 -239l-112 -69l-110 135zM176 0v1058h162v-1058h-162z" />
<glyph unicode="&#xef;" horiz-adv-x="519" d="M415 1273q-46 0 -80 33.5t-34 82.5q0 48 34 81.5t79.5 33.5t80 -34t34.5 -81q0 -49 -34 -82.5t-80 -33.5zM101 1273q-46 0 -78.5 33.5t-32.5 82.5q0 48 32.5 81.5t78.5 33.5t81 -34t35 -81q0 -48 -35 -82t-81 -34zM168 0v1058h161v-1058h-161z" />
<glyph unicode="&#xf0;" horiz-adv-x="1176" d="M570 -19q-86 0 -166.5 34t-144.5 94.5t-102 154t-38 204.5v125q0 89 23 166.5t64.5 136t97.5 100.5t123.5 64t140.5 22q50 0 98.5 -14t87 -37.5t66 -56.5t38.5 -71q0 8 -1.5 24.5t-8.5 54.5t-18 78.5t-33.5 96.5t-52.5 109l-368 -74l-25 126l314 69q-60 75 -111 121 l106 120q113 -106 177 -202l214 47l28 -139l-172 -35q123 -262 123 -704v-121q0 -87 -23 -164.5t-64.5 -137t-98.5 -103t-127 -66t-147 -22.5zM572 138q55 0 107 21t95 60.5t68.5 103.5t25.5 143v127q0 146 -83 239t-213 93t-211.5 -90.5t-81.5 -241.5v-127q0 -78 26 -142.5 t68.5 -104t94 -60.5t104.5 -21z" />
<glyph unicode="&#xf1;" horiz-adv-x="1176" d="M185 1329q12 82 78 145t163 67q62 4 114 -7.5t80 -28t58 -29.5t53 -11q48 1 81 22t40 50l112 -39q1 -16 -6.5 -38.5t-24 -49t-40.5 -48.5t-60.5 -38t-79.5 -19q-46 -2 -91.5 10.5t-76 29t-70 30t-74.5 12.5q-116 -8 -148 -92zM176 0v1058h159v-133q41 76 125.5 119.5 t186.5 43.5q85 0 158 -32.5t126.5 -93t83.5 -152.5t30 -206v-604h-161v602q0 166 -65 247.5t-204 81.5q-131 0 -204 -87.5t-73 -241.5v-602h-162z" />
<glyph unicode="&#xf2;" horiz-adv-x="1171" d="M597 1223l-275 263l164 135l271 -398h-160zM583 -19q-69 0 -134 18.5t-123.5 58.5t-102 97.5t-69 140.5t-25.5 182v105q0 116 35.5 211.5t97 157.5t144 96t177.5 34q75 0 144 -22.5t126.5 -66t100 -103t66 -138.5t23.5 -169v-105q0 -71 -14 -134t-38.5 -112.5t-58.5 -91 t-74.5 -70.5t-86 -49.5t-93 -30t-95.5 -9.5zM583 138q39 0 77.5 9.5t79.5 34.5t72 62t50.5 97t19.5 135v107q0 103 -39.5 181.5t-107 119.5t-152.5 41q-89 0 -154.5 -40t-102 -117.5t-36.5 -184.5v-107q0 -73 17.5 -132t46.5 -96.5t67.5 -63t78.5 -36t83 -10.5z" />
<glyph unicode="&#xf3;" horiz-adv-x="1171" d="M441 1247l243 394l168 -149l-255 -245h-156zM583 -19q-69 0 -134 18.5t-123.5 58.5t-102 97.5t-69 140.5t-25.5 182v105q0 116 35.5 211.5t97 157.5t144 96t177.5 34q75 0 144 -22.5t126.5 -66t100 -103t66 -138.5t23.5 -169v-105q0 -71 -14 -134t-38.5 -112.5t-58.5 -91 t-74.5 -70.5t-86 -49.5t-93 -30t-95.5 -9.5zM583 138q39 0 77.5 9.5t79.5 34.5t72 62t50.5 97t19.5 135v107q0 103 -39.5 181.5t-107 119.5t-152.5 41q-89 0 -154.5 -40t-102 -117.5t-36.5 -184.5v-107q0 -73 17.5 -132t46.5 -96.5t67.5 -63t78.5 -36t83 -10.5z" />
<glyph unicode="&#xf4;" horiz-adv-x="1171" d="M349 1235l-87 74l235 240h180l232 -238l-90 -74l-232 152zM583 -19q-69 0 -134 18.5t-123.5 58.5t-102 97.5t-69 140.5t-25.5 182v105q0 116 35.5 211.5t97 157.5t144 96t177.5 34q75 0 144 -22.5t126.5 -66t100 -103t66 -138.5t23.5 -169v-105q0 -71 -14 -134 t-38.5 -112.5t-58.5 -91t-74.5 -70.5t-86 -49.5t-93 -30t-95.5 -9.5zM583 138q39 0 77.5 9.5t79.5 34.5t72 62t50.5 97t19.5 135v107q0 103 -39.5 181.5t-107 119.5t-152.5 41q-89 0 -154.5 -40t-102 -117.5t-36.5 -184.5v-107q0 -73 17.5 -132t46.5 -96.5t67.5 -63 t78.5 -36t83 -10.5z" />
<glyph unicode="&#xf5;" horiz-adv-x="1171" d="M191 1327q12 82 78.5 145t163.5 67q61 4 113 -8t80 -28t58 -29t53 -11q48 1 81 22t40 50l112 -39q1 -16 -6 -38.5t-24 -49t-41 -49t-60.5 -38.5t-79.5 -18q-45 -2 -90.5 10.5t-76.5 29t-70.5 30t-74.5 12.5q-116 -8 -148 -92zM583 -19q-69 0 -134 18.5t-123.5 58.5 t-102 97.5t-69 140.5t-25.5 182v105q0 116 35.5 211.5t97 157.5t144 96t177.5 34q75 0 144 -22.5t126.5 -66t100 -103t66 -138.5t23.5 -169v-105q0 -71 -14 -134t-38.5 -112.5t-58.5 -91t-74.5 -70.5t-86 -49.5t-93 -30t-95.5 -9.5zM583 138q39 0 77.5 9.5t79.5 34.5t72 62 t50.5 97t19.5 135v107q0 103 -39.5 181.5t-107 119.5t-152.5 41q-89 0 -154.5 -40t-102 -117.5t-36.5 -184.5v-107q0 -73 17.5 -132t46.5 -96.5t67.5 -63t78.5 -36t83 -10.5z" />
<glyph unicode="&#xf6;" horiz-adv-x="1171" d="M800 1305q-44 0 -79 35t-35 82t35 80t79 33q46 0 81 -33t35 -80q0 -48 -35 -82.5t-81 -34.5zM359 1305q-44 0 -79 35t-35 82t35 80t79 33q46 0 81.5 -33t35.5 -80q0 -48 -35.5 -82.5t-81.5 -34.5zM583 -19q-69 0 -134 18.5t-123.5 58.5t-102 97.5t-69 140.5t-25.5 182 v105q0 116 35.5 211.5t97 157.5t144 96t177.5 34q75 0 144 -22.5t126.5 -66t100 -103t66 -138.5t23.5 -169v-105q0 -71 -14 -134t-38.5 -112.5t-58.5 -91t-74.5 -70.5t-86 -49.5t-93 -30t-95.5 -9.5zM583 138q39 0 77.5 9.5t79.5 34.5t72 62t50.5 97t19.5 135v107 q0 103 -39.5 181.5t-107 119.5t-152.5 41q-89 0 -154.5 -40t-102 -117.5t-36.5 -184.5v-107q0 -73 17.5 -132t46.5 -96.5t67.5 -63t78.5 -36t83 -10.5z" />
<glyph unicode="&#xf7;" horiz-adv-x="1412" d="M699 950q-49 0 -88 38t-39 89q0 53 39 90t88 37q48 0 87 -37.5t39 -89.5q0 -51 -39 -89t-87 -38zM193 632v158h1026v-158h-1026zM699 203q-49 0 -88 37.5t-39 88.5q0 52 39 89.5t88 37.5q48 0 87 -37.5t39 -89.5q0 -51 -39 -88.5t-87 -37.5z" />
<glyph unicode="&#xf8;" horiz-adv-x="1171" d="M290 476q0 -88 26 -156l433 553q-69 52 -166 52q-89 0 -154.5 -40t-102 -117.5t-36.5 -184.5v-107zM583 138q39 0 77.5 9.5t79.5 34.5t72 62t50.5 97t19.5 135v107q0 89 -30 161l-437 -555q72 -51 168 -51zM583 -19q-148 0 -267 83l-92 -120l-127 97l110 140 q-78 127 -78 297v105q0 116 35.5 211.5t97 157.5t144 96t177.5 34q146 0 264 -84l97 124l127 -96l-112 -144q84 -130 84 -299v-105q0 -71 -14 -134t-38.5 -112.5t-58.5 -91t-74.5 -70.5t-86 -49.5t-93 -30t-95.5 -9.5z" />
<glyph unicode="&#xf9;" horiz-adv-x="1153" d="M583 1225l-275 263l163 135l271 -398h-159zM536 -24q-88 0 -162 30.5t-128.5 88t-85.5 147t-31 201.5v615h161v-615q0 -310 260 -310q62 0 111.5 20.5t84 59.5t53 97.5t18.5 132.5v615h162v-1058h-162v140q-19 -49 -66.5 -87.5t-104.5 -57.5t-110 -19z" />
<glyph unicode="&#xfa;" horiz-adv-x="1153" d="M357 1250l243 393l168 -149l-255 -244h-156zM536 -24q-88 0 -162 30.5t-128.5 88t-85.5 147t-31 201.5v615h161v-615q0 -310 260 -310q62 0 111.5 20.5t84 59.5t53 97.5t18.5 132.5v615h162v-1058h-162v140q-19 -49 -66.5 -87.5t-104.5 -57.5t-110 -19z" />
<glyph unicode="&#xfb;" horiz-adv-x="1153" d="M316 1252l-86 75l234 239h181l233 -237l-90 -75l-234 152zM536 -24q-88 0 -162 30.5t-128.5 88t-85.5 147t-31 201.5v615h161v-615q0 -310 260 -310q62 0 111.5 20.5t84 59.5t53 97.5t18.5 132.5v615h162v-1058h-162v140q-19 -49 -66.5 -87.5t-104.5 -57.5t-110 -19z" />
<glyph unicode="&#xfc;" horiz-adv-x="1153" d="M780 1275q-44 0 -78.5 34.5t-34.5 81.5t34.5 81t78.5 34q46 0 81.5 -34t35.5 -81q0 -31 -16.5 -58t-43.5 -42.5t-57 -15.5zM340 1275q-44 0 -79 34.5t-35 81.5q0 31 16.5 58t42.5 42t55 15q46 0 81 -34t35 -81t-35 -81.5t-81 -34.5zM536 -24q-88 0 -162 30.5t-128.5 88 t-85.5 147t-31 201.5v615h161v-615q0 -310 260 -310q62 0 111.5 20.5t84 59.5t53 97.5t18.5 132.5v615h162v-1058h-162v140q-19 -49 -66.5 -87.5t-104.5 -57.5t-110 -19z" />
<glyph unicode="&#xfd;" horiz-adv-x="1126" d="M363 1247l244 394l167 -149l-253 -245h-158zM127 -394l47 151q110 -36 166 -10.5t95 126.5q1 3 23 63t22 62l-404 1060h174l312 -834l318 834h171l-483 -1267q-21 -56 -51.5 -98t-66 -65.5t-75 -36.5t-82 -13t-83.5 7t-83 21z" />
<glyph unicode="&#xfe;" horiz-adv-x="1173" d="M615 135q134 0 212 94.5t78 267.5v71q0 88 -24 158t-65 113t-92 65.5t-107 22.5q-55 0 -107.5 -23.5t-94.5 -67t-67.5 -113.5t-25.5 -155v-71q0 -161 82.5 -261.5t210.5 -100.5zM164 -454v1981h160v-594q48 72 132.5 111.5t169.5 39.5q66 0 130 -21t120 -64.5t98.5 -104 t67.5 -145.5t25 -183v-69q0 -97 -22.5 -180t-63 -144.5t-95.5 -105.5t-121 -66t-139 -22q-59 0 -118 19t-109 59t-72 93v-604h-163z" />
<glyph unicode="&#xff;" horiz-adv-x="1126" d="M776 1275q-44 0 -78.5 34.5t-34.5 81.5t34.5 81t78.5 34q46 0 81 -34t35 -81q0 -31 -16.5 -58t-43 -42.5t-56.5 -15.5zM335 1275q-44 0 -78.5 34.5t-34.5 81.5t34.5 81t78.5 34q46 0 81.5 -34t35.5 -81q0 -31 -17 -58t-43.5 -42.5t-56.5 -15.5zM127 -394l47 151 q110 -36 166 -10.5t95 126.5q1 3 23 63t22 62l-404 1060h174l312 -834l318 834h171l-483 -1267q-21 -56 -51.5 -98t-66 -65.5t-75 -36.5t-82 -13t-83.5 7t-83 21z" />
<glyph unicode="&#x100;" d="M299 1650v156h813v-156h-813zM426 525h550l-275 755zM64 0l556 1527h162l558 -1527h-172l-134 368h-664l-134 -368h-172z" />
<glyph unicode="&#x101;" horiz-adv-x="1117" d="M144 1372v157h813v-157h-813zM497 140q62 0 122.5 22.5t102 56.5t67.5 73.5t26 72.5v103q-49 20 -115 26t-167 3q-139 -5 -199.5 -51.5t-60.5 -137.5q0 -82 55.5 -125t168.5 -43zM460 -17q-96 0 -176.5 41t-126.5 110.5t-46 151.5v45q0 74 32.5 134.5t89 100.5t133 61.5 t165.5 21.5q106 0 168.5 -9.5t115.5 -28.5v122q0 87 -59.5 138.5t-187.5 51.5q-192 0 -318 -96l-86 134q171 118 408 118q191 0 297.5 -96t106.5 -282v-701h-161v146q-24 -62 -120 -112.5t-235 -50.5z" />
<glyph unicode="&#x102;" d="M704 1645q-63 0 -132 25t-130.5 69.5t-101.5 101.5l99 94q55 -60 128.5 -97.5t136.5 -37.5q66 0 135 35.5t129 99.5l99 -94q-59 -93 -159.5 -144.5t-203.5 -51.5zM426 525h550l-275 755zM64 0l556 1527h162l558 -1527h-172l-134 368h-664l-134 -368h-172z" />
<glyph unicode="&#x103;" horiz-adv-x="1117" d="M576 1258q-96 0 -199 55t-164 140l99 96q36 -40 82 -70.5t93.5 -48t88.5 -17.5q44 0 90 16t90.5 46.5t84.5 73.5l99 -96q-59 -93 -159.5 -144t-204.5 -51zM497 140q62 0 122.5 22.5t102 56.5t67.5 73.5t26 72.5v103q-49 20 -115 26t-167 3q-139 -5 -199.5 -51.5 t-60.5 -137.5q0 -82 55.5 -125t168.5 -43zM460 -17q-96 0 -176.5 41t-126.5 110.5t-46 151.5v45q0 74 32.5 134.5t89 100.5t133 61.5t165.5 21.5q106 0 168.5 -9.5t115.5 -28.5v122q0 87 -59.5 138.5t-187.5 51.5q-192 0 -318 -96l-86 134q171 118 408 118q191 0 297.5 -96 t106.5 -282v-701h-161v146q-24 -62 -120 -112.5t-235 -50.5z" />
<glyph unicode="&#x104;" horiz-adv-x="1412" d="M1340 -462h-196q-45 0 -85.5 19t-66.5 52.5t-36.5 74.5t4 90t53.5 95q73 81 144 159l-123 340h-664l-134 -368h-172l556 1527h162l545 -1492l21 -35l-199 -219q-23 -25 -31 -44t3.5 -31t46.5 -12h172v-156zM426 525h550l-275 755z" />
<glyph unicode="&#x105;" horiz-adv-x="1117" d="M497 140q62 0 122.5 22.5t102 56.5t67.5 73.5t26 72.5v103q-49 20 -115 26t-167 3q-139 -5 -199.5 -51.5t-60.5 -137.5q0 -82 55.5 -125t168.5 -43zM968 -306v-156h-196q-46 0 -86.5 19t-66.5 52.5t-36.5 74.5t4 90t53.5 95q18 20 55.5 61t71.5 78t48 54v84 q-24 -62 -120 -112.5t-235 -50.5q-96 0 -176.5 41t-126.5 110.5t-46 151.5v45q0 74 32.5 134.5t89 100.5t133 61.5t165.5 21.5q106 0 168.5 -9.5t115.5 -28.5v122q0 87 -59.5 138.5t-187.5 51.5q-192 0 -318 -96l-86 134q171 118 408 118q191 0 297.5 -96t106.5 -282v-701 l-200 -219q-23 -25 -30.5 -44t4.5 -31t46 -12h172z" />
<glyph unicode="&#x106;" horiz-adv-x="1399" d="M556 1656l244 394l168 -150l-254 -244h-158zM727 -21q-103 0 -193.5 25.5t-168.5 79.5t-134 133.5t-88 194.5t-32 255v178q0 144 30.5 261t85 199t132 137t169.5 81t199 26q99 0 182 -22.5t147 -65.5t111 -105.5t76.5 -141.5t42.5 -176h-164q-16 114 -61 190.5 t-129 118.5t-205 42q-216 0 -334 -131.5t-118 -410.5v-180q0 -109 21.5 -197t60.5 -149.5t95.5 -103t124.5 -60.5t150 -19q182 0 278.5 96.5t119.5 272.5h163q-28 -251 -171 -389.5t-390 -138.5z" />
<glyph unicode="&#x107;" horiz-adv-x="1122" d="M400 1252l243 393l168 -149l-255 -244h-156zM595 -30q-97 0 -181.5 32.5t-148 94t-100 157.5t-36.5 214v121q0 111 37 205t100.5 157t149 98t181.5 35q101 0 182 -28t142.5 -89t95.5 -152l-151 -60q-18 60 -61 99.5t-95 56t-115 16.5q-66 0 -122.5 -24t-97 -67.5 t-63 -106t-22.5 -136.5v-129q0 -161 83.5 -249t221.5 -88q202 0 275 148l152 -58q-61 -123 -170.5 -185t-256.5 -62z" />
<glyph unicode="&#x10a;" horiz-adv-x="1399" d="M699 1697q-23 0 -45.5 9.5t-40 26t-28.5 40t-11 49.5q0 33 18.5 62.5t47.5 46.5t59 17q49 0 86.5 -37.5t37.5 -88.5q0 -35 -17.5 -64t-46 -45t-60.5 -16zM727 -21q-103 0 -193.5 25.5t-168.5 79.5t-134 133.5t-88 194.5t-32 255v178q0 144 30.5 261t85 199t132 137 t169.5 81t199 26q99 0 182 -22.5t147 -65.5t111 -105.5t76.5 -141.5t42.5 -176h-164q-16 114 -61 190.5t-129 118.5t-205 42q-216 0 -334 -131.5t-118 -410.5v-180q0 -109 21.5 -197t60.5 -149.5t95.5 -103t124.5 -60.5t150 -19q182 0 278.5 96.5t119.5 272.5h163 q-28 -251 -171 -389.5t-390 -138.5z" />
<glyph unicode="&#x10b;" horiz-adv-x="1122" d="M597 1299q-48 0 -85.5 36.5t-37.5 88.5q0 51 38 89t85 38q49 0 87 -38t38 -89q0 -53 -37.5 -89t-87.5 -36zM595 -30q-97 0 -181.5 32.5t-148 94t-100 157.5t-36.5 214v121q0 111 37 205t100.5 157t149 98t181.5 35q101 0 182 -28t142.5 -89t95.5 -152l-151 -60 q-18 60 -61 99.5t-95 56t-115 16.5q-66 0 -122.5 -24t-97 -67.5t-63 -106t-22.5 -136.5v-129q0 -161 83.5 -249t221.5 -88q202 0 275 148l152 -58q-61 -123 -170.5 -185t-256.5 -62z" />
<glyph unicode="&#x10c;" horiz-adv-x="1399" d="M622 1675l-235 237l87 75l238 -155l234 152l88 -72l-232 -237h-180zM727 -21q-103 0 -193.5 25.5t-168.5 79.5t-134 133.5t-88 194.5t-32 255v178q0 144 30.5 261t85 199t132 137t169.5 81t199 26q99 0 182 -22.5t147 -65.5t111 -105.5t76.5 -141.5t42.5 -176h-164 q-16 114 -61 190.5t-129 118.5t-205 42q-216 0 -334 -131.5t-118 -410.5v-180q0 -109 21.5 -197t60.5 -149.5t95.5 -103t124.5 -60.5t150 -19q182 0 278.5 96.5t119.5 272.5h163q-28 -251 -171 -389.5t-390 -138.5z" />
<glyph unicode="&#x10d;" horiz-adv-x="1122" d="M488 1286l-234 236l86 76l239 -155l234 153l88 -74l-232 -236h-181zM595 -30q-97 0 -181.5 32.5t-148 94t-100 157.5t-36.5 214v121q0 111 37 205t100.5 157t149 98t181.5 35q101 0 182 -28t142.5 -89t95.5 -152l-151 -60q-18 60 -61 99.5t-95 56t-115 16.5 q-66 0 -122.5 -24t-97 -67.5t-63 -106t-22.5 -136.5v-129q0 -161 83.5 -249t221.5 -88q202 0 275 148l152 -58q-61 -123 -170.5 -185t-256.5 -62z" />
<glyph unicode="&#x10e;" horiz-adv-x="1371" d="M544 1662l-234 236l86 76l238 -154l234 152l89 -74l-233 -236h-180zM154 0v1527h523q119 0 224 -46t185 -130t126 -214t46 -288v-178q0 -163 -44.5 -292t-123 -211t-183.5 -125t-230 -43h-523zM316 158h361q200 0 309.5 133t109.5 380v178q0 121 -31.5 219.5t-87 164.5 t-132.5 101.5t-168 35.5h-361v-1212z" />
<glyph unicode="&#x10f;" horiz-adv-x="1521" d="M1325 1106v332q0 50 30.5 81.5t76.5 31.5q50 0 83.5 -31.5t33.5 -81.5q0 -9 -1.5 -19t-2.5 -16.5t-5.5 -18t-5.5 -15t-8 -18.5t-8 -17l-108 -228h-85zM572 138q55 0 105.5 21t92.5 60.5t67 103.5t25 143v127q0 58 -13.5 109.5t-39.5 92t-61 70t-80 45t-96 15.5 q-142 0 -217.5 -88.5t-75.5 -243.5v-127q0 -79 23.5 -142.5t63.5 -103.5t93 -61t113 -21zM556 -19q-66 0 -129.5 20t-119 61t-97.5 98t-66.5 136.5t-24.5 171.5v125q0 91 22 169.5t61.5 136.5t94 99.5t120.5 62.5t139 21q104 0 191.5 -53.5t110.5 -133.5v632h166v-1527h-164 v154q-23 -52 -71 -92t-108.5 -60.5t-124.5 -20.5z" />
<glyph unicode="&#x110;" horiz-adv-x="1457" d="M763 0h-523v686h-221v155h221v686h523q95 0 182 -28.5t159.5 -86t126 -137.5t83.5 -189.5t30 -236.5v-178q0 -163 -44.5 -292t-123 -211t-183.5 -125t-230 -43zM402 158h361q200 0 309.5 133t109.5 380v178q0 121 -31 219.5t-87 164.5t-133 101.5t-168 35.5h-361v-529 h338v-155h-338v-528z" />
<glyph unicode="&#x111;" horiz-adv-x="1212" d="M572 138q55 0 105.5 21t92.5 60.5t67 103.5t25 143v127q0 58 -13.5 109.5t-39.5 92t-61 70t-80 45t-96 15.5q-142 0 -217.5 -88.5t-75.5 -243.5v-127q0 -79 23.5 -142.5t63.5 -103.5t93 -61t113 -21zM860 154q-23 -52 -71 -92t-108.5 -60.5t-124.5 -20.5q-66 0 -129.5 20 t-119 61t-97.5 98t-66.5 136.5t-24.5 171.5v125q0 91 22 169.5t61.5 136.5t94 99.5t120.5 62.5t139 21q104 0 191.5 -53.5t110.5 -133.5v346h-304v150h304v136h166v-136h180v-150h-180v-1241h-164v154z" />
<glyph unicode="&#x112;" horiz-adv-x="1272" d="M230 1727v157h813v-157h-813zM164 0v1527h940v-157h-780v-516h633v-157h-633v-539h805v-158h-965z" />
<glyph unicode="&#x113;" horiz-adv-x="1173" d="M170 1346v158h813v-158h-813zM604 -26q-98 0 -184.5 32.5t-154 93.5t-107 158t-39.5 218v103q0 103 24 187.5t66 142.5t101 98t128 58.5t147 18.5q99 0 180.5 -30t144.5 -90t98 -159.5t35 -230.5v-116h-762q1 -84 28 -148t73.5 -102t103.5 -57.5t123 -19.5q199 0 298 129 l125 -100q-53 -68 -118 -109.5t-139.5 -59t-170.5 -17.5zM281 613h597q0 161 -77.5 237.5t-213.5 76.5q-139 0 -221 -78t-85 -236z" />
<glyph unicode="&#x114;" horiz-adv-x="1219" d="M615 1658q-96 0 -199 55t-164 140l99 95q55 -60 128.5 -98t135.5 -38q66 0 135.5 35.5t129.5 100.5l99 -95q-59 -93 -159.5 -144t-204.5 -51zM164 0v1527h940v-157h-780v-516h633v-157h-633v-539h805v-158h-965z" />
<glyph unicode="&#x115;" horiz-adv-x="1173" d="M579 1275q-96 0 -199.5 55.5t-164.5 140.5l99 95q55 -61 128.5 -98.5t136.5 -37.5q66 0 135 35.5t129 100.5l99 -95q-40 -62 -101.5 -107.5t-128.5 -67t-133 -21.5zM604 -26q-98 0 -184.5 32.5t-154 93.5t-107 158t-39.5 218v103q0 103 24 187.5t66 142.5t101 98 t128 58.5t147 18.5q99 0 180.5 -30t144.5 -90t98 -159.5t35 -230.5v-116h-762q1 -84 28 -148t73.5 -102t103.5 -57.5t123 -19.5q199 0 298 129l125 -100q-53 -68 -118 -109.5t-139.5 -59t-170.5 -17.5zM281 613h597q0 161 -77.5 237.5t-213.5 76.5q-139 0 -221 -78t-85 -236 z" />
<glyph unicode="&#x116;" horiz-adv-x="1272" d="M640 1688q-48 0 -85.5 36t-37.5 88q0 51 38 89t85 38q49 0 87 -37.5t38 -89.5t-37.5 -88t-87.5 -36zM164 0v1527h940v-157h-780v-516h633v-157h-633v-539h805v-158h-965z" />
<glyph unicode="&#x117;" horiz-adv-x="1173" d="M587 1305q-48 0 -86.5 36.5t-38.5 88.5q0 51 38.5 89t86.5 38q49 0 87 -38t38 -89q0 -52 -38 -88.5t-87 -36.5zM604 -26q-98 0 -184.5 32.5t-154 93.5t-107 158t-39.5 218v103q0 103 24 187.5t66 142.5t101 98t128 58.5t147 18.5q99 0 180.5 -30t144.5 -90t98 -159.5 t35 -230.5v-116h-762q1 -84 28 -148t73.5 -102t103.5 -57.5t123 -19.5q199 0 298 129l125 -100q-53 -68 -118 -109.5t-139.5 -59t-170.5 -17.5zM281 613h597q0 161 -77.5 237.5t-213.5 76.5q-139 0 -221 -78t-85 -236z" />
<glyph unicode="&#x118;" horiz-adv-x="1272" d="M1133 -462h-195q-46 0 -86.5 19t-66.5 52.5t-36.5 74.5t4 90t53.5 95q10 11 119 131h-761v1527h940v-157h-780v-516h633v-157h-633v-539h805v-137l12 -21l-199 -219q-23 -25 -31 -44t3.5 -31t46.5 -12h172v-156z" />
<glyph unicode="&#x119;" horiz-adv-x="1173" d="M916 -404l-196 2q-45 0 -85.5 19t-66.5 52.5t-36.5 74.5t4.5 90t55 95q21 25 41 45h-28q-98 0 -184.5 32.5t-154 93.5t-107 158t-39.5 218v103q0 103 24 187.5t66 142.5t101 98t128 58.5t147 18.5q99 0 180.5 -30t144.5 -90t98 -159.5t35 -230.5v-116h-762q1 -84 28 -148 t73.5 -102t103.5 -57.5t123 -19.5q199 0 298 129l125 -100q-49 -65 -107 -104l-201 -216q-22 -24 -29.5 -42.5t4 -30.5t45.5 -12l172 -3v-156zM281 613h597q0 161 -77.5 237.5t-213.5 76.5q-139 0 -221 -78t-85 -236z" />
<glyph unicode="&#x11a;" horiz-adv-x="1272" d="M546 1709l-234 237l86 75l238 -154l234 152l89 -73l-232 -237h-181zM164 0v1527h940v-157h-780v-516h633v-157h-633v-539h805v-158h-965z" />
<glyph unicode="&#x11b;" horiz-adv-x="1173" d="M495 1268l-235 238l86 74l239 -154l234 152l88 -72l-232 -238h-180zM604 -26q-98 0 -184.5 32.5t-154 93.5t-107 158t-39.5 218v103q0 103 24 187.5t66 142.5t101 98t128 58.5t147 18.5q99 0 180.5 -30t144.5 -90t98 -159.5t35 -230.5v-116h-762q1 -84 28 -148t73.5 -102 t103.5 -57.5t123 -19.5q199 0 298 129l125 -100q-53 -68 -118 -109.5t-139.5 -59t-170.5 -17.5zM281 613h597q0 161 -77.5 237.5t-213.5 76.5q-139 0 -221 -78t-85 -236z" />
<glyph unicode="&#x11e;" horiz-adv-x="1410" d="M679 1679q-95 0 -198.5 55.5t-164.5 140.5l99 95q55 -60 128.5 -98t135.5 -38q67 0 136 35.5t129 100.5l99 -95q-59 -93 -159.5 -144.5t-204.5 -51.5zM708 -24q-100 0 -187 25.5t-161.5 80t-127.5 135t-83 196t-30 256.5v183q0 168 45.5 302t125.5 219.5t186.5 130.5 t231.5 45q122 0 223 -36.5t170.5 -101.5t113 -150t58.5 -186h-159q-8 44 -25.5 85.5t-50 84.5t-76 74.5t-109.5 51.5t-145 20q-94 0 -172 -34t-135.5 -99.5t-89.5 -169t-32 -234.5v-187q0 -265 113.5 -399.5t315.5 -134.5q204 0 314.5 132.5t110.5 386.5h-406v161h566v-136 q1 -144 -27 -261.5t-80 -198.5t-126 -136t-162 -80t-190 -25z" />
<glyph unicode="&#x11f;" horiz-adv-x="1201" d="M595 1270q-95 0 -198.5 55.5t-164.5 141.5l99 94q55 -60 128.5 -97.5t135.5 -37.5q67 0 136 35.5t129 99.5l99 -94q-59 -93 -159.5 -145t-204.5 -52zM574 140q127 0 206.5 91.5t79.5 248.5v107q0 171 -77 255.5t-209 84.5q-137 0 -216 -93t-79 -268v-65q0 -179 78.5 -270 t216.5 -91zM566 -476q-130 0 -243 52t-177 145q0 1 59 52t60 53q49 -67 127.5 -105.5t171.5 -38.5q150 0 223 83t73 276v111q-17 -40 -50.5 -73t-74.5 -53.5t-86.5 -31.5t-89.5 -11q-92 0 -172.5 35t-140 98t-93.5 157.5t-34 208.5v103q0 111 34.5 205.5t94 158t140 99.5 t171.5 36q105 0 184.5 -38.5t114.5 -112.5v125h164v-1017q0 -135 -34 -235.5t-95.5 -161t-143 -90.5t-183.5 -30z" />
<glyph unicode="&#x120;" horiz-adv-x="1410" d="M708 1731q-49 0 -87 36t-38 88q0 51 38.5 89t86.5 38q31 0 60 -17t47 -46.5t18 -63.5q0 -52 -38 -88t-87 -36zM708 -24q-100 0 -187 25.5t-161.5 80t-127.5 135t-83 196t-30 256.5v183q0 168 45.5 302t125.5 219.5t186.5 130.5t231.5 45q122 0 223 -36.5t170.5 -101.5 t113 -150t58.5 -186h-159q-8 44 -25.5 85.5t-50 84.5t-76 74.5t-109.5 51.5t-145 20q-94 0 -172 -34t-135.5 -99.5t-89.5 -169t-32 -234.5v-187q0 -265 113.5 -399.5t315.5 -134.5q204 0 314.5 132.5t110.5 386.5h-406v161h566v-136q1 -144 -27 -261.5t-80 -198.5t-126 -136 t-162 -80t-190 -25z" />
<glyph unicode="&#x121;" horiz-adv-x="1201" d="M600 1314q-48 0 -86 36t-38 88q0 34 18 63.5t46.5 47t59.5 17.5q48 0 86 -38t38 -90t-37.5 -88t-86.5 -36zM574 140q127 0 206.5 91.5t79.5 248.5v107q0 171 -77 255.5t-209 84.5q-137 0 -216 -93t-79 -268v-65q0 -179 78.5 -270t216.5 -91zM566 -476q-130 0 -243 52 t-177 145q0 1 59 52t60 53q49 -67 127.5 -105.5t171.5 -38.5q150 0 223 83t73 276v111q-17 -40 -50.5 -73t-74.5 -53.5t-86.5 -31.5t-89.5 -11q-92 0 -172.5 35t-140 98t-93.5 157.5t-34 208.5v103q0 111 34.5 205.5t94 158t140 99.5t171.5 36q105 0 184.5 -38.5 t114.5 -112.5v125h164v-1017q0 -135 -34 -235.5t-95.5 -161t-143 -90.5t-183.5 -30z" />
<glyph unicode="&#x123;" horiz-adv-x="1201" d="M701 1600v-235q0 -44 -34 -76.5t-78 -32.5q-43 0 -77 32.5t-34 76.5q0 11 2.5 22t7 21.5t9.5 20t12.5 19t13.5 17.5t13.5 17.5t11.5 15.5l78 102h75zM574 140q127 0 206.5 91.5t79.5 248.5v107q0 171 -77 255.5t-209 84.5q-137 0 -216 -93t-79 -268v-65q0 -179 78.5 -270 t216.5 -91zM566 -476q-130 0 -243 52t-177 145q0 1 59 52t60 53q49 -67 127.5 -105.5t171.5 -38.5q150 0 223 83t73 276v111q-17 -40 -50.5 -73t-74.5 -53.5t-86.5 -31.5t-89.5 -11q-92 0 -172.5 35t-140 98t-93.5 157.5t-34 208.5v103q0 111 34.5 205.5t94 158t140 99.5 t171.5 36q105 0 184.5 -38.5t114.5 -112.5v125h164v-1017q0 -135 -34 -235.5t-95.5 -161t-143 -90.5t-183.5 -30z" />
<glyph unicode="&#x126;" horiz-adv-x="1408" d="M335 845h738v304h-738v-304zM335 688v-688h-161v1149h-174v148h174v230h161v-230h738v230h162v-230h163v-148h-163v-1149h-162v688h-738z" />
<glyph unicode="&#x127;" horiz-adv-x="1212" d="M335 581v-581h-161v1247h-155v140h155v140h161v-140h334v-140h-334v-326q28 67 123 116t187 49q205 0 312.5 -126.5t107.5 -378.5v-581h-162v581q0 103 -15 170.5t-49.5 107t-82.5 55t-120 15.5q-133 0 -217 -98t-84 -250z" />
<glyph unicode="&#x12a;" horiz-adv-x="502" d="M15 1734v152h473v-152h-473zM164 0v1527h160v-1527h-160z" />
<glyph unicode="&#x12b;" horiz-adv-x="509" d="M33 1290v177h445v-177h-445zM164 0v1058h160v-1058h-160z" />
<glyph unicode="&#x12c;" horiz-adv-x="500" d="M248 1656q-96 0 -180.5 72t-108.5 175l110 43q17 -40 42 -70t60.5 -48t76.5 -18q64 0 111 37.5t67 98.5l116 -28q-14 -77 -59.5 -138t-107 -92.5t-127.5 -31.5zM164 0v1527h160v-1527h-160z" />
<glyph unicode="&#x12d;" horiz-adv-x="513" d="M254 1266q-95 0 -179.5 72.5t-109.5 175.5l111 43q16 -40 41.5 -69.5t60.5 -47.5t76 -18q64 0 111 37.5t68 97.5l115 -28q-21 -116 -106.5 -189.5t-187.5 -73.5zM164 0v1058h160v-1058h-160z" />
<glyph unicode="&#x12e;" horiz-adv-x="502" d="M353 -441h-195q-46 0 -86.5 19t-66.5 52.5t-36.5 75t4 90.5t53.5 95q13 14 64.5 70t75.5 84v1482h161v-1449l34 -57l-199 -218q-17 -19 -25.5 -34t-8.5 -27t13.5 -19t39.5 -7h172v-157z" />
<glyph unicode="&#x12f;" horiz-adv-x="502" d="M164 1299v228h160v-228h-160zM353 -441h-195q-46 0 -86.5 19t-66.5 52.5t-36.5 75t4 90.5t53.5 95q12 14 63 69t75 83v1015h160v-976l37 -61l-199 -218q-17 -19 -25.5 -34t-8.5 -27t13.5 -19t39.5 -7h172v-157z" />
<glyph unicode="&#x130;" horiz-adv-x="502" d="M252 1682q-48 0 -86.5 36t-38.5 88q0 51 38.5 89t86.5 38q49 0 86.5 -38t37.5 -89q0 -52 -37.5 -88t-86.5 -36zM164 0v1527h160v-1527h-160z" />
<glyph unicode="&#x131;" horiz-adv-x="487" d="M164 0v1058h160v-1058h-160z" />
<glyph unicode="&#x136;" horiz-adv-x="1344" d="M164 0v1527h160v-811l736 811h218l-611 -673l636 -854h-202l-545 733l-232 -259v-474h-160zM562 -454v235q0 44 33.5 77t77.5 33q43 0 77.5 -33t34.5 -77q0 -16 -4.5 -31t-13 -29.5t-16.5 -25.5t-20 -25.5t-17 -22.5l-78 -101h-74z" />
<glyph unicode="&#x137;" horiz-adv-x="1089" d="M164 0v1527h160v-955l480 486h226l-454 -461l478 -597h-207l-385 482l-138 -138v-344h-160zM468 -474v236q0 29 16 54.5t42 40t55 14.5q42 0 76.5 -32.5t34.5 -76.5q0 -16 -4.5 -31t-13 -29.5t-16.5 -25t-19.5 -25.5t-16.5 -23l-78 -102h-76z" />
<glyph unicode="&#x139;" horiz-adv-x="1199" d="M164 1714l242 393l168 -148l-254 -245h-156zM168 0v1527h161v-1369h759v-158h-920z" />
<glyph unicode="&#x13a;" horiz-adv-x="513" d="M117 1617l126 318l170 -148l-140 -170h-156zM164 0v1527h160v-1527h-160z" />
<glyph unicode="&#x13b;" horiz-adv-x="1199" d="M168 0v1527h161v-1369h759v-158h-920zM468 -513v234q0 44 34.5 76.5t78.5 32.5q42 0 76.5 -32.5t34.5 -76.5q0 -19 -8.5 -39.5t-16 -32.5t-24.5 -34t-21 -28l-78 -100h-76z" />
<glyph unicode="&#x13c;" horiz-adv-x="498" d="M164 0v1527h160v-1527h-160zM146 -517v236q0 44 34 76.5t78 32.5q43 0 77.5 -32.5t34.5 -76.5q0 -19 -8.5 -39.5t-16.5 -32.5t-24.5 -34t-21.5 -28l-77 -102h-76z" />
<glyph unicode="&#x13d;" horiz-adv-x="1201" d="M656 1090v334q0 32 14 57.5t38.5 39.5t54.5 14q51 0 84 -31t33 -80q0 -9 -0.5 -16.5t-3 -16.5t-3.5 -13.5t-5 -15t-5 -13.5t-6.5 -16t-7.5 -15l-107 -228h-86zM168 0v1527h161v-1369h759v-158h-920z" />
<glyph unicode="&#x13e;" horiz-adv-x="898" d="M626 1106v332q0 50 30 81.5t77 31.5q50 0 83 -31.5t33 -81.5q0 -9 -1 -19t-2 -16.5t-5.5 -18t-6 -15t-8 -18.5t-7.5 -17l-107 -228h-86zM164 0v1527h160v-1527h-160z" />
<glyph unicode="&#x13f;" horiz-adv-x="1180" d="M168 0v1527h161v-1369h759v-158h-920zM907 701q-48 0 -86.5 36t-38.5 88q0 51 39 89t86 38q49 0 87 -37.5t38 -89.5t-37.5 -88t-87.5 -36z" />
<glyph unicode="&#x140;" horiz-adv-x="842" d="M164 0v1527h160v-1527h-160zM658.5 643q-47.5 0 -85 36t-37.5 86q0 26 10.5 49t27.5 40t39 26.5t45 9.5q48 0 85 -37t37 -87.5t-37 -86.5t-84.5 -36z" />
<glyph unicode="&#x141;" horiz-adv-x="1188" d="M1116 0h-921v591l-146 -74l-73 141l219 114v755h162v-671l383 198l73 -143l-456 -236v-517h759v-158z" />
<glyph unicode="&#x142;" horiz-adv-x="595" d="M370 0h-161v718l-170 -84l-74 144l244 121v628h161v-548l184 90l72 -146l-256 -125v-798z" />
<glyph unicode="&#x143;" horiz-adv-x="1470" d="M579 1632l242 393l168 -148l-254 -245h-156zM164 0v1527h199l792 -1279v1279h161v-1527h-198l-794 1284v-1284h-160z" />
<glyph unicode="&#x144;" horiz-adv-x="1176" d="M437 1250l242 393l168 -149l-254 -244h-156zM176 0v1058h159v-133q41 76 125.5 119.5t186.5 43.5q85 0 158 -32.5t126.5 -93t83.5 -152.5t30 -206v-604h-161v602q0 166 -65 247.5t-204 81.5q-131 0 -204 -87.5t-73 -241.5v-602h-162z" />
<glyph unicode="&#x145;" horiz-adv-x="1470" d="M164 0v1527h199l792 -1279v1279h161v-1527h-198l-794 1284v-1284h-160zM636 -511v234q0 44 34.5 76.5t78.5 32.5q42 0 76.5 -32.5t34.5 -76.5q0 -19 -8.5 -39.5t-16 -32.5t-24.5 -34t-21 -28l-78 -100h-76z" />
<glyph unicode="&#x146;" horiz-adv-x="1085" d="M176 0v1058h159v-133q41 76 125.5 119.5t186.5 43.5q85 0 158 -32.5t126.5 -93t83.5 -152.5t30 -206v-604h-161v602q0 166 -65 247.5t-204 81.5q-131 0 -204 -87.5t-73 -241.5v-602h-162zM503 -517v236q0 44 34 76.5t78 32.5q43 0 77.5 -32.5t34.5 -76.5q0 -16 -4.5 -31 t-13.5 -29.5t-16.5 -25t-19.5 -25.5t-17 -23l-77 -102h-76z" />
<glyph unicode="&#x147;" horiz-adv-x="1479" d="M656 1621l-235 236l86 76l240 -154l234 152l88 -74l-232 -236h-181zM164 0v1527h199l792 -1279v1279h161v-1527h-198l-794 1284v-1284h-160z" />
<glyph unicode="&#x148;" horiz-adv-x="1176" d="M497 1266l-235 238l87 74l238 -154l234 152l88 -72l-232 -238h-180zM176 0v1058h159v-133q41 76 125.5 119.5t186.5 43.5q85 0 158 -32.5t126.5 -93t83.5 -152.5t30 -206v-604h-161v602q0 166 -65 247.5t-204 81.5q-131 0 -204 -87.5t-73 -241.5v-602h-162z" />
<glyph unicode="&#x14c;" d="M279 1707v158h813v-158h-813zM699 -17q-126 0 -230.5 42.5t-183.5 126t-122.5 216t-43.5 303.5v183q0 132 27 243t77.5 194t121.5 140.5t160.5 86.5t193.5 29q131 0 238.5 -47t184 -134.5t118.5 -218.5t42 -293v-183q0 -165 -43 -296.5t-120.5 -216.5t-184 -130 t-235.5 -45zM699 140q201 0 311 136.5t110 394.5v183q0 257 -110.5 396t-310.5 139q-201 0 -310.5 -137.5t-109.5 -397.5v-183q0 -259 109.5 -395t310.5 -136z" />
<glyph unicode="&#x14d;" horiz-adv-x="1171" d="M174 1342v156h813v-156h-813zM583 -19q-69 0 -134 18.5t-123.5 58.5t-102 97.5t-69 140.5t-25.5 182v105q0 116 35.5 211.5t97 157.5t144 96t177.5 34q75 0 144 -22.5t126.5 -66t100 -103t66 -138.5t23.5 -169v-105q0 -71 -14 -134t-38.5 -112.5t-58.5 -91t-74.5 -70.5 t-86 -49.5t-93 -30t-95.5 -9.5zM583 138q39 0 77.5 9.5t79.5 34.5t72 62t50.5 97t19.5 135v107q0 103 -39.5 181.5t-107 119.5t-152.5 41q-89 0 -154.5 -40t-102 -117.5t-36.5 -184.5v-107q0 -73 17.5 -132t46.5 -96.5t67.5 -63t78.5 -36t83 -10.5z" />
<glyph unicode="&#x14e;" horiz-adv-x="1399" d="M681 1675q-62 0 -131 25t-130.5 70t-101.5 101l99 95q55 -61 128.5 -98.5t135.5 -37.5q44 0 90 16t90.5 46.5t84.5 73.5l99 -95q-40 -62 -101.5 -107.5t-128.5 -67t-134 -21.5zM699 -17q-126 0 -230.5 42.5t-183.5 126t-122.5 216t-43.5 303.5v183q0 132 27 243t77.5 194 t121.5 140.5t160.5 86.5t193.5 29q131 0 238.5 -47t184 -134.5t118.5 -218.5t42 -293v-183q0 -165 -43 -296.5t-120.5 -216.5t-184 -130t-235.5 -45zM699 140q201 0 311 136.5t110 394.5v183q0 257 -110.5 396t-310.5 139q-201 0 -310.5 -137.5t-109.5 -397.5v-183 q0 -259 109.5 -395t310.5 -136z" />
<glyph unicode="&#x14f;" horiz-adv-x="1176" d="M568 1219q-96 0 -199 55.5t-164 140.5l98 95q56 -60 129 -98t136 -38q66 0 135.5 35.5t129.5 100.5l98 -95q-59 -93 -159.5 -144.5t-203.5 -51.5zM583 -19q-69 0 -134 18.5t-123.5 58.5t-102 97.5t-69 140.5t-25.5 182v105q0 116 35.5 211.5t97 157.5t144 96t177.5 34 q75 0 144 -22.5t126.5 -66t100 -103t66 -138.5t23.5 -169v-105q0 -71 -14 -134t-38.5 -112.5t-58.5 -91t-74.5 -70.5t-86 -49.5t-93 -30t-95.5 -9.5zM583 138q39 0 77.5 9.5t79.5 34.5t72 62t50.5 97t19.5 135v107q0 103 -39.5 181.5t-107 119.5t-152.5 41q-89 0 -154.5 -40 t-102 -117.5t-36.5 -184.5v-107q0 -73 17.5 -132t46.5 -96.5t67.5 -63t78.5 -36t83 -10.5z" />
<glyph unicode="&#x150;" d="M724 1707l197 392l163 -119l-211 -273h-149zM385 1707l198 392l161 -119l-208 -273h-151zM699 -17q-126 0 -230.5 42.5t-183.5 126t-122.5 216t-43.5 303.5v183q0 132 27 243t77.5 194t121.5 140.5t160.5 86.5t193.5 29q131 0 238.5 -47t184 -134.5t118.5 -218.5t42 -293 v-183q0 -165 -43 -296.5t-120.5 -216.5t-184 -130t-235.5 -45zM699 140q201 0 311 136.5t110 394.5v183q0 257 -110.5 396t-310.5 139q-201 0 -310.5 -137.5t-109.5 -397.5v-183q0 -259 109.5 -395t310.5 -136z" />
<glyph unicode="&#x151;" horiz-adv-x="1171" d="M636 1262l197 392l162 -119l-210 -273h-149zM297 1262l198 392l161 -119l-209 -273h-150zM583 -19q-69 0 -134 18.5t-123.5 58.5t-102 97.5t-69 140.5t-25.5 182v105q0 116 35.5 211.5t97 157.5t144 96t177.5 34q75 0 144 -22.5t126.5 -66t100 -103t66 -138.5t23.5 -169 v-105q0 -71 -14 -134t-38.5 -112.5t-58.5 -91t-74.5 -70.5t-86 -49.5t-93 -30t-95.5 -9.5zM583 138q39 0 77.5 9.5t79.5 34.5t72 62t50.5 97t19.5 135v107q0 103 -39.5 181.5t-107 119.5t-152.5 41q-89 0 -154.5 -40t-102 -117.5t-36.5 -184.5v-107q0 -73 17.5 -132 t46.5 -96.5t67.5 -63t78.5 -36t83 -10.5z" />
<glyph unicode="&#x152;" horiz-adv-x="2212" d="M638 140q201 0 311.5 137t110.5 394v183q0 256 -111 395.5t-311 139.5q-133 0 -226.5 -61t-143 -181t-49.5 -293v-183q0 -260 109 -395.5t310 -135.5zM1155 0v312q-70 -161 -204.5 -245t-312.5 -84q-125 0 -230 42.5t-183.5 126t-122.5 216t-44 303.5v183q0 165 42 296.5 t118.5 218t183 132.5t236.5 46q180 0 314 -86.5t203 -247.5v314h940v-157h-779v-516h632v-157h-632v-539h804v-158h-965z" />
<glyph unicode="&#x153;" horiz-adv-x="1878" d="M1357 -26q-136 0 -248 61t-176 176q-62 -111 -170 -170.5t-227 -59.5q-70 0 -134.5 18.5t-123 58.5t-102 97.5t-69 140.5t-25.5 182v105q0 116 35.5 211.5t97 157.5t144 96t177.5 34q124 0 228 -60.5t165 -167.5q58 115 165 172.5t244 57.5q99 0 180.5 -30t144.5 -90 t98 -159.5t35 -230.5v-116h-762q1 -84 28 -148t73 -102t103 -57.5t123 -19.5q200 0 299 129l125 -100q-78 -101 -181 -143.5t-247 -42.5zM1034 613h596q0 66 -14 118.5t-39 89t-61 60.5t-80 35t-96 11q-92 0 -158.5 -32.5t-106 -104t-41.5 -177.5zM536 138q38 0 77 9.5 t79.5 34.5t71.5 62t51 97t20 135v107q0 103 -39.5 181.5t-107 119.5t-152.5 41q-89 0 -154.5 -40t-102 -117.5t-36.5 -184.5v-107q0 -73 17.5 -132t46 -96.5t67.5 -63t79 -36t83 -10.5z" />
<glyph unicode="&#x154;" horiz-adv-x="1326" d="M492 1682l243 393l168 -148l-254 -245h-157zM324 798h355q166 0 257.5 71.5t91.5 205.5q0 90 -45.5 157.5t-124.5 102.5t-179 35h-355v-572zM164 0v1527h517q112 0 207.5 -35t161 -95t103 -142.5t37.5 -177.5q0 -86 -27.5 -159t-71.5 -121.5t-93.5 -79.5t-100.5 -44 l314 -673h-179l-299 640h-409v-640h-160z" />
<glyph unicode="&#x155;" horiz-adv-x="831" d="M299 1250l243 393l168 -149l-254 -244h-157zM164 0v1058h160v-144q13 37 46.5 69.5t75.5 52.5t86 31.5t81 11.5q41 0 66 -1.5t55 -9t56 -21.5l-55 -146q-40 22 -126 22q-131 0 -208 -96.5t-77 -252.5v-574h-160z" />
<glyph unicode="&#x156;" horiz-adv-x="1326" d="M324 798h355q166 0 257.5 71.5t91.5 205.5q0 90 -45.5 157.5t-124.5 102.5t-179 35h-355v-572zM164 0v1527h517q112 0 207.5 -35t161 -95t103 -142.5t37.5 -177.5q0 -86 -27.5 -159t-71.5 -121.5t-93.5 -79.5t-100.5 -44l314 -673h-179l-299 640h-409v-640h-160z M533 -517v236q0 44 34 76.5t78 32.5q20 0 40.5 -9t36.5 -23.5t25.5 -35t9.5 -41.5q0 -19 -8.5 -39.5t-16.5 -33t-25 -33.5t-21 -28l-77 -102h-76z" />
<glyph unicode="&#x157;" horiz-adv-x="831" d="M164 0v1058h160v-144q13 37 46.5 69.5t75.5 52.5t86 31.5t81 11.5q41 0 66 -1.5t55 -9t56 -21.5l-55 -146q-40 22 -126 22q-131 0 -208 -96.5t-77 -252.5v-574h-160zM195 -513v234q0 44 34.5 76.5t78.5 32.5q42 0 76.5 -32.5t34.5 -76.5q0 -19 -8.5 -39.5t-16 -32.5 t-24.5 -34t-21 -28l-78 -100h-76z" />
<glyph unicode="&#x158;" horiz-adv-x="1326" d="M521 1703l-235 236l86 76l239 -154l234 152l88 -74l-232 -236h-180zM324 798h355q166 0 257.5 71.5t91.5 205.5q0 90 -45.5 157.5t-124.5 102.5t-179 35h-355v-572zM164 0v1527h517q112 0 207.5 -35t161 -95t103 -142.5t37.5 -177.5q0 -86 -27.5 -159t-71.5 -121.5 t-93.5 -79.5t-100.5 -44l314 -673h-179l-299 640h-409v-640h-160z" />
<glyph unicode="&#x159;" horiz-adv-x="831" d="M361 1262l-234 236l86 76l239 -154l234 152l88 -74l-232 -236h-181zM164 0v1058h160v-144q13 37 46.5 69.5t75.5 52.5t86 31.5t81 11.5q41 0 66 -1.5t55 -9t56 -21.5l-55 -146q-40 22 -126 22q-131 0 -208 -96.5t-77 -252.5v-574h-160z" />
<glyph unicode="&#x15a;" horiz-adv-x="1305" d="M509 1707l244 394l168 -148l-254 -246h-158zM654 -19q-94 0 -182.5 23.5t-157.5 63t-123 87t-92 101.5l120 103q93 -111 195.5 -166t239.5 -55q168 0 258 77.5t90 217.5q0 48 -9 86t-24 66.5t-43 49.5t-58 35.5t-77 25t-92.5 16.5t-111.5 12q-62 6 -121.5 26t-113 55 t-94 80t-64.5 106t-24 129q0 195 135 312t362 117q151 0 267.5 -50.5t190.5 -139.5l-121 -105q-43 58 -137 97.5t-198 39.5q-101 0 -176.5 -30t-118.5 -90.5t-43 -145.5q0 -51 17.5 -89t48 -64t80 -45t104.5 -30t131 -19q79 -9 145.5 -28.5t124 -55t97 -84.5t62 -119 t22.5 -156q0 -112 -38.5 -199.5t-107.5 -142.5t-161 -83.5t-202 -28.5z" />
<glyph unicode="&#x15b;" horiz-adv-x="1055" d="M351 1221l242 394l168 -148l-254 -246h-156zM540 -26q-54 0 -87.5 1.5t-87 10.5t-95.5 25.5t-95 49t-104 79.5l105 118q131 -127 353 -127q120 0 184.5 43.5t64.5 126.5q0 40 -9 66.5t-28 45t-56 29.5t-86 16.5t-125 7.5q-99 3 -177.5 38t-127 103.5t-48.5 160.5 q0 316 423 316q126 0 221.5 -37t155.5 -101l-106 -121q-4 4 -11.5 11t-33 24.5t-54.5 31t-75 24.5t-95 11q-129 2 -197 -36.5t-68 -110.5q0 -81 74 -116.5t242 -41.5q341 -10 341 -321q0 -153 -101.5 -240t-296.5 -87z" />
<glyph unicode="&#x15e;" horiz-adv-x="1305" d="M905 -406q-31 -97 -120 -139t-198 -5l-140 43l48 150q139 -45 141 -45q38 -15 74 -3.5t45 48.5q8 27 2 48.5t-26.5 37t-53.5 23.5l-129 41l54 190q-166 12 -296.5 89t-206.5 184l120 103q93 -111 195.5 -166t239.5 -55q168 0 258 77.5t90 217.5q0 48 -9 86t-24 66.5 t-43 49.5t-58 35.5t-77 25t-92.5 16.5t-111.5 12q-62 6 -121.5 26t-113 55t-94 80t-64.5 106t-24 129q0 195 135 312t362 117q151 0 267.5 -50.5t190.5 -139.5l-121 -105q-43 58 -137 97.5t-198 39.5q-101 0 -176.5 -30t-118.5 -90.5t-43 -145.5q0 -51 17.5 -89t48 -64 t80 -45t104.5 -30t131 -19q79 -9 145.5 -28.5t124 -55t97 -84.5t62 -119t22.5 -156q0 -108 -36 -193.5t-101 -140.5t-152 -85.5t-193 -34.5l27 -80q129 -36 179.5 -116.5t17.5 -190.5z" />
<glyph unicode="&#x15f;" horiz-adv-x="1055" d="M742 -387q-31 -97 -120 -139t-199 -5l-139 43l47 150q140 -45 143 -45q38 -15 73 -3.5t44 48.5q13 40 -7.5 69t-70.5 41l-128 41l48 163q-96 9 -182.5 44.5t-179.5 119.5l105 118q131 -127 353 -127q120 0 184.5 43.5t64.5 126.5q0 40 -9 66.5t-28 45t-56 29.5t-86 16.5 t-125 7.5q-99 3 -177.5 38t-127 103.5t-48.5 160.5q0 316 423 316q126 0 221.5 -37t155.5 -101l-106 -121q-4 4 -11.5 11t-33 24.5t-54.5 31t-75 24.5t-95 11q-129 2 -197 -36.5t-68 -110.5q0 -81 74 -116.5t242 -41.5q341 -10 341 -321q0 -153 -101.5 -240t-296.5 -87h-13 l17 -54q129 -36 180 -116.5t18 -190.5z" />
<glyph unicode="&#x160;" horiz-adv-x="1305" d="M566 1707l-235 237l86 75l239 -154l234 152l89 -73l-232 -237h-181zM654 -19q-94 0 -182.5 23.5t-157.5 63t-123 87t-92 101.5l120 103q93 -111 195.5 -166t239.5 -55q168 0 258 77.5t90 217.5q0 48 -9 86t-24 66.5t-43 49.5t-58 35.5t-77 25t-92.5 16.5t-111.5 12 q-62 6 -121.5 26t-113 55t-94 80t-64.5 106t-24 129q0 195 135 312t362 117q151 0 267.5 -50.5t190.5 -139.5l-121 -105q-43 58 -137 97.5t-198 39.5q-101 0 -176.5 -30t-118.5 -90.5t-43 -145.5q0 -51 17.5 -89t48 -64t80 -45t104.5 -30t131 -19q79 -9 145.5 -28.5t124 -55 t97 -84.5t62 -119t22.5 -156q0 -112 -38.5 -199.5t-107.5 -142.5t-161 -83.5t-202 -28.5z" />
<glyph unicode="&#x161;" horiz-adv-x="1055" d="M433 1266l-236 238l87 74l239 -154l234 152l88 -72l-232 -238h-180zM540 -26q-54 0 -87.5 1.5t-87 10.5t-95.5 25.5t-95 49t-104 79.5l105 118q131 -127 353 -127q120 0 184.5 43.5t64.5 126.5q0 40 -9 66.5t-28 45t-56 29.5t-86 16.5t-125 7.5q-99 3 -177.5 38 t-127 103.5t-48.5 160.5q0 316 423 316q126 0 221.5 -37t155.5 -101l-106 -121q-4 4 -11.5 11t-33 24.5t-54.5 31t-75 24.5t-95 11q-129 2 -197 -36.5t-68 -110.5q0 -81 74 -116.5t242 -41.5q341 -10 341 -321q0 -153 -101.5 -240t-296.5 -87z" />
<glyph unicode="&#x162;" horiz-adv-x="1242" d="M882 -406q-31 -97 -120 -139t-198 -5l-141 43l48 150q140 -45 142 -45q38 -15 73.5 -3.5t44.5 48.5q12 40 -7.5 68.5t-69.5 40.5l-129 41l58 207h-43v1370h-450v157h1063v-157h-449v-1370h-50l30 -99q129 -36 180 -116.5t18 -190.5z" />
<glyph unicode="&#x163;" horiz-adv-x="749" d="M613 -316q-31 -97 -120 -138.5t-198 -5.5l-141 43l49 150q139 -45 141 -45q39 -14 74 -2.5t44 47.5q13 40 -7 68.5t-70 40.5l-129 41l60 211h6q-79 87 -79 212v599h-167v155h167v358h161v-358h224v-155h-224v-604q0 -153 224 -153v-156h-62q-86 0 -164 43l13 -43 q129 -37 180 -117.5t18 -190.5z" />
<glyph unicode="&#x164;" horiz-adv-x="1242" d="M525 1714l-235 237l86 74l239 -154l234 152l89 -72l-232 -237h-181zM540 0v1370h-450v157h1063v-157h-449v-1370h-164z" />
<glyph unicode="&#x165;" horiz-adv-x="936" d="M697 1217v334q0 49 30.5 80t76.5 31q50 0 83.5 -31t33.5 -80q0 -9 -0.5 -16.5t-3 -16.5t-3.5 -13.5t-5 -15t-5 -13.5t-7 -16t-7 -15l-108 -228h-85zM243 306v599h-167v155h167v358h161v-358h224v-155h-224v-604q0 -153 224 -153v-156h-62q-44 0 -89 12t-87 37.5t-75 62 t-52.5 89t-19.5 113.5z" />
<glyph unicode="&#x16a;" horiz-adv-x="1303" d="M240 1740v156h814v-156h-814zM645 -24q-168 0 -286.5 72.5t-181.5 218.5t-63 357v903h161v-907q0 -251 93.5 -369t276.5 -118q185 0 276.5 119t91.5 368v907h161v-903q0 -312 -135 -480t-394 -168z" />
<glyph unicode="&#x16b;" horiz-adv-x="1153" d="M152 1336v156h814v-156h-814zM536 -24q-88 0 -162 30.5t-128.5 88t-85.5 147t-31 201.5v615h161v-615q0 -310 260 -310q62 0 111.5 20.5t84 59.5t53 97.5t18.5 132.5v615h162v-1058h-162v140q-19 -49 -66.5 -87.5t-104.5 -57.5t-110 -19z" />
<glyph unicode="&#x16c;" horiz-adv-x="1303" d="M652 1658q-96 0 -199.5 55t-164.5 140l99 95q56 -60 129 -98t136 -38q66 0 135 35.5t129 100.5l99 -95q-59 -93 -159 -144t-204 -51zM645 -24q-168 0 -286.5 72.5t-181.5 218.5t-63 357v903h161v-907q0 -251 93.5 -369t276.5 -118q185 0 276.5 119t91.5 368v907h161v-903 q0 -312 -135 -480t-394 -168z" />
<glyph unicode="&#x16d;" horiz-adv-x="1153" d="M546 1258q-96 0 -199 55t-164 140l98 96q56 -60 129 -98t136 -38q33 0 67.5 9t68 26.5t66.5 43t63 57.5l98 -96q-59 -93 -159.5 -144t-203.5 -51zM536 -24q-88 0 -162 30.5t-128.5 88t-85.5 147t-31 201.5v615h161v-615q0 -310 260 -310q62 0 111.5 20.5t84 59.5t53 97.5 t18.5 132.5v615h162v-1058h-162v140q-19 -49 -66.5 -87.5t-104.5 -57.5t-110 -19z" />
<glyph unicode="&#x16e;" horiz-adv-x="1303" d="M671 1561q-96 0 -170.5 72t-74.5 173q0 95 75.5 170.5t169.5 75.5q60 0 116.5 -34.5t91.5 -92t35 -119.5q0 -67 -35 -124t-91 -89t-117 -32zM671 1686q34 0 60.5 15t41.5 41.5t15 59.5q0 48 -33.5 83t-84 35t-84.5 -35t-34 -83q0 -50 33.5 -83t85.5 -33zM645 -24 q-168 0 -286.5 72.5t-181.5 218.5t-63 357v903h161v-907q0 -251 93.5 -369t276.5 -118q185 0 276.5 119t91.5 368v907h161v-903q0 -312 -135 -480t-394 -168z" />
<glyph unicode="&#x16f;" horiz-adv-x="1153" d="M562 1194q-96 0 -171 72t-75 172q0 95 76 170.5t170 75.5q60 0 116.5 -34.5t91 -91.5t34.5 -120q0 -66 -35 -123t-90.5 -89t-116.5 -32zM562 1318q51 0 83 33t32 83q0 31 -14 58t-41 44t-60 17q-51 0 -85 -35.5t-34 -83.5q0 -50 33.5 -83t85.5 -33zM536 -24 q-88 0 -162 30.5t-128.5 88t-85.5 147t-31 201.5v615h161v-615q0 -310 260 -310q62 0 111.5 20.5t84 59.5t53 97.5t18.5 132.5v615h162v-1058h-162v140q-19 -49 -66.5 -87.5t-104.5 -57.5t-110 -19z" />
<glyph unicode="&#x170;" horiz-adv-x="1303" d="M690 1705l196 392l163 -119l-210 -273h-149zM351 1705l197 392l162 -119l-209 -273h-150zM645 -24q-168 0 -286.5 72.5t-181.5 218.5t-63 357v903h161v-907q0 -251 93.5 -369t276.5 -118q185 0 276.5 119t91.5 368v907h161v-903q0 -312 -135 -480t-394 -168z" />
<glyph unicode="&#x171;" horiz-adv-x="1153" d="M587 1290l195 392l164 -119l-211 -273h-148zM248 1290l197 392l162 -119l-209 -273h-150zM536 -24q-88 0 -162 30.5t-128.5 88t-85.5 147t-31 201.5v615h161v-615q0 -310 260 -310q62 0 111.5 20.5t84 59.5t53 97.5t18.5 132.5v615h162v-1058h-162v140 q-19 -49 -66.5 -87.5t-104.5 -57.5t-110 -19z" />
<glyph unicode="&#x172;" horiz-adv-x="1303" d="M852 -445h-196q-45 0 -85.5 19t-66.5 52.5t-36.5 74.5t3.5 90t54 95q13 16 82 90q-236 13 -364.5 178.5t-128.5 469.5v903h161v-907q0 -251 93.5 -369t276.5 -118q185 0 276.5 119t91.5 368v907h161v-903q0 -242 -80.5 -398t-237.5 -216l-196 -213q-22 -25 -30 -43 t3.5 -30t45.5 -12h173v-157z" />
<glyph unicode="&#x173;" horiz-adv-x="1153" d="M993 -462h-195q-46 0 -86.5 19t-66 52.5t-36.5 74.5t3.5 90t54.5 95q13 15 150 166v105q-19 -49 -66.5 -87.5t-104.5 -57.5t-110 -19q-88 0 -162 30.5t-128.5 88t-85.5 147t-31 201.5v615h161v-615q0 -310 260 -310q62 0 111.5 20.5t84 59.5t53 97.5t18.5 132.5v615h162 v-1019l23 -39l-200 -219q-22 -25 -30 -44t3.5 -31t45.5 -12h172v-156z" />
<glyph unicode="&#x174;" horiz-adv-x="1947" d="M757 1592l-86 74l234 240h181l232 -238l-91 -74l-232 152zM468 0l-419 1527h168l347 -1246l361 1106h113l355 -1118l336 1258h167l-408 -1527h-179l-328 1043l-334 -1043h-179z" />
<glyph unicode="&#x175;" horiz-adv-x="1551" d="M533 1252l-86 75l234 239h181l232 -237l-90 -75l-232 152zM433 0l-345 1058h170l249 -770l222 770h129l238 -768l235 768h171l-326 -1058h-156l-220 699l-215 -699h-152z" />
<glyph unicode="&#x176;" horiz-adv-x="1293" d="M415 1660l-86 76l235 238h180l232 -236l-90 -76l-232 153zM566 0v611l-512 916h184l409 -731l407 731h185l-512 -916v-611h-161z" />
<glyph unicode="&#x177;" horiz-adv-x="1126" d="M322 1252l-86 75l235 239h181l232 -237l-90 -75l-232 152zM127 -394l47 151q110 -36 166 -10.5t95 126.5q1 3 23 63t22 62l-404 1060h174l312 -834l318 834h171l-483 -1267q-21 -56 -51.5 -98t-66 -65.5t-75 -36.5t-82 -13t-83.5 7t-83 21z" />
<glyph unicode="&#x178;" horiz-adv-x="1293" d="M868 1666q-44 0 -78.5 35t-34.5 82q0 31 16.5 57.5t42.5 41t54 14.5q46 0 81.5 -33t35.5 -80t-35.5 -82t-81.5 -35zM428 1666q-44 0 -79 35t-35 82q0 31 16.5 57.5t43 41t54.5 14.5q46 0 81 -33t35 -80q0 -31 -16.5 -58t-43 -43t-56.5 -16zM566 0v611l-512 916h184 l409 -731l407 731h185l-512 -916v-611h-161z" />
<glyph unicode="&#x179;" horiz-adv-x="1184" d="M433 1707l242 394l168 -148l-254 -246h-156zM69 0v158l830 1212h-807v157h1020v-132l-847 -1237h849v-158h-1045z" />
<glyph unicode="&#x17a;" horiz-adv-x="1014" d="M322 1247l244 394l167 -149l-253 -245h-158zM97 0v131l582 770h-572v157h804v-118l-593 -782h609v-158h-830z" />
<glyph unicode="&#x17b;" horiz-adv-x="1184" d="M581 1738q-31 0 -60 16t-47 45t-18 64q0 33 18 62.5t47 46.5t60 17t60 -17t47 -46.5t18 -62.5q0 -53 -38 -89t-87 -36zM69 0v158l830 1212h-807v157h1020v-132l-847 -1237h849v-158h-1045z" />
<glyph unicode="&#x17c;" horiz-adv-x="1014" d="M511 1301q-48 0 -86 36.5t-38 88.5q0 51 38.5 89t85.5 38q49 0 87 -38t38 -89q0 -52 -37.5 -88.5t-87.5 -36.5zM97 0v131l582 770h-572v157h804v-118l-593 -782h609v-158h-830z" />
<glyph unicode="&#x17d;" horiz-adv-x="1184" d="M492 1722l-234 237l86 75l239 -154l234 152l88 -73l-232 -237h-181zM69 0v158l830 1212h-807v157h1020v-132l-847 -1237h849v-158h-1045z" />
<glyph unicode="&#x17e;" horiz-adv-x="1014" d="M404 1260l-234 236l86 76l239 -154l234 152l88 -74l-232 -236h-181zM97 0v131l582 770h-572v157h804v-118l-593 -782h609v-158h-830z" />
<glyph unicode="&#x1dd;" horiz-adv-x="1165" d="M564 1084q64 0 124.5 -14.5t115 -42t99 -70.5t77.5 -97.5t51 -125t18 -151.5v-103q0 -103 -24 -187.5t-66.5 -143.5t-101.5 -98.5t-127.5 -58t-146.5 -18.5q-99 0 -181 29.5t-144.5 90t-97.5 160t-35 230.5v116h761q0 56 -13 103.5t-35 83t-52.5 63t-67 44t-76.5 25 t-83 8.5q-199 0 -299 -129l-125 101q78 100 181 142.5t248 42.5zM886 445h-596q0 -82 21 -143t60 -98t91.5 -55t118.5 -18q139 0 220.5 78.5t84.5 235.5z" />
<glyph unicode="&#x1fa;" d="M589 1944l244 393l167 -148l-253 -245h-158zM699 1531q52 0 84 33t32 83q0 48 -32.5 83t-83.5 35t-84.5 -35t-33.5 -83q0 -50 33.5 -83t84.5 -33zM426 525h550l-275 755zM370 368l-134 -368h-172l523 1436q-60 32 -96.5 89.5t-36.5 126.5q0 94 75.5 169t169.5 75 q93 0 168 -75t75 -169q0 -45 -16.5 -87t-45 -74t-65.5 -53l525 -1438h-172l-134 368h-664z" />
<glyph unicode="&#x1fb;" horiz-adv-x="1117" d="M430 1742l243 394l168 -149l-254 -245h-157zM568 1176q-96 0 -171 72.5t-75 173.5q0 95 76 169.5t170 74.5q93 0 168 -75t75 -169q0 -101 -74.5 -173.5t-168.5 -72.5zM568 1301q51 0 83.5 33t32.5 84q0 31 -14.5 57.5t-41 43t-60.5 16.5q-51 0 -85 -35t-34 -82 q0 -50 33.5 -83.5t85.5 -33.5zM497 140q62 0 122.5 22.5t102 56.5t67.5 73.5t26 72.5v103q-49 20 -115 26t-167 3q-139 -5 -199.5 -51.5t-60.5 -137.5q0 -82 55.5 -125t168.5 -43zM460 -17q-96 0 -176.5 41t-126.5 110.5t-46 151.5v45q0 74 32.5 134.5t89 100.5t133 61.5 t165.5 21.5q106 0 168.5 -9.5t115.5 -28.5v122q0 87 -59.5 138.5t-187.5 51.5q-192 0 -318 -96l-86 134q171 118 408 118q191 0 297.5 -96t106.5 -282v-701h-161v146q-24 -62 -120 -112.5t-235 -50.5z" />
<glyph unicode="&#x1fc;" horiz-adv-x="2054" d="M1028 1684l242 393l168 -148l-254 -245h-156zM490 533h497v813zM-26 0l935 1527h1009v-157h-769v-518h618v-157h-618v-537h776v-158h-938v376h-593l-230 -376h-190z" />
<glyph unicode="&#x1fd;" horiz-adv-x="1887" d="M753 1247l242 394l168 -149l-254 -245h-156zM976 613h596q0 82 -21 143t-60 98t-91 55t-118 18q-139 0 -220.5 -78t-85.5 -236zM1299 -26q-124 0 -231 52t-173 150q-19 -29 -44 -55.5t-62.5 -52t-82 -44t-105 -30t-127.5 -11.5q-183 0 -287.5 85t-104.5 216v36 q0 98 57 172.5t150 112.5t206 38q189 0 281 -34v135q-1 39 -14.5 71t-41 58.5t-76.5 41t-115 14.5q-113 0 -194.5 -26t-121.5 -64l-94 131q58 47 163 78t251 31q286 0 370 -170q63 88 160.5 131.5t216.5 43.5q99 0 181 -30t144.5 -90t97.5 -159.5t35 -230.5v-116h-762 q1 -84 28 -148t73 -102t103 -57.5t123 -19.5q200 0 299 129l125 -100q-53 -68 -117.5 -109.5t-139.5 -59t-171 -17.5zM464 133q132 0 222 66t90 166v106q-104 43 -279 34q-82 -3 -141.5 -30t-88.5 -70.5t-29 -98.5q0 -83 60 -128t166 -45z" />
<glyph unicode="&#x1fe;" horiz-adv-x="1405" d="M544 1731l244 393l166 -148l-253 -245h-157zM279 671q0 -187 56 -308l626 938q-106 88 -262 88q-201 0 -310.5 -137.5t-109.5 -397.5v-183zM699 140q201 0 311 136.5t110 394.5v183q0 186 -57 307l-624 -935q99 -86 260 -86zM699 -17q-207 0 -350 109l-93 -139l-137 84 l117 176q-117 173 -117 458v183q0 132 27 243t77.5 194t121.5 140.5t160.5 86.5t193.5 29q207 0 350 -115l86 129l138 -86l-110 -166q119 -179 119 -455v-183q0 -165 -43 -296.5t-120.5 -216.5t-184 -130t-235.5 -45z" />
<glyph unicode="&#x1ff;" horiz-adv-x="1173" d="M433 1237l242 393l168 -148l-254 -245h-156zM290 476q0 -88 26 -156l433 553q-69 52 -166 52q-89 0 -154.5 -40t-102 -117.5t-36.5 -184.5v-107zM583 138q39 0 77.5 9.5t79.5 34.5t72 62t50.5 97t19.5 135v107q0 89 -30 161l-437 -555q72 -51 168 -51zM583 -19 q-148 0 -267 83l-92 -120l-127 97l110 140q-78 127 -78 297v105q0 116 35.5 211.5t97 157.5t144 96t177.5 34q146 0 264 -84l97 124l127 -96l-112 -144q84 -130 84 -299v-105q0 -71 -14 -134t-38.5 -112.5t-58.5 -91t-74.5 -70.5t-86 -49.5t-93 -30t-95.5 -9.5z" />
<glyph unicode="&#x218;" horiz-adv-x="1305" d="M654 -19q-94 0 -182.5 23.5t-157.5 63t-123 87t-92 101.5l120 103q93 -111 195.5 -166t239.5 -55q168 0 258 77.5t90 217.5q0 48 -9 86t-24 66.5t-43 49.5t-58 35.5t-77 25t-92.5 16.5t-111.5 12q-62 6 -121.5 26t-113 55t-94 80t-64.5 106t-24 129q0 195 135 312 t362 117q151 0 267.5 -50.5t190.5 -139.5l-121 -105q-43 58 -137 97.5t-198 39.5q-101 0 -176.5 -30t-118.5 -90.5t-43 -145.5q0 -51 17.5 -89t48 -64t80 -45t104.5 -30t131 -19q79 -9 145.5 -28.5t124 -55t97 -84.5t62 -119t22.5 -156q0 -112 -38.5 -199.5t-107.5 -142.5 t-161 -83.5t-202 -28.5zM538 -517v236q0 44 33.5 76.5t77.5 32.5q43 0 77.5 -32.5t34.5 -76.5q0 -19 -8 -39.5t-16.5 -33t-25 -33.5t-21.5 -28l-77 -102h-75z" />
<glyph unicode="&#x219;" horiz-adv-x="1075" d="M540 -26q-54 0 -87.5 1.5t-87 10.5t-95.5 25.5t-95 49t-104 79.5l105 118q131 -127 353 -127q120 0 184.5 43.5t64.5 126.5q0 40 -9 66.5t-28 45t-56 29.5t-86 16.5t-125 7.5q-99 3 -177.5 38t-127 103.5t-48.5 160.5q0 316 423 316q126 0 221.5 -37t155.5 -101 l-106 -121q-4 4 -11.5 11t-33 24.5t-54.5 31t-75 24.5t-95 11q-129 2 -197 -36.5t-68 -110.5q0 -81 74 -116.5t242 -41.5q341 -10 341 -321q0 -153 -101.5 -240t-296.5 -87zM413 -517v236q0 44 34 76.5t78 32.5q43 0 77 -32.5t34 -76.5q0 -16 -4.5 -31t-13 -29.5t-16 -25 t-19.5 -25.5t-17 -23l-78 -102h-75z" />
<glyph unicode="&#x21a;" horiz-adv-x="1242" d="M540 0v1370h-450v157h1063v-157h-449v-1370h-164zM513 -517v236q0 44 34.5 76.5t78.5 32.5q42 0 76.5 -32.5t34.5 -76.5q0 -19 -8 -39.5t-16 -32.5t-25 -34t-21 -28l-78 -102h-76z" />
<glyph unicode="&#x21b;" horiz-adv-x="718" d="M243 306v599h-167v155h167v358h161v-358h224v-155h-224v-604q0 -153 224 -153v-156h-62q-44 0 -89 12t-87 37.5t-75 62t-52.5 89t-19.5 113.5zM310 -513v234q0 44 33.5 76.5t77.5 32.5q17 0 33.5 -5.5t30.5 -16t25 -23.5t17 -30t6 -34q0 -19 -8 -39.5t-16.5 -33 t-25 -33.5t-21.5 -28l-77 -100h-75z" />
<glyph unicode="&#x2c6;" horiz-adv-x="712" d="M-15 1252l-86 75l234 239h181l232 -237l-90 -75l-232 152z" />
<glyph unicode="&#x2c7;" horiz-adv-x="806" d="M191 1262l-234 236l86 76l238 -154l236 152l87 -74l-232 -236h-181z" />
<glyph unicode="&#x2d8;" horiz-adv-x="837" d="M419 1266q-96 0 -199 55.5t-164 141.5l98 94q56 -60 129 -97.5t136 -37.5q44 0 90 15.5t90.5 46t84.5 73.5l98 -94q-59 -94 -159.5 -145.5t-203.5 -51.5z" />
<glyph unicode="&#x2d9;" horiz-adv-x="263" d="M133 1303q-48 0 -86.5 36.5t-38.5 88.5q0 51 39 89t86 38q49 0 87 -38t38 -89q0 -52 -37.5 -88.5t-87.5 -36.5z" />
<glyph unicode="&#x2da;" horiz-adv-x="363" d="M178 1168q-95 0 -169.5 72t-74.5 173q0 95 75 170t169 75q93 0 168 -75t75 -170q0 -101 -74 -173t-169 -72zM178 1293q35 0 61.5 15t41 41t14.5 59q0 48 -33 83.5t-84 35.5q-33 0 -60.5 -17t-42.5 -44t-15 -58q0 -50 33.5 -82.5t84.5 -32.5z" />
<glyph unicode="&#x2db;" horiz-adv-x="983" d="M697 -505h-196q-46 0 -86.5 19t-66 52.5t-36.5 74.5t3.5 90t54.5 95q19 22 87.5 97t86.5 96q7 8 16 14.5t18.5 10t19.5 5.5t18.5 2.5t15.5 0.5h11l4 -1l59 -94l-201 -219q-23 -25 -30.5 -44t4.5 -31t46 -12h172v-156z" />
<glyph unicode="&#x2dc;" horiz-adv-x="702" d="M-74 1219q12 82 78.5 145.5t163.5 67.5q61 4 113.5 -8t81 -28.5t58.5 -29.5t53 -12q47 2 80 23.5t39 50.5l113 -39q0 -13 -5 -31.5t-15.5 -39.5t-28.5 -41.5t-40.5 -38t-54.5 -29t-67 -13.5q-46 -2 -91.5 10.5t-76.5 29t-70.5 30t-73.5 12.5q-116 -8 -148 -94z" />
<glyph unicode="&#x2dd;" horiz-adv-x="605" d="M351 1243l195 391l164 -118l-211 -273h-148zM10 1243l199 391l161 -118l-208 -273h-152z" />
<glyph unicode="&#x1e80;" horiz-adv-x="1947" d="M970 1602l-275 263l163 135l271 -398h-159zM468 0l-419 1527h168l347 -1246l361 1106h113l355 -1118l336 1258h167l-408 -1527h-179l-328 1043l-334 -1043h-179z" />
<glyph unicode="&#x1e81;" horiz-adv-x="1551" d="M778 1225l-275 263l164 135l271 -398h-160zM433 0l-345 1058h170l249 -770l222 770h129l238 -768l235 768h171l-326 -1058h-156l-220 699l-215 -699h-152z" />
<glyph unicode="&#x1e82;" horiz-adv-x="1947" d="M852 1647l242 394l168 -149l-253 -245h-157zM468 0l-419 1527h168l347 -1246l361 1106h113l355 -1118l336 1258h167l-408 -1527h-179l-328 1043l-334 -1043h-179z" />
<glyph unicode="&#x1e83;" horiz-adv-x="1551" d="M600 1247l243 394l168 -149l-254 -245h-157zM419 0l-343 1058h169l250 -770l221 770h129l239 -768l234 768h170l-325 -1058h-157l-218 699l-216 -699h-153z" />
<glyph unicode="&#x1e84;" horiz-adv-x="1947" d="M1202 1630q-44 0 -79 34.5t-35 81.5q0 31 16.5 58t43 42t54.5 15q46 0 81 -34t35 -81t-35 -81.5t-81 -34.5zM761 1630q-44 0 -79 34.5t-35 81.5q0 31 16.5 58t43 42t54.5 15q46 0 81.5 -34t35.5 -81t-35.5 -81.5t-81.5 -34.5zM468 0l-419 1527h168l347 -1246l361 1106 h113l355 -1118l336 1258h167l-408 -1527h-179l-328 1043l-334 -1043h-179z" />
<glyph unicode="&#x1e85;" horiz-adv-x="1551" d="M989 1293q-44 0 -78.5 34t-34.5 81q0 31 16 57.5t42 41.5t55 15q46 0 81.5 -33.5t35.5 -80.5q0 -31 -17 -58t-43.5 -42t-56.5 -15zM548 1293q-44 0 -78.5 34t-34.5 81t34.5 80.5t78.5 33.5q46 0 81.5 -33.5t35.5 -80.5q0 -31 -17 -58t-43.5 -42t-56.5 -15zM433 0 l-345 1058h170l249 -770l222 770h129l238 -768l235 768h171l-326 -1058h-156l-220 699l-215 -699h-152z" />
<glyph unicode="&#x1ef2;" horiz-adv-x="1293" d="M669 1647l-275 263l162 135l271 -398h-158zM566 0v611l-512 916h184l409 -731l407 731h185l-512 -916v-611h-161z" />
<glyph unicode="&#x1ef3;" horiz-adv-x="1126" d="M597 1221l-275 263l164 135l271 -398h-160zM127 -394l47 151q110 -36 166 -10.5t95 126.5q1 3 23 63t22 62l-404 1060h174l312 -834l318 834h171l-483 -1267q-21 -56 -51.5 -98t-66 -65.5t-75 -36.5t-82 -13t-83.5 7t-83 21z" />
<glyph unicode="&#x2000;" horiz-adv-x="1168" />
<glyph unicode="&#x2001;" horiz-adv-x="2337" />
<glyph unicode="&#x2002;" horiz-adv-x="1168" />
<glyph unicode="&#x2003;" horiz-adv-x="2337" />
<glyph unicode="&#x2004;" horiz-adv-x="779" />
<glyph unicode="&#x2005;" horiz-adv-x="584" />
<glyph unicode="&#x2006;" horiz-adv-x="389" />
<glyph unicode="&#x2007;" horiz-adv-x="389" />
<glyph unicode="&#x2008;" horiz-adv-x="292" />
<glyph unicode="&#x2009;" horiz-adv-x="467" />
<glyph unicode="&#x200a;" horiz-adv-x="129" />
<glyph unicode="&#x2010;" horiz-adv-x="930" d="M135 542v162h661v-162h-661z" />
<glyph unicode="&#x2011;" horiz-adv-x="930" d="M135 542v162h661v-162h-661z" />
<glyph unicode="&#x2012;" horiz-adv-x="930" d="M135 542v162h661v-162h-661z" />
<glyph unicode="&#x2013;" horiz-adv-x="1171" d="M154 540v161h861v-161h-861z" />
<glyph unicode="&#x2014;" horiz-adv-x="1997" d="M254 540v161h1490v-161h-1490z" />
<glyph unicode="&#x2018;" horiz-adv-x="449" d="M209 1082q-50 0 -83.5 30.5t-33.5 79.5q0 14 3.5 29t6.5 24t10.5 27.5t10.5 26.5l107 228h86v-333q0 -34 -14 -60t-38 -39t-55 -13z" />
<glyph unicode="&#x2019;" horiz-adv-x="449" d="M133 1106v332q0 50 30.5 81.5t76.5 31.5q51 0 84 -31.5t33 -81.5q0 -9 -1.5 -19t-2.5 -16.5t-5.5 -18t-5.5 -15t-7.5 -18.5t-7.5 -17l-108 -228h-86z" />
<glyph unicode="&#x201a;" horiz-adv-x="361" d="M230 428q56 -329 56 -336q0 -53 -28 -86.5t-75 -33.5q-30 0 -54.5 16t-38.5 44t-14 60l57 336h97z" />
<glyph unicode="&#x201c;" horiz-adv-x="799" d="M209 1082q-50 0 -83.5 30.5t-33.5 79.5q0 14 3.5 29t6.5 24t10.5 27.5t10.5 26.5l107 228h86v-333q0 -34 -14 -60t-38 -39t-55 -13zM559 1082q-51 0 -83.5 30.5t-32.5 79.5q0 14 3 29t6 24t11 27.5t11 26.5l107 228h86v-333q0 -51 -30.5 -81.5t-77.5 -30.5z" />
<glyph unicode="&#x201d;" horiz-adv-x="799" d="M170 1106v332q0 50 30.5 81.5t76.5 31.5q25 0 46.5 -8.5t37 -23t24.5 -35.5t9 -46q0 -9 -1.5 -19t-2.5 -16.5t-5.5 -18t-5.5 -15t-8 -18.5t-8 -17l-107 -228h-86zM521 1106v332q0 33 13.5 58.5t38 40t55.5 14.5q50 0 83 -31.5t33 -81.5q0 -9 -1 -19t-2 -16.5t-5.5 -18 t-6 -15t-8 -18.5t-7.5 -17l-107 -228h-86z" />
<glyph unicode="&#x201e;" horiz-adv-x="698" d="M230 428q56 -329 56 -336q0 -53 -28 -86.5t-75 -33.5q-30 0 -54.5 16t-38.5 44t-14 60l57 336h97zM568 428q56 -329 56 -336q0 -53 -28 -86.5t-75 -33.5q-30 0 -54.5 16t-39 44t-14.5 60l58 336h97z" />
<glyph unicode="&#x2020;" horiz-adv-x="1051" d="M454 372v697h-282v140h282v299h143v-299h283v-140h-283v-697h-143z" />
<glyph unicode="&#x2022;" horiz-adv-x="661" d="M333 570q-70 0 -126.5 53t-56.5 126q0 72 57 127t126 55t123.5 -54.5t54.5 -127.5t-54.5 -126t-123.5 -53z" />
<glyph unicode="&#x2026;" horiz-adv-x="1510" d="M1172 -17q-51 0 -90 38.5t-39 92.5q0 53 39 89.5t90 36.5q32 0 61.5 -16t48.5 -45.5t19 -64.5t-19 -65.5t-48.5 -48t-61.5 -17.5zM724 -17q-50 0 -89.5 38.5t-39.5 92.5q0 53 39.5 89.5t89.5 36.5t90 -36.5t40 -89.5t-40 -92t-90 -39zM260 -17q-49 0 -89 39t-40 92 t40 89.5t89 36.5q50 0 91 -37t41 -89q0 -53 -41 -92t-91 -39z" />
<glyph unicode="&#x202f;" horiz-adv-x="467" />
<glyph unicode="&#x2039;" horiz-adv-x="796" d="M471 234l-299 340v103l299 343l112 -99l-250 -295l250 -293z" />
<glyph unicode="&#x203a;" horiz-adv-x="796" d="M327 1032l299 -340v-103l-299 -341l-112 98l249 294l-249 293z" />
<glyph unicode="&#x205f;" horiz-adv-x="584" />
<glyph unicode="&#x20ac;" horiz-adv-x="1584" d="M942 -26q-137 0 -251.5 41t-197.5 116t-139 176.5t-83 225.5l-183 3l6 145h156q0 13 -1.5 38t-1.5 46t3 39h-162l6 150h168q23 134 80 243.5t144 189t209 122.5t269 42q303 -3 481 -194l-66 -155q-86 84 -185.5 130.5t-225.5 46.5q-105 0 -193.5 -31.5t-151.5 -89 t-106 -134t-65 -170.5h826l-59 -150h-784q0 -104 2 -123h726l-57 -148h-640q20 -83 61 -152.5t101.5 -122t144 -81.5t181.5 -29q107 0 195 27.5t193 84.5v-191q-159 -95 -400 -95z" />
<glyph unicode="&#x2190;" horiz-adv-x="1863" d="M813 109l-608 622l608 613l123 -119l-419 -414h1083v-166h-1081l419 -417z" />
<glyph unicode="&#x2191;" horiz-adv-x="1346" d="M583 2v1241l-415 -420l-119 123l616 609l621 -609l-118 -125l-419 420v-1239h-166z" />
<glyph unicode="&#x2192;" horiz-adv-x="1855" d="M1034 88l-123 119l420 419h-1081v166h1084l-423 414l123 119l609 -613z" />
<glyph unicode="&#x2193;" horiz-adv-x="1346" d="M665 -28l-616 609l119 123l415 -423v1241h166v-1238l419 422l118 -125z" />
<glyph unicode="&#x2212;" horiz-adv-x="1358" d="M1166 628h-973v157h973v-157z" />
<glyph unicode="&#x25fc;" horiz-adv-x="1053" d="M0 1054h1054v-1054h-1054v1054z" />
<glyph unicode="&#xf6c3;" horiz-adv-x="1040" d="M394 -507v234q0 44 33.5 76.5t77.5 32.5q43 0 77.5 -32.5t34.5 -76.5q0 -19 -8 -39.5t-16.5 -32.5t-25 -33.5t-21.5 -27.5l-78 -101h-74z" />
<glyph horiz-adv-x="1053" d="M597 671v-299h-143v299h-282v140h282v258h-280v140h280v299h143v-299h285v-140h-285v-258h283v-140h-283z" />
<glyph horiz-adv-x="1365" d="M1075 -250l-215 256q-84 -25 -179 -25t-179.5 25.5t-157.5 79.5t-126 133.5t-83 194t-30 253.5v189q0 168 43.5 301t121.5 218.5t182.5 130.5t228.5 45q123 0 228 -47t183 -134t122 -219.5t44 -294.5v-189q0 -193 -57 -335t-158 -227l190 -224zM681 178q175 0 272.5 127 t97.5 360v191q0 235 -97 362.5t-275 127.5q-175 0 -271 -126t-96 -364v-191q0 -233 95.5 -360t273.5 -127z" />
<glyph horiz-adv-x="1122" d="M544 -322h-176l58 316h13q-141 45 -225.5 167t-84.5 307v121q0 106 34 196.5t92.5 153t138 100t170.5 43.5l53 297h187l-67 -310q206 -52 280 -254l-151 -60q-18 60 -61 99.5t-95 56t-115 16.5q-66 0 -122.5 -24t-97 -67.5t-63 -106t-22.5 -136.5v-129q0 -161 83.5 -249 t221.5 -88q202 0 275 148l152 -58q-60 -123 -167.5 -185t-245.5 -62z" />
<glyph horiz-adv-x="1305" d="M763 -286h-172v269q-159 15 -288.5 92t-203.5 181l131 122q188 -226 424 -226q155 0 249.5 75t94.5 192q0 45 -8.5 81t-24 64t-42 49.5t-57.5 37t-76 27.5t-92.5 20.5t-110.5 15.5q-206 24 -317.5 129.5t-111.5 276.5q0 183 115 294t318 130v243h172v-243 q245 -24 376 -185l-126 -114q-43 59 -135.5 97.5t-208.5 38.5q-155 0 -245.5 -65t-90.5 -191q0 -52 17.5 -90.5t47 -63.5t80 -43.5t103.5 -29t131 -20.5q81 -10 146.5 -28.5t125.5 -53t100.5 -84t64.5 -123.5t25 -168q0 -97 -31 -174.5t-87 -130t-129.5 -84.5t-163.5 -45 v-273z" />
<glyph horiz-adv-x="796" d="M88 -383q0 87 9 152t32.5 128.5t68 116t112.5 97.5q27 18 62.5 40.5t53.5 34t40.5 27.5t33.5 26t21.5 23t14.5 26t4 28q0 52 -41 88.5t-97 36.5q-37 0 -67 -13.5t-49 -36.5t-30.5 -48t-17.5 -53l-152 39q19 109 107 188.5t207 79.5q64 0 120.5 -23.5t96 -63t62 -91 t22.5 -105.5q0 -31 -7 -59.5t-16.5 -50t-29 -44t-34 -37t-42.5 -34t-44.5 -30t-48.5 -29.5q-17 -10 -25 -15q-4 -3 -19 -11.5t-23 -14t-23.5 -16t-25.5 -19t-24.5 -21.5t-23.5 -25t-19.5 -28t-16.5 -31.5t-10 -35t-4 -39.5h447v-157h-624z" />
</font>
</defs>
</svg>
